<REAPER_PROJECT 0.1 "5.23/x64" 1512588766
  RIPPLE 0
  GROUPOVERRIDE 0 0 0
  AUTOXFADE 1
  ENVATTACH 1
  MIXERUIFLAGS 11 48
  PEAKGAIN 1
  FEEDBACK 0
  PANLAW 1
  PROJOFFS 0 0
  MAXPROJLEN 0 600
  GRID 3199 8 1 8 1 0 0
  TIMEMODE 1 5 -1 30 0
  VIDEO_CONFIG 0 0 256
  PANMODE 3
  CURSOR 20
  ZOOM 2.03002256654657 0 0
  VZOOMEX 6
  USE_REC_CFG 0
  RECMODE 1
  SMPTESYNC 0 30 100 40 1000 300 0 0 1
  MIDIEDITOR 540291616 0 0
  LOOP 0
  LOOPGRAN 0 4
  RECORD_PATH "" ""
  <RECORD_CFG
  >
  <APPLYFX_CFG
  >
  RENDER_FILE ""
  RENDER_PATTERN ""
  RENDER_FMT 0 2 0
  RENDER_1X 0
  RENDER_RANGE 1 0 0 18 1000
  RENDER_RESAMPLE 3 0 1
  RENDER_ADDTOPROJ 0
  RENDER_STEMS 0
  RENDER_DITHER 0
  TIMELOCKMODE 1
  TEMPOENVLOCKMODE 1
  ITEMMIX 0
  DEFPITCHMODE 589824
  TAKELANE 1
  SAMPLERATE 44100 0 0
  <RENDER_CFG
  >
  LOCK 1
  <METRONOME 6 2
    VOL 0.25 0.125
    FREQ 800 1600 1
    BEATLEN 4
    SAMPLES "" ""
    PATTERN 2863311530 2863311529
  >
  GLOBAL_AUTO -1
  TEMPO 120 4 4
  PLAYRATE 1 0 0.25 4
  SELECTION 0 0
  SELECTION2 0 0
  MASTERAUTOMODE 0
  MASTERTRACKHEIGHT 0
  MASTERPEAKCOL 16576
  MASTERMUTESOLO 0
  MASTERTRACKVIEW 0 0.6667 0.5 0.5 0 0 0
  MASTERHWOUT 0 0 1 0 0 0 0 -1
  MASTER_NCH 2 2
  MASTER_VOLUME 1 0 -1 -1 1
  MASTER_FX 1
  MASTER_SEL 0
  <MASTERPLAYSPEEDENV
    ACT 0
    VIS 0 1 1
    LANEHEIGHT 0 0
    ARM 0
    DEFSHAPE 0 -1 -1
  >
  <TEMPOENVEX
    ACT 0
    VIS 1 0 1
    LANEHEIGHT 0 0
    ARM 0
    DEFSHAPE 1 -1 -1
  >
  <PROJBAY
  >
  <TRACK {03CB7710-CD08-4DEA-A81E-A9387F81FFD5}
    NAME "Classic Electric Piano"
    PEAKCOL 16576
    BEAT -1
    AUTOMODE 0
    VOLPAN 1 0 -1 -1 1
    MUTESOLO 0 0 0
    IPHASE 0
    ISBUS 0 0
    BUSCOMP 0 0
    SHOWINMIX 1 0.6667 0.5 1 0.5 0 0 0
    FREEMODE 0
    SEL 0
    REC 0 4288 2 0 0 0 0
    VU 2
    TRACKHEIGHT 0 0
    INQ 0 0 0 0.5 100 0 0 100
    NCHAN 2
    FX 1
    TRACKID {03CB7710-CD08-4DEA-A81E-A9387F81FFD5}
    PERF 0
    MIDIOUT 128
    MAINSEND 1 0
    <FXCHAIN
      WNDRECT 24 52 1075 635
      SHOW 0
      LASTSEL 0
      DOCKED 0
      BYPASS 0 0 0
      <VST "VSTi: sforzando (Plogue Art et Technologie, Inc)" "sforzando VST_x64.dll" 0 "" 1347176273
        UUdMUO5e7f4AAAAAAgAAAAEAAAAAAAAAAgAAAAAAAADDAQAAAQAAAAAAEAA=
        Q0VHUKkEAAB4nI2UTW+jMBCG75X6HyzfGzAkaZDCVt22qlAVtRLd82piRom1/kjBoObfdyAJ5bAVcPK8fjwfL5j13afRrMGyUs6mXMxCzu5+XV+t70sFOTQ42EvimLND
        6Ypa+uyRhFDMObGMnnWO3iu7q9hHDVr5I21zVvkSwZCc8jjizMBn3in3Wju5+Z3yhSB5kz1mr7XfuAK7U1B7Z8BT0Vw7n/JwKGlsUKdcWcpdG7SeM60aPB0mspIpj9rS
        EjSQItgNw7anWSX1WX6gY1imfEn8Trst6Pfadl2SEPQTUXGmik60YCh97iz1YIHlR3PYO6skey3lHqkVCF7wWFGt5xJswd4UWMfZFuy/jDIswpCS9E7SWu7B2naQG+r1
        4DT5tZxz5r/7OGz/UqodnhEqYatuwwyWTnp6R/3gIiGt9p1wHqMbZQPKXkZpQNcnn4P/IqJHwp+QaByJx5H5OLIYR5bjyO04shpHknFEhBOYCf6KCQaLCQ6LCRaLnz1+
        gxLMudig69lKiDCKF0mUzFeJiJeDOxO0l+YSPP/JLh8dSE+XNPu+z1381McVapQei3fYnr73NuM6uPyEKPgCEgk6yQ==
        AAAQAAAA
      >
      FLOATPOS 0 0 0 0
      FXID {E11A41DA-A796-4CF0-AF33-B6AAA7528700}
      WAK 0
    >
    <ITEM
      POSITION 0
      SNAPOFFS 0
      LENGTH 186
      LOOP 1
      ALLTAKES 0
      FADEIN 1 0 0 1 0 0
      FADEOUT 1 0 0 1 0 0
      MUTE 0
      SEL 1
      IGUID {56280B10-9603-4559-8765-421785CB0C39}
      IID 1
      NAME "Classic Electric Piano - SW - Cantina Band.mid"
      VOLPAN 1 0 1 -1
      SOFFS 1 2
      PLAYRATE 1 1 0 -1 0 0.0025
      CHANMODE 0
      GUID {1AEFFCE9-DB91-4F2C-8F84-D4583F71C6A6}
      <SOURCE MIDI
        HASDATA 1 480 QN
        POOLEDEVTS {CBA4161E-298D-40B9-AF4A-E255C00F4CB8}
        <X 0 0
          /1kCAAA=
        >
        E 990 b0 42 7d
        E 30 b0 42 7d
        E 30 b0 42 7d
        E 4 90 51 30
        E 26 b0 42 7d
        E 30 b0 42 7d
        E 30 b0 42 7d
        E 30 b0 42 7d
        E 30 b0 42 7d
        E 30 b0 42 7d
        E 30 b0 42 7d
        E 30 b0 42 7d
        E 30 b0 42 7d
        E 30 b0 42 7d
        E 30 b0 42 7d
        E 30 b0 42 7d
        E 30 b0 42 7d
        E 30 b0 42 7d
        E 30 b0 42 7d
        E 18 90 56 35
        E 12 b0 42 7d
        E 19 90 3e 23
        E 11 b0 42 7d
        E 12 80 51 00
        E 18 b0 42 7d
        E 30 b0 42 7d
        E 30 b0 42 7d
        E 30 b0 42 7d
        E 30 b0 42 7d
        E 30 b0 42 7d
        E 30 b0 42 7d
        E 30 b0 42 7d
        E 30 b0 42 7d
        E 30 b0 42 7d
        E 30 b0 42 7d
        E 15 90 45 23
        E 15 b0 42 7d
        E 30 b0 42 7d
        E 30 b0 42 7d
        E 30 b0 42 7d
        E 1 80 3e 00
        E 29 b0 42 7d
        E 30 b0 42 7d
        E 30 b0 42 7d
        E 30 b0 42 7d
        E 30 b0 42 7d
        E 30 b0 42 7d
        E 30 b0 42 7d
        E 30 b0 42 7d
        E 30 b0 42 7d
        E 30 b0 42 7d
        E 30 b0 42 7d
        E 30 b0 42 7d
        E 30 b0 42 7d
        E 30 b0 42 7d
        E 30 b0 42 7d
        E 30 b0 42 7d
        E 30 b0 42 7d
        E 30 b0 42 7d
        E 30 b0 42 7d
        E 30 b0 42 7d
        E 30 b0 42 7d
        E 30 b0 42 7d
        E 30 b0 42 7d
        E 30 b0 42 7d
        E 30 b0 42 7d
        E 30 b0 42 7d
        E 30 b0 42 7d
        E 30 b0 42 7d
        E 30 b0 42 7d
        E 30 b0 42 7d
        E 30 b0 42 7d
        E 30 b0 42 7d
        E 30 b0 42 7d
        E 30 b0 42 7d
        E 30 b0 42 7d
        E 30 b0 42 7d
        E 30 b0 42 7d
        E 18 90 3e 2d
        E 4 90 58 4d
        E 8 b0 42 7d
        E 5 80 45 00
        E 25 b0 42 7d
        E 30 b0 42 7d
        E 30 b0 42 7d
        E 30 b0 42 7d
        E 21 80 56 00
        E 9 b0 42 7d
        E 30 b0 42 7d
        E 30 b0 42 7d
        E 30 b0 42 7d
        E 30 b0 42 7d
        E 30 b0 42 7d
        E 24 80 3e 00
        E 6 b0 42 7d
        E 30 b0 42 7d
        E 2 90 46 32
        E 28 b0 42 7d
        E 30 b0 42 7d
        E 30 b0 42 7d
        E 30 b0 42 7d
        E 30 b0 42 7d
        E 30 b0 42 7d
        E 30 b0 42 7d
        E 30 b0 42 7d
        E 30 b0 42 7d
        E 14 80 58 00
        E 16 b0 42 7d
        E 30 b0 42 7d
        E 30 b0 42 7d
        E 25 90 4d 1d
        E 5 b0 42 7d
        E 30 b0 42 7d
        E 30 b0 42 7d
        E 30 b0 42 7d
        E 30 b0 42 7d
        E 30 b0 42 7d
        E 30 b0 42 7d
        E 26 80 46 00
        E 4 b0 42 7d
        E 6 80 4d 00
        E 24 b0 42 7d
        E 30 b0 42 7d
        E 30 b0 42 7d
        E 30 b0 42 7c
        E 30 b0 42 7c
        E 30 b0 42 7b
        E 30 b0 42 7b
        E 30 b0 42 7a
        E 30 b0 42 7a
        E 30 b0 42 79
        E 13 90 59 2d
        E 17 b0 42 79
        E 30 b0 42 78
        E 5 80 59 00
        E 25 b0 42 77
        E 15 90 5b 3e
        E 15 b0 42 76
        E 30 b0 42 75
        E 30 b0 42 74
        E 25 90 59 54
        E 5 b0 42 72
        E 4 90 3e 33
        E 26 b0 42 71
        E 9 80 5b 00
        E 21 b0 42 70
        E 30 b0 42 6f
        E 30 b0 42 6e
        E 30 b0 42 6c
        E 30 b0 42 6b
        E 30 b0 42 69
        E 30 b0 42 68
        E 30 b0 42 66
        E 30 b0 42 65
        E 8 80 3e 00
        E 22 b0 42 63
        E 30 b0 42 62
        E 4 90 45 2a
        E 26 b0 42 52
        E 17 80 45 00
        E 13 b0 42 51
        E 30 b0 42 50
        E 30 b0 42 4e
        E 30 b0 42 4d
        E 30 b0 42 4c
        E 30 b0 42 79
        E 176 90 4d 2c
        E 152 80 4d 00
        E 740 90 41 2f
        E 9 90 51 37
        E 2 90 3a 28
        E 5 90 45 1d
        E 328 80 59 00
        E 565 80 51 00
        E 341 80 3a 00
        E 148 90 51 40
        E 91 80 45 00
        E 35 80 41 00
        E 514 90 56 47
        E 15 90 39 2f
        E 54 80 51 00
        E 356 80 39 00
        E 28 90 41 36
        E 334 90 4a 40
        E 23 80 56 00
        E 192 80 41 00
        E 66 90 58 4b
        E 166 80 4a 00
        E 137 90 59 4e
        E 73 80 58 00
        E 191 90 51 4d
        E 12 80 59 00
        E 109 80 51 00
        E 150 90 59 54
        E 5 90 3e 42
        E 3 90 45 43
        E 209 90 56 4c
        E 42 80 45 00
        E 37 80 59 00
        E 78 80 3e 00
        E 65 80 56 00
        E 8 90 5d 5d
        E 228 80 5d 00
        E 54 90 53 3e
        E 53 90 56 40
        E 35 90 43 32
        E 13 90 5b 57
        E 325 80 43 00
        E 392 90 37 47
        E 155 80 37 00
        E 642 90 2b 4c
        E 71 80 5b 00
        E 3 80 53 00
        E 96 80 56 00
        E 381 80 2b 00
        E 300 90 51 50
        E 876 90 56 56
        E 8 90 26 4f
        E 3 90 32 42
        E 80 80 51 00
        E 52 80 26 00
        E 66 80 32 00
        E 213 90 45 45
        E 315 80 56 00
        E 29 90 4d 57
        E 205 80 4d 00
        E 118 90 58 55
        E 27 80 45 00
        E 63 80 58 00
        E 257 90 4d 44
        E 13 90 51 43
        E 10 90 4a 43
        E 3 90 3e 40
        E 5 90 45 41
        E 30 90 59 57
        E 270 80 59 00
        E 22 80 4d 00
        E 20 90 56 5b
        E 43 80 4a 00
        E 13 80 51 00
        E 15 80 3e 00
        E 36 80 45 00
        E 8 80 56 00
        E 183 90 51 37
        E 52 90 54 4c
        E 17 90 48 3e
        E 9 90 45 46
        E 3 90 3c 40
        E 16 90 5d 5a
        E 277 80 51 00
        E 19 80 5d 00
        E 51 90 59 5d
        E 38 80 48 00
        E 17 80 54 00
        E 43 80 3c 00
        E 26 80 59 00
        E 96 80 45 00
        E 142 90 56 3b
        E 67 90 59 40
        E 19 90 3b 3a
        E 49 90 62 5b
        E 269 80 3b 00
        E 56 90 45 29
        E 68 80 45 00
        E 377 90 4d 2b
        E 145 80 62 00
        E 163 80 59 00
        E 88 80 56 00
        E 526 90 56 2b
        E 868 90 59 52
        E 71 80 56 00
        E 234 90 58 3a
        E 28 80 4d 00
        E 45 80 59 00
        E 215 90 56 35
        E 11 80 58 00
        E 44 80 56 00
        E 339 90 5d 46
        E 17 90 51 38
        E 4 90 4d 28
        E 11 90 45 28
        E 779 80 4d 00
        E 65 80 45 00
        E 260 80 5d 00
        E 7 90 59 3c
        E 78 80 51 00
        E 238 90 56 3a
        E 57 80 59 00
        E 342 90 45 26
        E 8 90 51 3a
        E 37 80 56 00
        E 178 80 51 00
        E 203 90 39 3e
        E 9 80 45 00
        E 243 80 39 00
        E 228 90 2d 49
        E 488 90 21 47
        E 223 80 2d 00
        E 410 90 15 44
        E 46 80 21 00
        E 371 80 15 00
        E 33 90 21 38
        E 146 80 21 00
        E 72 90 15 2b
        E 101 80 15 00
        E 49 90 21 2f
        E 92 80 21 00
        E 160 90 21 41
        E 68 80 21 00
        E 56 90 15 3a
        E 68 80 15 00
        E 33 90 21 47
        E 38 80 21 00
        E 66 90 15 3e
        E 39 80 15 00
        E 45 90 21 4a
        E 39 80 21 00
        E 57 90 15 4c
        E 69 80 15 00
        E 26 90 21 4c
        E 61 80 21 00
        E 36 90 15 4a
        E 78 80 15 00
        E 6 90 21 56
        E 93 80 21 00
        E 27 90 15 5b
        E 76 90 21 54
        E 4 80 15 00
        E 84 80 21 00
        E 28 90 15 57
        E 135 80 15 00
        E 19 90 21 4c
        E 26 90 15 57
        E 39 80 21 00
        E 55 90 21 4c
        E 23 80 15 00
        E 42 80 21 00
        E 177 90 3f 31
        E 19 90 32 46
        E 8 90 3e 4c
        E 10 90 45 4f
        E 84 80 3f 00
        E 1 80 3e 00
        E 28 80 45 00
        E 16 80 32 00
        E 49 90 39 36
        E 16 90 35 3e
        E 39 80 35 00
        E 30 80 39 00
        E 109 90 2d 48
        E 127 80 2d 00
        E 78 90 39 3a
        E 6 90 35 3a
        E 37 80 35 00
        E 4 80 39 00
        E 167 90 32 47
        E 128 80 32 00
        E 80 90 39 38
        E 3 90 35 3d
        E 44 80 39 00
        E 5 80 35 00
        E 165 90 2d 40
        E 138 80 2d 00
        E 66 90 39 36
        E 4 90 35 3a
        E 39 80 39 00
        E 1 80 35 00
        E 172 90 32 4b
        e 81 b0 42 00
        E 59 80 32 00
        E 71 90 35 37
        E 2 90 39 2c
        E 46 80 39 00
        E 8 80 35 00
        E 155 90 2d 3c
        E 128 80 2d 00
        E 82 90 35 37
        E 5 90 39 2f
        E 42 80 35 00
        E 2 80 39 00
        E 163 90 32 43
        E 125 80 32 00
        E 94 90 35 36
        E 8 90 39 1f
        E 36 80 35 00
        E 16 80 39 00
        E 150 90 2d 3c
        E 123 80 2d 00
        E 84 90 35 38
        E 13 90 39 29
        E 40 80 35 00
        E 4 80 39 00
        E 158 90 32 4b
        E 19 90 4a 3e
        E 11 90 51 40
        E 9 90 4d 32
        E 50 80 4d 00
        E 18 80 4a 00
        E 51 80 51 00
        E 24 80 32 00
        E 41 90 35 40
        E 2 90 39 35
        E 1 90 56 4c
        E 9 90 4d 26
        E 5 90 51 3c
        E 40 80 39 00
        E 4 80 51 00
        E 42 80 35 00
        E 2 80 56 00
        E 9 80 4d 00
        E 96 90 2d 47
        E 20 90 51 4e
        E 2 90 4a 42
        E 10 90 4d 34
        E 33 80 4d 00
        E 34 80 4a 00
        E 43 80 51 00
        E 22 80 2d 00
        E 61 90 35 44
        E 2 90 39 44
        E 13 90 51 43
        E 3 90 4d 40
        E 3 90 56 50
        E 63 80 39 00
        E 20 80 35 00
        E 15 80 56 00
        E 14 80 4d 00
        E 35 80 51 00
        E 59 90 51 4d
        E 1 90 4a 3b
        E 5 90 32 4c
        E 8 90 4d 24
        E 33 80 4a 00
        E 2 80 4d 00
        E 38 80 51 00
        E 40 90 4d 3b
        E 5 90 51 43
        E 18 90 56 49
        E 41 80 56 00
        E 18 80 4d 00
        E 14 90 35 3e
        E 2 80 51 00
        E 1 80 32 00
        E 2 90 39 38
        E 97 80 39 00
        E 2 90 56 49
        E 4 90 51 3a
        E 4 90 4d 3e
        E 32 80 35 00
        E 1 90 4a 35
        E 38 80 51 00
        E 47 90 2d 40
        E 3 80 56 00
        E 94 80 4a 00
        E 10 90 50 51
        E 95 80 4d 00
        E 7 80 2d 00
        E 10 90 51 4e
        E 2 90 35 43
        E 19 90 39 3a
        E 21 80 50 00
        E 18 80 39 00
        E 5 80 35 00
        E 9 80 51 00
        E 137 90 51 4c
        E 15 90 32 43
        E 3 90 4a 3d
        E 65 80 51 00
        E 50 90 50 4c
        E 56 80 4a 00
        E 24 80 32 00
        E 3 90 51 46
        E 11 90 35 3c
        E 21 80 50 00
        E 6 90 39 31
        E 14 80 51 00
        E 17 80 35 00
        E 51 80 39 00
        E 31 90 4f 5a
        E 3 90 4c 55
        E 12 90 48 46
        E 81 90 30 41
        E 104 80 30 00
        E 22 80 4f 00
        E 11 90 4e 50
        E 59 80 48 00
        E 25 80 4c 00
        E 58 90 4f 4e
        E 4 80 4e 00
        E 19 90 3a 40
        E 19 90 3c 37
        E 3 90 37 2d
        E 32 80 3c 00
        E 10 90 4e 59
        E 3 80 37 00
        E 20 80 3a 00
        E 14 80 4f 00
        E 49 80 4e 00
        E 80 90 35 56
        E 7 90 4d 5c
        E 3 90 45 55
        E 4 90 48 52
        E 120 80 45 00
        E 5 80 48 00
        E 11 80 4d 00
        E 60 80 35 00
        E 20 90 39 49
        E 12 90 3c 45
        E 105 80 3c 00
        E 2 80 39 00
        E 20 90 4a 5a
        E 3 90 45 52
        E 3 90 41 53
        E 67 80 41 00
        E 17 80 45 00
        E 46 80 4a 00
        E 1 90 30 3d
        E 191 80 30 00
        E 15 90 39 48
        E 3 90 3c 44
        E 31 80 39 00
        E 13 80 3c 00
        E 173 90 32 49
        E 12 90 4a 34
        E 5 90 4d 36
        E 4 90 51 4c
        E 46 80 4a 00
        E 46 80 4d 00
        E 21 80 51 00
        E 42 80 32 00
        E 63 90 39 39
        E 2 90 35 41
        E 17 90 4d 34
        E 2 90 56 4c
        E 4 90 51 45
        E 44 80 51 00
        E 4 80 4d 00
        E 3 80 39 00
        E 33 80 56 00
        E 8 80 35 00
        E 125 90 2d 45
        E 15 90 4a 38
        E 4 90 51 46
        E 8 90 4d 2d
        E 29 80 4a 00
        E 2 80 4d 00
        E 66 80 51 00
        E 50 80 2d 00
        E 54 90 39 44
        E 3 90 35 44
        E 14 90 51 48
        E 2 90 4d 3c
        E 2 90 56 4d
        E 67 80 39 00
        E 12 80 4d 00
        E 2 80 56 00
        E 2 80 35 00
        E 15 80 51 00
        E 123 90 32 4b
        E 6 90 4a 3c
        E 9 90 51 3d
        E 11 90 4d 2a
        E 26 80 4a 00
        E 6 80 4d 00
        E 3 80 51 00
        E 71 90 4d 40
        E 5 90 51 50
        E 8 90 56 54
        E 61 80 4d 00
        E 1 80 32 00
        E 13 90 39 33
        E 9 90 35 37
        E 9 80 51 00
        E 3 80 56 00
        E 44 80 35 00
        E 7 80 39 00
        E 61 90 56 36
        E 3 90 4d 44
        E 19 90 51 3c
        E 13 90 4a 38
        E 16 90 2d 4a
        E 11 80 51 00
        E 87 80 56 00
        E 69 80 4a 00
        E 16 90 50 51
        E 76 90 35 3e
        E 5 90 39 47
        E 11 90 51 51
        E 8 80 4d 00
        E 33 80 35 00
        E 8 80 50 00
        E 25 80 39 00
        E 6 80 51 00
        E 7 80 2d 00
        E 155 90 4a 66
        E 4 90 2b 54
        E 4 90 4f 55
        E 4 90 37 4d
        E 4 90 47 4f
        E 23 80 2b 00
        E 7 80 47 00
        E 3 80 4f 00
        E 19 80 4a 00
        E 16 80 37 00
        E 155 90 4a 68
        E 9 90 4f 50
        E 3 90 47 4c
        E 5 90 3e 4f
        E 3 90 37 46
        E 4 90 3b 3e
        E 20 80 3e 00
        E 5 80 47 00
        E 2 80 3b 00
        E 51 80 37 00
        E 24 80 4f 00
        E 6 80 4a 00
        E 125 90 37 49
        E 80 80 37 00
        E 39 90 4f 4b
        E 94 80 4f 00
        E 21 90 51 46
        E 17 90 3e 47
        E 18 90 37 33
        E 12 90 39 28
        E 7 80 3e 00
        E 31 80 37 00
        E 19 80 39 00
        E 14 90 4f 5f
        E 46 80 51 00
        E 33 80 4f 00
        E 54 90 30 63
        E 4 90 24 68
        E 28 90 4c 62
        E 3 90 54 69
        E 3 80 24 00
        E 5 90 48 4c
        E 8 80 30 00
        E 25 80 48 00
        E 25 80 4c 00
        E 2 80 54 00
        E 61 90 4c 66
        E 8 90 52 66
        E 4 90 48 50
        E 71 90 32 4e
        E 16 90 26 45
        E 29 80 26 00
        E 5 80 48 00
        E 15 80 32 00
        E 4 80 52 00
        E 7 80 4c 00
        E 73 90 4c 5e
        E 7 90 51 65
        E 14 90 48 50
        E 124 90 33 4c
        E 9 80 48 00
        E 10 90 27 46
        E 19 80 51 00
        E 12 80 27 00
        E 2 80 4c 00
        E 39 80 33 00
        E 37 90 4c 59
        E 7 90 4f 58
        E 4 90 48 5d
        E 113 90 28 46
        E 18 90 34 33
        E 3 80 48 00
        E 52 80 4c 00
        E 14 80 28 00
        E 6 80 4f 00
        E 49 80 34 00
        E 106 90 32 4c
        E 9 90 4d 38
        E 4 90 51 4a
        E 4 90 4a 2e
        E 34 80 4a 00
        E 52 80 4d 00
        E 19 80 51 00
        E 74 80 32 00
        E 44 90 39 3a
        E 2 90 4d 2e
        E 3 90 35 3d
        E 5 90 56 4b
        E 4 90 51 40
        E 37 80 51 00
        E 10 80 39 00
        E 12 80 4d 00
        E 21 80 56 00
        E 20 80 35 00
        E 128 90 2d 4b
        E 9 90 4a 31
        E 6 90 51 47
        E 11 90 4d 25
        E 34 80 4d 00
        E 17 80 4a 00
        E 57 80 51 00
        E 20 80 2d 00
        E 77 90 39 43
        E 7 90 35 40
        E 4 90 56 54
        E 4 90 4d 34
        E 2 90 51 41
        E 73 80 39 00
        E 12 80 51 00
        E 3 80 35 00
        E 16 80 56 00
        E 5 80 4d 00
        E 128 90 32 4a
        E 6 90 4a 2c
        E 3 90 51 46
        E 30 80 4a 00
        E 16 80 51 00
        E 85 90 51 4c
        E 6 90 4d 3e
        E 8 90 56 4e
        E 39 80 32 00
        E 39 80 4d 00
        E 1 90 39 32
        E 2 90 35 37
        E 3 80 51 00
        E 10 80 56 00
        E 33 80 39 00
        E 7 80 35 00
        E 68 90 56 3c
        E 7 90 4d 3c
        E 15 90 51 3b
        E 27 90 4a 28
        E 9 80 51 00
        E 11 90 2d 47
        E 56 80 56 00
        E 117 90 50 4f
        E 2 80 4a 00
        E 64 90 39 4e
        E 5 90 35 48
        E 20 90 51 55
        E 3 80 4d 00
        E 10 80 35 00
        E 45 80 50 00
        E 3 80 39 00
        E 31 80 2d 00
        E 8 80 51 00
        E 135 90 24 63
        E 3 90 4c 61
        E 2 90 30 50
        E 3 90 49 63
        E 5 90 54 5e
        E 20 80 24 00
        E 58 80 30 00
        E 28 80 49 00
        E 2 80 54 00
        E 16 80 4c 00
        E 110 90 49 63
        E 8 90 54 62
        E 3 90 4c 56
        E 6 90 3c 5a
        E 3 90 3a 49
        E 4 90 37 4c
        E 11 90 34 38
        E 29 80 3c 00
        E 18 80 3a 00
        E 12 80 34 00
        E 8 80 37 00
        E 46 80 49 00
        E 70 80 4c 00
        E 43 90 24 57
        E 13 90 30 40
        E 17 80 24 00
        E 36 80 54 00
        E 19 80 30 00
        E 78 90 51 4c
        E 108 90 3a 3a
        E 4 90 3c 3f
        E 4 90 4f 54
        E 24 90 37 25
        E 9 80 3c 00
        E 3 80 51 00
        E 25 80 3a 00
        E 9 80 4f 00
        E 2 80 37 00
        E 180 90 48 40
        E 3 90 45 40
        E 4 90 35 4f
        E 5 90 4d 38
        E 105 80 45 00
        E 6 80 4d 00
        E 21 80 48 00
        E 59 80 35 00
        E 29 90 3c 40
        E 14 90 39 2e
        E 72 80 39 00
        E 26 80 3c 00
        E 21 90 45 56
        E 7 90 4a 57
        E 4 90 41 4e
        E 45 80 41 00
        E 69 80 45 00
        E 2 90 30 43
        E 49 80 4a 00
        E 124 80 30 00
        E 41 90 39 3e
        E 3 90 3c 37
        E 31 80 39 00
        E 3 80 3c 00
        E 213 90 2e 44
        E 13 90 46 40
        E 102 80 46 00
        E 8 90 4a 45
        E 54 80 2e 00
        E 31 90 3a 34
        E 19 90 35 36
        E 10 90 4d 38
        E 25 80 3a 00
        E 3 80 35 00
        E 21 80 4a 00
        E 44 80 4d 00
        E 124 90 2f 4c
        E 12 90 47 4c
        E 102 90 4a 42
        E 22 80 47 00
        E 79 80 2f 00
        E 4 90 4d 47
        E 19 90 35 3d
        E 14 90 3b 35
        E 38 80 4a 00
        E 18 80 3b 00
        E 16 80 35 00
        E 3 80 4d 00
        E 120 90 30 53
        E 22 90 48 54
        E 3 90 50 5e
        E 7 90 4d 44
        E 30 80 4d 00
        E 31 80 48 00
        E 3 80 50 00
        E 25 80 30 00
        E 34 90 48 48
        E 14 90 4d 3c
        E 3 90 51 5e
        E 32 80 4d 00
        E 32 80 48 00
        E 35 90 3c 49
        E 10 80 51 00
        E 8 90 39 23
        E 23 90 30 40
        E 19 80 39 00
        E 21 80 3c 00
        E 57 80 30 00
        E 14 90 51 5f
        E 3 90 54 5c
        E 9 90 4e 56
        E 115 90 26 56
        E 4 90 32 54
        E 66 80 26 00
        E 16 80 32 00
        E 38 80 51 00
        E 68 80 54 00
        E 10 80 4e 00
        E 70 90 36 4b
        E 10 90 3e 58
        E 6 90 39 25
        E 46 80 39 00
        E 9 80 3e 00
        E 14 80 36 00
        E 166 90 57 69
        E 2 90 37 4a
        E 4 90 4f 61
        E 5 90 2b 34
        E 3 90 4b 59
        E 49 80 2b 00
        E 17 80 37 00
        E 33 80 4f 00
        E 10 80 4b 00
        E 5 80 57 00
        E 122 90 37 49
        E 4 90 3b 37
        E 12 90 56 65
        E 1 90 4a 4b
        E 2 90 41 2e
        E 3 90 3e 3e
        E 9 90 4e 50
        E 22 80 3e 00
        E 2 80 41 00
        E 27 80 3b 00
        E 33 80 37 00
        E 16 80 4a 00
        E 14 80 56 00
        E 31 80 4e 00
        E 96 90 30 58
        E 5 90 50 65
        E 5 90 24 39
        E 2 90 47 4e
        E 0 90 4c 35
        E 32 80 24 00
        E 7 80 4c 00
        E 2 80 47 00
        E 28 80 30 00
        E 14 80 50 00
        E 94 90 51 62
        E 11 90 46 38
        E 0 90 48 35
        E 33 80 46 00
        E 6 80 48 00
        E 15 80 51 00
        E 18 90 3a 46
        E 3 90 34 25
        E 0 90 3c 26
        E 48 80 34 00
        E 1 80 3c 00
        E 47 80 3a 00
        E 28 90 48 4f
        E 3 90 4d 46
        E 3 90 45 37
        E 130 90 35 5c
        E 9 90 29 56
        E 35 80 29 00
        E 25 80 35 00
        E 182 90 34 51
        E 2 90 28 4d
        E 30 80 34 00
        E 20 80 28 00
        E 234 90 32 4f
        E 7 90 26 3d
        E 25 80 32 00
        E 33 80 26 00
        E 140 80 45 00
        E 30 80 48 00
        E 0 80 4d 00
        E 21 90 30 4d
        E 4 90 24 44
        E 31 80 24 00
        E 49 80 30 00
        E 151 90 32 46
        E 137 90 51 59
        E 1 90 4d 3b
        E 11 90 4a 2c
        E 68 80 32 00
        E 20 80 51 00
        E 41 80 4a 00
        E 3 90 39 39
        E 1 90 35 3c
        E 2 80 4d 00
        E 81 90 4d 52
        E 9 90 4a 2f
        E 4 90 45 2f
        E 5 80 39 00
        E 31 80 35 00
        E 6 80 4a 00
        E 0 80 45 00
        E 22 80 4d 00
        E 72 90 2d 50
        E 2 90 4a 22
        E 5 90 51 52
        E 1 90 4d 3e
        E 47 80 51 00
        E 3 80 4a 00
        E 37 80 4d 00
        E 16 80 2d 00
        E 154 90 39 4a
        E 4 90 35 4c
        E 71 80 39 00
        E 3 80 35 00
        E 178 90 32 57
        E 125 90 51 56
        E 3 90 4a 30
        E 2 90 4d 2c
        E 65 80 32 00
        E 57 80 51 00
        E 22 80 4d 00
        E 4 80 4a 00
        E 2 90 39 3a
        E 9 90 35 3b
        E 91 80 39 00
        E 2 90 4a 30
        E 3 90 4d 4e
        E 5 90 45 35
        E 22 80 35 00
        E 8 80 4d 00
        E 6 80 45 00
        E 4 80 4a 00
        E 88 90 4a 2e
        E 4 90 4d 35
        E 6 90 2d 50
        E 8 90 51 4f
        E 44 80 51 00
        E 36 80 4a 00
        E 2 80 4d 00
        E 25 80 2d 00
        E 144 90 39 48
        E 3 90 35 4b
        E 56 80 39 00
        E 27 80 35 00
        E 173 90 32 53
        E 113 90 4a 56
        E 2 90 4d 4f
        E 2 90 51 56
        E 25 80 32 00
        E 105 80 4d 00
        E 10 80 51 00
        E 17 80 4a 00
        E 24 90 39 44
        E 22 90 35 3c
        E 45 80 35 00
        E 16 90 4a 30
        E 3 90 4d 4e
        E 5 90 45 35
        E 7 80 39 00
        E 23 80 4d 00
        E 7 80 45 00
        E 3 80 4a 00
        E 92 90 2d 4f
        E 5 90 4a 41
        E 2 90 4c 62
        E 2 90 50 54
        E 29 80 4a 00
        E 2 80 50 00
        E 28 80 4c 00
        E 70 90 4d 4c
        E 3 90 51 5f
        E 3 90 49 5d
        E 27 80 4d 00
        E 1 80 51 00
        E 3 80 2d 00
        E 22 80 49 00
        E 48 90 39 43
        E 3 90 35 41
        E 95 80 39 00
        E 10 80 35 00
        E 30 90 4a 5a
        E 3 90 4d 58
        E 8 90 45 50
        E 120 90 32 4f
        E 14 80 45 00
        E 3 80 4a 00
        E 23 80 4d 00
        E 152 80 32 00
        E 25 90 39 40
        E 2 90 35 3f
        E 97 80 39 00
        E 11 90 4a 5d
        E 3 90 45 50
        E 5 90 41 4b
        E 6 80 35 00
        E 31 80 41 00
        E 33 80 45 00
        E 68 80 4a 00
        E 4 90 2d 4c
        E 193 80 2d 00
        E 46 90 39 41
        E 2 90 35 44
        E 57 80 39 00
        E 18 80 35 00
        E 153 90 32 58
        E 122 90 4d 38
        E 5 90 51 5c
        E 3 90 4a 31
        E 106 80 32 00
        E 8 80 51 00
        E 28 80 4a 00
        E 19 90 39 3a
        E 4 80 4d 00
        E 5 90 35 3a
        E 72 90 4a 3d
        E 8 90 4d 5b
        E 3 90 45 43
        E 9 80 39 00
        E 23 80 4d 00
        E 1 80 4a 00
        E 4 80 45 00
        E 9 80 35 00
        E 80 90 4d 38
        E 7 90 4a 2e
        E 8 90 2d 50
        E 3 90 51 3f
        E 32 80 4a 00
        E 22 80 51 00
        E 13 80 4d 00
        E 79 80 2d 00
        E 102 90 39 49
        E 2 90 35 4b
        E 46 80 39 00
        E 26 80 35 00
        E 165 90 32 55
        E 138 90 4d 36
        E 2 90 4a 38
        E 2 90 51 59
        E 47 80 32 00
        E 80 80 51 00
        E 8 90 39 3d
        E 13 90 35 3c
        E 11 80 4d 00
        E 2 80 4a 00
        E 74 80 39 00
        E 8 80 35 00
        E 15 90 4d 53
        E 3 90 45 4c
        E 1 90 4a 42
        E 30 80 4a 00
        E 1 80 4d 00
        E 2 80 45 00
        E 70 90 2d 4f
        E 14 90 4d 38
        E 2 90 4a 37
        E 17 90 51 54
        E 63 80 4d 00
        E 2 80 4a 00
        E 28 80 51 00
        E 20 80 2d 00
        E 108 90 35 44
        E 2 90 39 3e
        E 51 80 39 00
        E 20 80 35 00
        E 168 90 32 54
        E 151 80 32 00
        E 2 90 51 57
        E 2 90 4a 3b
        E 9 90 4d 43
        E 115 80 51 00
        E 18 80 4d 00
        E 17 90 39 42
        E 13 80 4a 00
        E 2 90 35 40
        E 83 80 39 00
        E 14 90 4d 33
        E 4 80 35 00
        E 1 90 45 26
        E 0 90 4a 27
        E 34 80 4d 00
        E 15 80 45 00
        E 2 80 4a 00
        E 67 90 2d 55
        E 19 90 50 55
        E 3 90 4a 33
        E 1 90 4c 46
        E 31 80 4c 00
        E 5 80 4a 00
        E 39 80 50 00
        E 87 90 51 3e
        E 2 90 4a 3e
        E 0 90 4d 3e
        E 3 90 35 4a
        E 5 90 39 49
        E 25 80 51 00
        E 5 80 4a 00
        E 0 80 4d 00
        E 65 80 39 00
        E 47 80 35 00
        E 28 80 2d 00
        E 18 90 4b 56
        E 4 90 49 50
        E 5 90 4f 54
        E 142 90 27 63
        E 3 90 33 5d
        E 30 80 27 00
        E 51 80 33 00
        E 34 80 4f 00
        E 17 80 4b 00
        E 39 80 49 00
        E 62 90 31 4b
        E 0 90 37 54
        E 4 90 33 4c
        E 70 80 33 00
        E 15 80 31 00
        E 3 80 37 00
        E 71 90 48 5e
        E 4 90 4c 5f
        E 2 90 43 5c
        E 127 90 3c 61
        E 18 90 30 4d
        E 54 80 3c 00
        E 2 80 30 00
        E 23 80 43 00
        E 52 80 48 00
        E 43 80 4c 00
        E 67 90 30 63
        E 3 90 24 50
        E 69 80 30 00
        E 18 80 24 00
        E 164 90 32 4e
        E 119 90 4d 34
        E 1 90 51 51
        E 2 90 4a 36
        E 67 80 32 00
        E 51 80 51 00
        E 16 90 35 40
        E 9 90 39 3c
        E 3 80 4d 00
        E 1 80 4a 00
        E 110 90 4d 56
        E 2 90 45 4a
        E 5 80 39 00
        E 5 90 4a 3a
        E 19 80 35 00
        E 12 80 45 00
        E 1 80 4a 00
        E 24 80 4d 00
        E 78 90 2d 4f
        E 3 90 4d 32
        E 8 90 4a 30
        E 8 90 51 56
        E 59 80 51 00
        E 7 80 4a 00
        E 6 80 4d 00
        E 33 80 2d 00
        E 131 90 39 4b
        E 12 90 35 46
        E 48 80 35 00
        E 27 80 39 00
        E 165 90 32 5e
        E 143 90 4d 2f
        E 2 90 4a 33
        E 1 90 51 4e
        E 72 80 32 00
        E 50 80 51 00
        E 11 90 39 3d
        E 10 90 35 3c
        E 2 80 4d 00
        E 9 80 4a 00
        E 92 80 39 00
        E 9 90 45 43
        E 2 90 4a 36
        E 24 90 4d 52
        E 8 80 35 00
        E 2 80 4a 00
        E 3 80 45 00
        E 35 80 4d 00
        E 40 90 4d 37
        E 2 90 4a 3f
        E 25 90 2d 4d
        E 2 90 51 5f
        E 20 80 4a 00
        E 29 80 51 00
        E 11 80 4d 00
        E 63 80 2d 00
        E 144 90 35 4d
        E 5 90 39 45
        E 62 80 39 00
        E 23 80 35 00
        E 169 90 32 58
        E 137 90 4d 40
        E 2 90 51 5a
        E 1 90 4a 45
        E 40 80 32 00
        E 78 80 51 00
        E 9 80 4d 00
        E 14 80 4a 00
        E 40 90 39 43
        E 17 90 35 3f
        E 31 90 45 31
        E 0 90 4a 31
        E 5 90 4d 5c
        E 40 80 4d 00
        E 1 80 45 00
        E 0 80 4a 00
        E 2 80 35 00
        E 10 80 39 00
        E 86 90 50 63
        E 10 90 4a 46
        E 0 90 4c 46
        E 17 90 2d 51
        E 17 80 4a 00
        E 0 80 4c 00
        E 37 80 50 00
        E 83 90 51 5d
        E 3 90 49 61
        E 5 90 4d 43
        E 29 80 4d 00
        E 8 80 2d 00
        E 18 80 51 00
        E 25 80 49 00
        E 24 90 35 41
        E 3 90 39 46
        E 107 80 39 00
        E 5 80 35 00
        E 30 90 4d 62
        E 5 90 4a 5d
        E 5 90 45 58
        E 119 90 32 4f
        E 18 80 4a 00
        E 29 80 45 00
        E 3 80 4d 00
        E 133 80 32 00
        E 35 90 35 46
        E 11 90 39 3e
        E 81 80 39 00
        E 6 80 35 00
        E 28 90 4a 5b
        E 3 90 45 51
        E 8 90 41 4c
        E 33 80 41 00
        E 44 80 45 00
        E 32 90 2d 3f
        E 42 80 4a 00
        E 131 80 2d 00
        E 43 90 39 3d
        E 9 90 35 3a
        E 33 80 35 00
        E 2 80 39 00
        E 198 90 2e 44
        E 25 90 46 41
        E 108 80 46 00
        E 8 90 4a 47
        E 64 80 2e 00
        E 16 90 3a 35
        E 16 90 35 34
        E 9 90 4d 46
        E 35 80 35 00
        E 12 80 3a 00
        E 16 80 4a 00
        E 57 80 4d 00
        E 125 90 47 4f
        E 1 90 2f 4d
        E 118 90 4a 43
        E 22 80 47 00
        E 83 90 4d 46
        E 3 80 2f 00
        E 28 90 35 40
        E 8 90 3b 37
        E 49 80 4a 00
        E 20 80 3b 00
        E 19 80 4d 00
        E 5 80 35 00
        E 106 90 30 55
        E 19 90 48 53
        E 8 90 50 5e
        E 8 90 4d 4b
        E 31 80 4d 00
        E 35 80 48 00
        E 2 80 50 00
        E 58 90 4d 3e
        E 5 90 51 5f
        E 2 90 48 51
        E 10 80 30 00
        E 20 80 4d 00
        E 48 80 51 00
        E 17 80 48 00
        E 1 90 39 41
        E 5 90 3c 50
        E 19 90 30 3c
        E 71 80 39 00
        E 13 80 3c 00
        E 18 80 30 00
        E 33 90 4a 52
        E 9 90 42 50
        E 141 90 32 56
        E 2 90 26 63
        E 72 80 32 00
        E 4 80 26 00
        E 84 80 4a 00
        E 29 80 42 00
        E 75 90 26 5f
        E 2 90 32 56
        E 53 80 26 00
        E 36 80 32 00
        E 160 90 2b 5e
        E 29 90 3e 57
        E 113 90 41 42
        E 22 80 3e 00
        E 106 90 37 3f
        E 2 90 32 3b
        E 18 90 46 43
        E 78 80 37 00
        E 1 80 32 00
        E 48 80 41 00
        E 16 90 4a 41
        E 9 80 2b 00
        E 52 80 46 00
        E 15 80 4a 00
        E 46 90 44 5a
        E 7 90 41 5e
        E 3 90 3b 63
        E 7 90 24 50
        E 4 90 30 55
        E 37 80 3b 00
        E 24 80 44 00
        E 1 80 41 00
        E 82 90 40 56
        E 5 90 45 3a
        E 12 90 3a 55
        E 25 80 45 00
        E 76 80 40 00
        E 4 80 3a 00
        E 25 80 24 00
        E 74 80 30 00
        E 51 90 39 5a
        E 7 90 3c 5e
        E 7 90 41 51
        E 137 90 35 56
        E 3 90 29 58
        E 35 80 35 00
        E 2 80 29 00
        E 220 90 28 54
        E 3 90 34 51
        E 30 80 28 00
        E 2 80 34 00
        E 226 90 32 46
        E 6 90 26 46
        E 24 80 32 00
        E 8 80 26 00
        E 187 80 39 00
        E 25 90 24 53
        E 7 90 30 49
        E 22 80 3c 00
        E 3 80 24 00
        E 22 80 30 00
        E 30 80 41 00
        E 193 90 3e 5e
        E 1 90 41 63
        E 2 90 32 5d
        E 78 80 32 00
        E 95 80 3e 00
        E 39 80 41 00
        E 7 90 3c 43
        E 38 80 3c 00
        E 122 90 41 5e
        E 7 90 44 57
        E 101 90 2e 41
        E 9 90 3a 38
        E 39 80 2e 00
        E 19 80 3a 00
        E 60 80 41 00
        E 14 90 3e 4b
        E 23 80 44 00
        E 75 80 3e 00
        E 39 90 40 63
        E 2 90 39 53
        E 9 90 2d 4c
        E 3 90 43 58
        E 72 80 2d 00
        E 2 80 39 00
        E 167 90 37 43
        E 6 90 2b 43
        E 41 80 37 00
        E 5 80 40 00
        E 27 80 2b 00
        E 15 80 43 00
        E 25 90 3e 4d
        E 112 80 3e 00
        E 20 90 44 52
        E 8 90 35 44
        E 3 90 29 40
        E 4 90 41 46
        E 49 80 35 00
        E 27 80 29 00
        E 46 90 3e 4f
        E 12 80 44 00
        E 2 80 41 00
        E 91 90 43 52
        E 9 80 3e 00
        E 2 90 34 4a
        E 12 90 28 46
        E 13 90 40 36
        E 4 80 34 00
        E 43 80 28 00
        E 61 80 43 00
        E 6 90 3e 57
        E 52 80 40 00
        E 64 90 26 4c
        E 3 90 32 47
        E 18 80 3e 00
        E 3 90 44 58
        E 4 90 41 55
        E 5 80 26 00
        E 65 80 32 00
        E 56 80 44 00
        E 13 80 41 00
        E 6 90 3e 4d
        E 32 80 3e 00
        E 74 90 3e 5b
        E 17 90 41 6b
        E 14 90 32 65
        E 105 80 32 00
        E 137 80 3e 00
        E 4 90 3c 51
        E 32 80 3c 00
        E 2 80 41 00
        E 109 90 41 5c
        E 5 90 44 5e
        E 99 90 2e 44
        E 8 90 3a 3a
        E 56 80 3a 00
        E 7 80 2e 00
        E 8 80 41 00
        E 36 80 44 00
        E 61 90 3e 5a
        E 125 90 39 4a
        E 10 90 2d 45
        E 2 90 43 61
        E 7 90 40 54
        E 8 80 3e 00
        E 47 80 2d 00
        E 1 80 39 00
        E 202 90 37 46
        E 2 90 2b 44
        E 49 80 40 00
        E 14 80 37 00
        E 22 80 2b 00
        E 25 80 43 00
        E 10 90 3e 54
        E 108 80 3e 00
        E 13 90 44 59
        E 7 90 41 46
        E 3 90 35 4c
        E 14 90 29 40
        E 26 80 35 00
        E 12 80 29 00
        E 73 90 3e 52
        E 18 80 44 00
        E 24 80 41 00
        E 65 90 34 47
        E 11 90 43 5d
        E 3 80 3e 00
        E 7 90 28 37
        E 9 90 40 4c
        E 4 80 34 00
        E 23 80 28 00
        E 84 80 43 00
        E 6 90 3e 5d
        E 52 80 40 00
        E 51 90 32 40
        E 3 90 26 40
        E 4 80 3e 00
        E 18 90 44 57
        E 6 90 41 51
        E 4 80 26 00
        E 61 80 32 00
        E 50 90 3e 59
        E 29 80 41 00
        E 6 80 44 00
        E 29 80 3e 00
        E 77 90 32 4d
        E 3 90 3e 66
        E 9 90 41 58
        E 73 80 32 00
        E 129 80 41 00
        E 1 80 3e 00
        E 14 90 3c 49
        E 53 80 3c 00
        E 94 90 44 5a
        E 8 90 41 5c
        E 108 90 2e 49
        E 2 90 3a 3c
        E 36 80 2e 00
        E 18 80 3a 00
        E 16 80 41 00
        E 64 90 3e 4f
        E 9 80 44 00
        E 87 80 3e 00
        E 46 90 40 5c
        E 3 90 39 4c
        E 3 90 43 5a
        E 5 90 2d 46
        E 68 80 39 00
        E 12 80 2d 00
        E 159 90 37 46
        E 4 90 2b 43
        E 45 80 40 00
        E 1 80 37 00
        E 32 80 2b 00
        E 15 80 43 00
        E 27 90 3e 4e
        E 95 80 3e 00
        E 33 90 44 50
        E 8 90 35 3f
        E 4 90 41 4b
        E 30 80 35 00
        E 87 90 3e 50
        E 5 80 44 00
        E 6 80 41 00
        E 105 90 34 46
        E 3 90 28 44
        E 5 80 3e 00
        E 4 90 40 4b
        E 4 90 43 55
        E 15 80 28 00
        E 5 80 34 00
        E 110 80 43 00
        E 6 90 3e 5a
        E 47 80 40 00
        E 49 80 3e 00
        E 30 90 3a 41
        E 3 90 44 54
        E 10 90 41 50
        E 7 90 2e 3d
        E 72 80 3a 00
        E 21 80 2e 00
        E 10 90 3e 59
        E 36 80 41 00
        E 8 80 44 00
        E 34 80 3e 00
        E 67 90 41 51
        E 4 90 3e 69
        E 9 90 32 52
        E 8 90 26 44
        E 39 80 41 00
        E 24 80 3e 00
        E 58 90 41 4c
        E 3 90 3e 4c
        E 37 90 44 2b
        E 44 80 3e 00
        E 143 90 3e 57
        E 23 80 41 00
        E 6 80 44 00
        E 83 90 40 54
        E 12 90 43 4e
        E 4 80 3e 00
        E 146 80 43 00
        E 5 90 3e 57
        E 53 80 40 00
        E 52 90 44 50
        E 4 80 3e 00
        E 25 90 41 46
        E 115 90 3e 50
        E 4 80 41 00
        E 10 80 44 00
        E 96 90 40 50
        E 8 80 3e 00
        E 6 90 43 52
        E 126 80 43 00
        E 18 90 3e 51
        E 50 80 40 00
        E 64 90 44 5b
        E 3 80 3e 00
        E 23 90 41 46
        E 117 90 3e 52
        E 9 80 41 00
        E 5 80 44 00
        E 37 80 26 00
        E 61 80 3e 00
        E 6 80 32 00
        E 6 90 43 54
        E 4 90 40 50
        E 116 80 43 00
        E 17 90 3e 5a
        E 40 80 40 00
        E 37 80 3e 00
        E 55 90 44 53
        E 4 90 41 56
        E 18 90 2d 61
        E 6 90 39 59
        E 75 90 3e 61
        E 4 80 2d 00
        E 26 80 39 00
        E 7 80 41 00
        E 11 80 44 00
        E 40 80 3e 00
        E 73 90 41 71
        E 3 90 3e 63
        E 29 90 32 6b
        E 60 80 32 00
        E 118 80 3e 00
        E 44 80 41 00
        E 12 90 3c 5c
        E 77 80 3c 00
        E 48 90 41 5a
        E 4 90 44 55
        E 122 90 2e 4a
        E 4 90 3a 38
        E 38 80 2e 00
        E 28 80 3a 00
        E 13 80 41 00
        E 55 80 44 00
        E 14 90 3e 53
        E 90 80 3e 00
        E 24 90 39 4f
        E 5 90 2d 4c
        E 12 90 40 56
        E 3 90 43 52
        E 60 80 39 00
        E 18 80 2d 00
        E 150 90 2b 50
        E 3 90 37 4a
        E 50 80 40 00
        E 36 80 2b 00
        E 1 80 37 00
        E 35 80 43 00
        E 20 90 3e 4b
        E 93 80 3e 00
        E 15 90 44 53
        E 11 90 35 44
        E 2 90 41 3f
        E 10 90 29 32
        E 21 80 35 00
        E 29 80 29 00
        E 59 90 3e 50
        E 9 80 44 00
        E 1 80 41 00
        E 108 90 34 49
        E 2 80 3e 00
        E 3 90 43 51
        E 8 90 40 44
        E 43 80 34 00
        E 88 80 43 00
        E 7 90 3e 51
        E 51 80 40 00
        E 55 90 32 41
        E 4 90 26 40
        E 32 90 41 55
        E 8 90 44 4b
        E 16 80 3e 00
        E 23 80 26 00
        E 52 80 32 00
        E 39 90 3e 50
        E 20 80 41 00
        E 5 80 44 00
        E 12 80 3e 00
        E 95 90 32 6d
        E 3 90 3e 69
        E 4 90 41 5c
        E 85 80 32 00
        E 146 80 3e 00
        E 4 90 3c 54
        E 13 80 41 00
        E 49 80 3c 00
        E 72 90 41 5d
        E 3 90 44 5c
        E 107 90 2e 55
        E 3 90 3a 40
        E 43 80 2e 00
        E 46 80 3a 00
        E 9 80 41 00
        E 47 80 44 00
        E 20 90 3e 4e
        E 103 90 39 55
        E 6 90 40 61
        E 3 90 2d 50
        E 5 90 43 5e
        E 20 80 3e 00
        E 41 80 39 00
        E 23 80 2d 00
        E 157 90 37 44
        E 8 90 2b 43
        E 16 80 40 00
        E 49 80 37 00
        E 20 80 2b 00
        E 11 80 43 00
        E 20 90 3e 40
        E 86 80 3e 00
        E 33 90 44 45
        E 16 90 35 3c
        E 3 90 41 3e
        E 7 90 29 37
        E 24 80 35 00
        E 28 80 29 00
        E 46 80 41 00
        E 19 80 44 00
        E 2 90 3e 4c
        E 90 80 3e 00
        E 17 90 43 50
        E 4 90 34 3e
        E 3 90 40 44
        E 20 90 28 33
        E 10 80 34 00
        E 33 80 28 00
        E 68 80 43 00
        E 9 90 3e 4f
        E 56 80 40 00
        E 38 90 26 46
        E 11 90 32 2c
        E 29 80 26 00
        E 2 90 44 5b
        E 5 90 41 52
        E 27 80 3e 00
        E 37 80 32 00
        E 55 90 3e 52
        E 24 80 41 00
        E 3 80 44 00
        E 52 80 3e 00
        E 46 90 32 63
        E 8 90 41 6b
        E 9 90 3e 64
        E 75 80 32 00
        E 143 90 3c 4d
        E 9 80 3e 00
        E 14 80 41 00
        E 19 90 30 2b
        E 34 80 3c 00
        E 10 80 30 00
        E 61 90 41 5e
        E 3 90 44 5b
        E 101 90 2e 50
        E 6 90 3a 3d
        E 72 80 3a 00
        E 5 80 2e 00
        E 38 80 41 00
        E 24 80 44 00
        E 19 90 3e 4d
        E 108 80 3e 00
        E 2 90 39 4c
        E 9 90 2d 46
        E 3 90 40 5a
        E 5 90 43 55
        E 69 80 39 00
        E 11 80 2d 00
        E 159 90 37 40
        E 7 90 2b 3a
        E 46 80 40 00
        E 3 80 37 00
        E 22 80 43 00
        E 9 80 2b 00
        E 11 90 3e 4b
        E 100 80 3e 00
        E 40 90 41 43
        E 3 90 44 4d
        E 19 90 35 43
        E 27 90 29 26
        E 8 80 35 00
        E 44 80 29 00
        E 22 80 41 00
        E 20 90 3e 4d
        E 4 80 44 00
        E 99 90 34 46
        E 14 80 3e 00
        E 0 90 43 4c
        E 19 80 34 00
        E 3 90 40 2b
        E 125 90 3e 55
        E 8 80 43 00
        E 48 80 40 00
        E 54 90 26 37
        E 21 90 44 49
        E 9 90 32 24
        E 3 90 41 47
        E 22 80 3e 00
        E 31 80 26 00
        E 33 80 32 00
        E 38 90 3e 46
        E 24 80 41 00
        E 8 80 3e 00
        E 2 80 44 00
        E 90 90 41 57
        E 3 90 3e 59
        E 4 90 32 61
        E 54 80 41 00
        E 18 80 32 00
        E 5 80 3e 00
        E 47 90 3e 56
        E 9 90 41 49
        E 44 80 41 00
        E 40 80 3e 00
        E 27 90 3a 44
        E 10 90 2e 4c
        E 8 90 41 5d
        E 11 90 44 62
        E 16 80 3a 00
        E 15 80 2e 00
        E 109 90 3e 52
        E 15 80 44 00
        E 1 80 41 00
        E 85 90 39 4e
        E 10 90 2d 44
        E 3 90 43 5e
        E 19 90 40 47
        E 5 80 3e 00
        E 8 80 39 00
        E 11 80 2d 00
        E 99 80 43 00
        E 6 90 3e 5c
        E 47 80 40 00
        E 45 90 37 4c
        E 6 80 3e 00
        E 17 90 2b 36
        E 3 90 44 59
        E 9 90 41 57
        E 65 80 2b 00
        E 2 80 37 00
        E 50 80 44 00
        E 21 90 3e 5e
        E 144 80 3e 00
        E 9 80 41 00
        E 14 90 26 72
        E 4 90 32 6d
        E 160 90 4a 6c
        E 2 90 56 6a
        E 76 80 4a 00
        E 6 80 56 00
        E 153 80 26 00
        E 28 90 4a 50
        E 3 90 56 61
        E 62 80 4a 00
        E 7 80 32 00
        E 8 80 56 00
        E 50 90 4a 69
        E 4 90 56 69
        E 85 80 4a 00
        E 10 80 56 00
        E 145 90 4a 5b
        E 9 90 56 55
        E 61 80 56 00
        E 11 80 4a 00
        E 59 90 56 5c
        E 3 90 4a 69
        E 55 80 56 00
        E 14 80 4a 00
        E 53 90 32 58
        E 13 90 4d 5e
        E 3 90 51 62
        E 109 80 4d 00
        E 33 80 51 00
        E 46 80 32 00
        E 40 90 39 46
        E 11 90 35 46
        E 6 90 51 42
        E 5 90 4d 44
        E 3 90 56 50
        E 89 80 39 00
        E 6 80 4d 00
        E 4 80 56 00
        E 4 80 51 00
        E 25 80 35 00
        E 115 90 2d 4a
        E 2 90 4a 3d
        E 4 90 51 44
        E 14 90 4d 38
        E 33 80 4d 00
        E 17 80 4a 00
        E 51 80 51 00
        E 42 80 2d 00
        E 78 90 35 46
        E 2 90 39 43
        E 3 90 56 50
        E 8 90 51 45
        E 2 90 4d 3d
        E 82 80 39 00
        E 11 80 35 00
        E 15 80 56 00
        E 2 80 4d 00
        E 4 80 51 00
        E 128 90 4a 41
        E 2 90 32 49
        E 5 90 51 48
        E 2 90 4d 17
        E 29 80 4a 00
        E 15 80 4d 00
        E 1 80 51 00
        E 80 90 51 50
        E 4 90 4d 4e
        E 6 90 56 53
        E 86 80 56 00
        E 9 80 32 00
        E 3 90 39 3e
        E 8 90 35 43
        E 7 80 4d 00
        E 7 80 51 00
        E 76 80 39 00
        E 39 90 56 44
        E 12 90 51 3a
        E 5 90 4d 46
        E 33 90 4a 31
        E 10 80 35 00
        E 52 80 51 00
        E 10 90 2d 3d
        E 37 80 56 00
        E 96 90 50 54
        E 14 80 4a 00
        E 70 80 4d 00
        E 18 80 2d 00
        E 3 90 35 42
        E 9 90 51 4e
        E 10 90 39 40
        E 49 80 50 00
        E 35 80 35 00
        E 5 80 51 00
        E 12 80 39 00
        E 125 90 32 46
        E 3 90 51 52
        E 4 90 4a 48
        E 117 80 51 00
        E 7 90 50 53
        E 70 80 4a 00
        E 34 80 32 00
        E 6 90 35 3a
        E 11 90 51 4b
        E 14 90 39 2d
        E 20 80 50 00
        E 23 80 51 00
        E 50 80 35 00
        E 38 80 39 00
        E 13 90 4f 56
        E 2 90 4c 52
        E 5 90 48 4c
        E 84 90 30 49
        E 105 80 30 00
        E 13 90 4e 5a
        E 11 80 4f 00
        E 70 80 48 00
        E 40 80 4c 00
        E 28 90 4f 53
        E 14 80 4e 00
        E 28 90 3c 2d
        E 9 90 3a 2c
        E 32 80 3c 00
        E 13 90 4e 4c
        E 20 80 3a 00
        E 17 80 4f 00
        E 53 80 4e 00
        E 83 90 35 53
        E 8 90 45 59
        E 3 90 4d 5b
        E 3 90 48 57
        E 156 80 45 00
        E 5 80 4d 00
        E 8 80 48 00
        E 59 90 39 47
        E 1 80 35 00
        E 7 90 3c 4b
        E 107 80 39 00
        E 6 80 3c 00
        E 12 90 45 59
        E 3 90 4a 5f
        E 2 90 41 54
        E 76 80 45 00
        E 7 80 41 00
        E 51 80 4a 00
        E 19 90 30 50
        E 213 90 39 4d
        E 4 90 3c 49
        E 27 80 30 00
        E 10 80 3c 00
        E 37 80 39 00
        E 155 90 32 4f
        E 5 90 51 52
        E 7 90 4d 43
        E 3 90 4a 3f
        E 49 80 4a 00
        E 40 80 4d 00
        E 49 80 51 00
        E 45 80 32 00
        E 39 90 39 3c
        E 8 90 35 42
        E 11 90 56 4e
        E 3 90 4d 35
        E 5 90 51 3a
        E 49 80 51 00
        E 27 80 39 00
        E 8 80 4d 00
        E 16 80 56 00
        E 8 80 35 00
        E 124 90 2d 47
        E 11 90 4a 39
        E 4 90 51 41
        E 8 90 4d 2f
        E 33 80 4d 00
        E 6 80 4a 00
        E 64 80 51 00
        E 37 80 2d 00
        E 77 90 35 44
        E 2 90 39 43
        E 10 90 56 4f
        E 9 90 4d 39
        E 5 90 51 42
        E 80 80 39 00
        E 11 80 56 00
        E 2 80 35 00
        E 12 80 4d 00
        E 8 80 51 00
        E 119 90 4a 3c
        E 10 90 32 4d
        E 2 90 51 3a
        E 9 90 4d 22
        E 20 80 4a 00
        E 13 80 51 00
        E 9 80 4d 00
        E 60 90 4d 51
        E 6 90 51 4e
        E 11 90 56 4c
        E 89 80 4d 00
        E 4 80 56 00
        E 2 80 51 00
        E 1 80 32 00
        E 11 90 35 34
        E 5 90 39 2b
        E 68 80 39 00
        E 34 80 35 00
        E 3 90 56 35
        E 3 90 4d 3c
        E 20 90 51 2f
        E 35 90 4a 2f
        E 4 80 51 00
        E 28 90 2d 41
        E 55 80 56 00
        E 69 90 50 3e
        E 82 80 4a 00
        E 42 90 35 3d
        E 11 90 39 43
        E 10 90 51 41
        E 18 80 4d 00
        E 39 80 50 00
        E 13 80 39 00
        E 2 80 35 00
        E 13 80 51 00
        E 17 80 2d 00
        E 123 90 4a 66
        E 4 90 2b 48
        E 4 90 4f 5b
        E 4 90 47 50
        E 4 90 37 52
        E 55 80 4a 00
        E 4 80 2b 00
        E 9 80 4f 00
        E 3 80 47 00
        E 21 80 37 00
        E 146 90 4a 66
        E 8 90 4f 4c
        E 4 90 47 50
        E 4 90 3e 51
        E 5 90 37 4c
        E 3 90 3b 46
        E 29 80 3e 00
        E 3 80 47 00
        E 0 80 3b 00
        E 56 80 37 00
        E 37 80 4a 00
        E 6 80 4f 00
        E 106 90 37 4b
        E 12 90 2b 3c
        E 34 80 2b 00
        E 55 80 37 00
        E 32 90 4f 37
        E 87 90 51 49
        E 6 80 4f 00
        E 29 90 3e 50
        E 14 90 37 2b
        E 8 90 3b 2f
        E 13 90 39 2b
        E 8 80 3e 00
        E 17 80 3b 00
        E 24 80 39 00
        E 7 80 37 00
        E 13 90 4f 59
        E 57 80 51 00
        E 23 80 4f 00
        E 59 90 30 4c
        E 11 90 26 4b
        E 11 90 54 72
        E 4 90 4c 6f
        E 4 90 48 5b
        E 7 80 30 00
        E 7 80 26 00
        E 36 80 48 00
        E 20 80 4c 00
        E 13 80 54 00
        E 59 90 4c 58
        E 4 90 52 69
        E 5 90 48 4d
        E 38 90 32 4f
        E 29 90 26 2a
        E 31 80 32 00
        E 12 80 26 00
        E 12 80 48 00
        E 24 80 52 00
        E 2 80 4c 00
        E 72 90 4c 5d
        E 9 90 51 5e
        E 4 90 48 57
        E 107 90 33 4c
        E 14 90 27 46
        E 21 80 48 00
        E 10 80 27 00
        E 29 80 4c 00
        E 2 80 51 00
        E 14 80 33 00
        E 73 90 4c 53
        E 7 90 4f 54
        E 3 90 48 58
        E 70 90 28 4d
        E 10 90 34 46
        E 47 80 48 00
        E 30 80 28 00
        E 17 80 4c 00
        E 23 80 4f 00
        E 2 80 34 00
        E 144 90 32 46
        E 15 90 4d 3d
        E 3 90 51 4d
        E 3 90 4a 39
        E 40 80 4a 00
        E 46 80 4d 00
        E 31 80 51 00
        E 59 80 32 00
        E 52 90 39 3e
        E 2 90 35 41
        E 8 90 56 4e
        E 3 90 4d 32
        E 16 90 51 35
        E 25 80 39 00
        E 11 80 51 00
        E 45 80 4d 00
        E 13 80 56 00
        E 3 80 35 00
        E 134 90 2d 44
        E 8 90 4a 36
        E 3 90 51 46
        E 10 90 4d 25
        E 37 80 4d 00
        E 20 80 4a 00
        E 57 80 51 00
        E 19 80 2d 00
        E 91 90 39 3f
        E 3 90 35 3e
        E 17 90 51 45
        E 1 90 4d 38
        E 1 90 56 4b
        E 76 80 39 00
        E 19 80 35 00
        E 15 80 56 00
        E 5 80 4d 00
        E 3 80 51 00
        E 118 90 51 46
        E 3 90 4a 3b
        E 4 90 32 46
        E 34 80 4a 00
        E 36 80 51 00
        E 61 90 4d 49
        E 10 90 51 55
        E 3 90 56 50
        E 75 80 32 00
        E 20 80 56 00
        E 2 90 35 39
        E 1 80 4d 00
        E 3 90 39 2f
        E 19 80 51 00
        E 56 80 39 00
        E 42 80 35 00
        E 4 90 4d 3f
        E 3 90 51 3c
        E 3 90 56 3a
        E 60 80 51 00
        E 2 90 4a 21
        E 4 90 2d 44
        E 69 80 56 00
        E 108 90 50 46
        E 16 80 4a 00
        E 30 90 39 4a
        E 8 90 35 44
        E 33 80 4d 00
        E 2 80 35 00
        E 6 90 51 4c
        E 36 80 39 00
        E 11 80 50 00
        E 30 80 2d 00
        E 5 80 51 00
        E 143 90 30 59
        E 2 90 4c 62
        E 3 90 54 65
        E 5 90 49 62
        E 4 90 24 41
        E 25 80 24 00
        E 50 80 30 00
        E 37 80 54 00
        E 2 80 49 00
        E 26 80 4c 00
        E 102 90 49 68
        E 2 90 3a 59
        E 4 90 54 71
        E 4 90 4c 5c
        E 4 90 3c 58
        E 4 90 34 40
        E 5 90 37 3a
        E 19 80 3c 00
        E 11 80 37 00
        E 17 80 34 00
        E 3 80 3a 00
        E 75 80 49 00
        E 67 80 4c 00
        E 44 90 24 53
        E 3 90 32 4d
        E 9 80 54 00
        E 40 80 24 00
        E 32 80 32 00
        E 48 90 51 4c
        E 122 90 4f 58
        E 19 90 3a 36
        E 3 90 3c 3c
        E 5 90 37 2d
        E 20 80 51 00
        E 18 80 3c 00
        E 11 80 37 00
        E 9 80 4f 00
        E 26 80 3a 00
        E 136 90 48 5e
        E 9 90 4d 57
        E 3 90 45 50
        E 14 90 35 4b
        E 125 80 45 00
        E 11 80 4d 00
        E 6 80 48 00
        E 71 80 35 00
        E 26 90 39 37
        E 4 90 3c 40
        E 59 80 39 00
        E 40 80 3c 00
        E 14 90 45 51
        E 7 90 41 4d
        E 4 90 4a 51
        E 59 80 41 00
        E 35 80 45 00
        E 52 90 30 47
        E 3 80 4a 00
        E 169 80 30 00
        E 39 90 3c 40
        E 15 90 39 3b
        E 24 80 3c 00
        E 8 80 39 00
        E 202 90 2e 46
        E 17 90 46 3c
        E 98 80 46 00
        E 10 90 4a 4c
        E 76 90 3a 31
        E 4 80 2e 00
        E 27 90 35 2f
        E 11 90 4d 38
        E 29 80 3a 00
        E 8 80 35 00
        E 19 80 4a 00
        E 43 80 4d 00
        E 129 90 47 4c
        E 5 90 2f 4e
        E 109 90 4a 46
        E 19 80 47 00
        E 69 80 2f 00
        E 20 90 35 3d
        E 9 90 4d 3e
        E 18 90 3b 2c
        E 51 80 3b 00
        E 3 80 4a 00
        E 23 80 4d 00
        E 9 80 35 00
        E 117 90 30 52
        E 19 90 48 50
        E 8 90 50 59
        E 20 90 4c 2c
        E 32 80 48 00
        E 11 80 4c 00
        E 22 80 50 00
        E 11 80 30 00
        E 40 90 48 54
        E 9 90 51 53
        E 7 90 4c 2b
        E 41 80 4c 00
        E 11 80 48 00
        E 14 90 3c 49
        E 11 90 39 3e
        E 16 80 51 00
        E 20 90 30 3e
        E 17 80 39 00
        E 20 80 3c 00
        E 61 80 30 00
        E 27 90 51 66
        E 3 90 54 5e
        E 5 90 4e 62
        E 104 90 26 58
        E 9 90 32 51
        E 64 80 26 00
        E 24 80 32 00
        E 95 80 51 00
        E 43 80 54 00
        E 10 80 4e 00
        E 4 90 3e 4c
        E 7 90 36 54
        E 13 90 3c 44
        E 30 80 3e 00
        E 2 80 3c 00
        E 14 80 36 00
        E 206 90 2d 4f
        E 4 90 37 57
        E 4 90 57 66
        E 5 90 4f 61
        E 3 90 4b 61
        E 19 80 2d 00
        E 43 80 37 00
        E 33 80 4b 00
        E 6 80 4f 00
        E 20 80 57 00
        E 122 90 4e 5d
        E 2 90 41 36
        E 1 90 56 52
        E 5 90 37 40
        E 0 90 3e 37
        E 4 90 3b 37
        E 4 90 4a 5f
        E 20 80 3e 00
        E 2 80 3b 00
        E 1 80 41 00
        E 41 80 37 00
        E 35 80 56 00
        E 6 80 4a 00
        E 45 80 4e 00
        E 94 90 30 45
        E 2 90 24 5c
        E 3 90 48 61
        E 2 90 4c 49
        E 0 90 50 3d
        E 30 80 4c 00
        E 5 80 30 00
        E 0 80 24 00
        E 1 80 50 00
        E 41 80 48 00
        E 90 90 51 57
        E 8 90 48 30
        E 3 90 46 54
        E 39 80 48 00
        E 15 80 46 00
        E 35 80 51 00
        E 111 90 48 5a
        E 14 90 45 55
        E 3 90 4d 58
        E 141 90 35 50
        E 4 90 29 50
        E 27 80 35 00
        E 7 80 29 00
        E 222 90 34 52
        E 6 90 28 4c
        E 27 80 34 00
        E 4 80 28 00
        E 234 90 32 47
        E 2 90 26 4b
        E 28 80 32 00
        E 4 80 26 00
        E 152 80 45 00
        E 5 80 48 00
        E 64 80 4d 00
        E 3 90 24 4c
        E 3 90 30 48
        E 29 80 24 00
        E 43 80 30 00
        E 168 90 32 58
        E 151 90 51 50
        E 2 90 4d 33
        E 6 90 4a 43
        E 63 80 32 00
        E 57 90 39 3f
        E 2 90 35 40
        E 2 80 51 00
        E 21 80 4a 00
        E 2 80 4d 00
        E 81 80 39 00
        E 11 90 4d 35
        E 6 90 45 31
        E 7 90 4a 20
        E 2 80 35 00
        E 28 80 45 00
        E 5 80 4a 00
        E 15 80 4d 00
        E 73 90 2d 4f
        E 9 90 51 5a
        E 2 90 4a 2b
        E 3 90 4d 44
        E 66 80 51 00
        E 5 80 4a 00
        E 0 80 4d 00
        E 32 80 2d 00
        E 153 90 39 4a
        E 8 90 35 46
        E 77 80 35 00
        E 9 80 39 00
        E 151 90 32 57
        E 134 90 51 51
        E 5 90 4d 31
        E 2 90 4a 41
        E 97 80 32 00
        E 21 80 51 00
        E 15 80 4d 00
        E 18 90 39 3b
        E 3 80 4a 00
        E 6 90 35 3c
        E 83 90 45 31
        E 2 90 4a 2f
        E 2 90 4d 3e
        E 10 80 39 00
        E 22 80 4a 00
        E 2 80 4d 00
        E 5 80 45 00
        E 9 80 35 00
        E 85 90 51 51
        E 4 90 4a 2a
        E 4 90 4d 3c
        E 13 90 2d 4e
        E 56 80 4d 00
        E 25 80 4a 00
        E 23 80 51 00
        E 2 80 2d 00
        E 156 90 35 4e
        E 2 90 39 48
        E 75 80 39 00
        E 15 80 35 00
        E 169 90 32 54
        E 115 90 51 56
        E 2 90 4d 51
        E 1 90 4a 5a
        E 85 80 32 00
        E 37 80 51 00
        E 27 80 4d 00
        E 13 80 4a 00
        E 39 90 39 41
        E 21 90 35 3a
        E 27 90 45 3d
        E 6 90 4d 50
        E 28 80 45 00
        E 6 80 4d 00
        E 3 80 35 00
        E 15 80 39 00
        E 105 90 2d 55
        E 6 90 4e 4d
        E 4 90 4c 42
        E 4 90 4a 52
        E 33 80 4a 00
        E 11 80 4c 00
        E 24 80 4e 00
        E 57 90 51 57
        E 1 90 49 4e
        E 3 90 4d 38
        E 30 80 51 00
        E 0 80 49 00
        E 4 80 4d 00
        E 66 80 2d 00
        E 7 90 35 49
        E 8 90 39 3e
        E 122 80 39 00
        E 13 80 35 00
        E 8 90 4d 61
        E 4 90 4a 5e
        E 4 90 45 58
        E 112 90 32 53
        E 59 80 4a 00
        E 6 80 45 00
        E 17 80 4d 00
        E 126 80 32 00
        E 10 90 39 40
        E 3 90 35 3e
        E 110 80 39 00
        E 8 90 45 5d
        E 3 90 4a 5d
        E 2 90 41 55
        E 22 80 35 00
        E 36 80 41 00
        E 69 80 45 00
        E 28 90 2d 4c
        E 9 80 4a 00
        E 190 80 2d 00
        E 28 90 35 49
        E 7 90 39 42
        E 72 80 39 00
        E 16 80 35 00
        E 145 90 32 55
        E 143 90 4d 42
        E 9 90 51 4b
        E 6 90 4a 2b
        E 79 80 32 00
        E 39 90 39 40
        E 4 80 51 00
        E 9 80 4d 00
        E 3 90 35 3c
        E 3 80 4a 00
        E 106 90 45 49
        E 3 80 39 00
        E 11 90 4a 2a
        E 3 90 4d 4a
        E 25 80 35 00
        E 16 80 4a 00
        E 10 80 4d 00
        E 10 80 45 00
        E 52 90 4a 3b
        E 3 90 4d 2f
        E 3 90 2d 50
        E 16 90 51 56
        E 47 80 51 00
        E 24 80 4d 00
        E 3 80 4a 00
        E 50 80 2d 00
        E 124 90 39 41
        E 2 90 35 47
        E 86 80 39 00
        E 10 80 35 00
        E 150 90 32 57
        E 139 90 4d 31
        E 2 90 51 57
        E 2 90 4a 37
        E 77 80 32 00
        E 44 80 51 00
        E 32 90 39 3e
        E 8 80 4a 00
        E 2 90 35 3f
        E 14 80 4d 00
        E 88 90 45 4a
        E 13 80 39 00
        E 1 90 4a 29
        E 0 90 4d 54
        E 27 80 45 00
        E 2 80 35 00
        E 16 80 4a 00
        E 0 80 4d 00
        E 68 90 4a 3d
        E 11 90 4d 2e
        E 8 90 2d 50
        E 8 90 51 30
        E 58 80 51 00
        E 12 80 4a 00
        E 4 80 4d 00
        E 39 80 2d 00
        E 135 90 35 4d
        E 3 90 39 48
        E 90 80 39 00
        E 18 80 35 00
        E 141 90 32 54
        E 121 90 51 5e
        E 2 90 4d 3d
        E 2 90 4a 43
        E 78 80 32 00
        E 75 80 51 00
        E 11 80 4a 00
        E 14 80 4d 00
        E 12 90 39 41
        E 9 90 35 40
        E 71 90 47 30
        E 0 90 4d 52
        E 29 80 39 00
        E 10 80 47 00
        E 0 80 4d 00
        E 18 80 35 00
        E 68 90 4c 49
        E 5 90 4a 44
        E 0 90 50 46
        E 14 90 2d 56
        E 18 80 4a 00
        E 11 80 4c 00
        E 0 80 50 00
        E 131 90 51 30
        E 1 90 4d 49
        E 1 90 4a 44
        E 32 80 4a 00
        E 4 80 51 00
        E 12 80 4d 00
        E 23 90 39 5a
        E 3 90 35 56
        E 36 80 2d 00
        E 70 90 49 53
        E 6 90 4b 44
        E 4 80 39 00
        E 0 90 4f 4f
        E 39 80 35 00
        E 131 90 33 61
        E 3 90 27 61
        E 33 80 27 00
        E 41 80 33 00
        E 22 80 4f 00
        E 17 80 4b 00
        E 20 80 49 00
        E 120 90 31 42
        E 3 90 37 4c
        E 2 90 33 46
        E 84 80 33 00
        E 2 80 37 00
        E 3 80 31 00
        E 65 90 48 5b
        E 2 90 4c 62
        E 1 90 43 62
        E 127 90 3c 62
        E 33 90 30 3d
        E 31 80 3c 00
        E 5 80 30 00
        E 61 80 43 00
        E 47 80 48 00
        E 59 80 4c 00
        E 36 90 30 63
        E 5 90 24 58
        E 82 80 24 00
        E 2 80 30 00
        E 156 90 32 57
        E 133 90 4d 39
        E 10 90 4a 40
        E 1 90 51 4b
        E 53 80 32 00
        E 51 80 51 00
        E 14 90 39 3c
        E 2 90 35 44
        E 24 80 4a 00
        E 4 80 4d 00
        E 92 80 39 00
        E 8 90 45 3b
        E 6 80 35 00
        E 4 90 4d 41
        E 3 90 4a 29
        E 31 80 4a 00
        E 4 80 45 00
        E 9 80 4d 00
        E 83 90 2d 52
        E 9 90 4a 2b
        E 1 90 51 52
        E 3 90 4d 2d
        E 61 80 51 00
        E 18 80 4a 00
        E 32 80 4d 00
        E 16 80 2d 00
        E 123 90 39 4c
        E 6 90 35 4c
        E 90 80 39 00
        E 8 80 35 00
        E 149 90 32 5f
        E 141 90 4a 34
        E 2 90 4d 2e
        E 2 90 51 52
        E 75 80 32 00
        E 59 80 51 00
        E 9 90 39 3e
        E 7 80 4d 00
        E 2 80 4a 00
        E 2 90 35 3c
        E 107 90 45 38
        E 3 90 4a 25
        E 9 80 39 00
        E 1 90 4d 30
        E 26 80 4a 00
        E 4 80 45 00
        E 4 80 35 00
        E 4 80 4d 00
        E 73 90 4a 32
        E 2 90 4d 34
        E 17 90 51 3a
        E 3 90 2d 50
        E 69 80 4d 00
        E 7 80 4a 00
        E 17 80 51 00
        E 43 80 2d 00
        E 127 90 39 4c
        E 2 90 35 51
        E 90 80 39 00
        E 23 80 35 00
        E 150 90 32 5d
        E 100 90 51 5c
        E 2 90 4d 30
        E 2 90 4a 36
        E 64 80 32 00
        E 93 80 51 00
        E 32 80 4d 00
        E 3 90 39 4a
        E 4 90 35 49
        E 2 80 4a 00
        E 88 90 45 28
        E 4 90 4d 53
        E 13 80 39 00
        E 17 80 35 00
        E 11 80 45 00
        E 6 80 4d 00
        E 76 90 50 56
        E 9 90 2d 57
        E 5 90 4a 3b
        E 0 90 4c 3b
        E 32 80 4a 00
        E 0 80 4c 00
        E 41 80 50 00
        E 52 90 51 68
        E 9 90 4d 2e
        E 8 90 49 4e
        E 31 80 49 00
        E 6 80 4d 00
        E 4 80 51 00
        E 19 80 2d 00
        E 50 90 35 49
        E 3 90 39 45
        E 128 80 39 00
        E 15 90 4d 65
        E 3 80 35 00
        E 4 90 45 59
        E 4 90 4a 54
        E 138 90 32 51
        E 49 80 4a 00
        E 9 80 45 00
        E 3 80 4d 00
        E 144 80 32 00
        E 16 90 39 47
        E 2 90 35 46
        E 82 80 35 00
        E 24 80 39 00
        E 17 90 45 5d
        E 2 90 4a 5b
        E 20 90 41 40
        E 36 80 41 00
        E 43 80 45 00
        E 8 90 2d 48
        E 47 80 4a 00
        E 126 80 2d 00
        E 51 90 35 43
        E 2 90 39 3d
        E 34 80 35 00
        E 4 80 39 00
        E 204 90 2e 48
        E 13 90 46 46
        E 118 80 46 00
        E 6 90 4a 49
        E 40 80 2e 00
        E 30 90 3a 39
        E 28 90 35 35
        E 14 90 4d 43
        E 26 80 35 00
        E 12 80 3a 00
        E 19 80 4a 00
        E 54 80 4d 00
        E 109 90 2f 4f
        E 11 90 47 52
        E 132 90 4a 41
        E 3 80 47 00
        E 74 90 4d 3c
        E 9 80 2f 00
        E 21 90 35 46
        E 14 90 3b 41
        E 52 80 4a 00
        E 7 80 3b 00
        E 25 80 35 00
        E 10 80 4d 00
        E 116 90 30 51
        E 19 90 48 56
        E 5 90 4d 56
        E 5 90 50 5e
        E 35 80 4d 00
        E 36 80 50 00
        E 5 80 48 00
        E 43 80 30 00
        E 21 90 51 68
        E 7 90 48 50
        E 74 80 48 00
        E 1 80 51 00
        E 17 90 3c 4c
        E 3 90 39 36
        E 42 90 30 2c
        E 8 80 39 00
        E 57 80 3c 00
        E 48 80 30 00
        E 10 90 4a 6d
        E 4 90 42 62
        E 143 90 26 4e
        E 12 90 32 44
        E 41 80 32 00
        E 20 80 26 00
        E 52 80 4a 00
        E 36 80 42 00
        E 97 90 26 59
        E 6 90 32 43
        E 27 80 26 00
        E 43 80 32 00
        E 172 90 2b 61
        E 9 90 3e 5c
        E 110 90 41 45
        E 3 80 3e 00
        E 157 90 37 40
        E 6 90 32 39
        E 10 90 46 46
        E 78 80 37 00
        E 18 80 32 00
        E 8 90 4a 48
        E 19 80 41 00
        E 32 80 2b 00
        E 34 80 46 00
        E 42 80 4a 00
        E 33 90 44 62
        E 11 90 41 55
        E 10 90 3c 53
        E 3 90 30 58
        E 4 90 24 5f
        E 15 80 41 00
        E 5 80 3c 00
        E 42 80 44 00
        E 76 90 3a 4a
        E 3 90 45 59
        E 37 80 45 00
        E 93 80 3a 00
        E 2 80 24 00
        E 73 80 30 00
        E 58 90 3c 53
        E 9 90 39 46
        E 14 90 41 5a
        E 142 90 35 53
        E 3 90 29 50
        E 30 80 29 00
        E 2 80 35 00
        E 224 90 34 4d
        E 3 90 28 4c
        E 29 80 34 00
        E 2 80 28 00
        E 233 90 32 47
        E 9 90 26 4b
        E 28 80 32 00
        E 2 80 26 00
        E 161 80 39 00
        E 48 80 3c 00
        E 21 90 30 4f
        E 1 90 24 4c
        E 29 80 24 00
        E 12 80 30 00
        E 1 80 41 00
        E 217 90 3e 63
        E 2 90 41 66
        E 9 90 32 58
        E 80 80 32 00
        E 98 80 3e 00
        E 24 90 3c 4f
        E 20 80 41 00
        E 5 90 30 35
        E 14 80 3c 00
        E 21 80 30 00
        E 117 90 44 5e
        E 7 90 41 59
        E 94 90 2e 43
        E 3 90 3a 39
        E 40 80 2e 00
        E 9 80 3a 00
        E 85 90 3e 4c
        E 2 80 41 00
        E 29 80 44 00
        E 78 80 3e 00
        E 32 90 40 5b
        E 3 90 39 4d
        E 6 90 43 55
        E 9 90 2d 3e
        E 57 80 39 00
        E 2 80 2d 00
        E 178 90 37 40
        E 12 90 2b 37
        E 25 80 37 00
        E 5 80 40 00
        E 31 80 2b 00
        E 43 80 43 00
        E 21 90 3e 4c
        E 115 80 3e 00
        E 16 90 44 4d
        E 1 90 35 3f
        E 6 90 41 4b
        E 25 90 29 21
        E 3 80 35 00
        E 45 80 29 00
        E 59 80 41 00
        E 4 90 3e 53
        E 8 80 44 00
        E 81 90 34 41
        E 30 90 43 5b
        E 6 80 3e 00
        E 7 90 40 40
        E 3 80 34 00
        E 132 90 3e 5a
        E 13 80 43 00
        E 43 80 40 00
        E 51 90 32 3c
        E 3 80 3e 00
        E 2 90 26 3b
        E 17 90 44 5d
        E 3 90 41 65
        E 43 80 26 00
        E 41 80 32 00
        E 32 90 3e 5f
        E 38 80 41 00
        E 2 80 44 00
        E 39 80 3e 00
        E 66 90 3e 6b
        E 4 90 41 5b
        E 5 90 32 5f
        E 95 80 32 00
        E 112 80 3e 00
        E 7 90 3c 52
        E 14 80 41 00
        E 28 90 30 2e
        E 37 80 3c 00
        E 5 80 30 00
        E 71 90 44 5c
        E 3 90 41 5b
        E 115 90 2e 40
        E 9 90 3a 37
        E 34 80 2e 00
        E 17 80 3a 00
        E 23 80 41 00
        E 52 80 44 00
        E 12 90 3e 4c
        E 96 80 3e 00
        E 31 90 39 4c
        E 10 90 40 5b
        E 2 90 43 57
        E 16 90 2d 24
        E 56 80 2d 00
        E 9 80 39 00
        E 174 90 37 40
        E 17 90 2b 2f
        E 29 80 37 00
        E 10 80 40 00
        E 20 80 2b 00
        E 12 80 43 00
        E 37 90 3e 4f
        E 89 80 3e 00
        E 42 90 44 53
        E 11 90 35 44
        E 7 90 41 4c
        E 18 90 29 2e
        E 15 80 35 00
        E 35 80 29 00
        E 51 90 3e 54
        E 10 80 41 00
        E 2 80 44 00
        E 97 80 3e 00
        E 5 90 34 54
        E 5 90 43 59
        E 15 90 40 42
        E 3 90 28 3e
        E 45 80 28 00
        E 17 80 34 00
        E 60 80 43 00
        E 3 90 3e 53
        E 51 80 40 00
        E 59 90 32 4a
        E 3 90 26 4c
        E 9 90 44 56
        E 2 90 41 63
        E 9 80 3e 00
        E 11 80 26 00
        E 56 80 32 00
        E 53 90 3e 59
        E 41 80 41 00
        E 11 80 44 00
        E 26 80 3e 00
        E 63 90 32 66
        E 4 90 3e 6b
        E 5 90 41 5e
        E 96 80 32 00
        E 131 80 41 00
        E 1 90 3c 4c
        E 4 80 3e 00
        E 43 90 30 23
        E 23 80 3c 00
        E 24 80 30 00
        E 50 90 41 56
        E 3 90 44 5a
        E 123 90 2e 46
        E 5 90 3a 39
        E 35 80 2e 00
        E 20 80 3a 00
        E 37 80 41 00
        E 38 80 44 00
        E 6 90 3e 51
        E 129 90 39 48
        E 3 80 3e 00
        E 9 90 2d 41
        E 4 90 43 57
        E 4 90 40 52
        E 71 80 39 00
        E 4 80 2d 00
        E 167 90 37 39
        E 10 90 2b 28
        E 42 80 37 00
        E 36 80 2b 00
        E 11 80 43 00
        E 20 90 3e 4b
        E 12 80 40 00
        E 104 80 3e 00
        E 5 90 44 54
        E 17 90 35 3f
        E 3 90 41 3f
        E 11 90 29 2e
        E 19 80 35 00
        E 26 80 29 00
        E 74 90 3e 51
        E 5 80 44 00
        E 17 80 41 00
        E 70 90 34 4c
        E 9 90 28 41
        E 32 80 28 00
        E 5 80 3e 00
        E 2 90 43 44
        E 5 90 40 2a
        E 10 80 34 00
        E 105 80 40 00
        E 15 90 3e 5f
        E 24 80 43 00
        E 71 80 3e 00
        E 18 90 3a 3e
        E 17 90 44 63
        E 9 90 41 51
        E 3 90 2e 3c
        E 38 80 3a 00
        E 41 80 2e 00
        E 8 80 41 00
        E 75 90 3e 5a
        E 38 80 3e 00
        E 6 80 44 00
        E 62 90 32 5c
        E 3 90 26 61
        E 5 90 41 5b
        E 4 90 3e 68
        E 71 80 3e 00
        E 4 80 41 00
        E 71 90 3e 59
        E 4 90 41 55
        E 103 80 3e 00
        E 17 90 44 49
        E 143 90 3e 53
        E 28 80 44 00
        E 3 80 41 00
        E 75 90 40 50
        E 8 80 3e 00
        E 7 90 43 55
        E 140 80 43 00
        E 8 90 3e 4f
        E 47 80 40 00
        E 15 80 26 00
        E 48 90 44 56
        E 4 80 3e 00
        E 19 90 41 46
        E 6 80 32 00
        E 127 90 3e 50
        E 3 80 41 00
        E 13 80 44 00
        E 92 80 3e 00
        E 13 90 40 4c
        E 12 90 43 4f
        E 122 80 43 00
        E 38 90 3e 4c
        E 32 80 40 00
        E 68 90 44 50
        E 8 80 3e 00
        E 12 90 41 44
        E 137 90 3e 50
        E 4 80 44 00
        E 12 80 41 00
        E 91 80 3e 00
        E 17 90 43 52
        E 3 90 40 4c
        E 118 80 43 00
        E 23 90 3e 55
        E 35 80 40 00
        E 36 80 3e 00
        E 53 90 44 5b
        E 5 90 41 5d
        E 19 90 2d 57
        E 5 90 39 4e
        E 69 90 3e 59
        E 16 80 2d 00
        E 26 80 39 00
        E 7 80 44 00
        E 2 80 41 00
        E 27 80 3e 00
        E 80 90 3e 66
        E 5 90 41 62
        E 27 90 32 66
        E 90 80 32 00
        E 108 80 3e 00
        E 29 80 41 00
        E 13 90 3c 54
        E 23 90 30 35
        E 25 80 3c 00
        E 8 80 30 00
        E 71 90 41 65
        E 9 90 44 59
        E 111 90 3a 41
        E 7 90 2e 45
        E 38 80 2e 00
        E 42 80 3a 00
        E 3 80 41 00
        E 47 80 44 00
        E 20 90 3e 4c
        E 97 80 3e 00
        E 26 90 40 5d
        E 4 90 43 59
        E 4 90 39 54
        E 3 90 2d 50
        E 74 80 39 00
        E 4 80 2d 00
        E 180 90 37 49
        E 3 90 2b 41
        E 51 80 40 00
        E 21 80 37 00
        E 13 80 2b 00
        E 24 80 43 00
        E 22 90 3e 46
        E 92 80 3e 00
        E 27 90 44 52
        E 10 90 41 4b
        E 4 90 35 4a
        E 11 90 29 39
        E 25 80 35 00
        E 33 80 29 00
        E 62 80 41 00
        E 4 80 44 00
        E 4 90 3e 54
        E 103 90 34 46
        E 3 90 43 57
        E 22 90 40 41
        E 3 80 3e 00
        E 12 80 34 00
        E 1 90 28 29
        E 46 80 28 00
        E 82 90 3e 54
        E 11 80 43 00
        E 37 80 40 00
        E 56 90 32 48
        E 8 90 26 46
        E 7 90 41 5e
        E 3 90 44 5a
        E 9 80 3e 00
        E 26 80 26 00
        E 37 80 32 00
        E 66 90 3e 53
        E 33 80 44 00
        E 1 80 41 00
        E 2 80 3e 00
        E 96 90 32 65
        E 8 90 41 66
        E 4 90 3e 65
        E 85 80 32 00
        E 127 80 3e 00
        E 5 80 41 00
        E 15 90 3c 3a
        E 40 80 3c 00
        E 106 90 44 5b
        E 3 90 41 5e
        E 108 90 2e 49
        E 3 90 3a 3c
        E 32 80 2e 00
        E 32 80 3a 00
        E 17 80 41 00
        E 62 80 44 00
        E 10 90 3e 49
        E 126 90 40 57
        E 2 80 3e 00
        E 3 90 43 55
        E 8 90 39 4c
        E 4 90 2d 49
        E 47 80 39 00
        E 5 80 2d 00
        E 201 90 37 41
        E 9 90 2b 39
        E 29 80 37 00
        E 3 80 40 00
        E 16 80 2b 00
        E 43 80 43 00
        E 21 90 3e 4e
        E 95 80 3e 00
        E 24 90 44 53
        E 11 90 35 40
        E 7 90 41 45
        E 16 90 29 30
        E 19 80 35 00
        E 27 80 29 00
        E 64 80 41 00
        E 5 80 44 00
        E 12 90 3e 4f
        E 85 90 34 44
        E 17 90 43 52
        E 20 80 3e 00
        E 28 90 40 24
        E 3 80 34 00
        E 103 80 43 00
        E 6 90 3e 56
        E 40 80 40 00
        E 57 80 3e 00
        E 2 90 32 34
        E 5 90 26 36
        E 10 90 44 5b
        E 16 90 41 4c
        E 21 80 26 00
        E 49 80 32 00
        E 37 90 3e 5b
        E 32 80 41 00
        E 2 80 44 00
        E 10 80 3e 00
        E 103 90 3e 66
        E 3 90 41 68
        E 7 90 32 62
        E 73 80 32 00
        E 147 90 3c 52
        E 4 80 3e 00
        E 23 80 41 00
        E 13 90 30 2c
        E 9 80 3c 00
        E 35 80 30 00
        E 63 90 44 5b
        E 4 90 41 5b
        E 123 90 2e 46
        E 12 90 3a 33
        E 24 80 2e 00
        E 19 80 3a 00
        E 50 90 3e 4b
        E 8 80 41 00
        E 21 80 44 00
        E 127 90 40 57
        E 0 90 43 57
        E 3 80 3e 00
        E 5 90 39 4c
        E 15 90 2d 46
        E 71 80 39 00
        E 19 80 2d 00
        E 135 90 37 51
        E 14 90 2b 3d
        E 75 80 37 00
        E 4 80 2b 00
        E 14 80 40 00
        E 0 80 43 00
        E 26 90 3e 51
        E 85 80 3e 00
        E 37 90 35 4c
        E 3 90 44 54
        E 13 90 29 38
        E 4 90 41 37
        E 23 80 35 00
        E 16 80 29 00
        E 77 90 3e 4d
        E 9 80 44 00
        E 16 80 41 00
        E 88 80 3e 00
        E 2 90 40 4d
        E 0 90 43 55
        E 36 90 28 2e
        E 11 90 32 21
        E 31 80 28 00
        E 18 80 32 00
        E 57 90 3e 56
        E 14 80 40 00
        E 9 80 43 00
        E 72 80 3e 00
        E 3 90 32 22
        E 0 90 41 56
        E 4 90 44 49
        E 66 80 32 00
        E 15 80 44 00
        E 24 80 41 00
        E 20 90 40 56
        E 4 90 42 49
        E 81 80 42 00
        E 24 80 40 00
        E 29 90 41 5e
        E 2 90 3e 65
        E 8 90 32 5d
        E 60 80 41 00
        E 16 80 3e 00
        E 0 80 32 00
        E 55 90 41 55
        E 4 90 3e 63
        E 67 80 41 00
        E 15 80 3e 00
        E 49 90 3a 3f
        E 9 90 2e 43
        E 5 90 44 5c
        E 3 90 41 4c
        E 26 80 2e 00
        E 4 80 3a 00
        E 52 80 41 00
        E 45 80 44 00
        E 2 90 3e 51
        E 112 90 39 50
        E 7 90 2d 42
        E 7 90 40 46
        E 4 90 43 4c
        E 8 80 3e 00
        E 22 80 39 00
        E 23 80 2d 00
        E 75 80 43 00
        E 22 90 3e 58
        E 51 80 40 00
        E 13 90 37 41
        E 42 90 44 49
        E 4 90 2b 18
        E 3 80 3e 00
        E 9 90 41 4b
        E 36 80 37 00
        E 39 80 2b 00
        E 54 90 3e 44
        E 9 80 44 00
        E 5 80 41 00
        E 18 80 3e 00
        E 77 90 41 5b
        E 10 90 3e 55
        E 3 90 26 61
        E 12 90 32 32
        E 18 80 26 00
        E 19 80 32 00
        E 134 90 39 5b
        E 4 90 2d 52
        E 59 80 2d 00
        E 7 80 39 00
        E 206 90 35 5b
        E 3 90 29 59
        E 31 80 35 00
        E 1 80 29 00
        E 139 90 34 5b
        E 6 90 28 52
        E 24 80 34 00
        E 7 80 28 00
        E 141 80 3e 00
        E 4 80 41 00
        E 67 90 26 58
        E 8 90 32 46
        E 22 80 26 00
        E 55 80 32 00
        E 168 90 30 4c
        E 18 90 48 4b
        E 5 90 3c 44
        E 101 80 3c 00
        E 31 80 48 00
        E 84 80 30 00
        E 11 90 34 4b
        E 8 90 37 46
        E 146 90 40 59
        E 5 90 4c 5c
        E 4 80 37 00
        E 72 80 34 00
        E 59 90 2b 48
        E 3 80 40 00
        E 45 80 4c 00
        E 179 80 2b 00
        E 9 90 37 47
        E 3 90 34 46
        E 6 90 4f 5e
        E 4 90 43 54
        E 118 80 34 00
        E 15 80 43 00
        E 11 80 4f 00
        E 37 80 37 00
        E 36 90 30 44
        E 139 90 4f 55
        E 4 90 43 52
        E 108 80 43 00
        E 12 80 4f 00
        E 2 80 30 00
        E 10 90 37 33
        E 8 90 34 33
        E 73 80 34 00
        E 32 80 37 00
        E 4 90 43 5e
        E 3 90 4f 5c
        E 27 80 43 00
        E 8 80 4f 00
        E 49 90 2b 44
        E 58 90 40 52
        E 3 90 4c 55
        E 36 80 40 00
        E 34 80 4c 00
        E 129 80 2b 00
        E 20 90 34 40
        E 17 90 48 56
        E 4 90 3c 4b
        E 25 90 37 33
        E 12 80 34 00
        E 4 80 3c 00
        E 40 80 48 00
        E 82 80 37 00
        E 73 90 35 2b
        E 12 90 41 56
        E 4 90 4d 63
        E 92 80 41 00
        E 17 80 4d 00
        E 103 80 35 00
        E 29 90 39 3a
        E 9 90 4d 56
        E 3 90 41 4a
        E 9 90 3c 37
        E 25 80 41 00
        E 2 80 4d 00
        E 105 80 39 00
        E 26 90 41 4a
        E 3 90 4d 50
        E 9 80 3c 00
        E 59 80 4d 00
        E 4 80 41 00
        E 5 90 30 36
        E 183 90 4f 5d
        E 3 90 43 53
        E 42 90 39 3f
        E 3 80 30 00
        E 6 90 3c 46
        E 30 80 43 00
        E 13 80 4f 00
        E 76 80 39 00
        E 17 80 3c 00
        E 49 90 45 5a
        E 3 90 51 4d
        E 20 90 35 48
        E 91 80 51 00
        E 7 80 45 00
        E 91 90 48 4c
        E 3 90 51 2a
        E 9 90 45 33
        E 3 90 4d 49
        E 36 80 45 00
        E 4 80 4d 00
        E 7 80 51 00
        E 14 80 48 00
        E 15 90 3c 32
        E 4 90 39 2a
        E 5 80 35 00
        E 29 90 45 4e
        E 6 90 51 4f
        E 3 90 4d 5b
        E 5 90 48 5c
        E 48 80 45 00
        E 3 80 48 00
        E 13 80 51 00
        E 7 80 39 00
        E 4 80 4d 00
        E 14 80 3c 00
        E 31 90 48 65
        E 5 90 45 54
        E 5 90 51 5e
        E 9 90 4d 5c
        E 31 90 30 56
        E 22 80 45 00
        E 9 80 51 00
        E 5 80 48 00
        E 6 80 4d 00
        E 42 90 51 30
        E 4 90 48 50
        E 5 90 45 50
        E 9 90 4d 44
        E 96 80 45 00
        E 12 80 51 00
        E 15 80 48 00
        E 7 80 4d 00
        E 104 90 3c 4e
        E 4 90 51 56
        E 5 90 48 50
        E 5 90 45 4a
        E 4 90 4d 44
        E 46 80 45 00
        E 4 80 3c 00
        E 2 80 30 00
        E 1 80 51 00
        E 25 80 4d 00
        E 8 80 48 00
        E 172 90 30 35
        E 5 90 41 5a
        E 4 90 4d 61
        E 106 80 41 00
        E 11 80 4d 00
        E 124 80 30 00
        E 9 90 37 38
        E 4 90 41 4c
        E 5 90 34 3d
        E 3 90 4d 51
        E 24 80 41 00
        E 7 80 4d 00
        E 79 80 34 00
        E 18 80 37 00
        E 37 90 4f 5b
        E 13 90 43 3e
        E 55 90 2b 3c
        E 59 80 43 00
        E 29 80 4f 00
        E 89 90 4f 48
        E 17 90 43 3e
        E 16 80 4f 00
        E 15 80 43 00
        E 66 90 34 3e
        E 8 80 2b 00
        E 4 90 37 3a
        E 55 90 48 62
        E 4 90 3c 55
        E 7 80 34 00
        E 30 80 3c 00
        E 34 80 48 00
        E 49 80 37 00
        E 15 90 30 3e
        E 230 90 4c 59
        E 3 90 40 3e
        E 31 80 4c 00
        E 5 80 40 00
        E 4 90 34 41
        E 3 90 37 3c
        E 4 80 30 00
        E 123 80 34 00
        E 13 80 37 00
        E 35 90 48 5b
        E 3 90 3c 47
        E 28 80 48 00
        E 4 80 3c 00
        E 13 90 2b 49
        E 97 90 40 54
        E 11 90 4c 44
        E 20 80 40 00
        E 13 80 4c 00
        E 195 80 2b 00
        E 2 90 34 47
        E 4 90 4f 61
        E 5 90 43 5b
        E 10 90 37 46
        E 43 80 34 00
        E 10 80 43 00
        E 17 80 4f 00
        E 45 80 37 00
        E 112 90 35 46
        E 40 90 4d 5a
        E 4 90 41 50
        E 71 80 41 00
        E 10 80 4d 00
        E 147 80 35 00
        E 17 90 39 37
        E 4 90 3c 40
        E 3 90 4d 55
        E 4 90 41 49
        E 24 80 4d 00
        E 5 80 41 00
        E 84 80 3c 00
        E 19 80 39 00
        E 12 90 4d 5d
        E 4 90 41 4a
        E 60 90 30 4c
        E 7 80 41 00
        E 21 80 4d 00
        E 144 90 4f 5a
        E 4 90 43 50
        E 73 80 43 00
        E 24 80 4f 00
        E 3 90 39 45
        E 16 80 30 00
        E 5 90 3c 3b
        E 99 80 39 00
        E 55 90 51 5d
        E 4 90 45 54
        E 4 80 3c 00
        E 42 90 36 46
        E 52 80 45 00
        E 28 80 51 00
        E 91 90 4e 4f
        E 7 90 4a 45
        E 3 90 51 35
        E 6 90 45 3e
        E 27 80 4a 00
        E 2 80 51 00
        E 4 80 45 00
        E 34 80 4e 00
        E 14 90 39 3b
        E 12 90 3e 43
        E 10 80 36 00
        E 17 90 51 4c
        E 4 90 4a 55
        E 4 90 45 4c
        E 5 90 4e 5b
        E 32 80 45 00
        E 2 80 4e 00
        E 23 80 51 00
        E 4 80 4a 00
        E 19 80 39 00
        E 40 80 3e 00
        E 2 90 4e 59
        E 4 90 45 4f
        E 3 90 4a 62
        E 5 90 51 56
        E 53 80 45 00
        E 2 80 4e 00
        E 5 80 51 00
        E 13 80 4a 00
        E 14 90 32 51
        E 21 90 36 2b
        E 6 90 51 49
        E 5 90 4e 55
        E 4 90 45 53
        E 5 90 4a 57
        E 97 80 45 00
        E 6 80 51 00
        E 9 80 36 00
        E 17 80 4e 00
        E 2 80 4a 00
        E 124 90 45 4c
        E 4 80 32 00
        E 1 90 4a 4e
        E 5 90 51 3a
        E 4 90 39 3c
        E 14 90 4e 3e
        E 7 90 3e 44
        E 10 80 39 00
        E 21 80 4e 00
        E 16 80 45 00
        E 2 80 51 00
        E 15 80 4a 00
        E 25 80 3e 00
        E 112 90 3a 49
        E 37 90 46 5d
        E 3 90 52 62
        E 96 80 46 00
        E 32 80 52 00
        E 124 90 52 57
        E 6 90 46 42
        E 27 80 3a 00
        E 1 90 3e 3d
        E 4 80 52 00
        E 1 80 46 00
        E 4 90 41 47
        E 122 80 3e 00
        E 10 90 56 57
        E 4 90 4a 55
        E 100 90 3a 38
        E 35 80 41 00
        E 2 80 4a 00
        E 6 80 56 00
        E 125 90 56 4e
        E 12 90 4a 3e
        E 19 80 56 00
        E 13 80 4a 00
        E 100 90 3e 3d
        E 8 90 52 66
        E 3 90 46 5f
        E 3 90 41 37
        E 6 80 3a 00
        E 44 80 52 00
        E 14 80 46 00
        E 104 90 49 5e
        E 3 80 3e 00
        E 2 90 55 65
        E 104 90 3b 40
        E 24 80 41 00
        E 39 80 49 00
        E 11 80 55 00
        E 73 90 55 4a
        E 10 90 49 4d
        E 61 80 55 00
        E 15 80 49 00
        E 52 90 3e 43
        E 2 80 3b 00
        E 19 90 41 3d
        E 14 90 52 5e
        E 3 90 46 5f
        E 91 80 46 00
        E 2 80 52 00
        E 57 80 3e 00
        E 72 80 41 00
        E 23 90 3b 3f
        E 16 90 55 5f
        E 4 90 49 59
        E 81 80 49 00
        E 20 80 55 00
        E 101 80 3b 00
        E 50 90 52 52
        E 13 90 46 41
        E 5 90 41 2e
        E 30 80 52 00
        E 4 80 46 00
        E 36 80 41 00
        E 160 90 35 4f
        E 34 90 4d 5f
        E 5 90 41 4c
        E 79 80 41 00
        E 22 80 4d 00
        E 133 80 35 00
        E 8 90 4d 59
        E 4 90 41 4c
        E 13 90 39 37
        E 3 90 3c 44
        E 20 80 41 00
        E 11 80 4d 00
        E 102 80 39 00
        E 10 80 3c 00
        E 1 90 4d 5e
        E 9 90 41 50
        E 61 80 41 00
        E 11 90 30 49
        E 10 80 4d 00
        E 170 90 51 68
        E 8 90 45 4c
        E 37 80 45 00
        E 39 80 51 00
        E 24 90 39 3c
        E 12 80 30 00
        E 10 90 3c 37
        E 86 80 39 00
        E 54 90 4a 4e
        E 7 90 56 50
        E 62 80 3c 00
        E 2 90 36 3f
        E 9 80 4a 00
        E 19 80 56 00
        E 116 90 4a 4d
        E 19 90 4e 2e
        E 13 80 4a 00
        E 29 80 4e 00
        E 66 90 4e 4f
        E 3 90 4a 49
        E 4 90 51 40
        E 14 90 56 3c
        E 23 90 39 3c
        E 9 80 56 00
        E 5 90 3e 40
        E 8 80 4a 00
        E 1 80 4e 00
        E 23 80 51 00
        E 3 80 36 00
        E 46 90 4e 59
        E 4 90 56 49
        E 4 90 4a 57
        E 5 90 51 56
        E 29 80 39 00
        E 27 80 4e 00
        E 12 80 3e 00
        E 2 80 4a 00
        E 4 80 51 00
        E 9 80 56 00
        E 30 90 56 3d
        E 4 90 4e 5c
        E 10 90 4a 5c
        E 2 90 51 58
        E 4 90 32 56
        E 5 90 36 3e
        E 105 80 56 00
        E 1 80 4a 00
        E 21 80 4e 00
        E 25 80 51 00
        E 84 80 36 00
        E 7 90 56 54
        E 5 90 4e 5c
        E 4 80 32 00
        E 11 90 4a 46
        E 3 90 51 3a
        E 5 90 39 3c
        E 7 90 3e 50
        E 21 80 51 00
        E 1 80 4a 00
        E 3 80 39 00
        E 25 80 56 00
        E 42 80 3e 00
        E 2 80 4e 00
        E 128 90 37 49
        E 134 90 43 5c
        E 3 90 4f 5d
        E 134 80 43 00
        E 2 90 3b 46
        E 15 80 37 00
        E 7 80 4f 00
        E 6 90 3e 3c
        E 13 90 41 35
        E 175 80 3b 00
        E 29 80 41 00
        E 19 80 3e 00
        E 43 90 37 46
        E 11 90 43 53
        E 2 90 4f 55
        E 102 80 43 00
        E 7 80 4f 00
        E 160 90 41 3d
        E 11 90 3e 4a
        E 20 80 37 00
        E 2 90 4f 5a
        E 4 90 43 50
        E 16 80 3e 00
        E 13 80 41 00
        E 104 80 4f 00
        E 14 80 43 00
        E 93 90 30 4c
        E 151 90 40 5b
        E 3 90 4c 57
        E 76 80 30 00
        E 34 80 40 00
        E 10 80 4c 00
        E 3 90 3c 39
        E 18 90 3a 28
        E 127 80 3a 00
        E 17 80 3c 00
        E 2 90 40 5a
        E 3 90 4c 57
        E 111 90 30 40
        E 20 80 40 00
        E 10 80 4c 00
        E 264 90 3c 49
        E 3 90 3a 3f
        E 3 90 40 54
        E 5 90 4c 56
        E 5 80 30 00
        E 23 80 3c 00
        E 42 80 3a 00
        E 32 80 40 00
        E 59 80 4c 00
        E 96 90 29 5c
        E 4 90 35 57
        E 253 80 35 00
        E 38 90 4d 52
        E 3 90 45 4b
        E 8 90 41 48
        E 90 80 41 00
        E 18 80 4d 00
        E 7 80 45 00
        E 80 80 29 00
        E 25 90 35 37
        E 23 90 4d 53
        E 3 90 45 51
        E 8 90 41 43
        E 3 80 35 00
        E 37 80 41 00
        E 22 80 45 00
        E 15 80 4d 00
        E 69 90 4d 5c
        E 4 90 45 56
        E 4 90 3d 5a
        E 4 90 31 55
        E 5 90 41 49
        E 65 80 3d 00
        E 20 80 31 00
        E 21 80 41 00
        E 18 80 4d 00
        E 9 80 45 00
        E 135 90 4d 4a
        E 4 90 45 48
        E 49 80 4d 00
        E 3 80 45 00
        E 74 90 29 4c
        E 4 90 35 4e
        E 9 90 4d 5b
        E 11 90 45 5d
        E 4 90 41 4f
        E 116 80 41 00
        E 20 80 4d 00
        E 3 80 45 00
        E 117 90 4d 4c
        E 5 90 45 4e
        E 6 90 41 46
        E 44 80 41 00
        E 23 80 45 00
        E 12 80 4d 00
        E 18 80 29 00
        E 23 90 4d 46
        E 11 90 45 5d
        E 4 90 41 44
        E 103 80 41 00
        E 17 80 4d 00
        E 9 80 45 00
        E 140 90 4d 43
        E 5 90 45 41
        E 29 90 41 24
        E 23 80 4d 00
        E 15 80 45 00
        E 9 80 41 00
        E 71 90 4d 52
        E 10 90 45 50
        E 4 90 41 3f
        E 62 80 35 00
        E 43 80 41 00
        E 10 80 4d 00
        E 87 80 45 00
        E 28 90 30 53
        E 254 90 48 54
        E 5 90 4c 47
        E 7 90 37 45
        E 4 90 34 44
        E 4 90 43 40
        E 5 80 30 00
        E 30 80 43 00
        E 39 80 48 00
        E 2 80 4c 00
        E 14 80 37 00
        E 15 80 34 00
        E 148 90 2b 4f
        E 9 90 4a 46
        E 5 90 47 3c
        E 10 90 41 30
        E 31 80 47 00
        E 18 80 4a 00
        E 6 80 41 00
        E 63 80 2b 00
        E 122 90 34 42
        E 2 90 37 3e
        E 119 80 34 00
        E 2 80 37 00
        E 146 90 43 48
        E 7 90 48 50
        E 2 90 40 4b
        E 9 90 30 44
        E 26 80 40 00
        E 31 80 43 00
        E 57 80 48 00
        E 130 80 30 00
        E 4 90 34 4c
        E 7 90 37 4a
        E 112 80 34 00
        E 13 80 37 00
        E 86 90 2b 55
        E 252 80 2b 00
        E 2 90 34 4a
        E 3 90 52 65
        E 3 90 48 51
        E 17 90 4c 3c
        E 3 90 37 4c
        E 30 80 4c 00
        E 26 80 34 00
        E 35 80 48 00
        E 13 80 37 00
        E 52 80 52 00
        E 76 90 35 50
        E 9 90 51 59
        E 11 90 4d 59
        E 2 90 48 4d
        E 98 80 48 00
        E 6 80 51 00
        E 17 80 4d 00
        E 80 80 35 00
        E 19 90 3c 47
        E 3 90 39 3c
        E 108 80 3c 00
        E 6 80 39 00
        E 126 90 4f 4b
        E 9 90 46 45
        E 8 90 30 49
        E 3 90 4c 3e
        E 28 80 4c 00
        E 52 80 4f 00
        E 5 80 46 00
        E 96 80 30 00
        E 43 90 39 3a
        E 11 90 3c 3d
        E 109 80 39 00
        E 15 80 3c 00
        E 124 90 35 4c
        E 4 90 48 4e
        E 2 90 4d 53
        E 3 90 45 49
        E 231 80 45 00
        E 13 80 35 00
        E 10 90 39 44
        E 9 90 3c 49
        E 135 80 3c 00
        E 7 80 48 00
        E 7 80 39 00
        E 10 80 4d 00
        E 56 90 30 58
        E 251 90 39 52
        E 2 90 3c 4f
        E 3 90 48 53
        E 8 90 4d 50
        E 2 90 45 4a
        E 3 80 30 00
        E 55 80 39 00
        E 9 80 3c 00
        E 6 80 4d 00
        E 41 80 45 00
        E 3 80 48 00
        E 116 90 30 5a
        E 6 90 4c 4f
        E 7 90 48 58
        E 8 90 43 4d
        E 84 80 43 00
        E 3 80 4c 00
        E 27 80 48 00
        E 16 80 30 00
        E 73 90 37 44
        E 40 90 34 2e
        E 48 80 34 00
        E 14 80 37 00
        E 159 90 2b 4c
        E 10 90 47 41
        E 2 90 4a 4c
        E 3 90 41 42
        E 36 80 47 00
        E 21 80 41 00
        E 9 80 4a 00
        E 70 80 2b 00
        E 88 90 34 3e
        E 12 90 37 32
        E 51 80 37 00
        E 23 80 34 00
        E 172 90 48 51
        E 4 90 43 44
        E 1 90 40 4c
        E 5 90 30 4c
        E 31 80 40 00
        E 37 80 43 00
        E 48 80 48 00
        E 134 90 34 49
        E 4 80 30 00
        E 12 90 37 43
        E 94 80 34 00
        E 45 80 37 00
        E 73 90 2b 48
        E 215 90 34 43
        E 3 80 2b 00
        E 16 90 52 5e
        E 8 90 48 45
        E 4 90 37 45
        E 5 90 4c 43
        E 27 80 4c 00
        E 5 80 34 00
        E 49 80 37 00
        E 4 80 48 00
        E 37 80 52 00
        E 98 90 35 52
        E 16 90 51 5c
        E 7 90 4d 58
        E 3 90 48 52
        E 106 80 51 00
        E 8 80 48 00
        E 2 80 4d 00
        E 69 80 35 00
        E 29 90 39 3e
        E 4 90 3c 46
        E 121 80 3c 00
        E 43 80 39 00
        E 54 90 4f 55
        E 3 90 46 5c
        E 7 90 4c 4a
        E 3 90 30 43
        E 124 80 4c 00
        E 55 80 4f 00
        E 2 80 46 00
        E 51 90 39 49
        E 8 80 30 00
        E 24 90 3c 41
        E 67 90 4a 53
        E 5 90 45 50
        E 4 90 4e 51
        E 30 80 39 00
        E 18 80 3c 00
        E 88 80 45 00
        E 3 90 36 4f
        E 27 80 4a 00
        E 4 80 4e 00
        E 83 90 4a 4c
        E 3 90 4e 46
        E 10 90 45 48
        E 40 80 45 00
        E 24 80 4a 00
        E 3 80 4e 00
        E 66 90 4e 57
        E 3 90 4a 51
        E 4 90 45 50
        E 22 90 39 3a
        E 6 90 3e 47
        E 10 80 36 00
        E 30 80 4a 00
        E 1 80 45 00
        E 11 80 4e 00
        E 38 90 4e 47
        E 10 90 45 5f
        E 3 90 4a 5d
        E 24 80 39 00
        E 46 80 45 00
        E 18 80 3e 00
        E 8 80 4a 00
        E 3 80 4e 00
        E 47 90 32 53
        E 6 90 4e 61
        E 5 90 45 54
        E 4 90 36 39
        E 5 90 4a 65
        E 107 80 45 00
        E 42 80 4a 00
        E 16 80 4e 00
        E 47 80 36 00
        E 17 90 4a 50
        E 6 80 32 00
        E 5 90 4e 57
        E 3 90 45 50
        E 30 90 3e 49
        E 3 80 45 00
        E 27 80 4a 00
        E 18 80 3e 00
        E 42 80 4e 00
        E 119 90 4a 56
        E 8 90 3a 3d
        E 75 80 4a 00
        E 64 90 4d 48
        E 89 80 4d 00
        E 22 80 3a 00
        E 16 90 3e 3f
        E 10 90 4a 4c
        E 3 90 41 44
        E 10 90 52 56
        E 3 90 4d 32
        E 36 80 4d 00
        E 38 80 3e 00
        E 36 80 41 00
        E 46 80 52 00
        E 36 80 4a 00
        E 37 90 35 4c
        E 152 90 4a 53
        E 3 90 52 52
        E 3 90 56 51
        E 112 80 35 00
        E 5 90 3e 4a
        E 15 90 41 44
        E 8 80 52 00
        E 10 80 56 00
        E 30 80 4a 00
        E 17 80 3e 00
        E 37 80 41 00
        E 151 90 4a 4e
        E 21 90 3b 3c
        E 51 80 4a 00
        E 61 90 4d 48
        E 90 80 4d 00
        E 10 80 3b 00
        E 38 90 3e 40
        E 4 90 4d 54
        E 9 90 41 3a
        E 14 90 4a 5a
        E 20 90 53 46
        E 60 80 4d 00
        E 39 80 41 00
        E 2 80 3e 00
        E 54 80 4a 00
        E 28 80 53 00
        E 20 90 35 4a
        E 180 90 53 59
        E 12 90 4a 50
        E 10 90 56 38
        E 53 90 3e 32
        E 3 80 35 00
        E 14 90 41 3c
        E 28 80 56 00
        E 27 80 53 00
        E 25 80 3e 00
        E 27 80 4a 00
        E 29 80 41 00
        E 119 90 3c 45
        E 13 90 4d 5c
        E 89 80 4d 00
        E 26 80 3c 00
        E 25 90 51 5b
        E 14 90 4d 55
        E 32 80 4d 00
        E 44 80 51 00
        E 30 90 45 49
        E 17 90 41 49
        E 4 90 4d 57
        E 13 90 54 5b
        E 5 90 48 5d
        E 50 80 45 00
        E 23 80 41 00
        E 114 80 48 00
        E 6 80 54 00
        E 28 90 35 55
        E 37 80 4d 00
        E 91 80 35 00
        E 16 90 4d 55
        E 5 90 49 61
        E 4 90 55 62
        E 138 80 4d 00
        E 2 80 49 00
        E 12 90 41 49
        E 14 90 45 40
        E 19 80 55 00
        E 83 80 41 00
        E 31 90 4e 5e
        E 3 80 45 00
        E 8 90 4a 5a
        E 3 90 56 5c
        E 129 90 3e 49
        E 5 80 4a 00
        E 6 80 56 00
        E 19 80 4e 00
        E 94 90 4e 50
        E 8 90 4a 4e
        E 8 90 56 4e
        E 32 80 4a 00
        E 20 80 56 00
        E 13 80 4e 00
        E 64 90 4e 61
        E 4 90 56 5a
        E 8 90 4a 56
        E 11 90 42 42
        E 21 80 3e 00
        E 9 90 45 40
        E 18 80 4a 00
        E 2 80 56 00
        E 5 80 4e 00
        E 59 90 4e 62
        E 3 90 56 5b
        E 4 90 4a 5d
        E 27 80 42 00
        E 58 80 45 00
        E 5 80 4a 00
        E 7 80 56 00
        E 2 80 4e 00
        E 36 90 39 56
        E 18 90 56 5d
        E 3 90 4e 62
        E 4 90 4a 56
        E 91 80 4a 00
        E 11 80 56 00
        E 28 80 4e 00
        E 84 90 4e 66
        E 9 90 56 62
        E 5 90 42 4b
        E 4 90 45 49
        E 4 90 4a 51
        E 27 80 45 00
        E 1 80 4a 00
        E 14 80 42 00
        E 23 80 4e 00
        E 2 80 39 00
        E 10 80 56 00
        E 268 90 59 52
        E 8 90 2b 46
        E 119 80 59 00
        E 32 80 2b 00
        E 9 90 5d 48
        E 119 90 2d 41
        E 37 90 56 4d
        E 53 80 5d 00
        E 50 80 2d 00
        E 55 90 59 4f
        E 21 80 56 00
        E 106 90 52 57
        E 11 90 2e 49
        E 111 80 59 00
        E 15 90 56 54
        E 10 80 2e 00
        E 2 80 52 00
        E 155 90 4f 49
        E 7 90 2f 2e
        E 12 80 56 00
        E 104 90 56 49
        E 13 80 4f 00
        E 9 80 2f 00
        E 122 80 56 00
        E 1 90 58 5a
        E 5 90 30 38
        E 134 90 5b 52
        E 14 80 30 00
        E 4 80 58 00
        E 112 90 2e 3c
        E 9 90 54 56
        E 31 80 5b 00
        E 97 80 2e 00
        E 9 90 58 55
        E 25 80 54 00
        E 90 90 2d 3f
        E 16 90 52 52
        E 11 80 58 00
        E 101 80 2d 00
        E 18 90 54 4e
        E 3 80 52 00
        E 140 90 2b 49
        E 13 90 4f 40
        E 8 80 54 00
        E 98 80 2b 00
        E 27 90 54 53
        E 29 80 4f 00
        E 65 80 54 00
        E 69 90 4d 52
        E 2 90 29 56
        E 3 90 35 57
        E 137 90 54 5d
        E 12 80 29 00
        E 38 80 4d 00
        E 10 80 35 00
        E 41 80 54 00
        E 295 90 4d 62
        E 8 90 3d 59
        E 10 90 31 5b
        E 110 80 3d 00
        E 2 90 55 56
        E 69 80 31 00
        E 2 80 4d 00
        E 47 80 55 00
        E 171 90 4d 57
        E 90 90 51 2a
        E 21 90 54 52
        E 19 90 56 52
        E 12 90 29 4e
        E 2 90 58 52
        E 1 90 35 4d
        E 8 80 4d 00
        E 16 80 51 00
        E 2 90 59 4c
        E 8 80 54 00
        E 19 80 56 00
        E 14 80 58 00
        E 33 90 4d 57
        E 96 80 4d 00
        E 12 80 59 00
        E 52 90 4d 65
        E 9 90 59 66
        E 67 80 59 00
        E 2 80 4d 00
        E 58 90 59 5d
        E 4 90 4d 60
        E 76 80 4d 00
        E 5 80 59 00
        E 43 90 59 56
        E 3 90 4d 5f
        E 104 80 4d 00
        E 3 80 59 00
        E 55 80 29 00
        E 140 90 4d 4c
        E 5 90 59 58
        E 64 80 4d 00
        E 15 80 59 00
        E 38 90 59 54
        E 5 80 35 00
        E 8 90 4d 5f
        E 74 80 59 00
        E 21 80 4d 00
        E 87 90 32 4e
        E 9 90 51 56
        E 3 90 4a 48
        E 4 90 4d 3f
        E 89 80 4a 00
        E 29 80 4d 00
        E 47 80 51 00
        E 31 80 32 00
        E 32 90 39 46
        E 9 90 35 43
        E 3 90 4d 38
        E 4 90 51 4c
        E 8 90 56 4c
        E 74 80 39 00
        E 21 80 4d 00
        E 8 80 51 00
        E 11 80 56 00
        E 7 80 35 00
        E 119 90 2d 4b
        E 3 90 4a 33
        E 8 90 51 49
        E 9 90 4d 23
        E 34 80 4d 00
        E 13 80 4a 00
        E 48 80 51 00
        E 39 80 2d 00
        E 102 90 39 46
        E 0 90 4d 38
        E 3 90 35 42
        E 3 90 56 4e
        E 7 90 51 4c
        E 90 80 39 00
        E 3 80 35 00
        E 1 80 4d 00
        E 8 80 56 00
        E 28 80 51 00
        E 108 90 4a 37
        E 1 90 51 47
        E 9 90 32 48
        E 13 90 4d 19
        E 17 80 4a 00
        E 24 80 4d 00
        E 17 80 51 00
        E 41 90 4d 4f
        E 10 90 51 49
        E 8 90 56 4f
        E 99 80 4d 00
        E 12 80 32 00
        E 8 80 56 00
        E 11 80 51 00
        E 1 90 39 38
        E 5 90 35 3c
        E 87 90 51 3d
        E 5 90 4d 3b
        E 4 90 56 3c
        E 12 90 4a 37
        E 13 80 39 00
        E 45 80 35 00
        E 29 80 51 00
        E 22 80 56 00
        E 34 90 2d 43
        E 62 80 4a 00
        E 39 90 50 50
        E 88 80 4d 00
        E 17 90 51 49
        E 30 80 2d 00
        E 1 90 35 44
        E 12 90 39 41
        E 3 80 50 00
        E 34 80 51 00
        E 12 80 39 00
        E 11 80 35 00
        E 135 90 51 56
        E 4 90 4a 4d
        E 4 90 32 48
        E 99 80 51 00
        E 36 90 50 59
        E 49 80 4a 00
        E 33 80 32 00
        E 16 90 35 3e
        E 2 90 51 4f
        E 15 90 39 39
        E 10 80 50 00
        E 17 80 51 00
        E 23 80 35 00
        E 10 80 39 00
        E 77 90 4f 5f
        E 12 90 48 4c
        E 2 90 4c 4f
        E 81 90 30 40
        E 126 80 30 00
        E 19 90 4e 50
        E 5 80 4f 00
        E 67 80 48 00
        E 57 80 4c 00
        E 20 90 4f 4c
        E 9 80 4e 00
        E 6 90 3a 35
        E 24 90 3c 26
        E 4 90 37 2a
        E 44 80 3c 00
        E 3 80 37 00
        E 7 90 4e 44
        E 17 80 3a 00
        E 13 80 4f 00
        E 47 80 4e 00
        E 78 90 35 56
        E 9 90 4d 62
        E 4 90 45 5b
        E 11 90 4a 4c
        E 119 80 4a 00
        E 10 80 45 00
        E 4 80 4d 00
        E 77 80 35 00
        E 16 90 39 3e
        E 9 90 3c 40
        E 108 80 39 00
        E 10 80 3c 00
        E 9 90 4a 50
        E 9 90 41 37
        E 6 90 45 3c
        E 47 80 41 00
        E 33 80 45 00
        E 39 90 30 50
        E 18 80 4a 00
        E 218 90 3c 51
        E 3 90 39 4c
        E 13 80 30 00
        E 61 80 39 00
        E 18 80 3c 00
        E 144 90 32 51
        E 23 90 4d 33
        E 3 90 51 50
        E 4 90 4a 31
        E 78 80 4a 00
        E 12 80 4d 00
        E 40 80 51 00
        E 37 80 32 00
        E 47 90 39 3e
        E 14 90 35 3f
        E 19 90 56 50
        E 3 90 4d 29
        E 2 90 51 45
        E 78 80 39 00
        E 14 80 51 00
        E 18 80 35 00
        E 2 80 56 00
        E 4 80 4d 00
        E 115 90 2d 4f
        E 9 90 4a 2e
        E 8 90 51 48
        E 8 90 4d 22
        E 32 80 4d 00
        E 44 80 4a 00
        E 42 80 51 00
        E 58 80 2d 00
        E 42 90 35 48
        E 5 90 39 47
        E 4 90 51 44
        E 3 90 4d 2f
        E 5 90 56 51
        E 92 80 39 00
        E 11 80 56 00
        E 2 80 35 00
        E 2 80 4d 00
        E 10 80 51 00
        E 116 90 4a 32
        E 7 90 51 3a
        E 4 90 32 4b
        E 3 90 4d 20
        E 31 80 4d 00
        E 2 80 51 00
        E 8 80 4a 00
        E 70 90 4d 30
        E 6 90 51 4c
        E 4 90 56 4d
        E 70 80 32 00
        E 25 80 56 00
        E 7 80 4d 00
        E 12 80 51 00
        E 2 90 39 33
        E 8 90 35 37
        E 80 90 4d 38
        E 3 80 39 00
        E 6 90 56 3d
        E 12 80 35 00
        E 22 90 4a 20
        E 56 90 2d 47
        E 38 80 56 00
        E 113 90 50 47
        E 37 80 4a 00
        E 55 90 51 50
        E 12 90 35 45
        E 3 90 39 4b
        E 26 80 4d 00
        E 9 80 50 00
        E 8 80 35 00
        E 18 80 51 00
        E 14 80 2d 00
        E 14 80 39 00
        E 148 90 4a 5b
        E 4 90 2b 5a
        E 4 90 47 55
        E 5 90 4f 58
        E 4 90 37 46
        E 28 80 47 00
        E 2 80 2b 00
        E 6 80 4f 00
        E 24 80 4a 00
        E 11 80 37 00
        E 157 90 4a 5c
        E 11 90 4f 57
        E 6 90 37 2d
        E 0 90 3b 2d
        E 0 90 3e 2d
        E 12 90 47 38
        E 34 80 37 00
        E 0 80 3b 00
        E 0 80 3e 00
        E 4 80 47 00
        E 85 80 4a 00
        E 10 80 4f 00
        E 102 90 2b 54
        E 4 90 37 45
        E 26 80 2b 00
        E 74 80 37 00
        E 13 90 4f 42
        E 94 80 4f 00
        E 9 90 37 4e
        E 1 90 3b 4e
        E 0 90 51 44
        E 7 90 3e 4e
        E 76 80 37 00
        E 2 80 3b 00
        E 7 80 3e 00
        E 38 90 4f 59
        E 55 80 51 00
        E 21 80 4f 00
        E 81 90 24 6b
        E 3 90 30 5d
        E 4 90 54 57
        E 5 90 48 51
        E 8 90 4c 44
        E 17 80 48 00
        E 12 80 4c 00
        E 7 80 24 00
        E 3 80 30 00
        E 28 80 54 00
        E 52 90 52 65
        E 2 90 4c 46
        E 4 90 48 57
        E 109 90 32 50
        E 8 90 26 4b
        E 5 80 48 00
        E 24 80 26 00
        E 7 80 4c 00
        E 2 80 52 00
        E 34 80 32 00
        E 42 90 4c 57
        E 10 90 51 55
        E 9 90 48 4f
        E 114 80 48 00
        E 13 90 33 4c
        E 21 90 27 46
        E 7 80 4c 00
        E 15 80 51 00
        E 13 80 27 00
        E 23 80 33 00
        E 43 90 4c 51
        E 12 90 4f 55
        E 4 90 48 59
        E 120 80 48 00
        E 14 90 34 3f
        E 6 90 28 33
        E 31 80 4c 00
        E 23 80 4f 00
        E 9 80 28 00
        E 35 80 34 00
        E 136 90 32 4f
        E 10 90 51 50
        E 3 90 4d 34
        E 5 90 4a 2f
        E 38 80 4a 00
        E 57 80 4d 00
        E 26 80 51 00
        E 78 80 32 00
        E 40 90 39 3f
        E 12 90 4d 2b
        E 3 90 56 4c
        E 5 90 35 3e
        E 8 90 51 3c
        E 34 80 51 00
        E 43 80 39 00
        E 12 80 56 00
        E 5 80 4d 00
        E 25 80 35 00
        E 114 90 2d 46
        E 11 90 4a 26
        E 7 90 51 41
        E 2 90 4d 22
        E 36 80 4d 00
        E 15 80 4a 00
        E 64 80 51 00
        E 18 80 2d 00
        E 85 90 39 46
        E 9 90 35 40
        E 9 90 4d 32
        E 2 90 51 48
        E 2 90 56 50
        E 74 80 39 00
        E 19 80 4d 00
        E 4 80 35 00
        E 3 80 56 00
        E 8 80 51 00
        E 128 90 4a 32
        E 7 90 51 3d
        E 2 90 32 4c
        E 9 90 4d 20
        E 28 80 4a 00
        E 2 80 4d 00
        E 7 80 51 00
        E 77 90 4d 37
        E 10 90 51 4b
        E 13 90 56 4a
        E 67 80 32 00
        E 3 80 56 00
        E 11 80 4d 00
        E 10 90 39 36
        E 3 80 51 00
        E 1 90 35 3a
        E 59 80 35 00
        E 23 80 39 00
        E 27 90 56 44
        E 14 90 4d 3f
        E 26 90 51 2e
        E 22 90 4a 20
        E 19 80 51 00
        E 3 90 2d 49
        E 67 80 56 00
        E 93 90 50 46
        E 85 90 39 41
        E 9 90 35 40
        E 9 90 51 3e
        E 10 80 4a 00
        E 13 80 35 00
        E 2 80 39 00
        E 7 80 4d 00
        E 19 80 50 00
        E 37 80 51 00
        E 7 80 2d 00
        E 129 90 24 5b
        E 8 90 54 66
        E 4 90 4c 58
        E 3 90 30 54
        E 4 90 49 5d
        E 15 80 24 00
        E 65 80 30 00
        E 26 80 54 00
        E 10 80 49 00
        E 9 80 4c 00
        E 120 90 49 66
        E 4 90 3c 5d
        E 4 90 37 58
        E 4 90 54 6b
        E 3 90 3a 45
        E 4 90 4c 62
        E 15 90 34 34
        E 29 80 3a 00
        E 21 80 3c 00
        E 14 80 37 00
        E 13 80 34 00
        E 50 80 49 00
        E 52 80 4c 00
        E 53 90 30 52
        E 8 90 24 51
        E 7 80 54 00
        E 26 80 24 00
        E 44 80 30 00
        E 72 90 51 46
        E 104 90 4f 56
        E 14 90 3c 48
        E 5 90 3a 40
        E 16 90 37 33
        E 7 80 51 00
        E 9 80 3c 00
        E 24 80 37 00
        E 3 80 4f 00
        E 25 80 3a 00
        E 132 90 48 47
        E 7 90 4d 3d
        E 11 90 45 37
        E 2 90 4f 38
        E 19 90 35 58
        E 80 80 4f 00
        E 19 80 45 00
        E 19 80 4d 00
        E 11 80 48 00
        E 113 80 35 00
        E 10 90 3c 46
        E 5 90 39 3a
        E 41 80 39 00
        E 53 80 3c 00
        E 7 90 45 51
        E 3 90 4a 56
        E 3 90 41 50
        E 90 80 41 00
        E 13 80 45 00
        E 34 90 30 4c
        E 10 80 4a 00
        E 176 80 30 00
        E 33 90 3c 46
        E 17 90 39 3d
        E 25 80 3c 00
        E 9 80 39 00
        E 199 90 46 43
        E 5 90 2e 46
        E 107 80 46 00
        E 2 90 4a 48
        E 95 90 3a 38
        E 8 80 2e 00
        E 23 90 4d 42
        E 21 90 35 25
        E 26 80 3a 00
        E 7 80 4a 00
        E 17 80 35 00
        E 36 80 4d 00
        E 132 90 2f 50
        E 3 90 47 50
        E 108 90 4a 47
        E 13 80 47 00
        E 88 80 2f 00
        E 19 90 35 40
        E 4 90 4d 41
        E 3 90 3b 38
        E 56 80 35 00
        E 6 80 4a 00
        E 17 80 3b 00
        E 24 80 4d 00
        E 103 90 30 57
        E 28 90 48 53
        E 8 90 50 5e
        E 9 90 4d 42
        E 33 80 4d 00
        E 30 80 48 00
        E 6 80 50 00
        E 8 80 30 00
        E 42 90 48 40
        E 11 90 51 5d
        E 21 80 48 00
        E 3 90 4d 25
        E 42 80 4d 00
        E 22 90 3c 46
        E 19 90 39 3c
        E 8 80 51 00
        E 24 90 30 39
        E 19 80 39 00
        E 18 80 3c 00
        E 70 80 30 00
        E 6 90 51 5d
        E 4 90 54 59
        E 5 90 4e 61
        E 127 90 32 4b
        E 4 90 26 5b
        E 32 80 26 00
        E 33 80 32 00
        E 40 80 51 00
        E 89 80 54 00
        E 5 80 4e 00
        E 54 90 3e 50
        E 8 90 3c 57
        E 6 90 36 50
        E 7 90 39 2e
        E 18 80 3c 00
        E 13 80 36 00
        E 7 80 39 00
        E 5 80 3e 00
        E 202 90 4f 6b
        E 3 90 57 68
        E 3 90 4b 61
        E 4 90 37 5f
        E 5 90 2d 47
        E 29 80 2d 00
        E 45 80 37 00
        E 28 80 57 00
        E 3 80 4f 00
        E 4 80 4b 00
        E 122 90 3b 3e
        E 6 90 41 50
        E 9 90 37 46
        E 4 90 4e 62
        E 4 90 4a 5d
        E 9 90 3e 32
        E 4 90 56 51
        E 5 80 41 00
        E 16 80 3e 00
        E 19 80 3b 00
        E 26 80 37 00
        E 29 80 56 00
        E 8 80 4a 00
        E 48 80 4e 00
        E 86 90 4c 56
        E 5 90 47 5e
        E 4 90 50 53
        E 2 90 30 5b
        E 3 90 24 51
        E 30 80 24 00
        E 11 80 30 00
        E 10 80 50 00
        E 8 80 4c 00
        E 5 80 47 00
        E 117 90 46 61
        E 4 90 51 5f
        E 18 90 48 2a
        E 42 90 3c 4f
        E 5 90 3a 3a
        E 5 90 37 3a
        E 10 80 48 00
        E 7 80 51 00
        E 2 80 46 00
        E 14 80 3a 00
        E 5 80 37 00
        E 42 80 3c 00
        E 61 90 48 58
        E 4 90 4d 61
        E 7 90 45 53
        E 122 90 35 59
        E 3 90 29 5c
        E 9 80 4d 00
        E 6 80 48 00
        E 2 80 45 00
        E 48 80 35 00
        E 25 80 29 00
        E 70 90 3c 5c
        E 91 80 3c 00
        E 34 90 30 57
        E 6 90 24 57
        E 14 90 3e 5e
        E 20 80 30 00
        E 35 80 24 00
        E 55 90 40 5d
        E 57 80 3e 00
        E 30 80 40 00
        E 71 90 29 64
        E 4 90 1d 63
        E 3 90 3c 5c
        E 5 90 41 64
        E 4 90 39 67
        E 155 80 39 00
        E 12 80 29 00
        E 11 80 1d 00
        E 38 80 41 00
        E 86 80 3c 00
        E 262 b0 7b 00
        GUID {45FF579B-CB23-441C-890A-657F4E18CE1D}
        IGNTEMPO 0 120 4 4
        SRCCOLOR 102
        VELLANE 66 99 0
        CFGEDITVIEW 5997.289166 0.041299 39 12 0 -1 0 0 0 0.5
        KEYSNAP 0
        TRACKSEL 0
        EVTFILTER 0 -1 -1 -1 -1 0 0 0 0 -1 -1 -1 -1 0 -1 0 -1 -1
        CFGEDIT 1 1 0 1 0 0 1 1 1 1 1 0.0625 196 120 1672 1026 0 0 0 0 0 0 0 0 0 0.5 0 0 1 64
      >
    >
  >
  <TRACK {BFF4149C-462C-4414-A3AD-FCA42A089760}
    NAME "Classic Electric Piano"
    PEAKCOL 16576
    BEAT -1
    AUTOMODE 0
    VOLPAN 1 0 -1 -1 1
    MUTESOLO 0 0 0
    IPHASE 0
    ISBUS 0 0
    BUSCOMP 0 0
    SHOWINMIX 1 0.6667 0.5 1 0.5 0 0 0
    FREEMODE 0
    SEL 0
    REC 0 4288 2 0 0 0 0
    VU 2
    TRACKHEIGHT 0 0
    INQ 0 0 0 0.5 100 0 0 100
    NCHAN 2
    FX 0
    TRACKID {BFF4149C-462C-4414-A3AD-FCA42A089760}
    PERF 0
    MIDIOUT 128
    MAINSEND 1 0
    <FXCHAIN
      WNDRECT 24 52 1075 635
      SHOW 0
      LASTSEL 0
      DOCKED 0
      BYPASS 0 0 0
      <VST "VSTi: sforzando (Plogue Art et Technologie, Inc)" "sforzando VST_x64.dll" 0 "" 1347176273
        UUdMUO5e7f4AAAAAAgAAAAEAAAAAAAAAAgAAAAAAAACoAQAAAQAAAAAAEAA=
        Q0VHUIcEAAB4nI2UTW+DMAyG75P2H6LcWxLoFxKs6tZp4oA2iU47Ti6NOrSQdBBQ9+9nKBQOq6AX6jdPbOclxlufU0lKkeWJVj7lU0bJ+uH+zttkCURQit6a6ziUnDJ9
        KGITbFFgfEaRJfjzImFMoo45+SlAJuYXlynJTSYgRdmnjk1JCueoVjZS6jh89OmcoxwG2+C1MKE+iHoXFEanYLBoJLXxKetLUpRC+jRRmLtIhTKUyKQUl81I5jHmsKsn
        SECFkwkRVU/TPJaN/ITbRObTBfJHqfcgd4Wqu0TBup4Ii5PkUIsKUky/g70UH5CdMP8e1HeAiw5n6EpnEmOIx1+gVNXmBI9z0hLdWMwoMV2V0/4zA3UUDWIwyOuFtPdX
        xwbfQHesSitMLTRN1o2GkKi20RJkcXHR+hfhV4TdQuxhxBlGZsPIfBhZDCPLYWQ1jLjDCGcjmBH+8hEG8xEO8xEW89sev0EGaVOs1/V0Ybuuze35cubOVyvWu0meVY1E
        G7y8B+2lg9jgCAbdtNbx8zXOhRSxEQecn8t9rzJ6VvuJweAPt2Mt8Q==
        AHRhYmxld2FycAAQAAAA
      >
      PRESETNAME tablewarp
      FLOATPOS 0 0 0 0
      FXID {E11A41DA-A796-4CF0-AF33-B6AAA7528700}
      WAK 0
    >
    <ITEM
      POSITION 0
      SNAPOFFS 0
      LENGTH 186
      LOOP 1
      ALLTAKES 0
      FADEIN 1 0 0 1 0 0
      FADEOUT 1 0 0 1 0 0
      MUTE 0
      SEL 0
      IGUID {56280B10-9603-4559-8765-421785CB0C39}
      IID 1
      NAME "Classic Electric Piano - SW - Cantina Band.mid"
      VOLPAN 1 0 1 -1
      SOFFS 1 2
      PLAYRATE 1 1 0 -1 0 0.0025
      CHANMODE 0
      GUID {1AEFFCE9-DB91-4F2C-8F84-D4583F71C6A6}
      <SOURCE MIDI
        HASDATA 1 480 QN
        POOLEDEVTS {CCB23368-B411-4694-A9B1-592A5548DC73}
        <X 0 0
          /1kCAAA=
        >
        E 1054 90 51 30
        E 464 90 56 35
        E 31 90 3e 23
        E 23 80 51 00
        E 333 90 45 23
        E 106 80 3e 00
        E 1127 90 3e 2d
        E 4 90 58 4d
        E 13 80 45 00
        E 136 80 56 00
        E 183 80 3e 00
        E 38 90 46 32
        E 282 80 58 00
        E 101 90 4d 1d
        E 211 80 46 00
        E 10 80 4d 00
        E 307 90 59 2d
        E 52 80 59 00
        E 40 90 5b 3e
        E 100 90 59 54
        E 9 90 3e 33
        E 35 80 5b 00
        E 269 80 3e 00
        E 56 90 45 2a
        E 43 80 45 00
        E 339 90 4d 2c
        E 152 80 4d 00
        E 740 90 41 2f
        E 9 90 51 37
        E 2 90 3a 28
        E 5 90 45 1d
        E 328 80 59 00
        E 565 80 51 00
        E 341 80 3a 00
        E 148 90 51 40
        E 91 80 45 00
        E 35 80 41 00
        E 514 90 56 47
        E 15 90 39 2f
        E 54 80 51 00
        E 356 80 39 00
        E 28 90 41 36
        E 334 90 4a 40
        E 23 80 56 00
        E 192 80 41 00
        E 66 90 58 4b
        E 166 80 4a 00
        E 137 90 59 4e
        E 73 80 58 00
        E 191 90 51 4d
        E 12 80 59 00
        E 109 80 51 00
        E 150 90 59 54
        E 5 90 3e 42
        E 3 90 45 43
        E 209 90 56 4c
        E 42 80 45 00
        E 37 80 59 00
        E 78 80 3e 00
        E 65 80 56 00
        E 8 90 5d 5d
        E 228 80 5d 00
        E 54 90 53 3e
        E 53 90 56 40
        E 35 90 43 32
        E 13 90 5b 57
        E 325 80 43 00
        E 392 90 37 47
        E 155 80 37 00
        E 642 90 2b 4c
        E 71 80 5b 00
        E 3 80 53 00
        E 96 80 56 00
        E 381 80 2b 00
        E 300 90 51 50
        E 876 90 56 56
        E 8 90 26 4f
        E 3 90 32 42
        E 80 80 51 00
        E 52 80 26 00
        E 66 80 32 00
        E 213 90 45 45
        E 315 80 56 00
        E 29 90 4d 57
        E 205 80 4d 00
        E 118 90 58 55
        E 27 80 45 00
        E 63 80 58 00
        E 257 90 4d 44
        E 13 90 51 43
        E 10 90 4a 43
        E 3 90 3e 40
        E 5 90 45 41
        E 30 90 59 57
        E 270 80 59 00
        E 22 80 4d 00
        E 20 90 56 5b
        E 43 80 4a 00
        E 13 80 51 00
        E 15 80 3e 00
        E 36 80 45 00
        E 8 80 56 00
        E 183 90 51 37
        E 52 90 54 4c
        E 17 90 48 3e
        E 9 90 45 46
        E 3 90 3c 40
        E 16 90 5d 5a
        E 277 80 51 00
        E 19 80 5d 00
        E 51 90 59 5d
        E 38 80 48 00
        E 17 80 54 00
        E 43 80 3c 00
        E 26 80 59 00
        E 96 80 45 00
        E 142 90 56 3b
        E 67 90 59 40
        E 19 90 3b 3a
        E 49 90 62 5b
        E 269 80 3b 00
        E 56 90 45 29
        E 68 80 45 00
        E 377 90 4d 2b
        E 145 80 62 00
        E 163 80 59 00
        E 88 80 56 00
        E 526 90 56 2b
        E 868 90 59 52
        E 71 80 56 00
        E 234 90 58 3a
        E 28 80 4d 00
        E 45 80 59 00
        E 215 90 56 35
        E 11 80 58 00
        E 44 80 56 00
        E 339 90 5d 46
        E 17 90 51 38
        E 4 90 4d 28
        E 11 90 45 28
        E 779 80 4d 00
        E 65 80 45 00
        E 260 80 5d 00
        E 7 90 59 3c
        E 78 80 51 00
        E 238 90 56 3a
        E 57 80 59 00
        E 342 90 45 26
        E 8 90 51 3a
        E 37 80 56 00
        E 178 80 51 00
        E 203 90 39 3e
        E 9 80 45 00
        E 243 80 39 00
        E 228 90 2d 49
        E 488 90 21 47
        E 223 80 2d 00
        E 410 90 15 44
        E 46 80 21 00
        E 371 80 15 00
        E 33 90 21 38
        E 146 80 21 00
        E 72 90 15 2b
        E 101 80 15 00
        E 49 90 21 2f
        E 92 80 21 00
        E 160 90 21 41
        E 68 80 21 00
        E 56 90 15 3a
        E 68 80 15 00
        E 33 90 21 47
        E 38 80 21 00
        E 66 90 15 3e
        E 39 80 15 00
        E 45 90 21 4a
        E 39 80 21 00
        E 57 90 15 4c
        E 69 80 15 00
        E 26 90 21 4c
        E 61 80 21 00
        E 36 90 15 4a
        E 78 80 15 00
        E 6 90 21 56
        E 93 80 21 00
        E 27 90 15 5b
        E 76 90 21 54
        E 4 80 15 00
        E 84 80 21 00
        E 28 90 15 57
        E 135 80 15 00
        E 19 90 21 4c
        E 26 90 15 57
        E 39 80 21 00
        E 55 90 21 4c
        E 23 80 15 00
        E 42 80 21 00
        E 177 90 3f 31
        E 19 90 32 46
        E 8 90 3e 4c
        E 10 90 45 4f
        E 84 80 3f 00
        E 1 80 3e 00
        E 28 80 45 00
        E 16 80 32 00
        E 49 90 39 36
        E 16 90 35 3e
        E 39 80 35 00
        E 30 80 39 00
        E 109 90 2d 48
        E 127 80 2d 00
        E 78 90 39 3a
        E 6 90 35 3a
        E 37 80 35 00
        E 4 80 39 00
        E 167 90 32 47
        E 128 80 32 00
        E 80 90 39 38
        E 3 90 35 3d
        E 44 80 39 00
        E 5 80 35 00
        E 165 90 2d 40
        E 138 80 2d 00
        E 66 90 39 36
        E 4 90 35 3a
        E 39 80 39 00
        E 1 80 35 00
        E 172 90 32 4b
        E 140 80 32 00
        E 71 90 35 37
        E 2 90 39 2c
        E 46 80 39 00
        E 8 80 35 00
        E 155 90 2d 3c
        E 128 80 2d 00
        E 82 90 35 37
        E 5 90 39 2f
        E 42 80 35 00
        E 2 80 39 00
        E 163 90 32 43
        E 125 80 32 00
        E 94 90 35 36
        E 8 90 39 1f
        E 36 80 35 00
        E 16 80 39 00
        E 150 90 2d 3c
        E 123 80 2d 00
        E 84 90 35 38
        E 13 90 39 29
        E 40 80 35 00
        E 4 80 39 00
        E 158 90 32 4b
        E 19 90 4a 3e
        E 11 90 51 40
        E 9 90 4d 32
        E 50 80 4d 00
        E 18 80 4a 00
        E 51 80 51 00
        E 24 80 32 00
        E 41 90 35 40
        E 2 90 39 35
        E 1 90 56 4c
        E 9 90 4d 26
        E 5 90 51 3c
        E 40 80 39 00
        E 4 80 51 00
        E 42 80 35 00
        E 2 80 56 00
        E 9 80 4d 00
        E 96 90 2d 47
        E 20 90 51 4e
        E 2 90 4a 42
        E 10 90 4d 34
        E 33 80 4d 00
        E 34 80 4a 00
        E 43 80 51 00
        E 22 80 2d 00
        E 61 90 35 44
        E 2 90 39 44
        E 13 90 51 43
        E 3 90 4d 40
        E 3 90 56 50
        E 63 80 39 00
        E 20 80 35 00
        E 15 80 56 00
        E 14 80 4d 00
        E 35 80 51 00
        E 59 90 51 4d
        E 1 90 4a 3b
        E 5 90 32 4c
        E 8 90 4d 24
        E 33 80 4a 00
        E 2 80 4d 00
        E 38 80 51 00
        E 40 90 4d 3b
        E 5 90 51 43
        E 18 90 56 49
        E 41 80 56 00
        E 18 80 4d 00
        E 14 90 35 3e
        E 2 80 51 00
        E 1 80 32 00
        E 2 90 39 38
        E 97 80 39 00
        E 2 90 56 49
        E 4 90 51 3a
        E 4 90 4d 3e
        E 32 80 35 00
        E 1 90 4a 35
        E 38 80 51 00
        E 47 90 2d 40
        E 3 80 56 00
        E 94 80 4a 00
        E 10 90 50 51
        E 95 80 4d 00
        E 7 80 2d 00
        E 10 90 51 4e
        E 2 90 35 43
        E 19 90 39 3a
        E 21 80 50 00
        E 18 80 39 00
        E 5 80 35 00
        E 9 80 51 00
        E 137 90 51 4c
        E 15 90 32 43
        E 3 90 4a 3d
        E 65 80 51 00
        E 50 90 50 4c
        E 56 80 4a 00
        E 24 80 32 00
        E 3 90 51 46
        E 11 90 35 3c
        E 21 80 50 00
        E 6 90 39 31
        E 14 80 51 00
        E 17 80 35 00
        E 51 80 39 00
        E 31 90 4f 5a
        E 3 90 4c 55
        E 12 90 48 46
        E 81 90 30 41
        E 104 80 30 00
        E 22 80 4f 00
        E 11 90 4e 50
        E 59 80 48 00
        E 25 80 4c 00
        E 58 90 4f 4e
        E 4 80 4e 00
        E 19 90 3a 40
        E 19 90 3c 37
        E 3 90 37 2d
        E 32 80 3c 00
        E 10 90 4e 59
        E 3 80 37 00
        E 20 80 3a 00
        E 14 80 4f 00
        E 49 80 4e 00
        E 80 90 35 56
        E 7 90 4d 5c
        E 3 90 45 55
        E 4 90 48 52
        E 120 80 45 00
        E 5 80 48 00
        E 11 80 4d 00
        E 60 80 35 00
        E 20 90 39 49
        E 12 90 3c 45
        E 105 80 3c 00
        E 2 80 39 00
        E 20 90 4a 5a
        E 3 90 45 52
        E 3 90 41 53
        E 67 80 41 00
        E 17 80 45 00
        E 46 80 4a 00
        E 1 90 30 3d
        E 191 80 30 00
        E 15 90 39 48
        E 3 90 3c 44
        E 31 80 39 00
        E 13 80 3c 00
        E 173 90 32 49
        E 12 90 4a 34
        E 5 90 4d 36
        E 4 90 51 4c
        E 46 80 4a 00
        E 46 80 4d 00
        E 21 80 51 00
        E 42 80 32 00
        E 63 90 39 39
        E 2 90 35 41
        E 17 90 4d 34
        E 2 90 56 4c
        E 4 90 51 45
        E 44 80 51 00
        E 4 80 4d 00
        E 3 80 39 00
        E 33 80 56 00
        E 8 80 35 00
        E 125 90 2d 45
        E 15 90 4a 38
        E 4 90 51 46
        E 8 90 4d 2d
        E 29 80 4a 00
        E 2 80 4d 00
        E 66 80 51 00
        E 50 80 2d 00
        E 54 90 39 44
        E 3 90 35 44
        E 14 90 51 48
        E 2 90 4d 3c
        E 2 90 56 4d
        E 67 80 39 00
        E 12 80 4d 00
        E 2 80 56 00
        E 2 80 35 00
        E 15 80 51 00
        E 123 90 32 4b
        E 6 90 4a 3c
        E 9 90 51 3d
        E 11 90 4d 2a
        E 26 80 4a 00
        E 6 80 4d 00
        E 3 80 51 00
        E 71 90 4d 40
        E 5 90 51 50
        E 8 90 56 54
        E 61 80 4d 00
        E 1 80 32 00
        E 13 90 39 33
        E 9 90 35 37
        E 9 80 51 00
        E 3 80 56 00
        E 44 80 35 00
        E 7 80 39 00
        E 61 90 56 36
        E 3 90 4d 44
        E 19 90 51 3c
        E 13 90 4a 38
        E 16 90 2d 4a
        E 11 80 51 00
        E 87 80 56 00
        E 69 80 4a 00
        E 16 90 50 51
        E 76 90 35 3e
        E 5 90 39 47
        E 11 90 51 51
        E 8 80 4d 00
        E 33 80 35 00
        E 8 80 50 00
        E 25 80 39 00
        E 6 80 51 00
        E 7 80 2d 00
        E 155 90 4a 66
        E 4 90 2b 54
        E 4 90 4f 55
        E 4 90 37 4d
        E 4 90 47 4f
        E 23 80 2b 00
        E 7 80 47 00
        E 3 80 4f 00
        E 19 80 4a 00
        E 16 80 37 00
        E 155 90 4a 68
        E 9 90 4f 50
        E 3 90 47 4c
        E 5 90 3e 4f
        E 3 90 37 46
        E 4 90 3b 3e
        E 20 80 3e 00
        E 5 80 47 00
        E 2 80 3b 00
        E 51 80 37 00
        E 24 80 4f 00
        E 6 80 4a 00
        E 125 90 37 49
        E 80 80 37 00
        E 39 90 4f 4b
        E 94 80 4f 00
        E 21 90 51 46
        E 17 90 3e 47
        E 18 90 37 33
        E 12 90 39 28
        E 7 80 3e 00
        E 31 80 37 00
        E 19 80 39 00
        E 14 90 4f 5f
        E 46 80 51 00
        E 33 80 4f 00
        E 54 90 30 63
        E 4 90 24 68
        E 28 90 4c 62
        E 3 90 54 69
        E 3 80 24 00
        E 5 90 48 4c
        E 8 80 30 00
        E 25 80 48 00
        E 25 80 4c 00
        E 2 80 54 00
        E 61 90 4c 66
        E 8 90 52 66
        E 4 90 48 50
        E 71 90 32 4e
        E 16 90 26 45
        E 29 80 26 00
        E 5 80 48 00
        E 15 80 32 00
        E 4 80 52 00
        E 7 80 4c 00
        E 73 90 4c 5e
        E 7 90 51 65
        E 14 90 48 50
        E 124 90 33 4c
        E 9 80 48 00
        E 10 90 27 46
        E 19 80 51 00
        E 12 80 27 00
        E 2 80 4c 00
        E 39 80 33 00
        E 37 90 4c 59
        E 7 90 4f 58
        E 4 90 48 5d
        E 113 90 28 46
        E 18 90 34 33
        E 3 80 48 00
        E 52 80 4c 00
        E 14 80 28 00
        E 6 80 4f 00
        E 49 80 34 00
        E 106 90 32 4c
        E 9 90 4d 38
        E 4 90 51 4a
        E 4 90 4a 2e
        E 34 80 4a 00
        E 52 80 4d 00
        E 19 80 51 00
        E 74 80 32 00
        E 44 90 39 3a
        E 2 90 4d 2e
        E 3 90 35 3d
        E 5 90 56 4b
        E 4 90 51 40
        E 37 80 51 00
        E 10 80 39 00
        E 12 80 4d 00
        E 21 80 56 00
        E 20 80 35 00
        E 128 90 2d 4b
        E 9 90 4a 31
        E 6 90 51 47
        E 11 90 4d 25
        E 34 80 4d 00
        E 17 80 4a 00
        E 57 80 51 00
        E 20 80 2d 00
        E 77 90 39 43
        E 7 90 35 40
        E 4 90 56 54
        E 4 90 4d 34
        E 2 90 51 41
        E 73 80 39 00
        E 12 80 51 00
        E 3 80 35 00
        E 16 80 56 00
        E 5 80 4d 00
        E 128 90 32 4a
        E 6 90 4a 2c
        E 3 90 51 46
        E 30 80 4a 00
        E 16 80 51 00
        E 85 90 51 4c
        E 6 90 4d 3e
        E 8 90 56 4e
        E 39 80 32 00
        E 39 80 4d 00
        E 1 90 39 32
        E 2 90 35 37
        E 3 80 51 00
        E 10 80 56 00
        E 33 80 39 00
        E 7 80 35 00
        E 68 90 56 3c
        E 7 90 4d 3c
        E 15 90 51 3b
        E 27 90 4a 28
        E 9 80 51 00
        E 11 90 2d 47
        E 56 80 56 00
        E 117 90 50 4f
        E 2 80 4a 00
        E 64 90 39 4e
        E 5 90 35 48
        E 20 90 51 55
        E 3 80 4d 00
        E 10 80 35 00
        E 45 80 50 00
        E 3 80 39 00
        E 31 80 2d 00
        E 8 80 51 00
        E 135 90 24 63
        E 3 90 4c 61
        E 2 90 30 50
        E 3 90 49 63
        E 5 90 54 5e
        E 20 80 24 00
        E 58 80 30 00
        E 28 80 49 00
        E 2 80 54 00
        E 16 80 4c 00
        E 110 90 49 63
        E 8 90 54 62
        E 3 90 4c 56
        E 6 90 3c 5a
        E 3 90 3a 49
        E 4 90 37 4c
        E 11 90 34 38
        E 29 80 3c 00
        E 18 80 3a 00
        E 12 80 34 00
        E 8 80 37 00
        E 46 80 49 00
        E 70 80 4c 00
        E 43 90 24 57
        E 13 90 30 40
        E 17 80 24 00
        E 36 80 54 00
        E 19 80 30 00
        E 78 90 51 4c
        E 108 90 3a 3a
        E 4 90 3c 3f
        E 4 90 4f 54
        E 24 90 37 25
        E 9 80 3c 00
        E 3 80 51 00
        E 25 80 3a 00
        E 9 80 4f 00
        E 2 80 37 00
        E 180 90 48 40
        E 3 90 45 40
        E 4 90 35 4f
        E 5 90 4d 38
        E 105 80 45 00
        E 6 80 4d 00
        E 21 80 48 00
        E 59 80 35 00
        E 29 90 3c 40
        E 14 90 39 2e
        E 72 80 39 00
        E 26 80 3c 00
        E 21 90 45 56
        E 7 90 4a 57
        E 4 90 41 4e
        E 45 80 41 00
        E 69 80 45 00
        E 2 90 30 43
        E 49 80 4a 00
        E 124 80 30 00
        E 41 90 39 3e
        E 3 90 3c 37
        E 31 80 39 00
        E 3 80 3c 00
        E 213 90 2e 44
        E 13 90 46 40
        E 102 80 46 00
        E 8 90 4a 45
        E 54 80 2e 00
        E 31 90 3a 34
        E 19 90 35 36
        E 10 90 4d 38
        E 25 80 3a 00
        E 3 80 35 00
        E 21 80 4a 00
        E 44 80 4d 00
        E 124 90 2f 4c
        E 12 90 47 4c
        E 102 90 4a 42
        E 22 80 47 00
        E 79 80 2f 00
        E 4 90 4d 47
        E 19 90 35 3d
        E 14 90 3b 35
        E 38 80 4a 00
        E 18 80 3b 00
        E 16 80 35 00
        E 3 80 4d 00
        E 120 90 30 53
        E 22 90 48 54
        E 3 90 50 5e
        E 7 90 4d 44
        E 30 80 4d 00
        E 31 80 48 00
        E 3 80 50 00
        E 25 80 30 00
        E 34 90 48 48
        E 14 90 4d 3c
        E 3 90 51 5e
        E 32 80 4d 00
        E 32 80 48 00
        E 35 90 3c 49
        E 10 80 51 00
        E 8 90 39 23
        E 23 90 30 40
        E 19 80 39 00
        E 21 80 3c 00
        E 57 80 30 00
        E 14 90 51 5f
        E 3 90 54 5c
        E 9 90 4e 56
        E 115 90 26 56
        E 4 90 32 54
        E 66 80 26 00
        E 16 80 32 00
        E 38 80 51 00
        E 68 80 54 00
        E 10 80 4e 00
        E 70 90 36 4b
        E 10 90 3e 58
        E 6 90 39 25
        E 46 80 39 00
        E 9 80 3e 00
        E 14 80 36 00
        E 166 90 57 69
        E 2 90 37 4a
        E 4 90 4f 61
        E 5 90 2b 34
        E 3 90 4b 59
        E 49 80 2b 00
        E 17 80 37 00
        E 33 80 4f 00
        E 10 80 4b 00
        E 5 80 57 00
        E 122 90 37 49
        E 4 90 3b 37
        E 12 90 56 65
        E 1 90 4a 4b
        E 2 90 41 2e
        E 3 90 3e 3e
        E 9 90 4e 50
        E 22 80 3e 00
        E 2 80 41 00
        E 27 80 3b 00
        E 33 80 37 00
        E 16 80 4a 00
        E 14 80 56 00
        E 31 80 4e 00
        E 96 90 30 58
        E 5 90 50 65
        E 5 90 24 39
        E 2 90 47 4e
        E 0 90 4c 35
        E 32 80 24 00
        E 7 80 4c 00
        E 2 80 47 00
        E 28 80 30 00
        E 14 80 50 00
        E 94 90 51 62
        E 11 90 46 38
        E 0 90 48 35
        E 33 80 46 00
        E 6 80 48 00
        E 15 80 51 00
        E 18 90 3a 46
        E 3 90 34 25
        E 0 90 3c 26
        E 48 80 34 00
        E 1 80 3c 00
        E 47 80 3a 00
        E 28 90 48 4f
        E 3 90 4d 46
        E 3 90 45 37
        E 130 90 35 5c
        E 9 90 29 56
        E 35 80 29 00
        E 25 80 35 00
        E 182 90 34 51
        E 2 90 28 4d
        E 30 80 34 00
        E 20 80 28 00
        E 234 90 32 4f
        E 7 90 26 3d
        E 25 80 32 00
        E 33 80 26 00
        E 140 80 45 00
        E 30 80 48 00
        E 0 80 4d 00
        E 21 90 30 4d
        E 4 90 24 44
        E 31 80 24 00
        E 49 80 30 00
        E 151 90 32 46
        E 137 90 51 59
        E 1 90 4d 3b
        E 11 90 4a 2c
        E 68 80 32 00
        E 20 80 51 00
        E 41 80 4a 00
        E 3 90 39 39
        E 1 90 35 3c
        E 2 80 4d 00
        E 81 90 4d 52
        E 9 90 4a 2f
        E 4 90 45 2f
        E 5 80 39 00
        E 31 80 35 00
        E 6 80 4a 00
        E 0 80 45 00
        E 22 80 4d 00
        E 72 90 2d 50
        E 2 90 4a 22
        E 5 90 51 52
        E 1 90 4d 3e
        E 47 80 51 00
        E 3 80 4a 00
        E 37 80 4d 00
        E 16 80 2d 00
        E 154 90 39 4a
        E 4 90 35 4c
        E 71 80 39 00
        E 3 80 35 00
        E 178 90 32 57
        E 125 90 51 56
        E 3 90 4a 30
        E 2 90 4d 2c
        E 65 80 32 00
        E 57 80 51 00
        E 22 80 4d 00
        E 4 80 4a 00
        E 2 90 39 3a
        E 9 90 35 3b
        E 91 80 39 00
        E 2 90 4a 30
        E 3 90 4d 4e
        E 5 90 45 35
        E 22 80 35 00
        E 8 80 4d 00
        E 6 80 45 00
        E 4 80 4a 00
        E 88 90 4a 2e
        E 4 90 4d 35
        E 6 90 2d 50
        E 8 90 51 4f
        E 44 80 51 00
        E 36 80 4a 00
        E 2 80 4d 00
        E 25 80 2d 00
        E 144 90 39 48
        E 3 90 35 4b
        E 56 80 39 00
        E 27 80 35 00
        E 173 90 32 53
        E 113 90 4a 56
        E 2 90 4d 4f
        E 2 90 51 56
        E 25 80 32 00
        E 105 80 4d 00
        E 10 80 51 00
        E 17 80 4a 00
        E 24 90 39 44
        E 22 90 35 3c
        E 45 80 35 00
        E 16 90 4a 30
        E 3 90 4d 4e
        E 5 90 45 35
        E 7 80 39 00
        E 23 80 4d 00
        E 7 80 45 00
        E 3 80 4a 00
        E 92 90 2d 4f
        E 5 90 4a 41
        E 2 90 4c 62
        E 2 90 50 54
        E 29 80 4a 00
        E 2 80 50 00
        E 28 80 4c 00
        E 70 90 4d 4c
        E 3 90 51 5f
        E 3 90 49 5d
        E 27 80 4d 00
        E 1 80 51 00
        E 3 80 2d 00
        E 22 80 49 00
        E 48 90 39 43
        E 3 90 35 41
        E 95 80 39 00
        E 10 80 35 00
        E 30 90 4a 5a
        E 3 90 4d 58
        E 8 90 45 50
        E 120 90 32 4f
        E 14 80 45 00
        E 3 80 4a 00
        E 23 80 4d 00
        E 152 80 32 00
        E 25 90 39 40
        E 2 90 35 3f
        E 97 80 39 00
        E 11 90 4a 5d
        E 3 90 45 50
        E 5 90 41 4b
        E 6 80 35 00
        E 31 80 41 00
        E 33 80 45 00
        E 68 80 4a 00
        E 4 90 2d 4c
        E 193 80 2d 00
        E 46 90 39 41
        E 2 90 35 44
        E 57 80 39 00
        E 18 80 35 00
        E 153 90 32 58
        E 122 90 4d 38
        E 5 90 51 5c
        E 3 90 4a 31
        E 106 80 32 00
        E 8 80 51 00
        E 28 80 4a 00
        E 19 90 39 3a
        E 4 80 4d 00
        E 5 90 35 3a
        E 72 90 4a 3d
        E 8 90 4d 5b
        E 3 90 45 43
        E 9 80 39 00
        E 23 80 4d 00
        E 1 80 4a 00
        E 4 80 45 00
        E 9 80 35 00
        E 80 90 4d 38
        E 7 90 4a 2e
        E 8 90 2d 50
        E 3 90 51 3f
        E 32 80 4a 00
        E 22 80 51 00
        E 13 80 4d 00
        E 79 80 2d 00
        E 102 90 39 49
        E 2 90 35 4b
        E 46 80 39 00
        E 26 80 35 00
        E 165 90 32 55
        E 138 90 4d 36
        E 2 90 4a 38
        E 2 90 51 59
        E 47 80 32 00
        E 80 80 51 00
        E 8 90 39 3d
        E 13 90 35 3c
        E 11 80 4d 00
        E 2 80 4a 00
        E 74 80 39 00
        E 8 80 35 00
        E 15 90 4d 53
        E 3 90 45 4c
        E 1 90 4a 42
        E 30 80 4a 00
        E 1 80 4d 00
        E 2 80 45 00
        E 70 90 2d 4f
        E 14 90 4d 38
        E 2 90 4a 37
        E 17 90 51 54
        E 63 80 4d 00
        E 2 80 4a 00
        E 28 80 51 00
        E 20 80 2d 00
        E 108 90 35 44
        E 2 90 39 3e
        E 51 80 39 00
        E 20 80 35 00
        E 168 90 32 54
        E 151 80 32 00
        E 2 90 51 57
        E 2 90 4a 3b
        E 9 90 4d 43
        E 115 80 51 00
        E 18 80 4d 00
        E 17 90 39 42
        E 13 80 4a 00
        E 2 90 35 40
        E 83 80 39 00
        E 14 90 4d 33
        E 4 80 35 00
        E 1 90 45 26
        E 0 90 4a 27
        E 34 80 4d 00
        E 15 80 45 00
        E 2 80 4a 00
        E 67 90 2d 55
        E 19 90 50 55
        E 3 90 4a 33
        E 1 90 4c 46
        E 31 80 4c 00
        E 5 80 4a 00
        E 39 80 50 00
        E 87 90 51 3e
        E 2 90 4a 3e
        E 0 90 4d 3e
        E 3 90 35 4a
        E 5 90 39 49
        E 25 80 51 00
        E 5 80 4a 00
        E 0 80 4d 00
        E 65 80 39 00
        E 47 80 35 00
        E 28 80 2d 00
        E 18 90 4b 56
        E 4 90 49 50
        E 5 90 4f 54
        E 142 90 27 63
        E 3 90 33 5d
        E 30 80 27 00
        E 51 80 33 00
        E 34 80 4f 00
        E 17 80 4b 00
        E 39 80 49 00
        E 62 90 31 4b
        E 0 90 37 54
        E 4 90 33 4c
        E 70 80 33 00
        E 15 80 31 00
        E 3 80 37 00
        E 71 90 48 5e
        E 4 90 4c 5f
        E 2 90 43 5c
        E 127 90 3c 61
        E 18 90 30 4d
        E 54 80 3c 00
        E 2 80 30 00
        E 23 80 43 00
        E 52 80 48 00
        E 43 80 4c 00
        E 67 90 30 63
        E 3 90 24 50
        E 69 80 30 00
        E 18 80 24 00
        E 164 90 32 4e
        E 119 90 4d 34
        E 1 90 51 51
        E 2 90 4a 36
        E 67 80 32 00
        E 51 80 51 00
        E 16 90 35 40
        E 9 90 39 3c
        E 3 80 4d 00
        E 1 80 4a 00
        E 110 90 4d 56
        E 2 90 45 4a
        E 5 80 39 00
        E 5 90 4a 3a
        E 19 80 35 00
        E 12 80 45 00
        E 1 80 4a 00
        E 24 80 4d 00
        E 78 90 2d 4f
        E 3 90 4d 32
        E 8 90 4a 30
        E 8 90 51 56
        E 59 80 51 00
        E 7 80 4a 00
        E 6 80 4d 00
        E 33 80 2d 00
        E 131 90 39 4b
        E 12 90 35 46
        E 48 80 35 00
        E 27 80 39 00
        E 165 90 32 5e
        E 143 90 4d 2f
        E 2 90 4a 33
        E 1 90 51 4e
        E 72 80 32 00
        E 50 80 51 00
        E 11 90 39 3d
        E 10 90 35 3c
        E 2 80 4d 00
        E 9 80 4a 00
        E 92 80 39 00
        E 9 90 45 43
        E 2 90 4a 36
        E 24 90 4d 52
        E 8 80 35 00
        E 2 80 4a 00
        E 3 80 45 00
        E 35 80 4d 00
        E 40 90 4d 37
        E 2 90 4a 3f
        E 25 90 2d 4d
        E 2 90 51 5f
        E 20 80 4a 00
        E 29 80 51 00
        E 11 80 4d 00
        E 63 80 2d 00
        E 144 90 35 4d
        E 5 90 39 45
        E 62 80 39 00
        E 23 80 35 00
        E 169 90 32 58
        E 137 90 4d 40
        E 2 90 51 5a
        E 1 90 4a 45
        E 40 80 32 00
        E 78 80 51 00
        E 9 80 4d 00
        E 14 80 4a 00
        E 40 90 39 43
        E 17 90 35 3f
        E 31 90 45 31
        E 0 90 4a 31
        E 5 90 4d 5c
        E 40 80 4d 00
        E 1 80 45 00
        E 0 80 4a 00
        E 2 80 35 00
        E 10 80 39 00
        E 86 90 50 63
        E 10 90 4a 46
        E 0 90 4c 46
        E 17 90 2d 51
        E 17 80 4a 00
        E 0 80 4c 00
        E 37 80 50 00
        E 83 90 51 5d
        E 3 90 49 61
        E 5 90 4d 43
        E 29 80 4d 00
        E 8 80 2d 00
        E 18 80 51 00
        E 25 80 49 00
        E 24 90 35 41
        E 3 90 39 46
        E 107 80 39 00
        E 5 80 35 00
        E 30 90 4d 62
        E 5 90 4a 5d
        E 5 90 45 58
        E 119 90 32 4f
        E 18 80 4a 00
        E 29 80 45 00
        E 3 80 4d 00
        E 133 80 32 00
        E 35 90 35 46
        E 11 90 39 3e
        E 81 80 39 00
        E 6 80 35 00
        E 28 90 4a 5b
        E 3 90 45 51
        E 8 90 41 4c
        E 33 80 41 00
        E 44 80 45 00
        E 32 90 2d 3f
        E 42 80 4a 00
        E 131 80 2d 00
        E 43 90 39 3d
        E 9 90 35 3a
        E 33 80 35 00
        E 2 80 39 00
        E 198 90 2e 44
        E 25 90 46 41
        E 108 80 46 00
        E 8 90 4a 47
        E 64 80 2e 00
        E 16 90 3a 35
        E 16 90 35 34
        E 9 90 4d 46
        E 35 80 35 00
        E 12 80 3a 00
        E 16 80 4a 00
        E 57 80 4d 00
        E 125 90 47 4f
        E 1 90 2f 4d
        E 118 90 4a 43
        E 22 80 47 00
        E 83 90 4d 46
        E 3 80 2f 00
        E 28 90 35 40
        E 8 90 3b 37
        E 49 80 4a 00
        E 20 80 3b 00
        E 19 80 4d 00
        E 5 80 35 00
        E 106 90 30 55
        E 19 90 48 53
        E 8 90 50 5e
        E 8 90 4d 4b
        E 31 80 4d 00
        E 35 80 48 00
        E 2 80 50 00
        E 58 90 4d 3e
        E 5 90 51 5f
        E 2 90 48 51
        E 10 80 30 00
        E 20 80 4d 00
        E 48 80 51 00
        E 17 80 48 00
        E 1 90 39 41
        E 5 90 3c 50
        E 19 90 30 3c
        E 71 80 39 00
        E 13 80 3c 00
        E 18 80 30 00
        E 33 90 4a 52
        E 9 90 42 50
        E 141 90 32 56
        E 2 90 26 63
        E 72 80 32 00
        E 4 80 26 00
        E 84 80 4a 00
        E 29 80 42 00
        E 75 90 26 5f
        E 2 90 32 56
        E 53 80 26 00
        E 36 80 32 00
        E 160 90 2b 5e
        E 29 90 3e 57
        E 113 90 41 42
        E 22 80 3e 00
        E 106 90 37 3f
        E 2 90 32 3b
        E 18 90 46 43
        E 78 80 37 00
        E 1 80 32 00
        E 48 80 41 00
        E 16 90 4a 41
        E 9 80 2b 00
        E 52 80 46 00
        E 15 80 4a 00
        E 46 90 44 5a
        E 7 90 41 5e
        E 3 90 3b 63
        E 7 90 24 50
        E 4 90 30 55
        E 37 80 3b 00
        E 24 80 44 00
        E 1 80 41 00
        E 82 90 40 56
        E 5 90 45 3a
        E 12 90 3a 55
        E 25 80 45 00
        E 76 80 40 00
        E 4 80 3a 00
        E 25 80 24 00
        E 74 80 30 00
        E 51 90 39 5a
        E 7 90 3c 5e
        E 7 90 41 51
        E 137 90 35 56
        E 3 90 29 58
        E 35 80 35 00
        E 2 80 29 00
        E 220 90 28 54
        E 3 90 34 51
        E 30 80 28 00
        E 2 80 34 00
        E 226 90 32 46
        E 6 90 26 46
        E 24 80 32 00
        E 8 80 26 00
        E 187 80 39 00
        E 25 90 24 53
        E 7 90 30 49
        E 22 80 3c 00
        E 3 80 24 00
        E 22 80 30 00
        E 30 80 41 00
        E 193 90 3e 5e
        E 1 90 41 63
        E 2 90 32 5d
        E 78 80 32 00
        E 95 80 3e 00
        E 39 80 41 00
        E 7 90 3c 43
        E 38 80 3c 00
        E 122 90 41 5e
        E 7 90 44 57
        E 101 90 2e 41
        E 9 90 3a 38
        E 39 80 2e 00
        E 19 80 3a 00
        E 60 80 41 00
        E 14 90 3e 4b
        E 23 80 44 00
        E 75 80 3e 00
        E 39 90 40 63
        E 2 90 39 53
        E 9 90 2d 4c
        E 3 90 43 58
        E 72 80 2d 00
        E 2 80 39 00
        E 167 90 37 43
        E 6 90 2b 43
        E 41 80 37 00
        E 5 80 40 00
        E 27 80 2b 00
        E 15 80 43 00
        E 25 90 3e 4d
        E 112 80 3e 00
        E 20 90 44 52
        E 8 90 35 44
        E 3 90 29 40
        E 4 90 41 46
        E 49 80 35 00
        E 27 80 29 00
        E 46 90 3e 4f
        E 12 80 44 00
        E 2 80 41 00
        E 91 90 43 52
        E 9 80 3e 00
        E 2 90 34 4a
        E 12 90 28 46
        E 13 90 40 36
        E 4 80 34 00
        E 43 80 28 00
        E 61 80 43 00
        E 6 90 3e 57
        E 52 80 40 00
        E 64 90 26 4c
        E 3 90 32 47
        E 18 80 3e 00
        E 3 90 44 58
        E 4 90 41 55
        E 5 80 26 00
        E 65 80 32 00
        E 56 80 44 00
        E 13 80 41 00
        E 6 90 3e 4d
        E 32 80 3e 00
        E 74 90 3e 5b
        E 17 90 41 6b
        E 14 90 32 65
        E 105 80 32 00
        E 137 80 3e 00
        E 4 90 3c 51
        E 32 80 3c 00
        E 2 80 41 00
        E 109 90 41 5c
        E 5 90 44 5e
        E 99 90 2e 44
        E 8 90 3a 3a
        E 56 80 3a 00
        E 7 80 2e 00
        E 8 80 41 00
        E 36 80 44 00
        E 61 90 3e 5a
        E 125 90 39 4a
        E 10 90 2d 45
        E 2 90 43 61
        E 7 90 40 54
        E 8 80 3e 00
        E 47 80 2d 00
        E 1 80 39 00
        E 202 90 37 46
        E 2 90 2b 44
        E 49 80 40 00
        E 14 80 37 00
        E 22 80 2b 00
        E 25 80 43 00
        E 10 90 3e 54
        E 108 80 3e 00
        E 13 90 44 59
        E 7 90 41 46
        E 3 90 35 4c
        E 14 90 29 40
        E 26 80 35 00
        E 12 80 29 00
        E 73 90 3e 52
        E 18 80 44 00
        E 24 80 41 00
        E 65 90 34 47
        E 11 90 43 5d
        E 3 80 3e 00
        E 7 90 28 37
        E 9 90 40 4c
        E 4 80 34 00
        E 23 80 28 00
        E 84 80 43 00
        E 6 90 3e 5d
        E 52 80 40 00
        E 51 90 32 40
        E 3 90 26 40
        E 4 80 3e 00
        E 18 90 44 57
        E 6 90 41 51
        E 4 80 26 00
        E 61 80 32 00
        E 50 90 3e 59
        E 29 80 41 00
        E 6 80 44 00
        E 29 80 3e 00
        E 77 90 32 4d
        E 3 90 3e 66
        E 9 90 41 58
        E 73 80 32 00
        E 129 80 41 00
        E 1 80 3e 00
        E 14 90 3c 49
        E 53 80 3c 00
        E 94 90 44 5a
        E 8 90 41 5c
        E 108 90 2e 49
        E 2 90 3a 3c
        E 36 80 2e 00
        E 18 80 3a 00
        E 16 80 41 00
        E 64 90 3e 4f
        E 9 80 44 00
        E 87 80 3e 00
        E 46 90 40 5c
        E 3 90 39 4c
        E 3 90 43 5a
        E 5 90 2d 46
        E 68 80 39 00
        E 12 80 2d 00
        E 159 90 37 46
        E 4 90 2b 43
        E 45 80 40 00
        E 1 80 37 00
        E 32 80 2b 00
        E 15 80 43 00
        E 27 90 3e 4e
        E 95 80 3e 00
        E 33 90 44 50
        E 8 90 35 3f
        E 4 90 41 4b
        E 30 80 35 00
        E 87 90 3e 50
        E 5 80 44 00
        E 6 80 41 00
        E 105 90 34 46
        E 3 90 28 44
        E 5 80 3e 00
        E 4 90 40 4b
        E 4 90 43 55
        E 15 80 28 00
        E 5 80 34 00
        E 110 80 43 00
        E 6 90 3e 5a
        E 47 80 40 00
        E 49 80 3e 00
        E 30 90 3a 41
        E 3 90 44 54
        E 10 90 41 50
        E 7 90 2e 3d
        E 72 80 3a 00
        E 21 80 2e 00
        E 10 90 3e 59
        E 36 80 41 00
        E 8 80 44 00
        E 34 80 3e 00
        E 67 90 41 51
        E 4 90 3e 69
        E 9 90 32 52
        E 8 90 26 44
        E 39 80 41 00
        E 24 80 3e 00
        E 58 90 41 4c
        E 3 90 3e 4c
        E 37 90 44 2b
        E 44 80 3e 00
        E 143 90 3e 57
        E 23 80 41 00
        E 6 80 44 00
        E 83 90 40 54
        E 12 90 43 4e
        E 4 80 3e 00
        E 146 80 43 00
        E 5 90 3e 57
        E 53 80 40 00
        E 52 90 44 50
        E 4 80 3e 00
        E 25 90 41 46
        E 115 90 3e 50
        E 4 80 41 00
        E 10 80 44 00
        E 96 90 40 50
        E 8 80 3e 00
        E 6 90 43 52
        E 126 80 43 00
        E 18 90 3e 51
        E 50 80 40 00
        E 64 90 44 5b
        E 3 80 3e 00
        E 23 90 41 46
        E 117 90 3e 52
        E 9 80 41 00
        E 5 80 44 00
        E 37 80 26 00
        E 61 80 3e 00
        E 6 80 32 00
        E 6 90 43 54
        E 4 90 40 50
        E 116 80 43 00
        E 17 90 3e 5a
        E 40 80 40 00
        E 37 80 3e 00
        E 55 90 44 53
        E 4 90 41 56
        E 18 90 2d 61
        E 6 90 39 59
        E 75 90 3e 61
        E 4 80 2d 00
        E 26 80 39 00
        E 7 80 41 00
        E 11 80 44 00
        E 40 80 3e 00
        E 73 90 41 71
        E 3 90 3e 63
        E 29 90 32 6b
        E 60 80 32 00
        E 118 80 3e 00
        E 44 80 41 00
        E 12 90 3c 5c
        E 77 80 3c 00
        E 48 90 41 5a
        E 4 90 44 55
        E 122 90 2e 4a
        E 4 90 3a 38
        E 38 80 2e 00
        E 28 80 3a 00
        E 13 80 41 00
        E 55 80 44 00
        E 14 90 3e 53
        E 90 80 3e 00
        E 24 90 39 4f
        E 5 90 2d 4c
        E 12 90 40 56
        E 3 90 43 52
        E 60 80 39 00
        E 18 80 2d 00
        E 150 90 2b 50
        E 3 90 37 4a
        E 50 80 40 00
        E 36 80 2b 00
        E 1 80 37 00
        E 35 80 43 00
        E 20 90 3e 4b
        E 93 80 3e 00
        E 15 90 44 53
        E 11 90 35 44
        E 2 90 41 3f
        E 10 90 29 32
        E 21 80 35 00
        E 29 80 29 00
        E 59 90 3e 50
        E 9 80 44 00
        E 1 80 41 00
        E 108 90 34 49
        E 2 80 3e 00
        E 3 90 43 51
        E 8 90 40 44
        E 43 80 34 00
        E 88 80 43 00
        E 7 90 3e 51
        E 51 80 40 00
        E 55 90 32 41
        E 4 90 26 40
        E 32 90 41 55
        E 8 90 44 4b
        E 16 80 3e 00
        E 23 80 26 00
        E 52 80 32 00
        E 39 90 3e 50
        E 20 80 41 00
        E 5 80 44 00
        E 12 80 3e 00
        E 95 90 32 6d
        E 3 90 3e 69
        E 4 90 41 5c
        E 85 80 32 00
        E 146 80 3e 00
        E 4 90 3c 54
        E 13 80 41 00
        E 49 80 3c 00
        E 72 90 41 5d
        E 3 90 44 5c
        E 107 90 2e 55
        E 3 90 3a 40
        E 43 80 2e 00
        E 46 80 3a 00
        E 9 80 41 00
        E 47 80 44 00
        E 20 90 3e 4e
        E 103 90 39 55
        E 6 90 40 61
        E 3 90 2d 50
        E 5 90 43 5e
        E 20 80 3e 00
        E 41 80 39 00
        E 23 80 2d 00
        E 157 90 37 44
        E 8 90 2b 43
        E 16 80 40 00
        E 49 80 37 00
        E 20 80 2b 00
        E 11 80 43 00
        E 20 90 3e 40
        E 86 80 3e 00
        E 33 90 44 45
        E 16 90 35 3c
        E 3 90 41 3e
        E 7 90 29 37
        E 24 80 35 00
        E 28 80 29 00
        E 46 80 41 00
        E 19 80 44 00
        E 2 90 3e 4c
        E 90 80 3e 00
        E 17 90 43 50
        E 4 90 34 3e
        E 3 90 40 44
        E 20 90 28 33
        E 10 80 34 00
        E 33 80 28 00
        E 68 80 43 00
        E 9 90 3e 4f
        E 56 80 40 00
        E 38 90 26 46
        E 11 90 32 2c
        E 29 80 26 00
        E 2 90 44 5b
        E 5 90 41 52
        E 27 80 3e 00
        E 37 80 32 00
        E 55 90 3e 52
        E 24 80 41 00
        E 3 80 44 00
        E 52 80 3e 00
        E 46 90 32 63
        E 8 90 41 6b
        E 9 90 3e 64
        E 75 80 32 00
        E 143 90 3c 4d
        E 9 80 3e 00
        E 14 80 41 00
        E 19 90 30 2b
        E 34 80 3c 00
        E 10 80 30 00
        E 61 90 41 5e
        E 3 90 44 5b
        E 101 90 2e 50
        E 6 90 3a 3d
        E 72 80 3a 00
        E 5 80 2e 00
        E 38 80 41 00
        E 24 80 44 00
        E 19 90 3e 4d
        E 108 80 3e 00
        E 2 90 39 4c
        E 9 90 2d 46
        E 3 90 40 5a
        E 5 90 43 55
        E 69 80 39 00
        E 11 80 2d 00
        E 159 90 37 40
        E 7 90 2b 3a
        E 46 80 40 00
        E 3 80 37 00
        E 22 80 43 00
        E 9 80 2b 00
        E 11 90 3e 4b
        E 100 80 3e 00
        E 40 90 41 43
        E 3 90 44 4d
        E 19 90 35 43
        E 27 90 29 26
        E 8 80 35 00
        E 44 80 29 00
        E 22 80 41 00
        E 20 90 3e 4d
        E 4 80 44 00
        E 99 90 34 46
        E 14 80 3e 00
        E 0 90 43 4c
        E 19 80 34 00
        E 3 90 40 2b
        E 125 90 3e 55
        E 8 80 43 00
        E 48 80 40 00
        E 54 90 26 37
        E 21 90 44 49
        E 9 90 32 24
        E 3 90 41 47
        E 22 80 3e 00
        E 31 80 26 00
        E 33 80 32 00
        E 38 90 3e 46
        E 24 80 41 00
        E 8 80 3e 00
        E 2 80 44 00
        E 90 90 41 57
        E 3 90 3e 59
        E 4 90 32 61
        E 54 80 41 00
        E 18 80 32 00
        E 5 80 3e 00
        E 47 90 3e 56
        E 9 90 41 49
        E 44 80 41 00
        E 40 80 3e 00
        E 27 90 3a 44
        E 10 90 2e 4c
        E 8 90 41 5d
        E 11 90 44 62
        E 16 80 3a 00
        E 15 80 2e 00
        E 109 90 3e 52
        E 15 80 44 00
        E 1 80 41 00
        E 85 90 39 4e
        E 10 90 2d 44
        E 3 90 43 5e
        E 19 90 40 47
        E 5 80 3e 00
        E 8 80 39 00
        E 11 80 2d 00
        E 99 80 43 00
        E 6 90 3e 5c
        E 47 80 40 00
        E 45 90 37 4c
        E 6 80 3e 00
        E 17 90 2b 36
        E 3 90 44 59
        E 9 90 41 57
        E 65 80 2b 00
        E 2 80 37 00
        E 50 80 44 00
        E 21 90 3e 5e
        E 144 80 3e 00
        E 9 80 41 00
        E 14 90 26 72
        E 4 90 32 6d
        E 160 90 4a 6c
        E 2 90 56 6a
        E 76 80 4a 00
        E 6 80 56 00
        E 153 80 26 00
        E 28 90 4a 50
        E 3 90 56 61
        E 62 80 4a 00
        E 7 80 32 00
        E 8 80 56 00
        E 50 90 4a 69
        E 4 90 56 69
        E 85 80 4a 00
        E 10 80 56 00
        E 145 90 4a 5b
        E 9 90 56 55
        E 61 80 56 00
        E 11 80 4a 00
        E 59 90 56 5c
        E 3 90 4a 69
        E 55 80 56 00
        E 14 80 4a 00
        E 53 90 32 58
        E 13 90 4d 5e
        E 3 90 51 62
        E 109 80 4d 00
        E 33 80 51 00
        E 46 80 32 00
        E 40 90 39 46
        E 11 90 35 46
        E 6 90 51 42
        E 5 90 4d 44
        E 3 90 56 50
        E 89 80 39 00
        E 6 80 4d 00
        E 4 80 56 00
        E 4 80 51 00
        E 25 80 35 00
        E 115 90 2d 4a
        E 2 90 4a 3d
        E 4 90 51 44
        E 14 90 4d 38
        E 33 80 4d 00
        E 17 80 4a 00
        E 51 80 51 00
        E 42 80 2d 00
        E 78 90 35 46
        E 2 90 39 43
        E 3 90 56 50
        E 8 90 51 45
        E 2 90 4d 3d
        E 82 80 39 00
        E 11 80 35 00
        E 15 80 56 00
        E 2 80 4d 00
        E 4 80 51 00
        E 128 90 4a 41
        E 2 90 32 49
        E 5 90 51 48
        E 2 90 4d 17
        E 29 80 4a 00
        E 15 80 4d 00
        E 1 80 51 00
        E 80 90 51 50
        E 4 90 4d 4e
        E 6 90 56 53
        E 86 80 56 00
        E 9 80 32 00
        E 3 90 39 3e
        E 8 90 35 43
        E 7 80 4d 00
        E 7 80 51 00
        E 76 80 39 00
        E 39 90 56 44
        E 12 90 51 3a
        E 5 90 4d 46
        E 33 90 4a 31
        E 10 80 35 00
        E 52 80 51 00
        E 10 90 2d 3d
        E 37 80 56 00
        E 96 90 50 54
        E 14 80 4a 00
        E 70 80 4d 00
        E 18 80 2d 00
        E 3 90 35 42
        E 9 90 51 4e
        E 10 90 39 40
        E 49 80 50 00
        E 35 80 35 00
        E 5 80 51 00
        E 12 80 39 00
        E 125 90 32 46
        E 3 90 51 52
        E 4 90 4a 48
        E 117 80 51 00
        E 7 90 50 53
        E 70 80 4a 00
        E 34 80 32 00
        E 6 90 35 3a
        E 11 90 51 4b
        E 14 90 39 2d
        E 20 80 50 00
        E 23 80 51 00
        E 50 80 35 00
        E 38 80 39 00
        E 13 90 4f 56
        E 2 90 4c 52
        E 5 90 48 4c
        E 84 90 30 49
        E 105 80 30 00
        E 13 90 4e 5a
        E 11 80 4f 00
        E 70 80 48 00
        E 40 80 4c 00
        E 28 90 4f 53
        E 14 80 4e 00
        E 28 90 3c 2d
        E 9 90 3a 2c
        E 32 80 3c 00
        E 13 90 4e 4c
        E 20 80 3a 00
        E 17 80 4f 00
        E 53 80 4e 00
        E 83 90 35 53
        E 8 90 45 59
        E 3 90 4d 5b
        E 3 90 48 57
        E 156 80 45 00
        E 5 80 4d 00
        E 8 80 48 00
        E 59 90 39 47
        E 1 80 35 00
        E 7 90 3c 4b
        E 107 80 39 00
        E 6 80 3c 00
        E 12 90 45 59
        E 3 90 4a 5f
        E 2 90 41 54
        E 76 80 45 00
        E 7 80 41 00
        E 51 80 4a 00
        E 19 90 30 50
        E 213 90 39 4d
        E 4 90 3c 49
        E 27 80 30 00
        E 10 80 3c 00
        E 37 80 39 00
        E 155 90 32 4f
        E 5 90 51 52
        E 7 90 4d 43
        E 3 90 4a 3f
        E 49 80 4a 00
        E 40 80 4d 00
        E 49 80 51 00
        E 45 80 32 00
        E 39 90 39 3c
        E 8 90 35 42
        E 11 90 56 4e
        E 3 90 4d 35
        E 5 90 51 3a
        E 49 80 51 00
        E 27 80 39 00
        E 8 80 4d 00
        E 16 80 56 00
        E 8 80 35 00
        E 124 90 2d 47
        E 11 90 4a 39
        E 4 90 51 41
        E 8 90 4d 2f
        E 33 80 4d 00
        E 6 80 4a 00
        E 64 80 51 00
        E 37 80 2d 00
        E 77 90 35 44
        E 2 90 39 43
        E 10 90 56 4f
        E 9 90 4d 39
        E 5 90 51 42
        E 80 80 39 00
        E 11 80 56 00
        E 2 80 35 00
        E 12 80 4d 00
        E 8 80 51 00
        E 119 90 4a 3c
        E 10 90 32 4d
        E 2 90 51 3a
        E 9 90 4d 22
        E 20 80 4a 00
        E 13 80 51 00
        E 9 80 4d 00
        E 60 90 4d 51
        E 6 90 51 4e
        E 11 90 56 4c
        E 89 80 4d 00
        E 4 80 56 00
        E 2 80 51 00
        E 1 80 32 00
        E 11 90 35 34
        E 5 90 39 2b
        E 68 80 39 00
        E 34 80 35 00
        E 3 90 56 35
        E 3 90 4d 3c
        E 20 90 51 2f
        E 35 90 4a 2f
        E 4 80 51 00
        E 28 90 2d 41
        E 55 80 56 00
        E 69 90 50 3e
        E 82 80 4a 00
        E 42 90 35 3d
        E 11 90 39 43
        E 10 90 51 41
        E 18 80 4d 00
        E 39 80 50 00
        E 13 80 39 00
        E 2 80 35 00
        E 13 80 51 00
        E 17 80 2d 00
        E 123 90 4a 66
        E 4 90 2b 48
        E 4 90 4f 5b
        E 4 90 47 50
        E 4 90 37 52
        E 55 80 4a 00
        E 4 80 2b 00
        E 9 80 4f 00
        E 3 80 47 00
        E 21 80 37 00
        E 146 90 4a 66
        E 8 90 4f 4c
        E 4 90 47 50
        E 4 90 3e 51
        E 5 90 37 4c
        E 3 90 3b 46
        E 29 80 3e 00
        E 3 80 47 00
        E 0 80 3b 00
        E 56 80 37 00
        E 37 80 4a 00
        E 6 80 4f 00
        E 106 90 37 4b
        E 12 90 2b 3c
        E 34 80 2b 00
        E 55 80 37 00
        E 32 90 4f 37
        E 87 90 51 49
        E 6 80 4f 00
        E 29 90 3e 50
        E 14 90 37 2b
        E 8 90 3b 2f
        E 13 90 39 2b
        E 8 80 3e 00
        E 17 80 3b 00
        E 24 80 39 00
        E 7 80 37 00
        E 13 90 4f 59
        E 57 80 51 00
        E 23 80 4f 00
        E 59 90 30 4c
        E 11 90 26 4b
        E 11 90 54 72
        E 4 90 4c 6f
        E 4 90 48 5b
        E 7 80 30 00
        E 7 80 26 00
        E 36 80 48 00
        E 20 80 4c 00
        E 13 80 54 00
        E 59 90 4c 58
        E 4 90 52 69
        E 5 90 48 4d
        E 38 90 32 4f
        E 29 90 26 2a
        E 31 80 32 00
        E 12 80 26 00
        E 12 80 48 00
        E 24 80 52 00
        E 2 80 4c 00
        E 72 90 4c 5d
        E 9 90 51 5e
        E 4 90 48 57
        E 107 90 33 4c
        E 14 90 27 46
        E 21 80 48 00
        E 10 80 27 00
        E 29 80 4c 00
        E 2 80 51 00
        E 14 80 33 00
        E 73 90 4c 53
        E 7 90 4f 54
        E 3 90 48 58
        E 70 90 28 4d
        E 10 90 34 46
        E 47 80 48 00
        E 30 80 28 00
        E 17 80 4c 00
        E 23 80 4f 00
        E 2 80 34 00
        E 144 90 32 46
        E 15 90 4d 3d
        E 3 90 51 4d
        E 3 90 4a 39
        E 40 80 4a 00
        E 46 80 4d 00
        E 31 80 51 00
        E 59 80 32 00
        E 52 90 39 3e
        E 2 90 35 41
        E 8 90 56 4e
        E 3 90 4d 32
        E 16 90 51 35
        E 25 80 39 00
        E 11 80 51 00
        E 45 80 4d 00
        E 13 80 56 00
        E 3 80 35 00
        E 134 90 2d 44
        E 8 90 4a 36
        E 3 90 51 46
        E 10 90 4d 25
        E 37 80 4d 00
        E 20 80 4a 00
        E 57 80 51 00
        E 19 80 2d 00
        E 91 90 39 3f
        E 3 90 35 3e
        E 17 90 51 45
        E 1 90 4d 38
        E 1 90 56 4b
        E 76 80 39 00
        E 19 80 35 00
        E 15 80 56 00
        E 5 80 4d 00
        E 3 80 51 00
        E 118 90 51 46
        E 3 90 4a 3b
        E 4 90 32 46
        E 34 80 4a 00
        E 36 80 51 00
        E 61 90 4d 49
        E 10 90 51 55
        E 3 90 56 50
        E 75 80 32 00
        E 20 80 56 00
        E 2 90 35 39
        E 1 80 4d 00
        E 3 90 39 2f
        E 19 80 51 00
        E 56 80 39 00
        E 42 80 35 00
        E 4 90 4d 3f
        E 3 90 51 3c
        E 3 90 56 3a
        E 60 80 51 00
        E 2 90 4a 21
        E 4 90 2d 44
        E 69 80 56 00
        E 108 90 50 46
        E 16 80 4a 00
        E 30 90 39 4a
        E 8 90 35 44
        E 33 80 4d 00
        E 2 80 35 00
        E 6 90 51 4c
        E 36 80 39 00
        E 11 80 50 00
        E 30 80 2d 00
        E 5 80 51 00
        E 143 90 30 59
        E 2 90 4c 62
        E 3 90 54 65
        E 5 90 49 62
        E 4 90 24 41
        E 25 80 24 00
        E 50 80 30 00
        E 37 80 54 00
        E 2 80 49 00
        E 26 80 4c 00
        E 102 90 49 68
        E 2 90 3a 59
        E 4 90 54 71
        E 4 90 4c 5c
        E 4 90 3c 58
        E 4 90 34 40
        E 5 90 37 3a
        E 19 80 3c 00
        E 11 80 37 00
        E 17 80 34 00
        E 3 80 3a 00
        E 75 80 49 00
        E 67 80 4c 00
        E 44 90 24 53
        E 3 90 32 4d
        E 9 80 54 00
        E 40 80 24 00
        E 32 80 32 00
        E 48 90 51 4c
        E 122 90 4f 58
        E 19 90 3a 36
        E 3 90 3c 3c
        E 5 90 37 2d
        E 20 80 51 00
        E 18 80 3c 00
        E 11 80 37 00
        E 9 80 4f 00
        E 26 80 3a 00
        E 136 90 48 5e
        E 9 90 4d 57
        E 3 90 45 50
        E 14 90 35 4b
        E 125 80 45 00
        E 11 80 4d 00
        E 6 80 48 00
        E 71 80 35 00
        E 26 90 39 37
        E 4 90 3c 40
        E 59 80 39 00
        E 40 80 3c 00
        E 14 90 45 51
        E 7 90 41 4d
        E 4 90 4a 51
        E 59 80 41 00
        E 35 80 45 00
        E 52 90 30 47
        E 3 80 4a 00
        E 169 80 30 00
        E 39 90 3c 40
        E 15 90 39 3b
        E 24 80 3c 00
        E 8 80 39 00
        E 202 90 2e 46
        E 17 90 46 3c
        E 98 80 46 00
        E 10 90 4a 4c
        E 76 90 3a 31
        E 4 80 2e 00
        E 27 90 35 2f
        E 11 90 4d 38
        E 29 80 3a 00
        E 8 80 35 00
        E 19 80 4a 00
        E 43 80 4d 00
        E 129 90 47 4c
        E 5 90 2f 4e
        E 109 90 4a 46
        E 19 80 47 00
        E 69 80 2f 00
        E 20 90 35 3d
        E 9 90 4d 3e
        E 18 90 3b 2c
        E 51 80 3b 00
        E 3 80 4a 00
        E 23 80 4d 00
        E 9 80 35 00
        E 117 90 30 52
        E 19 90 48 50
        E 8 90 50 59
        E 20 90 4c 2c
        E 32 80 48 00
        E 11 80 4c 00
        E 22 80 50 00
        E 11 80 30 00
        E 40 90 48 54
        E 9 90 51 53
        E 7 90 4c 2b
        E 41 80 4c 00
        E 11 80 48 00
        E 14 90 3c 49
        E 11 90 39 3e
        E 16 80 51 00
        E 20 90 30 3e
        E 17 80 39 00
        E 20 80 3c 00
        E 61 80 30 00
        E 27 90 51 66
        E 3 90 54 5e
        E 5 90 4e 62
        E 104 90 26 58
        E 9 90 32 51
        E 64 80 26 00
        E 24 80 32 00
        E 95 80 51 00
        E 43 80 54 00
        E 10 80 4e 00
        E 4 90 3e 4c
        E 7 90 36 54
        E 13 90 3c 44
        E 30 80 3e 00
        E 2 80 3c 00
        E 14 80 36 00
        E 206 90 2d 4f
        E 4 90 37 57
        E 4 90 57 66
        E 5 90 4f 61
        E 3 90 4b 61
        E 19 80 2d 00
        E 43 80 37 00
        E 33 80 4b 00
        E 6 80 4f 00
        E 20 80 57 00
        E 122 90 4e 5d
        E 2 90 41 36
        E 1 90 56 52
        E 5 90 37 40
        E 0 90 3e 37
        E 4 90 3b 37
        E 4 90 4a 5f
        E 20 80 3e 00
        E 2 80 3b 00
        E 1 80 41 00
        E 41 80 37 00
        E 35 80 56 00
        E 6 80 4a 00
        E 45 80 4e 00
        E 94 90 30 45
        E 2 90 24 5c
        E 3 90 48 61
        E 2 90 4c 49
        E 0 90 50 3d
        E 30 80 4c 00
        E 5 80 30 00
        E 0 80 24 00
        E 1 80 50 00
        E 41 80 48 00
        E 90 90 51 57
        E 8 90 48 30
        E 3 90 46 54
        E 39 80 48 00
        E 15 80 46 00
        E 35 80 51 00
        E 111 90 48 5a
        E 14 90 45 55
        E 3 90 4d 58
        E 141 90 35 50
        E 4 90 29 50
        E 27 80 35 00
        E 7 80 29 00
        E 222 90 34 52
        E 6 90 28 4c
        E 27 80 34 00
        E 4 80 28 00
        E 234 90 32 47
        E 2 90 26 4b
        E 28 80 32 00
        E 4 80 26 00
        E 152 80 45 00
        E 5 80 48 00
        E 64 80 4d 00
        E 3 90 24 4c
        E 3 90 30 48
        E 29 80 24 00
        E 43 80 30 00
        E 168 90 32 58
        E 151 90 51 50
        E 2 90 4d 33
        E 6 90 4a 43
        E 63 80 32 00
        E 57 90 39 3f
        E 2 90 35 40
        E 2 80 51 00
        E 21 80 4a 00
        E 2 80 4d 00
        E 81 80 39 00
        E 11 90 4d 35
        E 6 90 45 31
        E 7 90 4a 20
        E 2 80 35 00
        E 28 80 45 00
        E 5 80 4a 00
        E 15 80 4d 00
        E 73 90 2d 4f
        E 9 90 51 5a
        E 2 90 4a 2b
        E 3 90 4d 44
        E 66 80 51 00
        E 5 80 4a 00
        E 0 80 4d 00
        E 32 80 2d 00
        E 153 90 39 4a
        E 8 90 35 46
        E 77 80 35 00
        E 9 80 39 00
        E 151 90 32 57
        E 134 90 51 51
        E 5 90 4d 31
        E 2 90 4a 41
        E 97 80 32 00
        E 21 80 51 00
        E 15 80 4d 00
        E 18 90 39 3b
        E 3 80 4a 00
        E 6 90 35 3c
        E 83 90 45 31
        E 2 90 4a 2f
        E 2 90 4d 3e
        E 10 80 39 00
        E 22 80 4a 00
        E 2 80 4d 00
        E 5 80 45 00
        E 9 80 35 00
        E 85 90 51 51
        E 4 90 4a 2a
        E 4 90 4d 3c
        E 13 90 2d 4e
        E 56 80 4d 00
        E 25 80 4a 00
        E 23 80 51 00
        E 2 80 2d 00
        E 156 90 35 4e
        E 2 90 39 48
        E 75 80 39 00
        E 15 80 35 00
        E 169 90 32 54
        E 115 90 51 56
        E 2 90 4d 51
        E 1 90 4a 5a
        E 85 80 32 00
        E 37 80 51 00
        E 27 80 4d 00
        E 13 80 4a 00
        E 39 90 39 41
        E 21 90 35 3a
        E 27 90 45 3d
        E 6 90 4d 50
        E 28 80 45 00
        E 6 80 4d 00
        E 3 80 35 00
        E 15 80 39 00
        E 105 90 2d 55
        E 6 90 4e 4d
        E 4 90 4c 42
        E 4 90 4a 52
        E 33 80 4a 00
        E 11 80 4c 00
        E 24 80 4e 00
        E 57 90 51 57
        E 1 90 49 4e
        E 3 90 4d 38
        E 30 80 51 00
        E 0 80 49 00
        E 4 80 4d 00
        E 66 80 2d 00
        E 7 90 35 49
        E 8 90 39 3e
        E 122 80 39 00
        E 13 80 35 00
        E 8 90 4d 61
        E 4 90 4a 5e
        E 4 90 45 58
        E 112 90 32 53
        E 59 80 4a 00
        E 6 80 45 00
        E 17 80 4d 00
        E 126 80 32 00
        E 10 90 39 40
        E 3 90 35 3e
        E 110 80 39 00
        E 8 90 45 5d
        E 3 90 4a 5d
        E 2 90 41 55
        E 22 80 35 00
        E 36 80 41 00
        E 69 80 45 00
        E 28 90 2d 4c
        E 9 80 4a 00
        E 190 80 2d 00
        E 28 90 35 49
        E 7 90 39 42
        E 72 80 39 00
        E 16 80 35 00
        E 145 90 32 55
        E 143 90 4d 42
        E 9 90 51 4b
        E 6 90 4a 2b
        E 79 80 32 00
        E 39 90 39 40
        E 4 80 51 00
        E 9 80 4d 00
        E 3 90 35 3c
        E 3 80 4a 00
        E 106 90 45 49
        E 3 80 39 00
        E 11 90 4a 2a
        E 3 90 4d 4a
        E 25 80 35 00
        E 16 80 4a 00
        E 10 80 4d 00
        E 10 80 45 00
        E 52 90 4a 3b
        E 3 90 4d 2f
        E 3 90 2d 50
        E 16 90 51 56
        E 47 80 51 00
        E 24 80 4d 00
        E 3 80 4a 00
        E 50 80 2d 00
        E 124 90 39 41
        E 2 90 35 47
        E 86 80 39 00
        E 10 80 35 00
        E 150 90 32 57
        E 139 90 4d 31
        E 2 90 51 57
        E 2 90 4a 37
        E 77 80 32 00
        E 44 80 51 00
        E 32 90 39 3e
        E 8 80 4a 00
        E 2 90 35 3f
        E 14 80 4d 00
        E 88 90 45 4a
        E 13 80 39 00
        E 1 90 4a 29
        E 0 90 4d 54
        E 27 80 45 00
        E 2 80 35 00
        E 16 80 4a 00
        E 0 80 4d 00
        E 68 90 4a 3d
        E 11 90 4d 2e
        E 8 90 2d 50
        E 8 90 51 30
        E 58 80 51 00
        E 12 80 4a 00
        E 4 80 4d 00
        E 39 80 2d 00
        E 135 90 35 4d
        E 3 90 39 48
        E 90 80 39 00
        E 18 80 35 00
        E 141 90 32 54
        E 121 90 51 5e
        E 2 90 4d 3d
        E 2 90 4a 43
        E 78 80 32 00
        E 75 80 51 00
        E 11 80 4a 00
        E 14 80 4d 00
        E 12 90 39 41
        E 9 90 35 40
        E 71 90 47 30
        E 0 90 4d 52
        E 29 80 39 00
        E 10 80 47 00
        E 0 80 4d 00
        E 18 80 35 00
        E 68 90 4c 49
        E 5 90 4a 44
        E 0 90 50 46
        E 14 90 2d 56
        E 18 80 4a 00
        E 11 80 4c 00
        E 0 80 50 00
        E 131 90 51 30
        E 1 90 4d 49
        E 1 90 4a 44
        E 32 80 4a 00
        E 4 80 51 00
        E 12 80 4d 00
        E 23 90 39 5a
        E 3 90 35 56
        E 36 80 2d 00
        E 70 90 49 53
        E 6 90 4b 44
        E 4 80 39 00
        E 0 90 4f 4f
        E 39 80 35 00
        E 131 90 33 61
        E 3 90 27 61
        E 33 80 27 00
        E 41 80 33 00
        E 22 80 4f 00
        E 17 80 4b 00
        E 20 80 49 00
        E 120 90 31 42
        E 3 90 37 4c
        E 2 90 33 46
        E 84 80 33 00
        E 2 80 37 00
        E 3 80 31 00
        E 65 90 48 5b
        E 2 90 4c 62
        E 1 90 43 62
        E 127 90 3c 62
        E 33 90 30 3d
        E 31 80 3c 00
        E 5 80 30 00
        E 61 80 43 00
        E 47 80 48 00
        E 59 80 4c 00
        E 36 90 30 63
        E 5 90 24 58
        E 82 80 24 00
        E 2 80 30 00
        E 156 90 32 57
        E 133 90 4d 39
        E 10 90 4a 40
        E 1 90 51 4b
        E 53 80 32 00
        E 51 80 51 00
        E 14 90 39 3c
        E 2 90 35 44
        E 24 80 4a 00
        E 4 80 4d 00
        E 92 80 39 00
        E 8 90 45 3b
        E 6 80 35 00
        E 4 90 4d 41
        E 3 90 4a 29
        E 31 80 4a 00
        E 4 80 45 00
        E 9 80 4d 00
        E 83 90 2d 52
        E 9 90 4a 2b
        E 1 90 51 52
        E 3 90 4d 2d
        E 61 80 51 00
        E 18 80 4a 00
        E 32 80 4d 00
        E 16 80 2d 00
        E 123 90 39 4c
        E 6 90 35 4c
        E 90 80 39 00
        E 8 80 35 00
        E 149 90 32 5f
        E 141 90 4a 34
        E 2 90 4d 2e
        E 2 90 51 52
        E 75 80 32 00
        E 59 80 51 00
        E 9 90 39 3e
        E 7 80 4d 00
        E 2 80 4a 00
        E 2 90 35 3c
        E 107 90 45 38
        E 3 90 4a 25
        E 9 80 39 00
        E 1 90 4d 30
        E 26 80 4a 00
        E 4 80 45 00
        E 4 80 35 00
        E 4 80 4d 00
        E 73 90 4a 32
        E 2 90 4d 34
        E 17 90 51 3a
        E 3 90 2d 50
        E 69 80 4d 00
        E 7 80 4a 00
        E 17 80 51 00
        E 43 80 2d 00
        E 127 90 39 4c
        E 2 90 35 51
        E 90 80 39 00
        E 23 80 35 00
        E 150 90 32 5d
        E 100 90 51 5c
        E 2 90 4d 30
        E 2 90 4a 36
        E 64 80 32 00
        E 93 80 51 00
        E 32 80 4d 00
        E 3 90 39 4a
        E 4 90 35 49
        E 2 80 4a 00
        E 88 90 45 28
        E 4 90 4d 53
        E 13 80 39 00
        E 17 80 35 00
        E 11 80 45 00
        E 6 80 4d 00
        E 76 90 50 56
        E 9 90 2d 57
        E 5 90 4a 3b
        E 0 90 4c 3b
        E 32 80 4a 00
        E 0 80 4c 00
        E 41 80 50 00
        E 52 90 51 68
        E 9 90 4d 2e
        E 8 90 49 4e
        E 31 80 49 00
        E 6 80 4d 00
        E 4 80 51 00
        E 19 80 2d 00
        E 50 90 35 49
        E 3 90 39 45
        E 128 80 39 00
        E 15 90 4d 65
        E 3 80 35 00
        E 4 90 45 59
        E 4 90 4a 54
        E 138 90 32 51
        E 49 80 4a 00
        E 9 80 45 00
        E 3 80 4d 00
        E 144 80 32 00
        E 16 90 39 47
        E 2 90 35 46
        E 82 80 35 00
        E 24 80 39 00
        E 17 90 45 5d
        E 2 90 4a 5b
        E 20 90 41 40
        E 36 80 41 00
        E 43 80 45 00
        E 8 90 2d 48
        E 47 80 4a 00
        E 126 80 2d 00
        E 51 90 35 43
        E 2 90 39 3d
        E 34 80 35 00
        E 4 80 39 00
        E 204 90 2e 48
        E 13 90 46 46
        E 118 80 46 00
        E 6 90 4a 49
        E 40 80 2e 00
        E 30 90 3a 39
        E 28 90 35 35
        E 14 90 4d 43
        E 26 80 35 00
        E 12 80 3a 00
        E 19 80 4a 00
        E 54 80 4d 00
        E 109 90 2f 4f
        E 11 90 47 52
        E 132 90 4a 41
        E 3 80 47 00
        E 74 90 4d 3c
        E 9 80 2f 00
        E 21 90 35 46
        E 14 90 3b 41
        E 52 80 4a 00
        E 7 80 3b 00
        E 25 80 35 00
        E 10 80 4d 00
        E 116 90 30 51
        E 19 90 48 56
        E 5 90 4d 56
        E 5 90 50 5e
        E 35 80 4d 00
        E 36 80 50 00
        E 5 80 48 00
        E 43 80 30 00
        E 21 90 51 68
        E 7 90 48 50
        E 74 80 48 00
        E 1 80 51 00
        E 17 90 3c 4c
        E 3 90 39 36
        E 42 90 30 2c
        E 8 80 39 00
        E 57 80 3c 00
        E 48 80 30 00
        E 10 90 4a 6d
        E 4 90 42 62
        E 143 90 26 4e
        E 12 90 32 44
        E 41 80 32 00
        E 20 80 26 00
        E 52 80 4a 00
        E 36 80 42 00
        E 97 90 26 59
        E 6 90 32 43
        E 27 80 26 00
        E 43 80 32 00
        E 172 90 2b 61
        E 9 90 3e 5c
        E 110 90 41 45
        E 3 80 3e 00
        E 157 90 37 40
        E 6 90 32 39
        E 10 90 46 46
        E 78 80 37 00
        E 18 80 32 00
        E 8 90 4a 48
        E 19 80 41 00
        E 32 80 2b 00
        E 34 80 46 00
        E 42 80 4a 00
        E 33 90 44 62
        E 11 90 41 55
        E 10 90 3c 53
        E 3 90 30 58
        E 4 90 24 5f
        E 15 80 41 00
        E 5 80 3c 00
        E 42 80 44 00
        E 76 90 3a 4a
        E 3 90 45 59
        E 37 80 45 00
        E 93 80 3a 00
        E 2 80 24 00
        E 73 80 30 00
        E 58 90 3c 53
        E 9 90 39 46
        E 14 90 41 5a
        E 142 90 35 53
        E 3 90 29 50
        E 30 80 29 00
        E 2 80 35 00
        E 224 90 34 4d
        E 3 90 28 4c
        E 29 80 34 00
        E 2 80 28 00
        E 233 90 32 47
        E 9 90 26 4b
        E 28 80 32 00
        E 2 80 26 00
        E 161 80 39 00
        E 48 80 3c 00
        E 21 90 30 4f
        E 1 90 24 4c
        E 29 80 24 00
        E 12 80 30 00
        E 1 80 41 00
        E 217 90 3e 63
        E 2 90 41 66
        E 9 90 32 58
        E 80 80 32 00
        E 98 80 3e 00
        E 24 90 3c 4f
        E 20 80 41 00
        E 5 90 30 35
        E 14 80 3c 00
        E 21 80 30 00
        E 117 90 44 5e
        E 7 90 41 59
        E 94 90 2e 43
        E 3 90 3a 39
        E 40 80 2e 00
        E 9 80 3a 00
        E 85 90 3e 4c
        E 2 80 41 00
        E 29 80 44 00
        E 78 80 3e 00
        E 32 90 40 5b
        E 3 90 39 4d
        E 6 90 43 55
        E 9 90 2d 3e
        E 57 80 39 00
        E 2 80 2d 00
        E 178 90 37 40
        E 12 90 2b 37
        E 25 80 37 00
        E 5 80 40 00
        E 31 80 2b 00
        E 43 80 43 00
        E 21 90 3e 4c
        E 115 80 3e 00
        E 16 90 44 4d
        E 1 90 35 3f
        E 6 90 41 4b
        E 25 90 29 21
        E 3 80 35 00
        E 45 80 29 00
        E 59 80 41 00
        E 4 90 3e 53
        E 8 80 44 00
        E 81 90 34 41
        E 30 90 43 5b
        E 6 80 3e 00
        E 7 90 40 40
        E 3 80 34 00
        E 132 90 3e 5a
        E 13 80 43 00
        E 43 80 40 00
        E 51 90 32 3c
        E 3 80 3e 00
        E 2 90 26 3b
        E 17 90 44 5d
        E 3 90 41 65
        E 43 80 26 00
        E 41 80 32 00
        E 32 90 3e 5f
        E 38 80 41 00
        E 2 80 44 00
        E 39 80 3e 00
        E 66 90 3e 6b
        E 4 90 41 5b
        E 5 90 32 5f
        E 95 80 32 00
        E 112 80 3e 00
        E 7 90 3c 52
        E 14 80 41 00
        E 28 90 30 2e
        E 37 80 3c 00
        E 5 80 30 00
        E 71 90 44 5c
        E 3 90 41 5b
        E 115 90 2e 40
        E 9 90 3a 37
        E 34 80 2e 00
        E 17 80 3a 00
        E 23 80 41 00
        E 52 80 44 00
        E 12 90 3e 4c
        E 96 80 3e 00
        E 31 90 39 4c
        E 10 90 40 5b
        E 2 90 43 57
        E 16 90 2d 24
        E 56 80 2d 00
        E 9 80 39 00
        E 174 90 37 40
        E 17 90 2b 2f
        E 29 80 37 00
        E 10 80 40 00
        E 20 80 2b 00
        E 12 80 43 00
        E 37 90 3e 4f
        E 89 80 3e 00
        E 42 90 44 53
        E 11 90 35 44
        E 7 90 41 4c
        E 18 90 29 2e
        E 15 80 35 00
        E 35 80 29 00
        E 51 90 3e 54
        E 10 80 41 00
        E 2 80 44 00
        E 97 80 3e 00
        E 5 90 34 54
        E 5 90 43 59
        E 15 90 40 42
        E 3 90 28 3e
        E 45 80 28 00
        E 17 80 34 00
        E 60 80 43 00
        E 3 90 3e 53
        E 51 80 40 00
        E 59 90 32 4a
        E 3 90 26 4c
        E 9 90 44 56
        E 2 90 41 63
        E 9 80 3e 00
        E 11 80 26 00
        E 56 80 32 00
        E 53 90 3e 59
        E 41 80 41 00
        E 11 80 44 00
        E 26 80 3e 00
        E 63 90 32 66
        E 4 90 3e 6b
        E 5 90 41 5e
        E 96 80 32 00
        E 131 80 41 00
        E 1 90 3c 4c
        E 4 80 3e 00
        E 43 90 30 23
        E 23 80 3c 00
        E 24 80 30 00
        E 50 90 41 56
        E 3 90 44 5a
        E 123 90 2e 46
        E 5 90 3a 39
        E 35 80 2e 00
        E 20 80 3a 00
        E 37 80 41 00
        E 38 80 44 00
        E 6 90 3e 51
        E 129 90 39 48
        E 3 80 3e 00
        E 9 90 2d 41
        E 4 90 43 57
        E 4 90 40 52
        E 71 80 39 00
        E 4 80 2d 00
        E 167 90 37 39
        E 10 90 2b 28
        E 42 80 37 00
        E 36 80 2b 00
        E 11 80 43 00
        E 20 90 3e 4b
        E 12 80 40 00
        E 104 80 3e 00
        E 5 90 44 54
        E 17 90 35 3f
        E 3 90 41 3f
        E 11 90 29 2e
        E 19 80 35 00
        E 26 80 29 00
        E 74 90 3e 51
        E 5 80 44 00
        E 17 80 41 00
        E 70 90 34 4c
        E 9 90 28 41
        E 32 80 28 00
        E 5 80 3e 00
        E 2 90 43 44
        E 5 90 40 2a
        E 10 80 34 00
        E 105 80 40 00
        E 15 90 3e 5f
        E 24 80 43 00
        E 71 80 3e 00
        E 18 90 3a 3e
        E 17 90 44 63
        E 9 90 41 51
        E 3 90 2e 3c
        E 38 80 3a 00
        E 41 80 2e 00
        E 8 80 41 00
        E 75 90 3e 5a
        E 38 80 3e 00
        E 6 80 44 00
        E 62 90 32 5c
        E 3 90 26 61
        E 5 90 41 5b
        E 4 90 3e 68
        E 71 80 3e 00
        E 4 80 41 00
        E 71 90 3e 59
        E 4 90 41 55
        E 103 80 3e 00
        E 17 90 44 49
        E 143 90 3e 53
        E 28 80 44 00
        E 3 80 41 00
        E 75 90 40 50
        E 8 80 3e 00
        E 7 90 43 55
        E 140 80 43 00
        E 8 90 3e 4f
        E 47 80 40 00
        E 15 80 26 00
        E 48 90 44 56
        E 4 80 3e 00
        E 19 90 41 46
        E 6 80 32 00
        E 127 90 3e 50
        E 3 80 41 00
        E 13 80 44 00
        E 92 80 3e 00
        E 13 90 40 4c
        E 12 90 43 4f
        E 122 80 43 00
        E 38 90 3e 4c
        E 32 80 40 00
        E 68 90 44 50
        E 8 80 3e 00
        E 12 90 41 44
        E 137 90 3e 50
        E 4 80 44 00
        E 12 80 41 00
        E 91 80 3e 00
        E 17 90 43 52
        E 3 90 40 4c
        E 118 80 43 00
        E 23 90 3e 55
        E 35 80 40 00
        E 36 80 3e 00
        E 53 90 44 5b
        E 5 90 41 5d
        E 19 90 2d 57
        E 5 90 39 4e
        E 69 90 3e 59
        E 16 80 2d 00
        E 26 80 39 00
        E 7 80 44 00
        E 2 80 41 00
        E 27 80 3e 00
        E 80 90 3e 66
        E 5 90 41 62
        E 27 90 32 66
        E 90 80 32 00
        E 108 80 3e 00
        E 29 80 41 00
        E 13 90 3c 54
        E 23 90 30 35
        E 25 80 3c 00
        E 8 80 30 00
        E 71 90 41 65
        E 9 90 44 59
        E 111 90 3a 41
        E 7 90 2e 45
        E 38 80 2e 00
        E 42 80 3a 00
        E 3 80 41 00
        E 47 80 44 00
        E 20 90 3e 4c
        E 97 80 3e 00
        E 26 90 40 5d
        E 4 90 43 59
        E 4 90 39 54
        E 3 90 2d 50
        E 74 80 39 00
        E 4 80 2d 00
        E 180 90 37 49
        E 3 90 2b 41
        E 51 80 40 00
        E 21 80 37 00
        E 13 80 2b 00
        E 24 80 43 00
        E 22 90 3e 46
        E 92 80 3e 00
        E 27 90 44 52
        E 10 90 41 4b
        E 4 90 35 4a
        E 11 90 29 39
        E 25 80 35 00
        E 33 80 29 00
        E 62 80 41 00
        E 4 80 44 00
        E 4 90 3e 54
        E 103 90 34 46
        E 3 90 43 57
        E 22 90 40 41
        E 3 80 3e 00
        E 12 80 34 00
        E 1 90 28 29
        E 46 80 28 00
        E 82 90 3e 54
        E 11 80 43 00
        E 37 80 40 00
        E 56 90 32 48
        E 8 90 26 46
        E 7 90 41 5e
        E 3 90 44 5a
        E 9 80 3e 00
        E 26 80 26 00
        E 37 80 32 00
        E 66 90 3e 53
        E 33 80 44 00
        E 1 80 41 00
        E 2 80 3e 00
        E 96 90 32 65
        E 8 90 41 66
        E 4 90 3e 65
        E 85 80 32 00
        E 127 80 3e 00
        E 5 80 41 00
        E 15 90 3c 3a
        E 40 80 3c 00
        E 106 90 44 5b
        E 3 90 41 5e
        E 108 90 2e 49
        E 3 90 3a 3c
        E 32 80 2e 00
        E 32 80 3a 00
        E 17 80 41 00
        E 62 80 44 00
        E 10 90 3e 49
        E 126 90 40 57
        E 2 80 3e 00
        E 3 90 43 55
        E 8 90 39 4c
        E 4 90 2d 49
        E 47 80 39 00
        E 5 80 2d 00
        E 201 90 37 41
        E 9 90 2b 39
        E 29 80 37 00
        E 3 80 40 00
        E 16 80 2b 00
        E 43 80 43 00
        E 21 90 3e 4e
        E 95 80 3e 00
        E 24 90 44 53
        E 11 90 35 40
        E 7 90 41 45
        E 16 90 29 30
        E 19 80 35 00
        E 27 80 29 00
        E 64 80 41 00
        E 5 80 44 00
        E 12 90 3e 4f
        E 85 90 34 44
        E 17 90 43 52
        E 20 80 3e 00
        E 28 90 40 24
        E 3 80 34 00
        E 103 80 43 00
        E 6 90 3e 56
        E 40 80 40 00
        E 57 80 3e 00
        E 2 90 32 34
        E 5 90 26 36
        E 10 90 44 5b
        E 16 90 41 4c
        E 21 80 26 00
        E 49 80 32 00
        E 37 90 3e 5b
        E 32 80 41 00
        E 2 80 44 00
        E 10 80 3e 00
        E 103 90 3e 66
        E 3 90 41 68
        E 7 90 32 62
        E 73 80 32 00
        E 147 90 3c 52
        E 4 80 3e 00
        E 23 80 41 00
        E 13 90 30 2c
        E 9 80 3c 00
        E 35 80 30 00
        E 63 90 44 5b
        E 4 90 41 5b
        E 123 90 2e 46
        E 12 90 3a 33
        E 24 80 2e 00
        E 19 80 3a 00
        E 50 90 3e 4b
        E 8 80 41 00
        E 21 80 44 00
        E 127 90 40 57
        E 0 90 43 57
        E 3 80 3e 00
        E 5 90 39 4c
        E 15 90 2d 46
        E 71 80 39 00
        E 19 80 2d 00
        E 135 90 37 51
        E 14 90 2b 3d
        E 75 80 37 00
        E 4 80 2b 00
        E 14 80 40 00
        E 0 80 43 00
        E 26 90 3e 51
        E 85 80 3e 00
        E 37 90 35 4c
        E 3 90 44 54
        E 13 90 29 38
        E 4 90 41 37
        E 23 80 35 00
        E 16 80 29 00
        E 77 90 3e 4d
        E 9 80 44 00
        E 16 80 41 00
        E 88 80 3e 00
        E 2 90 40 4d
        E 0 90 43 55
        E 36 90 28 2e
        E 11 90 32 21
        E 31 80 28 00
        E 18 80 32 00
        E 57 90 3e 56
        E 14 80 40 00
        E 9 80 43 00
        E 72 80 3e 00
        E 3 90 32 22
        E 0 90 41 56
        E 4 90 44 49
        E 66 80 32 00
        E 15 80 44 00
        E 24 80 41 00
        E 20 90 40 56
        E 4 90 42 49
        E 81 80 42 00
        E 24 80 40 00
        E 29 90 41 5e
        E 2 90 3e 65
        E 8 90 32 5d
        E 60 80 41 00
        E 16 80 3e 00
        E 0 80 32 00
        E 55 90 41 55
        E 4 90 3e 63
        E 67 80 41 00
        E 15 80 3e 00
        E 49 90 3a 3f
        E 9 90 2e 43
        E 5 90 44 5c
        E 3 90 41 4c
        E 26 80 2e 00
        E 4 80 3a 00
        E 52 80 41 00
        E 45 80 44 00
        E 2 90 3e 51
        E 112 90 39 50
        E 7 90 2d 42
        E 7 90 40 46
        E 4 90 43 4c
        E 8 80 3e 00
        E 22 80 39 00
        E 23 80 2d 00
        E 75 80 43 00
        E 22 90 3e 58
        E 51 80 40 00
        E 13 90 37 41
        E 42 90 44 49
        E 4 90 2b 18
        E 3 80 3e 00
        E 9 90 41 4b
        E 36 80 37 00
        E 39 80 2b 00
        E 54 90 3e 44
        E 9 80 44 00
        E 5 80 41 00
        E 18 80 3e 00
        E 77 90 41 5b
        E 10 90 3e 55
        E 3 90 26 61
        E 12 90 32 32
        E 18 80 26 00
        E 19 80 32 00
        E 134 90 39 5b
        E 4 90 2d 52
        E 59 80 2d 00
        E 7 80 39 00
        E 206 90 35 5b
        E 3 90 29 59
        E 31 80 35 00
        E 1 80 29 00
        E 139 90 34 5b
        E 6 90 28 52
        E 24 80 34 00
        E 7 80 28 00
        E 141 80 3e 00
        E 4 80 41 00
        E 67 90 26 58
        E 8 90 32 46
        E 22 80 26 00
        E 55 80 32 00
        E 168 90 30 4c
        E 18 90 48 4b
        E 5 90 3c 44
        E 101 80 3c 00
        E 31 80 48 00
        E 84 80 30 00
        E 11 90 34 4b
        E 8 90 37 46
        E 146 90 40 59
        E 5 90 4c 5c
        E 4 80 37 00
        E 72 80 34 00
        E 59 90 2b 48
        E 3 80 40 00
        E 45 80 4c 00
        E 179 80 2b 00
        E 9 90 37 47
        E 3 90 34 46
        E 6 90 4f 5e
        E 4 90 43 54
        E 118 80 34 00
        E 15 80 43 00
        E 11 80 4f 00
        E 37 80 37 00
        E 36 90 30 44
        E 139 90 4f 55
        E 4 90 43 52
        E 108 80 43 00
        E 12 80 4f 00
        E 2 80 30 00
        E 10 90 37 33
        E 8 90 34 33
        E 73 80 34 00
        E 32 80 37 00
        E 4 90 43 5e
        E 3 90 4f 5c
        E 27 80 43 00
        E 8 80 4f 00
        E 49 90 2b 44
        E 58 90 40 52
        E 3 90 4c 55
        E 36 80 40 00
        E 34 80 4c 00
        E 129 80 2b 00
        E 20 90 34 40
        E 17 90 48 56
        E 4 90 3c 4b
        E 25 90 37 33
        E 12 80 34 00
        E 4 80 3c 00
        E 40 80 48 00
        E 82 80 37 00
        E 73 90 35 2b
        E 12 90 41 56
        E 4 90 4d 63
        E 92 80 41 00
        E 17 80 4d 00
        E 103 80 35 00
        E 29 90 39 3a
        E 9 90 4d 56
        E 3 90 41 4a
        E 9 90 3c 37
        E 25 80 41 00
        E 2 80 4d 00
        E 105 80 39 00
        E 26 90 41 4a
        E 3 90 4d 50
        E 9 80 3c 00
        E 59 80 4d 00
        E 4 80 41 00
        E 5 90 30 36
        E 183 90 4f 5d
        E 3 90 43 53
        E 42 90 39 3f
        E 3 80 30 00
        E 6 90 3c 46
        E 30 80 43 00
        E 13 80 4f 00
        E 76 80 39 00
        E 17 80 3c 00
        E 49 90 45 5a
        E 3 90 51 4d
        E 20 90 35 48
        E 91 80 51 00
        E 7 80 45 00
        E 91 90 48 4c
        E 3 90 51 2a
        E 9 90 45 33
        E 3 90 4d 49
        E 36 80 45 00
        E 4 80 4d 00
        E 7 80 51 00
        E 14 80 48 00
        E 15 90 3c 32
        E 4 90 39 2a
        E 5 80 35 00
        E 29 90 45 4e
        E 6 90 51 4f
        E 3 90 4d 5b
        E 5 90 48 5c
        E 48 80 45 00
        E 3 80 48 00
        E 13 80 51 00
        E 7 80 39 00
        E 4 80 4d 00
        E 14 80 3c 00
        E 31 90 48 65
        E 5 90 45 54
        E 5 90 51 5e
        E 9 90 4d 5c
        E 31 90 30 56
        E 22 80 45 00
        E 9 80 51 00
        E 5 80 48 00
        E 6 80 4d 00
        E 42 90 51 30
        E 4 90 48 50
        E 5 90 45 50
        E 9 90 4d 44
        E 96 80 45 00
        E 12 80 51 00
        E 15 80 48 00
        E 7 80 4d 00
        E 104 90 3c 4e
        E 4 90 51 56
        E 5 90 48 50
        E 5 90 45 4a
        E 4 90 4d 44
        E 46 80 45 00
        E 4 80 3c 00
        E 2 80 30 00
        E 1 80 51 00
        E 25 80 4d 00
        E 8 80 48 00
        E 172 90 30 35
        E 5 90 41 5a
        E 4 90 4d 61
        E 106 80 41 00
        E 11 80 4d 00
        E 124 80 30 00
        E 9 90 37 38
        E 4 90 41 4c
        E 5 90 34 3d
        E 3 90 4d 51
        E 24 80 41 00
        E 7 80 4d 00
        E 79 80 34 00
        E 18 80 37 00
        E 37 90 4f 5b
        E 13 90 43 3e
        E 55 90 2b 3c
        E 59 80 43 00
        E 29 80 4f 00
        E 89 90 4f 48
        E 17 90 43 3e
        E 16 80 4f 00
        E 15 80 43 00
        E 66 90 34 3e
        E 8 80 2b 00
        E 4 90 37 3a
        E 55 90 48 62
        E 4 90 3c 55
        E 7 80 34 00
        E 30 80 3c 00
        E 34 80 48 00
        E 49 80 37 00
        E 15 90 30 3e
        E 230 90 4c 59
        E 3 90 40 3e
        E 31 80 4c 00
        E 5 80 40 00
        E 4 90 34 41
        E 3 90 37 3c
        E 4 80 30 00
        E 123 80 34 00
        E 13 80 37 00
        E 35 90 48 5b
        E 3 90 3c 47
        E 28 80 48 00
        E 4 80 3c 00
        E 13 90 2b 49
        E 97 90 40 54
        E 11 90 4c 44
        E 20 80 40 00
        E 13 80 4c 00
        E 195 80 2b 00
        E 2 90 34 47
        E 4 90 4f 61
        E 5 90 43 5b
        E 10 90 37 46
        E 43 80 34 00
        E 10 80 43 00
        E 17 80 4f 00
        E 45 80 37 00
        E 112 90 35 46
        E 40 90 4d 5a
        E 4 90 41 50
        E 71 80 41 00
        E 10 80 4d 00
        E 147 80 35 00
        E 17 90 39 37
        E 4 90 3c 40
        E 3 90 4d 55
        E 4 90 41 49
        E 24 80 4d 00
        E 5 80 41 00
        E 84 80 3c 00
        E 19 80 39 00
        E 12 90 4d 5d
        E 4 90 41 4a
        E 60 90 30 4c
        E 7 80 41 00
        E 21 80 4d 00
        E 144 90 4f 5a
        E 4 90 43 50
        E 73 80 43 00
        E 24 80 4f 00
        E 3 90 39 45
        E 16 80 30 00
        E 5 90 3c 3b
        E 99 80 39 00
        E 55 90 51 5d
        E 4 90 45 54
        E 4 80 3c 00
        E 42 90 36 46
        E 52 80 45 00
        E 28 80 51 00
        E 91 90 4e 4f
        E 7 90 4a 45
        E 3 90 51 35
        E 6 90 45 3e
        E 27 80 4a 00
        E 2 80 51 00
        E 4 80 45 00
        E 34 80 4e 00
        E 14 90 39 3b
        E 12 90 3e 43
        E 10 80 36 00
        E 17 90 51 4c
        E 4 90 4a 55
        E 4 90 45 4c
        E 5 90 4e 5b
        E 32 80 45 00
        E 2 80 4e 00
        E 23 80 51 00
        E 4 80 4a 00
        E 19 80 39 00
        E 40 80 3e 00
        E 2 90 4e 59
        E 4 90 45 4f
        E 3 90 4a 62
        E 5 90 51 56
        E 53 80 45 00
        E 2 80 4e 00
        E 5 80 51 00
        E 13 80 4a 00
        E 14 90 32 51
        E 21 90 36 2b
        E 6 90 51 49
        E 5 90 4e 55
        E 4 90 45 53
        E 5 90 4a 57
        E 97 80 45 00
        E 6 80 51 00
        E 9 80 36 00
        E 17 80 4e 00
        E 2 80 4a 00
        E 124 90 45 4c
        E 4 80 32 00
        E 1 90 4a 4e
        E 5 90 51 3a
        E 4 90 39 3c
        E 14 90 4e 3e
        E 7 90 3e 44
        E 10 80 39 00
        E 21 80 4e 00
        E 16 80 45 00
        E 2 80 51 00
        E 15 80 4a 00
        E 25 80 3e 00
        E 112 90 3a 49
        E 37 90 46 5d
        E 3 90 52 62
        E 96 80 46 00
        E 32 80 52 00
        E 124 90 52 57
        E 6 90 46 42
        E 27 80 3a 00
        E 1 90 3e 3d
        E 4 80 52 00
        E 1 80 46 00
        E 4 90 41 47
        E 122 80 3e 00
        E 10 90 56 57
        E 4 90 4a 55
        E 100 90 3a 38
        E 35 80 41 00
        E 2 80 4a 00
        E 6 80 56 00
        E 125 90 56 4e
        E 12 90 4a 3e
        E 19 80 56 00
        E 13 80 4a 00
        E 100 90 3e 3d
        E 8 90 52 66
        E 3 90 46 5f
        E 3 90 41 37
        E 6 80 3a 00
        E 44 80 52 00
        E 14 80 46 00
        E 104 90 49 5e
        E 3 80 3e 00
        E 2 90 55 65
        E 104 90 3b 40
        E 24 80 41 00
        E 39 80 49 00
        E 11 80 55 00
        E 73 90 55 4a
        E 10 90 49 4d
        E 61 80 55 00
        E 15 80 49 00
        E 52 90 3e 43
        E 2 80 3b 00
        E 19 90 41 3d
        E 14 90 52 5e
        E 3 90 46 5f
        E 91 80 46 00
        E 2 80 52 00
        E 57 80 3e 00
        E 72 80 41 00
        E 23 90 3b 3f
        E 16 90 55 5f
        E 4 90 49 59
        E 81 80 49 00
        E 20 80 55 00
        E 101 80 3b 00
        E 50 90 52 52
        E 13 90 46 41
        E 5 90 41 2e
        E 30 80 52 00
        E 4 80 46 00
        E 36 80 41 00
        E 160 90 35 4f
        E 34 90 4d 5f
        E 5 90 41 4c
        E 79 80 41 00
        E 22 80 4d 00
        E 133 80 35 00
        E 8 90 4d 59
        E 4 90 41 4c
        E 13 90 39 37
        E 3 90 3c 44
        E 20 80 41 00
        E 11 80 4d 00
        E 102 80 39 00
        E 10 80 3c 00
        E 1 90 4d 5e
        E 9 90 41 50
        E 61 80 41 00
        E 11 90 30 49
        E 10 80 4d 00
        E 170 90 51 68
        E 8 90 45 4c
        E 37 80 45 00
        E 39 80 51 00
        E 24 90 39 3c
        E 12 80 30 00
        E 10 90 3c 37
        E 86 80 39 00
        E 54 90 4a 4e
        E 7 90 56 50
        E 62 80 3c 00
        E 2 90 36 3f
        E 9 80 4a 00
        E 19 80 56 00
        E 116 90 4a 4d
        E 19 90 4e 2e
        E 13 80 4a 00
        E 29 80 4e 00
        E 66 90 4e 4f
        E 3 90 4a 49
        E 4 90 51 40
        E 14 90 56 3c
        E 23 90 39 3c
        E 9 80 56 00
        E 5 90 3e 40
        E 8 80 4a 00
        E 1 80 4e 00
        E 23 80 51 00
        E 3 80 36 00
        E 46 90 4e 59
        E 4 90 56 49
        E 4 90 4a 57
        E 5 90 51 56
        E 29 80 39 00
        E 27 80 4e 00
        E 12 80 3e 00
        E 2 80 4a 00
        E 4 80 51 00
        E 9 80 56 00
        E 30 90 56 3d
        E 4 90 4e 5c
        E 10 90 4a 5c
        E 2 90 51 58
        E 4 90 32 56
        E 5 90 36 3e
        E 105 80 56 00
        E 1 80 4a 00
        E 21 80 4e 00
        E 25 80 51 00
        E 84 80 36 00
        E 7 90 56 54
        E 5 90 4e 5c
        E 4 80 32 00
        E 11 90 4a 46
        E 3 90 51 3a
        E 5 90 39 3c
        E 7 90 3e 50
        E 21 80 51 00
        E 1 80 4a 00
        E 3 80 39 00
        E 25 80 56 00
        E 42 80 3e 00
        E 2 80 4e 00
        E 128 90 37 49
        E 134 90 43 5c
        E 3 90 4f 5d
        E 134 80 43 00
        E 2 90 3b 46
        E 15 80 37 00
        E 7 80 4f 00
        E 6 90 3e 3c
        E 13 90 41 35
        E 175 80 3b 00
        E 29 80 41 00
        E 19 80 3e 00
        E 43 90 37 46
        E 11 90 43 53
        E 2 90 4f 55
        E 102 80 43 00
        E 7 80 4f 00
        E 160 90 41 3d
        E 11 90 3e 4a
        E 20 80 37 00
        E 2 90 4f 5a
        E 4 90 43 50
        E 16 80 3e 00
        E 13 80 41 00
        E 104 80 4f 00
        E 14 80 43 00
        E 93 90 30 4c
        E 151 90 40 5b
        E 3 90 4c 57
        E 76 80 30 00
        E 34 80 40 00
        E 10 80 4c 00
        E 3 90 3c 39
        E 18 90 3a 28
        E 127 80 3a 00
        E 17 80 3c 00
        E 2 90 40 5a
        E 3 90 4c 57
        E 111 90 30 40
        E 20 80 40 00
        E 10 80 4c 00
        E 264 90 3c 49
        E 3 90 3a 3f
        E 3 90 40 54
        E 5 90 4c 56
        E 5 80 30 00
        E 23 80 3c 00
        E 42 80 3a 00
        E 32 80 40 00
        E 59 80 4c 00
        E 96 90 29 5c
        E 4 90 35 57
        E 253 80 35 00
        E 38 90 4d 52
        E 3 90 45 4b
        E 8 90 41 48
        E 90 80 41 00
        E 18 80 4d 00
        E 7 80 45 00
        E 80 80 29 00
        E 25 90 35 37
        E 23 90 4d 53
        E 3 90 45 51
        E 8 90 41 43
        E 3 80 35 00
        E 37 80 41 00
        E 22 80 45 00
        E 15 80 4d 00
        E 69 90 4d 5c
        E 4 90 45 56
        E 4 90 3d 5a
        E 4 90 31 55
        E 5 90 41 49
        E 65 80 3d 00
        E 20 80 31 00
        E 21 80 41 00
        E 18 80 4d 00
        E 9 80 45 00
        E 135 90 4d 4a
        E 4 90 45 48
        E 49 80 4d 00
        E 3 80 45 00
        E 74 90 29 4c
        E 4 90 35 4e
        E 9 90 4d 5b
        E 11 90 45 5d
        E 4 90 41 4f
        E 116 80 41 00
        E 20 80 4d 00
        E 3 80 45 00
        E 117 90 4d 4c
        E 5 90 45 4e
        E 6 90 41 46
        E 44 80 41 00
        E 23 80 45 00
        E 12 80 4d 00
        E 18 80 29 00
        E 23 90 4d 46
        E 11 90 45 5d
        E 4 90 41 44
        E 103 80 41 00
        E 17 80 4d 00
        E 9 80 45 00
        E 140 90 4d 43
        E 5 90 45 41
        E 29 90 41 24
        E 23 80 4d 00
        E 15 80 45 00
        E 9 80 41 00
        E 71 90 4d 52
        E 10 90 45 50
        E 4 90 41 3f
        E 62 80 35 00
        E 43 80 41 00
        E 10 80 4d 00
        E 87 80 45 00
        E 28 90 30 53
        E 254 90 48 54
        E 5 90 4c 47
        E 7 90 37 45
        E 4 90 34 44
        E 4 90 43 40
        E 5 80 30 00
        E 30 80 43 00
        E 39 80 48 00
        E 2 80 4c 00
        E 14 80 37 00
        E 15 80 34 00
        E 148 90 2b 4f
        E 9 90 4a 46
        E 5 90 47 3c
        E 10 90 41 30
        E 31 80 47 00
        E 18 80 4a 00
        E 6 80 41 00
        E 63 80 2b 00
        E 122 90 34 42
        E 2 90 37 3e
        E 119 80 34 00
        E 2 80 37 00
        E 146 90 43 48
        E 7 90 48 50
        E 2 90 40 4b
        E 9 90 30 44
        E 26 80 40 00
        E 31 80 43 00
        E 57 80 48 00
        E 130 80 30 00
        E 4 90 34 4c
        E 7 90 37 4a
        E 112 80 34 00
        E 13 80 37 00
        E 86 90 2b 55
        E 252 80 2b 00
        E 2 90 34 4a
        E 3 90 52 65
        E 3 90 48 51
        E 17 90 4c 3c
        E 3 90 37 4c
        E 30 80 4c 00
        E 26 80 34 00
        E 35 80 48 00
        E 13 80 37 00
        E 52 80 52 00
        E 76 90 35 50
        E 9 90 51 59
        E 11 90 4d 59
        E 2 90 48 4d
        E 98 80 48 00
        E 6 80 51 00
        E 17 80 4d 00
        E 80 80 35 00
        E 19 90 3c 47
        E 3 90 39 3c
        E 108 80 3c 00
        E 6 80 39 00
        E 126 90 4f 4b
        E 9 90 46 45
        E 8 90 30 49
        E 3 90 4c 3e
        E 28 80 4c 00
        E 52 80 4f 00
        E 5 80 46 00
        E 96 80 30 00
        E 43 90 39 3a
        E 11 90 3c 3d
        E 109 80 39 00
        E 15 80 3c 00
        E 124 90 35 4c
        E 4 90 48 4e
        E 2 90 4d 53
        E 3 90 45 49
        E 231 80 45 00
        E 13 80 35 00
        E 10 90 39 44
        E 9 90 3c 49
        E 135 80 3c 00
        E 7 80 48 00
        E 7 80 39 00
        E 10 80 4d 00
        E 56 90 30 58
        E 251 90 39 52
        E 2 90 3c 4f
        E 3 90 48 53
        E 8 90 4d 50
        E 2 90 45 4a
        E 3 80 30 00
        E 55 80 39 00
        E 9 80 3c 00
        E 6 80 4d 00
        E 41 80 45 00
        E 3 80 48 00
        E 116 90 30 5a
        E 6 90 4c 4f
        E 7 90 48 58
        E 8 90 43 4d
        E 84 80 43 00
        E 3 80 4c 00
        E 27 80 48 00
        E 16 80 30 00
        E 73 90 37 44
        E 40 90 34 2e
        E 48 80 34 00
        E 14 80 37 00
        E 159 90 2b 4c
        E 10 90 47 41
        E 2 90 4a 4c
        E 3 90 41 42
        E 36 80 47 00
        E 21 80 41 00
        E 9 80 4a 00
        E 70 80 2b 00
        E 88 90 34 3e
        E 12 90 37 32
        E 51 80 37 00
        E 23 80 34 00
        E 172 90 48 51
        E 4 90 43 44
        E 1 90 40 4c
        E 5 90 30 4c
        E 31 80 40 00
        E 37 80 43 00
        E 48 80 48 00
        E 134 90 34 49
        E 4 80 30 00
        E 12 90 37 43
        E 94 80 34 00
        E 45 80 37 00
        E 73 90 2b 48
        E 215 90 34 43
        E 3 80 2b 00
        E 16 90 52 5e
        E 8 90 48 45
        E 4 90 37 45
        E 5 90 4c 43
        E 27 80 4c 00
        E 5 80 34 00
        E 49 80 37 00
        E 4 80 48 00
        E 37 80 52 00
        E 98 90 35 52
        E 16 90 51 5c
        E 7 90 4d 58
        E 3 90 48 52
        E 106 80 51 00
        E 8 80 48 00
        E 2 80 4d 00
        E 69 80 35 00
        E 29 90 39 3e
        E 4 90 3c 46
        E 121 80 3c 00
        E 43 80 39 00
        E 54 90 4f 55
        E 3 90 46 5c
        E 7 90 4c 4a
        E 3 90 30 43
        E 124 80 4c 00
        E 55 80 4f 00
        E 2 80 46 00
        E 51 90 39 49
        E 8 80 30 00
        E 24 90 3c 41
        E 67 90 4a 53
        E 5 90 45 50
        E 4 90 4e 51
        E 30 80 39 00
        E 18 80 3c 00
        E 88 80 45 00
        E 3 90 36 4f
        E 27 80 4a 00
        E 4 80 4e 00
        E 83 90 4a 4c
        E 3 90 4e 46
        E 10 90 45 48
        E 40 80 45 00
        E 24 80 4a 00
        E 3 80 4e 00
        E 66 90 4e 57
        E 3 90 4a 51
        E 4 90 45 50
        E 22 90 39 3a
        E 6 90 3e 47
        E 10 80 36 00
        E 30 80 4a 00
        E 1 80 45 00
        E 11 80 4e 00
        E 38 90 4e 47
        E 10 90 45 5f
        E 3 90 4a 5d
        E 24 80 39 00
        E 46 80 45 00
        E 18 80 3e 00
        E 8 80 4a 00
        E 3 80 4e 00
        E 47 90 32 53
        E 6 90 4e 61
        E 5 90 45 54
        E 4 90 36 39
        E 5 90 4a 65
        E 107 80 45 00
        E 42 80 4a 00
        E 16 80 4e 00
        E 47 80 36 00
        E 17 90 4a 50
        E 6 80 32 00
        E 5 90 4e 57
        E 3 90 45 50
        E 30 90 3e 49
        E 3 80 45 00
        E 27 80 4a 00
        E 18 80 3e 00
        E 42 80 4e 00
        E 119 90 4a 56
        E 8 90 3a 3d
        E 75 80 4a 00
        E 64 90 4d 48
        E 89 80 4d 00
        E 22 80 3a 00
        E 16 90 3e 3f
        E 10 90 4a 4c
        E 3 90 41 44
        E 10 90 52 56
        E 3 90 4d 32
        E 36 80 4d 00
        E 38 80 3e 00
        E 36 80 41 00
        E 46 80 52 00
        E 36 80 4a 00
        E 37 90 35 4c
        E 152 90 4a 53
        E 3 90 52 52
        E 3 90 56 51
        E 112 80 35 00
        E 5 90 3e 4a
        E 15 90 41 44
        E 8 80 52 00
        E 10 80 56 00
        E 30 80 4a 00
        E 17 80 3e 00
        E 37 80 41 00
        E 151 90 4a 4e
        E 21 90 3b 3c
        E 51 80 4a 00
        E 61 90 4d 48
        E 90 80 4d 00
        E 10 80 3b 00
        E 38 90 3e 40
        E 4 90 4d 54
        E 9 90 41 3a
        E 14 90 4a 5a
        E 20 90 53 46
        E 60 80 4d 00
        E 39 80 41 00
        E 2 80 3e 00
        E 54 80 4a 00
        E 28 80 53 00
        E 20 90 35 4a
        E 180 90 53 59
        E 12 90 4a 50
        E 10 90 56 38
        E 53 90 3e 32
        E 3 80 35 00
        E 14 90 41 3c
        E 28 80 56 00
        E 27 80 53 00
        E 25 80 3e 00
        E 27 80 4a 00
        E 29 80 41 00
        E 119 90 3c 45
        E 13 90 4d 5c
        E 89 80 4d 00
        E 26 80 3c 00
        E 25 90 51 5b
        E 14 90 4d 55
        E 32 80 4d 00
        E 44 80 51 00
        E 30 90 45 49
        E 17 90 41 49
        E 4 90 4d 57
        E 13 90 54 5b
        E 5 90 48 5d
        E 50 80 45 00
        E 23 80 41 00
        E 114 80 48 00
        E 6 80 54 00
        E 28 90 35 55
        E 37 80 4d 00
        E 91 80 35 00
        E 16 90 4d 55
        E 5 90 49 61
        E 4 90 55 62
        E 138 80 4d 00
        E 2 80 49 00
        E 12 90 41 49
        E 14 90 45 40
        E 19 80 55 00
        E 83 80 41 00
        E 31 90 4e 5e
        E 3 80 45 00
        E 8 90 4a 5a
        E 3 90 56 5c
        E 129 90 3e 49
        E 5 80 4a 00
        E 6 80 56 00
        E 19 80 4e 00
        E 94 90 4e 50
        E 8 90 4a 4e
        E 8 90 56 4e
        E 32 80 4a 00
        E 20 80 56 00
        E 13 80 4e 00
        E 64 90 4e 61
        E 4 90 56 5a
        E 8 90 4a 56
        E 11 90 42 42
        E 21 80 3e 00
        E 9 90 45 40
        E 18 80 4a 00
        E 2 80 56 00
        E 5 80 4e 00
        E 59 90 4e 62
        E 3 90 56 5b
        E 4 90 4a 5d
        E 27 80 42 00
        E 58 80 45 00
        E 5 80 4a 00
        E 7 80 56 00
        E 2 80 4e 00
        E 36 90 39 56
        E 18 90 56 5d
        E 3 90 4e 62
        E 4 90 4a 56
        E 91 80 4a 00
        E 11 80 56 00
        E 28 80 4e 00
        E 84 90 4e 66
        E 9 90 56 62
        E 5 90 42 4b
        E 4 90 45 49
        E 4 90 4a 51
        E 27 80 45 00
        E 1 80 4a 00
        E 14 80 42 00
        E 23 80 4e 00
        E 2 80 39 00
        E 10 80 56 00
        E 268 90 59 52
        E 8 90 2b 46
        E 119 80 59 00
        E 32 80 2b 00
        E 9 90 5d 48
        E 119 90 2d 41
        E 37 90 56 4d
        E 53 80 5d 00
        E 50 80 2d 00
        E 55 90 59 4f
        E 21 80 56 00
        E 106 90 52 57
        E 11 90 2e 49
        E 111 80 59 00
        E 15 90 56 54
        E 10 80 2e 00
        E 2 80 52 00
        E 155 90 4f 49
        E 7 90 2f 2e
        E 12 80 56 00
        E 104 90 56 49
        E 13 80 4f 00
        E 9 80 2f 00
        E 122 80 56 00
        E 1 90 58 5a
        E 5 90 30 38
        E 134 90 5b 52
        E 14 80 30 00
        E 4 80 58 00
        E 112 90 2e 3c
        E 9 90 54 56
        E 31 80 5b 00
        E 97 80 2e 00
        E 9 90 58 55
        E 25 80 54 00
        E 90 90 2d 3f
        E 16 90 52 52
        E 11 80 58 00
        E 101 80 2d 00
        E 18 90 54 4e
        E 3 80 52 00
        E 140 90 2b 49
        E 13 90 4f 40
        E 8 80 54 00
        E 98 80 2b 00
        E 27 90 54 53
        E 29 80 4f 00
        E 65 80 54 00
        E 69 90 4d 52
        E 2 90 29 56
        E 3 90 35 57
        E 137 90 54 5d
        E 12 80 29 00
        E 38 80 4d 00
        E 10 80 35 00
        E 41 80 54 00
        E 295 90 4d 62
        E 8 90 3d 59
        E 10 90 31 5b
        E 110 80 3d 00
        E 2 90 55 56
        E 69 80 31 00
        E 2 80 4d 00
        E 47 80 55 00
        E 171 90 4d 57
        E 90 90 51 2a
        E 21 90 54 52
        E 19 90 56 52
        E 12 90 29 4e
        E 2 90 58 52
        E 1 90 35 4d
        E 8 80 4d 00
        E 16 80 51 00
        E 2 90 59 4c
        E 8 80 54 00
        E 19 80 56 00
        E 14 80 58 00
        E 33 90 4d 57
        E 96 80 4d 00
        E 12 80 59 00
        E 52 90 4d 65
        E 9 90 59 66
        E 67 80 59 00
        E 2 80 4d 00
        E 58 90 59 5d
        E 4 90 4d 60
        E 76 80 4d 00
        E 5 80 59 00
        E 43 90 59 56
        E 3 90 4d 5f
        E 104 80 4d 00
        E 3 80 59 00
        E 55 80 29 00
        E 140 90 4d 4c
        E 5 90 59 58
        E 64 80 4d 00
        E 15 80 59 00
        E 38 90 59 54
        E 5 80 35 00
        E 8 90 4d 5f
        E 74 80 59 00
        E 21 80 4d 00
        E 87 90 32 4e
        E 9 90 51 56
        E 3 90 4a 48
        E 4 90 4d 3f
        E 89 80 4a 00
        E 29 80 4d 00
        E 47 80 51 00
        E 31 80 32 00
        E 32 90 39 46
        E 9 90 35 43
        E 3 90 4d 38
        E 4 90 51 4c
        E 8 90 56 4c
        E 74 80 39 00
        E 21 80 4d 00
        E 8 80 51 00
        E 11 80 56 00
        E 7 80 35 00
        E 119 90 2d 4b
        E 3 90 4a 33
        E 8 90 51 49
        E 9 90 4d 23
        E 34 80 4d 00
        E 13 80 4a 00
        E 48 80 51 00
        E 39 80 2d 00
        E 102 90 39 46
        E 0 90 4d 38
        E 3 90 35 42
        E 3 90 56 4e
        E 7 90 51 4c
        E 90 80 39 00
        E 3 80 35 00
        E 1 80 4d 00
        E 8 80 56 00
        E 28 80 51 00
        E 108 90 4a 37
        E 1 90 51 47
        E 9 90 32 48
        E 13 90 4d 19
        E 17 80 4a 00
        E 24 80 4d 00
        E 17 80 51 00
        E 41 90 4d 4f
        E 10 90 51 49
        E 8 90 56 4f
        E 99 80 4d 00
        E 12 80 32 00
        E 8 80 56 00
        E 11 80 51 00
        E 1 90 39 38
        E 5 90 35 3c
        E 87 90 51 3d
        E 5 90 4d 3b
        E 4 90 56 3c
        E 12 90 4a 37
        E 13 80 39 00
        E 45 80 35 00
        E 29 80 51 00
        E 22 80 56 00
        E 34 90 2d 43
        E 62 80 4a 00
        E 39 90 50 50
        E 88 80 4d 00
        E 17 90 51 49
        E 30 80 2d 00
        E 1 90 35 44
        E 12 90 39 41
        E 3 80 50 00
        E 34 80 51 00
        E 12 80 39 00
        E 11 80 35 00
        E 135 90 51 56
        E 4 90 4a 4d
        E 4 90 32 48
        E 99 80 51 00
        E 36 90 50 59
        E 49 80 4a 00
        E 33 80 32 00
        E 16 90 35 3e
        E 2 90 51 4f
        E 15 90 39 39
        E 10 80 50 00
        E 17 80 51 00
        E 23 80 35 00
        E 10 80 39 00
        E 77 90 4f 5f
        E 12 90 48 4c
        E 2 90 4c 4f
        E 81 90 30 40
        E 126 80 30 00
        E 19 90 4e 50
        E 5 80 4f 00
        E 67 80 48 00
        E 57 80 4c 00
        E 20 90 4f 4c
        E 9 80 4e 00
        E 6 90 3a 35
        E 24 90 3c 26
        E 4 90 37 2a
        E 44 80 3c 00
        E 3 80 37 00
        E 7 90 4e 44
        E 17 80 3a 00
        E 13 80 4f 00
        E 47 80 4e 00
        E 78 90 35 56
        E 9 90 4d 62
        E 4 90 45 5b
        E 11 90 4a 4c
        E 119 80 4a 00
        E 10 80 45 00
        E 4 80 4d 00
        E 77 80 35 00
        E 16 90 39 3e
        E 9 90 3c 40
        E 108 80 39 00
        E 10 80 3c 00
        E 9 90 4a 50
        E 9 90 41 37
        E 6 90 45 3c
        E 47 80 41 00
        E 33 80 45 00
        E 39 90 30 50
        E 18 80 4a 00
        E 218 90 3c 51
        E 3 90 39 4c
        E 13 80 30 00
        E 61 80 39 00
        E 18 80 3c 00
        E 144 90 32 51
        E 23 90 4d 33
        E 3 90 51 50
        E 4 90 4a 31
        E 78 80 4a 00
        E 12 80 4d 00
        E 40 80 51 00
        E 37 80 32 00
        E 47 90 39 3e
        E 14 90 35 3f
        E 19 90 56 50
        E 3 90 4d 29
        E 2 90 51 45
        E 78 80 39 00
        E 14 80 51 00
        E 18 80 35 00
        E 2 80 56 00
        E 4 80 4d 00
        E 115 90 2d 4f
        E 9 90 4a 2e
        E 8 90 51 48
        E 8 90 4d 22
        E 32 80 4d 00
        E 44 80 4a 00
        E 42 80 51 00
        E 58 80 2d 00
        E 42 90 35 48
        E 5 90 39 47
        E 4 90 51 44
        E 3 90 4d 2f
        E 5 90 56 51
        E 92 80 39 00
        E 11 80 56 00
        E 2 80 35 00
        E 2 80 4d 00
        E 10 80 51 00
        E 116 90 4a 32
        E 7 90 51 3a
        E 4 90 32 4b
        E 3 90 4d 20
        E 31 80 4d 00
        E 2 80 51 00
        E 8 80 4a 00
        E 70 90 4d 30
        E 6 90 51 4c
        E 4 90 56 4d
        E 70 80 32 00
        E 25 80 56 00
        E 7 80 4d 00
        E 12 80 51 00
        E 2 90 39 33
        E 8 90 35 37
        E 80 90 4d 38
        E 3 80 39 00
        E 6 90 56 3d
        E 12 80 35 00
        E 22 90 4a 20
        E 56 90 2d 47
        E 38 80 56 00
        E 113 90 50 47
        E 37 80 4a 00
        E 55 90 51 50
        E 12 90 35 45
        E 3 90 39 4b
        E 26 80 4d 00
        E 9 80 50 00
        E 8 80 35 00
        E 18 80 51 00
        E 14 80 2d 00
        E 14 80 39 00
        E 148 90 4a 5b
        E 4 90 2b 5a
        E 4 90 47 55
        E 5 90 4f 58
        E 4 90 37 46
        E 28 80 47 00
        E 2 80 2b 00
        E 6 80 4f 00
        E 24 80 4a 00
        E 11 80 37 00
        E 157 90 4a 5c
        E 11 90 4f 57
        E 6 90 37 2d
        E 0 90 3b 2d
        E 0 90 3e 2d
        E 12 90 47 38
        E 34 80 37 00
        E 0 80 3b 00
        E 0 80 3e 00
        E 4 80 47 00
        E 85 80 4a 00
        E 10 80 4f 00
        E 102 90 2b 54
        E 4 90 37 45
        E 26 80 2b 00
        E 74 80 37 00
        E 13 90 4f 42
        E 94 80 4f 00
        E 9 90 37 4e
        E 1 90 3b 4e
        E 0 90 51 44
        E 7 90 3e 4e
        E 76 80 37 00
        E 2 80 3b 00
        E 7 80 3e 00
        E 38 90 4f 59
        E 55 80 51 00
        E 21 80 4f 00
        E 81 90 24 6b
        E 3 90 30 5d
        E 4 90 54 57
        E 5 90 48 51
        E 8 90 4c 44
        E 17 80 48 00
        E 12 80 4c 00
        E 7 80 24 00
        E 3 80 30 00
        E 28 80 54 00
        E 52 90 52 65
        E 2 90 4c 46
        E 4 90 48 57
        E 109 90 32 50
        E 8 90 26 4b
        E 5 80 48 00
        E 24 80 26 00
        E 7 80 4c 00
        E 2 80 52 00
        E 34 80 32 00
        E 42 90 4c 57
        E 10 90 51 55
        E 9 90 48 4f
        E 114 80 48 00
        E 13 90 33 4c
        E 21 90 27 46
        E 7 80 4c 00
        E 15 80 51 00
        E 13 80 27 00
        E 23 80 33 00
        E 43 90 4c 51
        E 12 90 4f 55
        E 4 90 48 59
        E 120 80 48 00
        E 14 90 34 3f
        E 6 90 28 33
        E 31 80 4c 00
        E 23 80 4f 00
        E 9 80 28 00
        E 35 80 34 00
        E 136 90 32 4f
        E 10 90 51 50
        E 3 90 4d 34
        E 5 90 4a 2f
        E 38 80 4a 00
        E 57 80 4d 00
        E 26 80 51 00
        E 78 80 32 00
        E 40 90 39 3f
        E 12 90 4d 2b
        E 3 90 56 4c
        E 5 90 35 3e
        E 8 90 51 3c
        E 34 80 51 00
        E 43 80 39 00
        E 12 80 56 00
        E 5 80 4d 00
        E 25 80 35 00
        E 114 90 2d 46
        E 11 90 4a 26
        E 7 90 51 41
        E 2 90 4d 22
        E 36 80 4d 00
        E 15 80 4a 00
        E 64 80 51 00
        E 18 80 2d 00
        E 85 90 39 46
        E 9 90 35 40
        E 9 90 4d 32
        E 2 90 51 48
        E 2 90 56 50
        E 74 80 39 00
        E 19 80 4d 00
        E 4 80 35 00
        E 3 80 56 00
        E 8 80 51 00
        E 128 90 4a 32
        E 7 90 51 3d
        E 2 90 32 4c
        E 9 90 4d 20
        E 28 80 4a 00
        E 2 80 4d 00
        E 7 80 51 00
        E 77 90 4d 37
        E 10 90 51 4b
        E 13 90 56 4a
        E 67 80 32 00
        E 3 80 56 00
        E 11 80 4d 00
        E 10 90 39 36
        E 3 80 51 00
        E 1 90 35 3a
        E 59 80 35 00
        E 23 80 39 00
        E 27 90 56 44
        E 14 90 4d 3f
        E 26 90 51 2e
        E 22 90 4a 20
        E 19 80 51 00
        E 3 90 2d 49
        E 67 80 56 00
        E 93 90 50 46
        E 85 90 39 41
        E 9 90 35 40
        E 9 90 51 3e
        E 10 80 4a 00
        E 13 80 35 00
        E 2 80 39 00
        E 7 80 4d 00
        E 19 80 50 00
        E 37 80 51 00
        E 7 80 2d 00
        E 129 90 24 5b
        E 8 90 54 66
        E 4 90 4c 58
        E 3 90 30 54
        E 4 90 49 5d
        E 15 80 24 00
        E 65 80 30 00
        E 26 80 54 00
        E 10 80 49 00
        E 9 80 4c 00
        E 120 90 49 66
        E 4 90 3c 5d
        E 4 90 37 58
        E 4 90 54 6b
        E 3 90 3a 45
        E 4 90 4c 62
        E 15 90 34 34
        E 29 80 3a 00
        E 21 80 3c 00
        E 14 80 37 00
        E 13 80 34 00
        E 50 80 49 00
        E 52 80 4c 00
        E 53 90 30 52
        E 8 90 24 51
        E 7 80 54 00
        E 26 80 24 00
        E 44 80 30 00
        E 72 90 51 46
        E 104 90 4f 56
        E 14 90 3c 48
        E 5 90 3a 40
        E 16 90 37 33
        E 7 80 51 00
        E 9 80 3c 00
        E 24 80 37 00
        E 3 80 4f 00
        E 25 80 3a 00
        E 132 90 48 47
        E 7 90 4d 3d
        E 11 90 45 37
        E 2 90 4f 38
        E 19 90 35 58
        E 80 80 4f 00
        E 19 80 45 00
        E 19 80 4d 00
        E 11 80 48 00
        E 113 80 35 00
        E 10 90 3c 46
        E 5 90 39 3a
        E 41 80 39 00
        E 53 80 3c 00
        E 7 90 45 51
        E 3 90 4a 56
        E 3 90 41 50
        E 90 80 41 00
        E 13 80 45 00
        E 34 90 30 4c
        E 10 80 4a 00
        E 176 80 30 00
        E 33 90 3c 46
        E 17 90 39 3d
        E 25 80 3c 00
        E 9 80 39 00
        E 199 90 46 43
        E 5 90 2e 46
        E 107 80 46 00
        E 2 90 4a 48
        E 95 90 3a 38
        E 8 80 2e 00
        E 23 90 4d 42
        E 21 90 35 25
        E 26 80 3a 00
        E 7 80 4a 00
        E 17 80 35 00
        E 36 80 4d 00
        E 132 90 2f 50
        E 3 90 47 50
        E 108 90 4a 47
        E 13 80 47 00
        E 88 80 2f 00
        E 19 90 35 40
        E 4 90 4d 41
        E 3 90 3b 38
        E 56 80 35 00
        E 6 80 4a 00
        E 17 80 3b 00
        E 24 80 4d 00
        E 103 90 30 57
        E 28 90 48 53
        E 8 90 50 5e
        E 9 90 4d 42
        E 33 80 4d 00
        E 30 80 48 00
        E 6 80 50 00
        E 8 80 30 00
        E 42 90 48 40
        E 11 90 51 5d
        E 21 80 48 00
        E 3 90 4d 25
        E 42 80 4d 00
        E 22 90 3c 46
        E 19 90 39 3c
        E 8 80 51 00
        E 24 90 30 39
        E 19 80 39 00
        E 18 80 3c 00
        E 70 80 30 00
        E 6 90 51 5d
        E 4 90 54 59
        E 5 90 4e 61
        E 127 90 32 4b
        E 4 90 26 5b
        E 32 80 26 00
        E 33 80 32 00
        E 40 80 51 00
        E 89 80 54 00
        E 5 80 4e 00
        E 54 90 3e 50
        E 8 90 3c 57
        E 6 90 36 50
        E 7 90 39 2e
        E 18 80 3c 00
        E 13 80 36 00
        E 7 80 39 00
        E 5 80 3e 00
        E 202 90 4f 6b
        E 3 90 57 68
        E 3 90 4b 61
        E 4 90 37 5f
        E 5 90 2d 47
        E 29 80 2d 00
        E 45 80 37 00
        E 28 80 57 00
        E 3 80 4f 00
        E 4 80 4b 00
        E 122 90 3b 3e
        E 6 90 41 50
        E 9 90 37 46
        E 4 90 4e 62
        E 4 90 4a 5d
        E 9 90 3e 32
        E 4 90 56 51
        E 5 80 41 00
        E 16 80 3e 00
        E 19 80 3b 00
        E 26 80 37 00
        E 29 80 56 00
        E 8 80 4a 00
        E 48 80 4e 00
        E 86 90 4c 56
        E 5 90 47 5e
        E 4 90 50 53
        E 2 90 30 5b
        E 3 90 24 51
        E 30 80 24 00
        E 11 80 30 00
        E 10 80 50 00
        E 8 80 4c 00
        E 5 80 47 00
        E 117 90 46 61
        E 4 90 51 5f
        E 18 90 48 2a
        E 42 90 3c 4f
        E 5 90 3a 3a
        E 5 90 37 3a
        E 10 80 48 00
        E 7 80 51 00
        E 2 80 46 00
        E 14 80 3a 00
        E 5 80 37 00
        E 42 80 3c 00
        E 61 90 48 58
        E 4 90 4d 61
        E 7 90 45 53
        E 122 90 35 59
        E 3 90 29 5c
        E 9 80 4d 00
        E 6 80 48 00
        E 2 80 45 00
        E 48 80 35 00
        E 25 80 29 00
        E 70 90 3c 5c
        E 91 80 3c 00
        E 34 90 30 57
        E 6 90 24 57
        E 14 90 3e 5e
        E 20 80 30 00
        E 35 80 24 00
        E 55 90 40 5d
        E 57 80 3e 00
        E 30 80 40 00
        E 71 90 29 64
        E 4 90 1d 63
        E 3 90 3c 5c
        E 5 90 41 64
        E 4 90 39 67
        E 155 80 39 00
        E 12 80 29 00
        E 11 80 1d 00
        E 38 80 41 00
        E 86 80 3c 00
        E 262 b0 7b 00
        GUID {45FF579B-CB23-441C-890A-657F4E18CE1D}
        IGNTEMPO 0 120 4 4
        SRCCOLOR 102
        VELLANE 133 99 0
        CFGEDITVIEW 0 0.00381 0 12 0 -1 0 0 0 0.5
        KEYSNAP 0
        TRACKSEL 0
        EVTFILTER 0 -1 -1 -1 -1 0 0 0 0 -1 -1 -1 -1 0 -1 0 -1 -1
        CFGEDIT 1 1 0 1 0 0 1 1 1 1 1 0.0625 196 120 1672 1026 0 0 0 0 0 0 0 0 0 0.5 0 0 1 64
      >
    >
  >
>
