<REAPER_PROJECT 0.1 "5.23/x64" 1513365061
  RIPPLE 0
  GROUPOVERRIDE 0 0 0
  AUTOXFADE 1
  ENVATTACH 1
  MIXERUIFLAGS 11 48
  PEAKGAIN 1
  FEEDBACK 0
  PANLAW 1
  PROJOFFS 0 0
  MAXPROJLEN 0 600
  GRID 3199 8 1 8 1 0 0
  TIMEMODE 1 5 -1 30 0
  VIDEO_CONFIG 0 0 256
  PANMODE 3
  CURSOR 0
  ZOOM 4.61122669093424 0 0
  VZOOMEX 6
  USE_REC_CFG 0
  RECMODE 1
  SMPTESYNC 0 30 100 40 1000 300 0 0 1
  MIDIEDITOR -14277082 0 0
  LOOP 1
  LOOPGRAN 0 4
  RECORD_PATH "" ""
  <RECORD_CFG
  >
  <APPLYFX_CFG
  >
  RENDER_FILE ""
  RENDER_PATTERN ""
  RENDER_FMT 0 2 0
  RENDER_1X 0
  RENDER_RANGE 1 0 0 18 1000
  RENDER_RESAMPLE 3 0 1
  RENDER_ADDTOPROJ 0
  RENDER_STEMS 0
  RENDER_DITHER 0
  TIMELOCKMODE 1
  TEMPOENVLOCKMODE 1
  ITEMMIX 0
  DEFPITCHMODE 589824
  TAKELANE 1
  SAMPLERATE 44100 0 0
  <RENDER_CFG
  >
  LOCK 1
  <METRONOME 6 2
    VOL 0.25 0.125
    FREQ 800 1600 1
    BEATLEN 4
    SAMPLES "" ""
    PATTERN 2863311530 2863311529
  >
  GLOBAL_AUTO -1
  TEMPO 120 4 4
  PLAYRATE 1 0 0.25 4
  SELECTION 1.643832 103.56141600000471
  SELECTION2 1.643832 103.56141600000471
  MASTERAUTOMODE 0
  MASTERTRACKHEIGHT 0
  MASTERPEAKCOL 16576
  MASTERMUTESOLO 0
  MASTERTRACKVIEW 0 0.6667 0.5 0.5 0 0 0
  MASTERHWOUT 0 0 1 0 0 0 0 -1
  MASTER_NCH 2 2
  MASTER_VOLUME 1 0 -1 -1 1
  MASTER_FX 1
  MASTER_SEL 0
  <MASTERPLAYSPEEDENV
    ACT 0
    VIS 0 1 1
    LANEHEIGHT 0 0
    ARM 0
    DEFSHAPE 0 -1 -1
  >
  <TEMPOENVEX
    ACT 1
    VIS 1 0 1
    LANEHEIGHT 0 0
    ARM 0
    DEFSHAPE 1 -1 -1
    PT 0.000000000000 146.0003212007 1
  >
  <PROJBAY
  >
  <TRACK {41D9FD49-D330-4EF5-AEA8-6508AE15B00C}
    NAME "melody 1"
    PEAKCOL 16576
    BEAT -1
    AUTOMODE 0
    VOLPAN 0.24280703858077 0 -1 -1 1
    MUTESOLO 0 0 0
    IPHASE 0
    ISBUS 0 0
    BUSCOMP 0 0
    SHOWINMIX 1 0.6667 0.5 1 0.5 0 0 0
    FREEMODE 0
    SEL 0
    REC 0 0 0 0 0 0 0
    VU 2
    TRACKHEIGHT 0 0
    INQ 0 0 0 0.5 100 0 0 100
    NCHAN 2
    FX 1
    TRACKID {41D9FD49-D330-4EF5-AEA8-6508AE15B00C}
    PERF 0
    MIDIOUT 128
    MAINSEND 1 0
    <FXCHAIN
      WNDRECT 24 52 1219 847
      SHOW 0
      LASTSEL 0
      DOCKED 0
      BYPASS 0 0 0
      <VST "VST3i: Helm (Matt Tytel)" helm64.vst3 0 "" 820595496{56535448656C6D68656C6D0000000000}
        KEvpMO5e7f4AAAAAAgAAAAEAAAAAAAAAAgAAAAAAAAAaEAAAAQAAAP//EAA=
        ChAAAAEAAABWc3RXAAAACAAAAAEAAAAAQ2NuSwAAD/JGQkNoAAAAAkhlbG0AAAgGAAAAAAAAAAAAAAAAAAAAAAAAAAAAAAAAAAAAAAAAAAAAAAAAAAAAAAAAAAAAAAAA
        AAAAAAAAAAAAAAAAAAAAAAAAAAAAAAAAAAAAAAAAAAAAAAAAAAAAAAAAAAAAAAAAAAAAAAAAAAAAAAAAAAAAAAAAAAAAAAAAAAAAAAAAAAAAAAAAAAAPWnsNCiAgImxp
        Y2Vuc2UiOiAiUGF0Y2ggKGMpIGJ5IC4gIFRoaXMgcGF0Y2ggaXMgbGljZW5zZWQgdW5kZXIgYSBDcmVhdGl2ZSBDb21tb25zIEF0dHJpYnV0aW9uIDQuMCBJbnRlcm5h
        dGlvbmFsIExpY2Vuc2UuICBZb3Ugc2hvdWxkIGhhdmUgcmVjZWl2ZWQgYSBjb3B5IG9mIHRoZSBsaWNlbnNlIGFsb25nIHdpdGggdGhpcyB3b3JrLiAgSWYgbm90LCBz
        ZWUgPGh0dHA6Ly9jcmVhdGl2ZWNvbW1vbnMub3JnL2xpY2Vuc2VzL2J5LzQuMC8+LiIsDQogICJzeW50aF92ZXJzaW9uIjogIjAuOC42IiwNCiAgInBhdGNoX25hbWUi
        OiAiIiwNCiAgImZvbGRlcl9uYW1lIjogIiIsDQogICJhdXRob3IiOiAiIiwNCiAgInNldHRpbmdzIjogew0KICAgICJhbXBfYXR0YWNrIjogMC4xMDAwMDAwMDAwMDAw
        MDAwMDU1NSwNCiAgICAiYW1wX2RlY2F5IjogMS41LA0KICAgICJhbXBfcmVsZWFzZSI6IDAuMjk5OTk5OTk5OTk5OTk5OTg4OSwNCiAgICAiYW1wX3N1c3RhaW4iOiAx
        LA0KICAgICJhcnBfZnJlcXVlbmN5IjogMiwNCiAgICAiYXJwX2dhdGUiOiAwLjUsDQogICAgImFycF9vY3RhdmVzIjogMSwNCiAgICAiYXJwX29uIjogMCwNCiAgICAi
        YXJwX3BhdHRlcm4iOiAwLA0KICAgICJhcnBfc3luYyI6IDEsDQogICAgImFycF90ZW1wbyI6IDksDQogICAgImJlYXRzX3Blcl9taW51dGUiOiAxNDYuMDAwMzIxMjAw
        NzAwMDAwMTksDQogICAgImNyb3NzX21vZHVsYXRpb24iOiAwLA0KICAgICJjdXRvZmYiOiA4MCwNCiAgICAiZGVsYXlfZHJ5X3dldCI6IDAuNSwNCiAgICAiZGVsYXlf
        ZmVlZGJhY2siOiAwLjQwMDAwMDAwMDAwMDAwMDAyMjIsDQogICAgImRlbGF5X2ZyZXF1ZW5jeSI6IDIsDQogICAgImRlbGF5X29uIjogMCwNCiAgICAiZGVsYXlfc3lu
        YyI6IDEsDQogICAgImRlbGF5X3RlbXBvIjogOSwNCiAgICAiZmlsX2F0dGFjayI6IDAsDQogICAgImZpbF9kZWNheSI6IDEuNSwNCiAgICAiZmlsX2Vudl9kZXB0aCI6
        IDAsDQogICAgImZpbF9yZWxlYXNlIjogMS41LA0KICAgICJmaWxfc3VzdGFpbiI6IDAuNSwNCiAgICAiZmlsdGVyX3NhdHVyYXRpb24iOiAwLA0KICAgICJmaWx0ZXJf
        dHlwZSI6IDYsDQogICAgImZvcm1hbnRfb24iOiAwLA0KICAgICJmb3JtYW50X3giOiAwLjUsDQogICAgImZvcm1hbnRfeSI6IDAuNSwNCiAgICAia2V5dHJhY2siOiAw
        LA0KICAgICJsZWdhdG8iOiAwLA0KICAgICJtb2RfYXR0YWNrIjogMCwNCiAgICAibW9kX2RlY2F5IjogMS41LA0KICAgICJtb2RfcmVsZWFzZSI6IDEuNSwNCiAgICAi
        bW9kX3N1c3RhaW4iOiAwLjUsDQogICAgIm1vbm9fbGZvXzFfYW1wbGl0dWRlIjogMSwNCiAgICAibW9ub19sZm9fMV9mcmVxdWVuY3kiOiAxLA0KICAgICJtb25vX2xm
        b18xX3JldHJpZ2dlciI6IDAsDQogICAgIm1vbm9fbGZvXzFfc3luYyI6IDEsDQogICAgIm1vbm9fbGZvXzFfdGVtcG8iOiA2LA0KICAgICJtb25vX2xmb18xX3dhdmVm
        b3JtIjogMCwNCiAgICAibW9ub19sZm9fMl9hbXBsaXR1ZGUiOiAxLA0KICAgICJtb25vX2xmb18yX2ZyZXF1ZW5jeSI6IDEsDQogICAgIm1vbm9fbGZvXzJfcmV0cmln
        Z2VyIjogMCwNCiAgICAibW9ub19sZm9fMl9zeW5jIjogMSwNCiAgICAibW9ub19sZm9fMl90ZW1wbyI6IDcsDQogICAgIm1vbm9fbGZvXzJfd2F2ZWZvcm0iOiAwLA0K
        ICAgICJub2lzZV92b2x1bWUiOiAwLA0KICAgICJudW1fc3RlcHMiOiA4LA0KICAgICJvc2NfMV90cmFuc3Bvc2UiOiAwLA0KICAgICJvc2NfMV90dW5lIjogMCwNCiAg
        ICAib3NjXzFfdW5pc29uX2RldHVuZSI6IDEwLA0KICAgICJvc2NfMV91bmlzb25fdm9pY2VzIjogMSwNCiAgICAib3NjXzFfdm9sdW1lIjogMC40MDAwMDAwMDAwMDAw
        MDAwMjIyLA0KICAgICJvc2NfMV93YXZlZm9ybSI6IDIsDQogICAgIm9zY18yX3RyYW5zcG9zZSI6IDAsDQogICAgIm9zY18yX3R1bmUiOiAwLA0KICAgICJvc2NfMl91
        bmlzb25fZGV0dW5lIjogMTAsDQogICAgIm9zY18yX3VuaXNvbl92b2ljZXMiOiAxLA0KICAgICJvc2NfMl92b2x1bWUiOiAwLjQwMDAwMDAwMDAwMDAwMDAyMjIsDQog
        ICAgIm9zY18yX3dhdmVmb3JtIjogMCwNCiAgICAib3NjX2ZlZWRiYWNrX2Ftb3VudCI6IDAsDQogICAgIm9zY19mZWVkYmFja190cmFuc3Bvc2UiOiAwLA0KICAgICJv
        c2NfZmVlZGJhY2tfdHVuZSI6IDAsDQogICAgInBpdGNoX2JlbmRfcmFuZ2UiOiAyLA0KICAgICJwb2x5X2xmb19hbXBsaXR1ZGUiOiAxLA0KICAgICJwb2x5X2xmb19m
        cmVxdWVuY3kiOiAxLA0KICAgICJwb2x5X2xmb19zeW5jIjogMSwNCiAgICAicG9seV9sZm9fdGVtcG8iOiA3LA0KICAgICJwb2x5X2xmb193YXZlZm9ybSI6IDAsDQog
        ICAgInBvbHlwaG9ueSI6IDQsDQogICAgInBvcnRhbWVudG8iOiAtOSwNCiAgICAicG9ydGFtZW50b190eXBlIjogMCwNCiAgICAicmVzb25hbmNlIjogMCwNCiAgICAi
        cmV2ZXJiX2RhbXBpbmciOiAwLjUsDQogICAgInJldmVyYl9kcnlfd2V0IjogMC41LA0KICAgICJyZXZlcmJfZmVlZGJhY2siOiAwLjkwMDAwMDAwMDAwMDAwMDAyMjIs
        DQogICAgInJldmVyYl9vbiI6IDAsDQogICAgInN0ZXBfZnJlcXVlbmN5IjogMiwNCiAgICAic3RlcF9zZXFfMDAiOiAwLA0KICAgICJzdGVwX3NlcV8wMSI6IDAsDQog
        ICAgInN0ZXBfc2VxXzAyIjogMCwNCiAgICAic3RlcF9zZXFfMDMiOiAwLA0KICAgICJzdGVwX3NlcV8wNCI6IDAsDQogICAgInN0ZXBfc2VxXzA1IjogMCwNCiAgICAi
        c3RlcF9zZXFfMDYiOiAwLA0KICAgICJzdGVwX3NlcV8wNyI6IDAsDQogICAgInN0ZXBfc2VxXzA4IjogMCwNCiAgICAic3RlcF9zZXFfMDkiOiAwLA0KICAgICJzdGVw
        X3NlcV8xMCI6IDAsDQogICAgInN0ZXBfc2VxXzExIjogMCwNCiAgICAic3RlcF9zZXFfMTIiOiAwLA0KICAgICJzdGVwX3NlcV8xMyI6IDAsDQogICAgInN0ZXBfc2Vx
        XzE0IjogMCwNCiAgICAic3RlcF9zZXFfMTUiOiAwLA0KICAgICJzdGVwX3NlcV8xNiI6IDAsDQogICAgInN0ZXBfc2VxXzE3IjogMCwNCiAgICAic3RlcF9zZXFfMTgi
        OiAwLA0KICAgICJzdGVwX3NlcV8xOSI6IDAsDQogICAgInN0ZXBfc2VxXzIwIjogMCwNCiAgICAic3RlcF9zZXFfMjEiOiAwLA0KICAgICJzdGVwX3NlcV8yMiI6IDAs
        DQogICAgInN0ZXBfc2VxXzIzIjogMCwNCiAgICAic3RlcF9zZXFfMjQiOiAwLA0KICAgICJzdGVwX3NlcV8yNSI6IDAsDQogICAgInN0ZXBfc2VxXzI2IjogMCwNCiAg
        ICAic3RlcF9zZXFfMjciOiAwLA0KICAgICJzdGVwX3NlcV8yOCI6IDAsDQogICAgInN0ZXBfc2VxXzI5IjogMCwNCiAgICAic3RlcF9zZXFfMzAiOiAwLA0KICAgICJz
        dGVwX3NlcV8zMSI6IDAsDQogICAgInN0ZXBfc2VxdWVuY2VyX3JldHJpZ2dlciI6IDAsDQogICAgInN0ZXBfc2VxdWVuY2VyX3N5bmMiOiAxLA0KICAgICJzdGVwX3Nl
        cXVlbmNlcl90ZW1wbyI6IDcsDQogICAgInN0ZXBfc21vb3RoaW5nIjogMCwNCiAgICAic3R1dHRlcl9mcmVxdWVuY3kiOiAzLA0KICAgICJzdHV0dGVyX29uIjogMCwN
        CiAgICAic3R1dHRlcl9yZXNhbXBsZV9mcmVxdWVuY3kiOiAxLA0KICAgICJzdHV0dGVyX3Jlc2FtcGxlX3N5bmMiOiAxLA0KICAgICJzdHV0dGVyX3Jlc2FtcGxlX3Rl
        bXBvIjogNiwNCiAgICAic3R1dHRlcl9zb2Z0bmVzcyI6IDAuMjAwMDAwMDAwMDAwMDAwMDExMSwNCiAgICAic3R1dHRlcl9zeW5jIjogMSwNCiAgICAic3R1dHRlcl90
        ZW1wbyI6IDgsDQogICAgInN1Yl9zaHVmZmxlIjogMCwNCiAgICAic3ViX3ZvbHVtZSI6IDAsDQogICAgInN1Yl93YXZlZm9ybSI6IDIsDQogICAgInVuaXNvbl8xX2hh
        cm1vbml6ZSI6IDAsDQogICAgInVuaXNvbl8yX2hhcm1vbml6ZSI6IDAsDQogICAgInZlbG9jaXR5X3RyYWNrIjogMCwNCiAgICAidm9sdW1lIjogMSwNCiAgICAibW9k
        dWxhdGlvbnMiOiBbXQ0KICB9DQp9AAAAAAAAAAAASlVDRVByaXZhdGVEYXRhAAEBQnlwYXNzAAEBAwAdAAAAAAAAAEpVQ0VQcml2YXRlRGF0YQAAAAAAAAAA
        AAAQAAAA
      >
      FLOATPOS 0 0 0 0
      FXID {EF9BA0ED-7D60-4FC8-B941-7810AA556543}
      WAK 0
    >
    <ITEM
      POSITION 0
      SNAPOFFS 0
      LENGTH 103.56141600000471
      LOOP 1
      ALLTAKES 0
      FADEIN 1 0 0 1 0 0
      FADEOUT 1 0 0 1 0 0
      MUTE 0
      SEL 0
      IGUID {1BC638B3-D049-411D-A265-B5869EC90AC5}
      IID 5
      NAME "mel1 - stage_1.mid"
      VOLPAN 1 0 1 -1
      SOFFS 0 0
      PLAYRATE 1 1 0 -1 0 0.0025
      CHANMODE 0
      GUID {2749779F-6946-4A49-B118-05E86849FC1B}
      <SOURCE MIDI
        HASDATA 1 480 QN
        POOLEDEVTS {B747A19F-39C7-4A21-9E60-A5DF36554D22}
        e 0 90 48 78
        e 120 80 48 00
        e 0 90 46 78
        e 120 80 46 00
        e 0 90 43 78
        e 120 80 43 00
        e 0 90 41 78
        e 120 80 41 00
        e 0 90 43 78
        e 120 80 43 00
        e 0 90 41 78
        e 120 80 41 00
        e 0 90 3f 78
        e 120 80 3f 00
        e 0 90 3e 78
        e 120 80 3e 00
        e 0 90 3f 78
        e 120 80 3f 00
        e 0 90 3e 78
        e 120 80 3e 00
        e 0 90 3c 78
        e 120 80 3c 00
        e 0 90 3a 78
        e 120 80 3a 00
        e 0 90 3a 78
        e 120 80 3a 00
        e 0 90 35 78
        e 120 80 35 00
        e 0 90 37 78
        e 120 80 37 00
        e 0 90 3a 78
        e 120 80 3a 00
        e 0 90 3c 78
        e 1200 80 3c 00
        e 0 90 43 78
        e 120 80 43 00
        e 120 90 41 78
        e 120 80 41 00
        e 0 90 43 78
        e 240 80 43 00
        e 0 90 44 78
        e 120 80 44 00
        e 0 90 46 78
        e 1920 80 46 00
        e 0 90 3c 78
        e 1200 80 3c 00
        e 0 90 43 78
        e 120 80 43 00
        e 120 90 41 78
        e 120 80 41 00
        e 0 90 43 78
        e 240 80 43 00
        e 0 90 45 78
        e 120 80 45 00
        e 0 90 3f 78
        e 1920 80 3f 00
        e 0 90 3c 78
        e 1200 80 3c 00
        e 0 90 43 78
        e 120 80 43 00
        e 120 90 41 78
        e 120 80 41 00
        e 0 90 43 78
        e 240 80 43 00
        e 0 90 44 78
        e 120 80 44 00
        e 0 90 46 78
        e 1920 80 46 00
        e 0 90 3c 78
        e 1200 80 3c 00
        e 0 90 43 78
        e 120 80 43 00
        e 120 90 41 78
        e 120 80 41 00
        e 0 90 43 78
        e 240 80 43 00
        e 0 90 45 78
        e 120 80 45 00
        e 0 90 3f 78
        e 1920 80 3f 00
        e 0 90 43 78
        e 120 80 43 00
        e 120 90 43 78
        e 360 80 43 00
        e 0 90 45 78
        e 360 80 45 00
        e 0 90 46 78
        e 120 80 46 00
        e 120 90 46 78
        e 120 80 46 00
        e 240 90 43 78
        e 120 80 43 00
        e 0 90 46 78
        e 120 80 46 00
        e 0 90 48 78
        e 120 80 48 00
        e 0 90 45 78
        e 120 80 45 00
        e 120 90 45 78
        e 360 80 45 00
        e 0 90 46 78
        e 360 80 46 00
        e 0 90 48 78
        e 120 80 48 00
        e 120 90 48 78
        e 120 80 48 00
        e 120 90 46 78
        e 120 80 46 00
        e 0 90 48 78
        e 360 80 48 00
        e 0 90 43 78
        e 120 80 43 00
        e 120 90 43 78
        e 360 80 43 00
        e 0 90 45 78
        e 360 80 45 00
        e 0 90 46 78
        e 120 80 46 00
        e 120 90 46 78
        e 120 80 46 00
        e 240 90 43 78
        e 120 80 43 00
        e 0 90 46 78
        e 120 80 46 00
        e 0 90 48 78
        e 120 80 48 00
        e 0 90 45 78
        e 120 80 45 00
        e 120 90 45 78
        e 360 80 45 00
        e 0 90 46 78
        e 360 80 46 00
        e 0 90 48 78
        e 480 80 48 00
        e 0 90 4d 78
        e 480 80 4d 00
        e 0 90 4f 78
        e 120 80 4f 00
        e 0 90 4d 78
        e 120 80 4d 00
        e 0 90 4f 78
        e 120 80 4f 00
        e 0 90 4d 78
        e 120 80 4d 00
        e 0 90 56 78
        e 120 80 56 00
        e 0 90 54 78
        e 120 80 54 00
        e 0 90 52 78
        e 120 80 52 00
        e 0 90 51 78
        e 120 80 51 00
        e 0 90 4f 78
        e 120 80 4f 00
        e 0 90 4d 78
        e 120 80 4d 00
        e 0 90 4f 78
        e 120 80 4f 00
        e 0 90 4d 78
        e 120 80 4d 00
        e 0 90 4a 78
        e 120 80 4a 00
        e 0 90 48 78
        e 120 80 48 00
        e 0 90 4a 78
        e 120 80 4a 00
        e 0 90 48 78
        e 120 80 48 00
        e 0 90 37 78
        e 360 80 37 00
        e 120 90 37 78
        e 120 80 37 00
        e 0 90 3e 78
        e 240 80 3e 00
        e 0 90 3f 78
        e 120 80 3f 00
        e 0 90 43 78
        e 120 80 43 00
        e 120 90 41 78
        e 120 80 41 00
        e 120 90 3f 78
        e 120 80 3f 00
        e 0 90 3e 78
        e 240 80 3e 00
        e 0 90 3a 78
        e 120 80 3a 00
        e 0 90 30 78
        e 120 80 30 00
        e 0 90 30 78
        e 120 80 30 00
        e 0 90 30 78
        e 120 80 30 00
        e 120 90 30 78
        e 120 80 30 00
        e 0 90 32 78
        e 360 80 32 00
        e 0 90 33 78
        e 360 80 33 00
        e 0 90 30 78
        e 120 80 30 00
        e 0 90 35 78
        e 120 80 35 00
        e 0 90 37 78
        e 360 80 37 00
        e 0 90 35 78
        e 480 80 35 00
        e 0 90 37 78
        e 120 80 37 00
        e 0 90 39 78
        e 360 80 39 00
        e 0 90 3a 78
        e 480 80 3a 00
        e 0 90 3c 78
        e 120 80 3c 00
        e 0 90 3e 78
        e 360 80 3e 00
        e 0 90 3f 78
        e 480 80 3f 00
        e 0 90 3f 78
        e 120 80 3f 00
        e 0 90 41 78
        e 240 80 41 00
        e 0 90 43 78
        e 120 80 43 00
        e 0 90 46 78
        e 480 80 46 00
        e 0 90 45 78
        e 120 80 45 00
        e 0 90 3c 78
        e 120 80 3c 00
        e 0 90 3f 78
        e 120 80 3f 00
        e 0 90 41 78
        e 120 80 41 00
        e 0 90 43 78
        e 120 80 43 00
        e 0 90 41 78
        e 120 80 41 00
        e 0 90 43 78
        e 120 80 43 00
        e 0 90 3c 78
        e 120 80 3c 00
        e 120 90 3c 78
        e 120 80 3c 00
        e 0 90 3f 78
        e 120 80 3f 00
        e 0 90 41 78
        e 120 80 41 00
        e 0 90 43 78
        e 240 80 43 00
        e 0 90 46 78
        e 120 80 46 00
        e 0 90 45 78
        e 120 80 45 00
        e 0 90 46 78
        e 120 80 46 00
        e 0 90 45 78
        e 240 80 45 00
        e 0 90 41 78
        e 120 80 41 00
        e 0 90 43 78
        e 120 80 43 00
        e 0 90 41 78
        e 120 80 41 00
        e 0 90 43 78
        e 120 80 43 00
        e 0 90 3c 78
        e 120 80 3c 00
        e 120 90 3c 78
        e 120 80 3c 00
        e 0 90 3f 78
        e 120 80 3f 00
        e 0 90 41 78
        e 120 80 41 00
        e 0 90 43 78
        e 240 80 43 00
        e 0 90 46 78
        e 120 80 46 00
        e 0 90 45 78
        e 120 80 45 00
        e 0 90 46 78
        e 120 80 46 00
        e 0 90 48 78
        e 240 80 48 00
        e 0 90 4a 78
        e 120 80 4a 00
        e 0 90 35 78
        e 480 80 35 00
        e 0 90 37 78
        e 120 80 37 00
        e 0 90 39 78
        e 360 80 39 00
        e 0 90 3a 78
        e 480 80 3a 00
        e 0 90 3c 78
        e 120 80 3c 00
        e 0 90 3e 78
        e 360 80 3e 00
        e 0 90 3f 78
        e 120 80 3f 00
        e 0 90 3f 78
        e 120 80 3f 00
        e 0 90 3f 78
        e 120 80 3f 00
        e 120 90 3f 78
        e 120 80 3f 00
        e 0 90 41 78
        e 240 80 41 00
        e 0 90 43 78
        e 120 80 43 00
        e 0 90 46 78
        e 480 80 46 00
        e 0 90 45 78
        e 480 80 45 00
        e 0 90 43 78
        e 120 80 43 00
        e 0 90 43 78
        e 120 80 43 00
        e 0 90 43 78
        e 120 80 43 00
        e 0 90 43 78
        e 120 80 43 00
        e 240 90 43 78
        e 120 80 43 00
        e 0 90 43 78
        e 120 80 43 00
        e 0 90 43 78
        e 120 80 43 00
        e 0 90 43 78
        e 120 80 43 00
        e 120 90 43 78
        e 120 80 43 00
        e 120 90 41 78
        e 360 80 41 00
        e 0 90 3f 78
        e 120 80 3f 00
        e 0 90 3f 78
        e 120 80 3f 00
        e 0 90 3f 78
        e 120 80 3f 00
        e 0 90 3f 78
        e 120 80 3f 00
        e 240 90 3f 78
        e 120 80 3f 00
        e 0 90 3f 78
        e 120 80 3f 00
        e 0 90 3f 78
        e 120 80 3f 00
        e 0 90 3f 78
        e 120 80 3f 00
        e 120 90 3f 78
        e 120 80 3f 00
        e 120 90 41 78
        e 360 80 41 00
        e 0 90 43 78
        e 120 80 43 00
        e 0 90 43 78
        e 120 80 43 00
        e 0 90 43 78
        e 120 80 43 00
        e 0 90 43 78
        e 120 80 43 00
        e 240 90 43 78
        e 120 80 43 00
        e 0 90 43 78
        e 120 80 43 00
        e 0 90 43 78
        e 120 80 43 00
        e 0 90 43 78
        e 120 80 43 00
        e 120 90 43 78
        e 120 80 43 00
        e 120 90 41 78
        e 360 80 41 00
        e 0 90 3f 78
        e 120 80 3f 00
        e 0 90 3f 78
        e 120 80 3f 00
        e 0 90 3f 78
        e 120 80 3f 00
        e 0 90 3f 78
        e 120 80 3f 00
        e 240 90 3f 78
        e 120 80 3f 00
        e 0 90 41 78
        e 120 80 41 00
        e 0 90 43 78
        e 120 80 43 00
        e 0 90 45 78
        e 120 80 45 00
        e 0 90 46 78
        e 120 80 46 00
        e 0 90 45 78
        e 120 80 45 00
        e 120 90 41 78
        e 360 80 41 00
        e 0 90 46 78
        e 120 80 46 00
        e 0 90 46 78
        e 120 80 46 00
        e 0 90 46 78
        e 120 80 46 00
        e 0 90 46 78
        e 120 80 46 00
        e 240 90 46 78
        e 120 80 46 00
        e 0 90 46 78
        e 120 80 46 00
        e 0 90 46 78
        e 120 80 46 00
        e 0 90 46 78
        e 120 80 46 00
        e 120 90 46 78
        e 120 80 46 00
        e 120 90 45 78
        e 360 80 45 00
        e 0 90 43 78
        e 120 80 43 00
        e 0 90 43 78
        e 120 80 43 00
        e 0 90 43 78
        e 120 80 43 00
        e 0 90 43 78
        e 120 80 43 00
        e 240 90 43 78
        e 120 80 43 00
        e 0 90 43 78
        e 120 80 43 00
        e 0 90 43 78
        e 120 80 43 00
        e 0 90 43 78
        e 120 80 43 00
        e 120 90 43 78
        e 120 80 43 00
        e 120 90 45 78
        e 360 80 45 00
        e 0 90 46 78
        e 120 80 46 00
        e 0 90 46 78
        e 120 80 46 00
        e 0 90 46 78
        e 120 80 46 00
        e 0 90 46 78
        e 120 80 46 00
        e 240 90 46 78
        e 120 80 46 00
        e 0 90 46 78
        e 120 80 46 00
        e 0 90 46 78
        e 120 80 46 00
        e 0 90 46 78
        e 120 80 46 00
        e 120 90 45 78
        e 120 80 45 00
        e 120 90 46 78
        e 360 80 46 00
        e 0 90 48 78
        e 120 80 48 00
        e 0 90 48 78
        e 120 80 48 00
        e 0 90 48 78
        e 120 80 48 00
        e 0 90 48 78
        e 120 80 48 00
        e 240 90 48 78
        e 120 80 48 00
        e 0 90 48 78
        e 120 80 48 00
        e 0 90 48 78
        e 120 80 48 00
        e 0 90 48 78
        e 120 80 48 00
        e 360 90 37 78
        e 120 80 37 00
        e 0 90 3c 78
        e 120 80 3c 00
        e 0 90 3e 78
        e 120 80 3e 00
        e 0 90 3f 78
        e 120 80 3f 00
        e 0 90 3e 78
        e 120 80 3e 00
        e 0 90 3f 78
        e 120 80 3f 00
        e 0 90 37 78
        e 240 80 37 00
        e 0 90 37 78
        e 120 80 37 00
        e 0 90 3c 78
        e 120 80 3c 00
        e 0 90 3e 78
        e 120 80 3e 00
        e 0 90 3f 78
        e 120 80 3f 00
        e 0 90 3e 78
        e 120 80 3e 00
        e 0 90 3f 78
        e 120 80 3f 00
        e 0 90 43 78
        e 240 80 43 00
        e 0 90 43 78
        e 120 80 43 00
        e 0 90 41 78
        e 120 80 41 00
        e 0 90 43 78
        e 120 80 43 00
        e 0 90 3f 78
        e 120 80 3f 00
        e 0 90 3e 78
        e 120 80 3e 00
        e 0 90 3f 78
        e 120 80 3f 00
        e 0 90 37 78
        e 240 80 37 00
        e 0 90 37 78
        e 120 80 37 00
        e 0 90 3c 78
        e 120 80 3c 00
        e 0 90 3e 78
        e 120 80 3e 00
        e 120 90 3f 78
        e 120 80 3f 00
        e 120 90 41 78
        e 120 80 41 00
        e 120 90 43 78
        e 360 80 43 00
        e 0 90 3c 78
        e 1200 80 3c 00
        e 0 90 43 78
        e 120 80 43 00
        e 120 90 41 78
        e 120 80 41 00
        e 0 90 43 78
        e 240 80 43 00
        e 0 90 44 78
        e 120 80 44 00
        e 0 90 46 78
        e 1920 80 46 00
        e 0 90 3c 78
        e 1200 80 3c 00
        e 0 90 43 78
        e 120 80 43 00
        e 120 90 41 78
        e 120 80 41 00
        e 0 90 43 78
        e 240 80 43 00
        e 0 90 45 78
        e 120 80 45 00
        e 0 90 3f 78
        e 1920 80 3f 00
        e 0 90 3c 78
        e 1200 80 3c 00
        e 0 90 43 78
        e 120 80 43 00
        e 120 90 41 78
        e 120 80 41 00
        e 0 90 43 78
        e 240 80 43 00
        e 0 90 44 78
        e 120 80 44 00
        e 0 90 46 78
        e 1920 80 46 00
        e 0 90 3c 78
        e 1200 80 3c 00
        e 0 90 43 78
        e 120 80 43 00
        e 120 90 41 78
        e 120 80 41 00
        e 0 90 43 78
        e 240 80 43 00
        e 0 90 45 78
        e 120 80 45 00
        e 0 90 3f 78
        e 1920 80 3f 00
        e 0 90 43 78
        e 120 80 43 00
        e 120 90 43 78
        e 360 80 43 00
        e 0 90 45 78
        e 360 80 45 00
        e 0 90 46 78
        e 120 80 46 00
        e 120 90 46 78
        e 120 80 46 00
        e 240 90 43 78
        e 120 80 43 00
        e 0 90 46 78
        e 120 80 46 00
        e 0 90 48 78
        e 120 80 48 00
        e 0 90 45 78
        e 120 80 45 00
        e 120 90 45 78
        e 360 80 45 00
        e 0 90 46 78
        e 360 80 46 00
        e 0 90 48 78
        e 120 80 48 00
        e 120 90 48 78
        e 120 80 48 00
        e 120 90 46 78
        e 120 80 46 00
        e 0 90 48 78
        e 360 80 48 00
        e 0 90 43 78
        e 120 80 43 00
        e 120 90 43 78
        e 360 80 43 00
        e 0 90 45 78
        e 360 80 45 00
        e 0 90 46 78
        e 120 80 46 00
        e 120 90 46 78
        e 120 80 46 00
        e 240 90 43 78
        e 120 80 43 00
        e 0 90 46 78
        e 120 80 46 00
        e 0 90 48 78
        e 120 80 48 00
        e 0 90 45 78
        e 120 80 45 00
        e 120 90 45 78
        e 360 80 45 00
        e 0 90 46 78
        e 360 80 46 00
        e 0 90 48 78
        e 480 80 48 00
        e 0 90 4d 78
        e 480 80 4d 00
        e 0 90 4f 78
        e 120 80 4f 00
        e 0 90 4d 78
        e 120 80 4d 00
        e 0 90 4f 78
        e 120 80 4f 00
        e 0 90 4d 78
        e 120 80 4d 00
        e 0 90 56 78
        e 120 80 56 00
        e 0 90 54 78
        e 120 80 54 00
        e 0 90 52 78
        e 120 80 52 00
        e 0 90 51 78
        e 120 80 51 00
        e 0 90 4f 78
        e 120 80 4f 00
        e 0 90 4d 78
        e 120 80 4d 00
        e 0 90 4f 78
        e 120 80 4f 00
        e 0 90 4d 78
        e 120 80 4d 00
        e 0 90 4a 78
        e 120 80 4a 00
        e 0 90 48 78
        e 120 80 48 00
        e 0 90 4a 78
        e 120 80 4a 00
        e 0 90 48 78
        e 120 80 48 00
        e 0 90 37 78
        e 360 80 37 00
        e 120 90 37 78
        e 120 80 37 00
        e 0 90 3e 78
        e 240 80 3e 00
        e 0 90 3f 78
        e 120 80 3f 00
        e 0 90 43 78
        e 120 80 43 00
        e 120 90 41 78
        e 120 80 41 00
        e 120 90 3f 78
        e 120 80 3f 00
        e 0 90 3e 78
        e 240 80 3e 00
        e 0 90 3a 78
        e 120 80 3a 00
        e 0 90 30 78
        e 120 80 30 00
        e 0 90 30 78
        e 120 80 30 00
        e 0 90 30 78
        e 120 80 30 00
        e 120 90 30 78
        e 120 80 30 00
        e 0 90 32 78
        e 360 80 32 00
        e 0 90 33 78
        e 360 80 33 00
        e 0 90 30 78
        e 120 80 30 00
        e 0 90 35 78
        e 120 80 35 00
        e 0 90 37 78
        e 360 80 37 00
        e 0 90 35 78
        e 480 80 35 00
        e 0 90 37 78
        e 120 80 37 00
        e 0 90 39 78
        e 360 80 39 00
        e 0 90 3a 78
        e 480 80 3a 00
        e 0 90 3c 78
        e 120 80 3c 00
        e 0 90 3e 78
        e 360 80 3e 00
        e 0 90 3f 78
        e 480 80 3f 00
        e 0 90 3f 78
        e 120 80 3f 00
        e 0 90 41 78
        e 240 80 41 00
        e 0 90 43 78
        e 120 80 43 00
        e 0 90 46 78
        e 480 80 46 00
        e 0 90 45 78
        e 120 80 45 00
        e 0 90 3c 78
        e 120 80 3c 00
        e 0 90 3f 78
        e 120 80 3f 00
        e 0 90 41 78
        e 120 80 41 00
        e 0 90 43 78
        e 120 80 43 00
        e 0 90 41 78
        e 120 80 41 00
        e 0 90 43 78
        e 120 80 43 00
        e 0 90 3c 78
        e 120 80 3c 00
        e 120 90 3c 78
        e 120 80 3c 00
        e 0 90 3f 78
        e 120 80 3f 00
        e 0 90 41 78
        e 120 80 41 00
        e 0 90 43 78
        e 240 80 43 00
        e 0 90 46 78
        e 120 80 46 00
        e 0 90 45 78
        e 120 80 45 00
        e 0 90 46 78
        e 120 80 46 00
        e 0 90 45 78
        e 240 80 45 00
        e 0 90 41 78
        e 120 80 41 00
        e 0 90 43 78
        e 120 80 43 00
        e 0 90 41 78
        e 120 80 41 00
        e 0 90 43 78
        e 120 80 43 00
        e 0 90 3c 78
        e 120 80 3c 00
        e 120 90 3c 78
        e 120 80 3c 00
        e 0 90 3f 78
        e 120 80 3f 00
        e 0 90 41 78
        e 120 80 41 00
        e 0 90 43 78
        e 240 80 43 00
        e 0 90 46 78
        e 120 80 46 00
        e 0 90 45 78
        e 120 80 45 00
        e 0 90 46 78
        e 120 80 46 00
        e 0 90 48 78
        e 240 80 48 00
        e 0 90 4a 78
        e 120 80 4a 00
        e 0 90 35 78
        e 480 80 35 00
        e 0 90 37 78
        e 120 80 37 00
        e 0 90 39 78
        e 360 80 39 00
        e 0 90 3a 78
        e 480 80 3a 00
        e 0 90 3c 78
        e 120 80 3c 00
        e 0 90 3e 78
        e 360 80 3e 00
        e 0 90 3f 78
        e 120 80 3f 00
        e 0 90 3f 78
        e 120 80 3f 00
        e 0 90 3f 78
        e 120 80 3f 00
        e 120 90 3f 78
        e 120 80 3f 00
        e 0 90 41 78
        e 240 80 41 00
        e 0 90 43 78
        e 120 80 43 00
        e 0 90 46 78
        e 480 80 46 00
        e 0 90 45 78
        e 480 80 45 00
        e 0 90 43 78
        e 120 80 43 00
        e 0 90 43 78
        e 120 80 43 00
        e 0 90 43 78
        e 120 80 43 00
        e 0 90 43 78
        e 120 80 43 00
        e 240 90 43 78
        e 120 80 43 00
        e 0 90 43 78
        e 120 80 43 00
        e 0 90 43 78
        e 120 80 43 00
        e 0 90 43 78
        e 120 80 43 00
        e 120 90 43 78
        e 120 80 43 00
        e 120 90 41 78
        e 360 80 41 00
        e 0 90 3f 78
        e 120 80 3f 00
        e 0 90 3f 78
        e 120 80 3f 00
        e 0 90 3f 78
        e 120 80 3f 00
        e 0 90 3f 78
        e 120 80 3f 00
        e 240 90 3f 78
        e 120 80 3f 00
        e 0 90 3f 78
        e 120 80 3f 00
        e 0 90 3f 78
        e 120 80 3f 00
        e 0 90 3f 78
        e 120 80 3f 00
        e 120 90 3f 78
        e 120 80 3f 00
        e 120 90 41 78
        e 360 80 41 00
        e 0 90 43 78
        e 120 80 43 00
        e 0 90 43 78
        e 120 80 43 00
        e 0 90 43 78
        e 120 80 43 00
        e 0 90 43 78
        e 120 80 43 00
        e 240 90 43 78
        e 120 80 43 00
        e 0 90 43 78
        e 120 80 43 00
        e 0 90 43 78
        e 120 80 43 00
        e 0 90 43 78
        e 120 80 43 00
        e 120 90 43 78
        e 120 80 43 00
        e 120 90 41 78
        e 360 80 41 00
        e 0 90 3f 78
        e 120 80 3f 00
        e 0 90 3f 78
        e 120 80 3f 00
        e 0 90 3f 78
        e 120 80 3f 00
        e 0 90 3f 78
        e 120 80 3f 00
        e 240 90 3f 78
        e 120 80 3f 00
        e 0 90 41 78
        e 120 80 41 00
        e 0 90 43 78
        e 120 80 43 00
        e 0 90 45 78
        e 120 80 45 00
        e 0 90 46 78
        e 120 80 46 00
        e 0 90 45 78
        e 120 80 45 00
        e 120 90 41 78
        e 360 80 41 00
        e 0 90 46 78
        e 120 80 46 00
        e 0 90 46 78
        e 120 80 46 00
        e 0 90 46 78
        e 120 80 46 00
        e 0 90 46 78
        e 120 80 46 00
        e 240 90 46 78
        e 120 80 46 00
        e 0 90 46 78
        e 120 80 46 00
        e 0 90 46 78
        e 120 80 46 00
        e 0 90 46 78
        e 120 80 46 00
        e 120 90 46 78
        e 120 80 46 00
        e 120 90 45 78
        e 360 80 45 00
        e 0 90 43 78
        e 120 80 43 00
        e 0 90 43 78
        e 120 80 43 00
        e 0 90 43 78
        e 120 80 43 00
        e 0 90 43 78
        e 120 80 43 00
        e 240 90 43 78
        e 120 80 43 00
        e 0 90 43 78
        e 120 80 43 00
        e 0 90 43 78
        e 120 80 43 00
        e 0 90 43 78
        e 120 80 43 00
        e 120 90 43 78
        e 120 80 43 00
        e 120 90 45 78
        e 360 80 45 00
        e 0 90 46 78
        e 120 80 46 00
        e 0 90 46 78
        e 120 80 46 00
        e 0 90 46 78
        e 120 80 46 00
        e 0 90 46 78
        e 120 80 46 00
        e 240 90 46 78
        e 120 80 46 00
        e 0 90 46 78
        e 120 80 46 00
        e 0 90 46 78
        e 120 80 46 00
        e 0 90 46 78
        e 120 80 46 00
        e 120 90 45 78
        e 120 80 45 00
        e 120 90 46 78
        e 360 80 46 00
        e 0 90 48 78
        e 120 80 48 00
        e 0 90 48 78
        e 120 80 48 00
        e 0 90 48 78
        e 120 80 48 00
        e 0 90 48 78
        e 120 80 48 00
        e 240 90 48 78
        e 120 80 48 00
        e 0 90 48 78
        e 120 80 48 00
        e 0 90 48 78
        e 120 80 48 00
        e 0 90 48 78
        e 120 80 48 00
        e 360 90 37 78
        e 120 80 37 00
        e 0 90 3c 78
        e 120 80 3c 00
        e 0 90 3e 78
        e 120 80 3e 00
        e 0 90 3f 78
        e 120 80 3f 00
        e 0 90 3e 78
        e 120 80 3e 00
        e 0 90 3f 78
        e 120 80 3f 00
        e 0 90 37 78
        e 240 80 37 00
        e 0 90 37 78
        e 120 80 37 00
        e 0 90 3c 78
        e 120 80 3c 00
        e 0 90 3e 78
        e 120 80 3e 00
        e 0 90 3f 78
        e 120 80 3f 00
        e 0 90 3e 78
        e 120 80 3e 00
        e 0 90 3f 78
        e 120 80 3f 00
        e 0 90 43 78
        e 240 80 43 00
        e 0 90 43 78
        e 120 80 43 00
        e 0 90 41 78
        e 120 80 41 00
        e 0 90 43 78
        e 120 80 43 00
        e 0 90 3f 78
        e 120 80 3f 00
        e 0 90 3e 78
        e 120 80 3e 00
        e 0 90 3f 78
        e 120 80 3f 00
        e 0 90 37 78
        e 240 80 37 00
        e 0 90 37 78
        e 120 80 37 00
        e 0 90 3c 78
        e 120 80 3c 00
        e 0 90 3e 78
        e 120 80 3e 00
        e 120 90 3f 78
        e 120 80 3f 00
        e 120 90 41 78
        e 120 80 41 00
        E 120 90 43 78
        E 360 80 43 00
        E 0 b0 7b 00
        GUID {F73D5FE0-650C-4B74-BCE5-717670DBBD23}
        IGNTEMPO 0 120 4 4
        SRCCOLOR 23
        VELLANE 167 99 0
        CFGEDITVIEW 0 0.005278 49 12 0 -1 0 0 0 0.5
        KEYSNAP 0
        TRACKSEL 0
        EVTFILTER 0 -1 -1 -1 -1 0 0 0 0 -1 -1 -1 -1 0 -1 0 -1 -1
        CFGEDIT 1 1 0 1 0 0 1 1 1 1 1 0.0625 86 117 1562 1023 0 0 0 0 0 0 0 0 0 0.5 0 0 1 64
      >
    >
  >
  <TRACK {267EE397-112B-458B-8F7F-22401AB4126F}
    NAME "Melody 2"
    PEAKCOL 16576
    BEAT -1
    AUTOMODE 0
    VOLPAN 0.26351193423099 0 -1 -1 1
    MUTESOLO 0 0 0
    IPHASE 0
    ISBUS 0 0
    BUSCOMP 0 0
    SHOWINMIX 1 0.6667 0.5 1 0.5 0 0 0
    FREEMODE 0
    SEL 0
    REC 0 0 0 0 0 0 0
    VU 2
    TRACKHEIGHT 0 0
    INQ 0 0 0 0.5 100 0 0 100
    NCHAN 2
    FX 1
    TRACKID {267EE397-112B-458B-8F7F-22401AB4126F}
    PERF 0
    MIDIOUT 128
    MAINSEND 1 0
    <FXCHAIN
      WNDRECT 24 52 1219 847
      SHOW 0
      LASTSEL 0
      DOCKED 0
      BYPASS 0 0 0
      <VST "VST3i: Helm (Matt Tytel)" helm64.vst3 0 "" 820595496{56535448656C6D68656C6D0000000000}
        KEvpMO5e7f4AAAAAAgAAAAEAAAAAAAAAAgAAAAAAAAAaEAAAAQAAAP//EAA=
        ChAAAAEAAABWc3RXAAAACAAAAAEAAAAAQ2NuSwAAD/JGQkNoAAAAAkhlbG0AAAgGAAAAAAAAAAAAAAAAAAAAAAAAAAAAAAAAAAAAAAAAAAAAAAAAAAAAAAAAAAAAAAAA
        AAAAAAAAAAAAAAAAAAAAAAAAAAAAAAAAAAAAAAAAAAAAAAAAAAAAAAAAAAAAAAAAAAAAAAAAAAAAAAAAAAAAAAAAAAAAAAAAAAAAAAAAAAAAAAAAAAAPWnsNCiAgImxp
        Y2Vuc2UiOiAiUGF0Y2ggKGMpIGJ5IC4gIFRoaXMgcGF0Y2ggaXMgbGljZW5zZWQgdW5kZXIgYSBDcmVhdGl2ZSBDb21tb25zIEF0dHJpYnV0aW9uIDQuMCBJbnRlcm5h
        dGlvbmFsIExpY2Vuc2UuICBZb3Ugc2hvdWxkIGhhdmUgcmVjZWl2ZWQgYSBjb3B5IG9mIHRoZSBsaWNlbnNlIGFsb25nIHdpdGggdGhpcyB3b3JrLiAgSWYgbm90LCBz
        ZWUgPGh0dHA6Ly9jcmVhdGl2ZWNvbW1vbnMub3JnL2xpY2Vuc2VzL2J5LzQuMC8+LiIsDQogICJzeW50aF92ZXJzaW9uIjogIjAuOC42IiwNCiAgInBhdGNoX25hbWUi
        OiAiIiwNCiAgImZvbGRlcl9uYW1lIjogIiIsDQogICJhdXRob3IiOiAiIiwNCiAgInNldHRpbmdzIjogew0KICAgICJhbXBfYXR0YWNrIjogMC4xMDAwMDAwMDAwMDAw
        MDAwMDU1NSwNCiAgICAiYW1wX2RlY2F5IjogMS41LA0KICAgICJhbXBfcmVsZWFzZSI6IDAuMjk5OTk5OTk5OTk5OTk5OTg4OSwNCiAgICAiYW1wX3N1c3RhaW4iOiAx
        LA0KICAgICJhcnBfZnJlcXVlbmN5IjogMiwNCiAgICAiYXJwX2dhdGUiOiAwLjUsDQogICAgImFycF9vY3RhdmVzIjogMSwNCiAgICAiYXJwX29uIjogMCwNCiAgICAi
        YXJwX3BhdHRlcm4iOiAwLA0KICAgICJhcnBfc3luYyI6IDEsDQogICAgImFycF90ZW1wbyI6IDksDQogICAgImJlYXRzX3Blcl9taW51dGUiOiAxNDYuMDAwMzIxMjAw
        NzAwMDAwMTksDQogICAgImNyb3NzX21vZHVsYXRpb24iOiAwLA0KICAgICJjdXRvZmYiOiA4MCwNCiAgICAiZGVsYXlfZHJ5X3dldCI6IDAuNSwNCiAgICAiZGVsYXlf
        ZmVlZGJhY2siOiAwLjQwMDAwMDAwMDAwMDAwMDAyMjIsDQogICAgImRlbGF5X2ZyZXF1ZW5jeSI6IDIsDQogICAgImRlbGF5X29uIjogMCwNCiAgICAiZGVsYXlfc3lu
        YyI6IDEsDQogICAgImRlbGF5X3RlbXBvIjogOSwNCiAgICAiZmlsX2F0dGFjayI6IDAsDQogICAgImZpbF9kZWNheSI6IDEuNSwNCiAgICAiZmlsX2Vudl9kZXB0aCI6
        IDAsDQogICAgImZpbF9yZWxlYXNlIjogMS41LA0KICAgICJmaWxfc3VzdGFpbiI6IDAuNSwNCiAgICAiZmlsdGVyX3NhdHVyYXRpb24iOiAwLA0KICAgICJmaWx0ZXJf
        dHlwZSI6IDYsDQogICAgImZvcm1hbnRfb24iOiAwLA0KICAgICJmb3JtYW50X3giOiAwLjUsDQogICAgImZvcm1hbnRfeSI6IDAuNSwNCiAgICAia2V5dHJhY2siOiAw
        LA0KICAgICJsZWdhdG8iOiAwLA0KICAgICJtb2RfYXR0YWNrIjogMCwNCiAgICAibW9kX2RlY2F5IjogMS41LA0KICAgICJtb2RfcmVsZWFzZSI6IDEuNSwNCiAgICAi
        bW9kX3N1c3RhaW4iOiAwLjUsDQogICAgIm1vbm9fbGZvXzFfYW1wbGl0dWRlIjogMSwNCiAgICAibW9ub19sZm9fMV9mcmVxdWVuY3kiOiAxLA0KICAgICJtb25vX2xm
        b18xX3JldHJpZ2dlciI6IDAsDQogICAgIm1vbm9fbGZvXzFfc3luYyI6IDEsDQogICAgIm1vbm9fbGZvXzFfdGVtcG8iOiA2LA0KICAgICJtb25vX2xmb18xX3dhdmVm
        b3JtIjogMCwNCiAgICAibW9ub19sZm9fMl9hbXBsaXR1ZGUiOiAxLA0KICAgICJtb25vX2xmb18yX2ZyZXF1ZW5jeSI6IDEsDQogICAgIm1vbm9fbGZvXzJfcmV0cmln
        Z2VyIjogMCwNCiAgICAibW9ub19sZm9fMl9zeW5jIjogMSwNCiAgICAibW9ub19sZm9fMl90ZW1wbyI6IDcsDQogICAgIm1vbm9fbGZvXzJfd2F2ZWZvcm0iOiAwLA0K
        ICAgICJub2lzZV92b2x1bWUiOiAwLA0KICAgICJudW1fc3RlcHMiOiA4LA0KICAgICJvc2NfMV90cmFuc3Bvc2UiOiAwLA0KICAgICJvc2NfMV90dW5lIjogMCwNCiAg
        ICAib3NjXzFfdW5pc29uX2RldHVuZSI6IDEwLA0KICAgICJvc2NfMV91bmlzb25fdm9pY2VzIjogMSwNCiAgICAib3NjXzFfdm9sdW1lIjogMC40MDAwMDAwMDAwMDAw
        MDAwMjIyLA0KICAgICJvc2NfMV93YXZlZm9ybSI6IDIsDQogICAgIm9zY18yX3RyYW5zcG9zZSI6IDAsDQogICAgIm9zY18yX3R1bmUiOiAwLA0KICAgICJvc2NfMl91
        bmlzb25fZGV0dW5lIjogMTAsDQogICAgIm9zY18yX3VuaXNvbl92b2ljZXMiOiAxLA0KICAgICJvc2NfMl92b2x1bWUiOiAwLjQwMDAwMDAwMDAwMDAwMDAyMjIsDQog
        ICAgIm9zY18yX3dhdmVmb3JtIjogMCwNCiAgICAib3NjX2ZlZWRiYWNrX2Ftb3VudCI6IDAsDQogICAgIm9zY19mZWVkYmFja190cmFuc3Bvc2UiOiAwLA0KICAgICJv
        c2NfZmVlZGJhY2tfdHVuZSI6IDAsDQogICAgInBpdGNoX2JlbmRfcmFuZ2UiOiAyLA0KICAgICJwb2x5X2xmb19hbXBsaXR1ZGUiOiAxLA0KICAgICJwb2x5X2xmb19m
        cmVxdWVuY3kiOiAxLA0KICAgICJwb2x5X2xmb19zeW5jIjogMSwNCiAgICAicG9seV9sZm9fdGVtcG8iOiA3LA0KICAgICJwb2x5X2xmb193YXZlZm9ybSI6IDAsDQog
        ICAgInBvbHlwaG9ueSI6IDQsDQogICAgInBvcnRhbWVudG8iOiAtOSwNCiAgICAicG9ydGFtZW50b190eXBlIjogMCwNCiAgICAicmVzb25hbmNlIjogMCwNCiAgICAi
        cmV2ZXJiX2RhbXBpbmciOiAwLjUsDQogICAgInJldmVyYl9kcnlfd2V0IjogMC41LA0KICAgICJyZXZlcmJfZmVlZGJhY2siOiAwLjkwMDAwMDAwMDAwMDAwMDAyMjIs
        DQogICAgInJldmVyYl9vbiI6IDAsDQogICAgInN0ZXBfZnJlcXVlbmN5IjogMiwNCiAgICAic3RlcF9zZXFfMDAiOiAwLA0KICAgICJzdGVwX3NlcV8wMSI6IDAsDQog
        ICAgInN0ZXBfc2VxXzAyIjogMCwNCiAgICAic3RlcF9zZXFfMDMiOiAwLA0KICAgICJzdGVwX3NlcV8wNCI6IDAsDQogICAgInN0ZXBfc2VxXzA1IjogMCwNCiAgICAi
        c3RlcF9zZXFfMDYiOiAwLA0KICAgICJzdGVwX3NlcV8wNyI6IDAsDQogICAgInN0ZXBfc2VxXzA4IjogMCwNCiAgICAic3RlcF9zZXFfMDkiOiAwLA0KICAgICJzdGVw
        X3NlcV8xMCI6IDAsDQogICAgInN0ZXBfc2VxXzExIjogMCwNCiAgICAic3RlcF9zZXFfMTIiOiAwLA0KICAgICJzdGVwX3NlcV8xMyI6IDAsDQogICAgInN0ZXBfc2Vx
        XzE0IjogMCwNCiAgICAic3RlcF9zZXFfMTUiOiAwLA0KICAgICJzdGVwX3NlcV8xNiI6IDAsDQogICAgInN0ZXBfc2VxXzE3IjogMCwNCiAgICAic3RlcF9zZXFfMTgi
        OiAwLA0KICAgICJzdGVwX3NlcV8xOSI6IDAsDQogICAgInN0ZXBfc2VxXzIwIjogMCwNCiAgICAic3RlcF9zZXFfMjEiOiAwLA0KICAgICJzdGVwX3NlcV8yMiI6IDAs
        DQogICAgInN0ZXBfc2VxXzIzIjogMCwNCiAgICAic3RlcF9zZXFfMjQiOiAwLA0KICAgICJzdGVwX3NlcV8yNSI6IDAsDQogICAgInN0ZXBfc2VxXzI2IjogMCwNCiAg
        ICAic3RlcF9zZXFfMjciOiAwLA0KICAgICJzdGVwX3NlcV8yOCI6IDAsDQogICAgInN0ZXBfc2VxXzI5IjogMCwNCiAgICAic3RlcF9zZXFfMzAiOiAwLA0KICAgICJz
        dGVwX3NlcV8zMSI6IDAsDQogICAgInN0ZXBfc2VxdWVuY2VyX3JldHJpZ2dlciI6IDAsDQogICAgInN0ZXBfc2VxdWVuY2VyX3N5bmMiOiAxLA0KICAgICJzdGVwX3Nl
        cXVlbmNlcl90ZW1wbyI6IDcsDQogICAgInN0ZXBfc21vb3RoaW5nIjogMCwNCiAgICAic3R1dHRlcl9mcmVxdWVuY3kiOiAzLA0KICAgICJzdHV0dGVyX29uIjogMCwN
        CiAgICAic3R1dHRlcl9yZXNhbXBsZV9mcmVxdWVuY3kiOiAxLA0KICAgICJzdHV0dGVyX3Jlc2FtcGxlX3N5bmMiOiAxLA0KICAgICJzdHV0dGVyX3Jlc2FtcGxlX3Rl
        bXBvIjogNiwNCiAgICAic3R1dHRlcl9zb2Z0bmVzcyI6IDAuMjAwMDAwMDAwMDAwMDAwMDExMSwNCiAgICAic3R1dHRlcl9zeW5jIjogMSwNCiAgICAic3R1dHRlcl90
        ZW1wbyI6IDgsDQogICAgInN1Yl9zaHVmZmxlIjogMCwNCiAgICAic3ViX3ZvbHVtZSI6IDAsDQogICAgInN1Yl93YXZlZm9ybSI6IDIsDQogICAgInVuaXNvbl8xX2hh
        cm1vbml6ZSI6IDAsDQogICAgInVuaXNvbl8yX2hhcm1vbml6ZSI6IDAsDQogICAgInZlbG9jaXR5X3RyYWNrIjogMCwNCiAgICAidm9sdW1lIjogMSwNCiAgICAibW9k
        dWxhdGlvbnMiOiBbXQ0KICB9DQp9AAAAAAAAAAAASlVDRVByaXZhdGVEYXRhAAEBQnlwYXNzAAEBAwAdAAAAAAAAAEpVQ0VQcml2YXRlRGF0YQAAAAAAAAAA
        AAAQAAAA
      >
      FLOATPOS 0 0 0 0
      FXID {15029E92-9AE9-41CE-8282-E914D78D5C64}
      WAK 0
    >
    <ITEM
      POSITION 0
      SNAPOFFS 0
      LENGTH 103.56141600000471
      LOOP 1
      ALLTAKES 0
      FADEIN 1 0 0 1 0 0
      FADEOUT 1 0 0 1 0 0
      MUTE 0
      SEL 0
      IGUID {D81A1F69-D362-48B3-B5D9-9053E8C61813}
      IID 6
      NAME "mel2 - stage_1.mid"
      VOLPAN 1 0 1 -1
      SOFFS 0 0
      PLAYRATE 1 1 0 -1 0 0.0025
      CHANMODE 0
      GUID {CD347BB2-FA92-4616-A53F-AA56ADBE5AFE}
      <SOURCE MIDI
        HASDATA 1 480 QN
        POOLEDEVTS {6C6F4969-3F7A-43F1-81F4-EEE85CE78AF4}
        E 0 91 4d 78
        E 120 81 4d 00
        E 0 91 4b 78
        E 120 81 4b 00
        E 0 91 48 78
        E 120 81 48 00
        E 0 91 46 78
        E 120 81 46 00
        E 0 91 48 78
        E 120 81 48 00
        E 0 91 46 78
        E 120 81 46 00
        E 0 91 44 78
        E 120 81 44 00
        E 0 91 43 78
        E 120 81 43 00
        E 0 91 44 78
        E 120 81 44 00
        E 0 91 43 78
        E 120 81 43 00
        E 0 91 41 78
        E 120 81 41 00
        E 0 91 3f 78
        E 120 81 3f 00
        E 0 91 41 78
        E 120 81 41 00
        E 0 91 3a 78
        E 120 81 3a 00
        E 0 91 3c 78
        E 120 81 3c 00
        E 0 91 3f 78
        E 120 81 3f 00
        E 0 91 41 78
        E 1200 81 41 00
        E 0 91 48 78
        E 120 81 48 00
        E 120 91 46 78
        E 120 81 46 00
        E 0 91 48 78
        E 240 81 48 00
        E 0 91 4a 78
        E 120 81 4a 00
        E 0 91 4b 78
        E 1920 81 4b 00
        E 0 91 41 78
        E 1200 81 41 00
        E 0 91 48 78
        E 120 81 48 00
        E 120 91 46 78
        E 120 81 46 00
        E 0 91 48 78
        E 240 81 48 00
        E 0 91 4a 78
        E 120 81 4a 00
        E 0 91 44 78
        E 1920 81 44 00
        E 0 91 41 78
        E 1200 81 41 00
        E 0 91 48 78
        E 120 81 48 00
        E 120 91 46 78
        E 120 81 46 00
        E 0 91 48 78
        E 240 81 48 00
        E 0 91 4a 78
        E 120 81 4a 00
        E 0 91 4b 78
        E 1920 81 4b 00
        E 0 91 41 78
        E 1200 81 41 00
        E 0 91 48 78
        E 120 81 48 00
        E 120 91 46 78
        E 120 81 46 00
        E 0 91 48 78
        E 240 81 48 00
        E 0 91 4a 78
        E 120 81 4a 00
        E 0 91 44 78
        E 1920 81 44 00
        E 0 91 48 78
        E 120 81 48 00
        E 120 91 48 78
        E 360 81 48 00
        E 0 91 4a 78
        E 360 81 4a 00
        E 0 91 4b 78
        E 120 81 4b 00
        E 120 91 4b 78
        E 120 81 4b 00
        E 600 91 4a 78
        E 120 81 4a 00
        E 120 91 4a 78
        E 360 81 4a 00
        E 0 91 4b 78
        E 360 81 4b 00
        E 0 91 4d 78
        E 120 81 4d 00
        E 120 91 4d 78
        E 120 81 4d 00
        E 120 91 4b 78
        E 120 81 4b 00
        E 0 91 4d 78
        E 360 81 4d 00
        E 0 91 48 78
        E 120 81 48 00
        E 120 91 48 78
        E 360 81 48 00
        E 0 91 4a 78
        E 360 81 4a 00
        E 0 91 4b 78
        E 120 81 4b 00
        E 120 91 4b 78
        E 120 81 4b 00
        E 600 91 4a 78
        E 120 81 4a 00
        E 120 91 4a 78
        E 360 81 4a 00
        E 0 91 4b 78
        E 360 81 4b 00
        E 0 91 4d 78
        E 480 81 4d 00
        E 0 91 52 78
        E 480 81 52 00
        E 0 91 4f 78
        E 120 81 4f 00
        E 0 91 4d 78
        E 120 81 4d 00
        E 0 91 56 78
        E 120 81 56 00
        E 0 91 54 78
        E 120 81 54 00
        E 0 91 52 78
        E 120 81 52 00
        E 0 91 51 78
        E 120 81 51 00
        E 0 91 4f 78
        E 120 81 4f 00
        E 0 91 4d 78
        E 120 81 4d 00
        E 0 91 4f 78
        E 120 81 4f 00
        E 0 91 4d 78
        E 120 81 4d 00
        E 0 91 4a 78
        E 120 81 4a 00
        E 0 91 48 78
        E 120 81 48 00
        E 0 91 4a 78
        E 120 81 4a 00
        E 0 91 48 78
        E 120 81 48 00
        E 0 91 46 78
        E 120 81 46 00
        E 0 91 45 78
        E 120 81 45 00
        E 0 91 3c 78
        E 360 81 3c 00
        E 120 91 3c 78
        E 120 81 3c 00
        E 0 91 3e 78
        E 240 81 3e 00
        E 0 91 3f 78
        E 120 81 3f 00
        E 0 91 43 78
        E 120 81 43 00
        E 120 91 41 78
        E 120 81 41 00
        E 120 91 3f 78
        E 120 81 3f 00
        E 0 91 3e 78
        E 240 81 3e 00
        E 0 91 3a 78
        E 120 81 3a 00
        E 0 91 3c 78
        E 1920 81 3c 00
        E 0 91 39 78
        E 480 81 39 00
        E 0 91 3a 78
        E 120 81 3a 00
        E 0 91 3c 78
        E 360 81 3c 00
        E 0 91 3e 78
        E 480 81 3e 00
        E 0 91 3f 78
        E 120 81 3f 00
        E 0 91 41 78
        E 360 81 41 00
        E 0 91 43 78
        E 480 81 43 00
        E 0 91 45 78
        E 120 81 45 00
        E 0 91 46 78
        E 240 81 46 00
        E 0 91 48 78
        E 120 81 48 00
        E 0 91 4a 78
        E 480 81 4a 00
        E 0 91 48 78
        E 120 81 48 00
        E 0 91 3c 78
        E 120 81 3c 00
        E 0 91 3f 78
        E 120 81 3f 00
        E 0 91 41 78
        E 120 81 41 00
        E 0 91 43 78
        E 120 81 43 00
        E 0 91 41 78
        E 120 81 41 00
        E 0 91 43 78
        E 120 81 43 00
        E 0 91 3c 78
        E 120 81 3c 00
        E 120 91 3c 78
        E 120 81 3c 00
        E 0 91 3f 78
        E 120 81 3f 00
        E 0 91 41 78
        E 120 81 41 00
        E 0 91 43 78
        E 240 81 43 00
        E 0 91 46 78
        E 120 81 46 00
        E 0 91 45 78
        E 120 81 45 00
        E 0 91 46 78
        E 120 81 46 00
        E 0 91 45 78
        E 240 81 45 00
        E 0 91 41 78
        E 120 81 41 00
        E 0 91 43 78
        E 1920 81 43 00
        E 0 91 39 78
        E 480 81 39 00
        E 0 91 3a 78
        E 120 81 3a 00
        E 0 91 3c 78
        E 360 81 3c 00
        E 0 91 3e 78
        E 480 81 3e 00
        E 0 91 3f 78
        E 120 81 3f 00
        E 0 91 41 78
        E 360 81 41 00
        E 0 91 43 78
        E 120 81 43 00
        E 0 91 43 78
        E 120 81 43 00
        E 0 91 43 78
        E 120 81 43 00
        E 120 91 43 78
        E 120 81 43 00
        E 0 91 45 78
        E 240 81 45 00
        E 0 91 46 78
        E 120 81 46 00
        E 0 91 4a 78
        E 480 81 4a 00
        E 0 91 48 78
        E 480 81 48 00
        E 0 91 46 78
        E 120 81 46 00
        E 0 91 46 78
        E 120 81 46 00
        E 0 91 46 78
        E 120 81 46 00
        E 0 91 46 78
        E 120 81 46 00
        E 240 91 46 78
        E 120 81 46 00
        E 0 91 46 78
        E 120 81 46 00
        E 0 91 46 78
        E 120 81 46 00
        E 0 91 46 78
        E 120 81 46 00
        E 120 91 46 78
        E 120 81 46 00
        E 120 91 45 78
        E 360 81 45 00
        E 0 91 43 78
        E 120 81 43 00
        E 0 91 43 78
        E 120 81 43 00
        E 0 91 43 78
        E 120 81 43 00
        E 0 91 43 78
        E 120 81 43 00
        E 240 91 43 78
        E 120 81 43 00
        E 0 91 43 78
        E 120 81 43 00
        E 0 91 43 78
        E 120 81 43 00
        E 0 91 43 78
        E 120 81 43 00
        E 120 91 43 78
        E 120 81 43 00
        E 120 91 45 78
        E 360 81 45 00
        E 0 91 46 78
        E 120 81 46 00
        E 0 91 46 78
        E 120 81 46 00
        E 0 91 46 78
        E 120 81 46 00
        E 0 91 46 78
        E 120 81 46 00
        E 240 91 46 78
        E 120 81 46 00
        E 0 91 46 78
        E 120 81 46 00
        E 0 91 46 78
        E 120 81 46 00
        E 0 91 46 78
        E 120 81 46 00
        E 120 91 46 78
        E 120 81 46 00
        E 120 91 45 78
        E 360 81 45 00
        E 0 91 43 78
        E 120 81 43 00
        E 0 91 43 78
        E 120 81 43 00
        E 0 91 43 78
        E 120 81 43 00
        E 0 91 43 78
        E 120 81 43 00
        E 240 91 43 78
        E 120 81 43 00
        E 0 91 45 78
        E 120 81 45 00
        E 0 91 46 78
        E 120 81 46 00
        E 0 91 48 78
        E 120 81 48 00
        E 0 91 4a 78
        E 120 81 4a 00
        E 0 91 48 78
        E 120 81 48 00
        E 120 91 45 78
        E 360 81 45 00
        E 0 91 4a 78
        E 120 81 4a 00
        E 0 91 4a 78
        E 120 81 4a 00
        E 0 91 4a 78
        E 120 81 4a 00
        E 0 91 4a 78
        E 120 81 4a 00
        E 240 91 4a 78
        E 120 81 4a 00
        E 0 91 4a 78
        E 120 81 4a 00
        E 0 91 4a 78
        E 120 81 4a 00
        E 0 91 4a 78
        E 120 81 4a 00
        E 120 91 4a 78
        E 120 81 4a 00
        E 120 91 48 78
        E 360 81 48 00
        E 0 91 46 78
        E 120 81 46 00
        E 0 91 46 78
        E 120 81 46 00
        E 0 91 46 78
        E 120 81 46 00
        E 0 91 46 78
        E 120 81 46 00
        E 240 91 46 78
        E 120 81 46 00
        E 0 91 46 78
        E 120 81 46 00
        E 0 91 46 78
        E 120 81 46 00
        E 0 91 46 78
        E 120 81 46 00
        E 120 91 46 78
        E 120 81 46 00
        E 120 91 48 78
        E 360 81 48 00
        E 0 91 4a 78
        E 120 81 4a 00
        E 0 91 4a 78
        E 120 81 4a 00
        E 0 91 4a 78
        E 120 81 4a 00
        E 0 91 4a 78
        E 120 81 4a 00
        E 240 91 4a 78
        E 120 81 4a 00
        E 0 91 4a 78
        E 120 81 4a 00
        E 0 91 4a 78
        E 120 81 4a 00
        E 0 91 4a 78
        E 120 81 4a 00
        E 120 91 4a 78
        E 120 81 4a 00
        E 120 91 4b 78
        E 360 81 4b 00
        E 0 91 4d 78
        E 120 81 4d 00
        E 0 91 4d 78
        E 120 81 4d 00
        E 0 91 4d 78
        E 120 81 4d 00
        E 0 91 4d 78
        E 120 81 4d 00
        E 240 91 4d 78
        E 120 81 4d 00
        E 0 91 4d 78
        E 120 81 4d 00
        E 0 91 4d 78
        E 120 81 4d 00
        E 0 91 4d 78
        E 120 81 4d 00
        E 360 91 3c 78
        E 120 81 3c 00
        E 0 91 3f 78
        E 120 81 3f 00
        E 0 91 41 78
        E 120 81 41 00
        E 0 91 43 78
        E 120 81 43 00
        E 0 91 41 78
        E 120 81 41 00
        E 0 91 43 78
        E 120 81 43 00
        E 0 91 3c 78
        E 240 81 3c 00
        E 0 91 3c 78
        E 120 81 3c 00
        E 0 91 3f 78
        E 120 81 3f 00
        E 0 91 41 78
        E 120 81 41 00
        E 0 91 43 78
        E 120 81 43 00
        E 0 91 41 78
        E 120 81 41 00
        E 0 91 43 78
        E 120 81 43 00
        E 0 91 46 78
        E 240 81 46 00
        E 0 91 46 78
        E 120 81 46 00
        E 0 91 45 78
        E 120 81 45 00
        E 0 91 46 78
        E 120 81 46 00
        E 0 91 43 78
        E 120 81 43 00
        E 0 91 41 78
        E 120 81 41 00
        E 0 91 43 78
        E 120 81 43 00
        E 0 91 3c 78
        E 240 81 3c 00
        E 0 91 3c 78
        E 120 81 3c 00
        E 0 91 3f 78
        E 120 81 3f 00
        E 0 91 41 78
        E 120 81 41 00
        E 120 91 43 78
        E 120 81 43 00
        E 120 91 45 78
        E 120 81 45 00
        E 120 91 46 78
        E 360 81 46 00
        E 0 91 41 78
        E 1200 81 41 00
        E 0 91 48 78
        E 120 81 48 00
        E 120 91 46 78
        E 120 81 46 00
        E 0 91 48 78
        E 240 81 48 00
        E 0 91 4a 78
        E 120 81 4a 00
        E 0 91 4b 78
        E 1920 81 4b 00
        E 0 91 41 78
        E 1200 81 41 00
        E 0 91 48 78
        E 120 81 48 00
        E 120 91 46 78
        E 120 81 46 00
        E 0 91 48 78
        E 240 81 48 00
        E 0 91 4a 78
        E 120 81 4a 00
        E 0 91 44 78
        E 1920 81 44 00
        E 0 91 41 78
        E 1200 81 41 00
        E 0 91 48 78
        E 120 81 48 00
        E 120 91 46 78
        E 120 81 46 00
        E 0 91 48 78
        E 240 81 48 00
        E 0 91 4a 78
        E 120 81 4a 00
        E 0 91 4b 78
        E 1920 81 4b 00
        E 0 91 41 78
        E 1200 81 41 00
        E 0 91 48 78
        E 120 81 48 00
        E 120 91 46 78
        E 120 81 46 00
        E 0 91 48 78
        E 240 81 48 00
        E 0 91 4a 78
        E 120 81 4a 00
        E 0 91 44 78
        E 1920 81 44 00
        E 0 91 48 78
        E 120 81 48 00
        E 120 91 48 78
        E 360 81 48 00
        E 0 91 4a 78
        E 360 81 4a 00
        E 0 91 4b 78
        E 120 81 4b 00
        E 120 91 4b 78
        E 120 81 4b 00
        E 600 91 4a 78
        E 120 81 4a 00
        E 120 91 4a 78
        E 360 81 4a 00
        E 0 91 4b 78
        E 360 81 4b 00
        E 0 91 4d 78
        E 120 81 4d 00
        E 120 91 4d 78
        E 120 81 4d 00
        E 120 91 4b 78
        E 120 81 4b 00
        E 0 91 4d 78
        E 360 81 4d 00
        E 0 91 48 78
        E 120 81 48 00
        E 120 91 48 78
        E 360 81 48 00
        E 0 91 4a 78
        E 360 81 4a 00
        E 0 91 4b 78
        E 120 81 4b 00
        E 120 91 4b 78
        E 120 81 4b 00
        E 600 91 4a 78
        E 120 81 4a 00
        E 120 91 4a 78
        E 360 81 4a 00
        E 0 91 4b 78
        E 360 81 4b 00
        E 0 91 4d 78
        E 480 81 4d 00
        E 0 91 52 78
        E 480 81 52 00
        E 0 91 4f 78
        E 120 81 4f 00
        E 0 91 4d 78
        E 120 81 4d 00
        E 0 91 56 78
        E 120 81 56 00
        E 0 91 54 78
        E 120 81 54 00
        E 0 91 52 78
        E 120 81 52 00
        E 0 91 51 78
        E 120 81 51 00
        E 0 91 4f 78
        E 120 81 4f 00
        E 0 91 4d 78
        E 120 81 4d 00
        E 0 91 4f 78
        E 120 81 4f 00
        E 0 91 4d 78
        E 120 81 4d 00
        E 0 91 4a 78
        E 120 81 4a 00
        E 0 91 48 78
        E 120 81 48 00
        E 0 91 4a 78
        E 120 81 4a 00
        E 0 91 48 78
        E 120 81 48 00
        E 0 91 46 78
        E 120 81 46 00
        E 0 91 45 78
        E 120 81 45 00
        E 0 91 3c 78
        E 360 81 3c 00
        E 120 91 3c 78
        E 120 81 3c 00
        E 0 91 3e 78
        E 240 81 3e 00
        E 0 91 3f 78
        E 120 81 3f 00
        E 0 91 43 78
        E 120 81 43 00
        E 120 91 41 78
        E 120 81 41 00
        E 120 91 3f 78
        E 120 81 3f 00
        E 0 91 3e 78
        E 240 81 3e 00
        E 0 91 3a 78
        E 120 81 3a 00
        E 0 91 3c 78
        E 1920 81 3c 00
        E 0 91 39 78
        E 480 81 39 00
        E 0 91 3a 78
        E 120 81 3a 00
        E 0 91 3c 78
        E 360 81 3c 00
        E 0 91 3e 78
        E 480 81 3e 00
        E 0 91 3f 78
        E 120 81 3f 00
        E 0 91 41 78
        E 360 81 41 00
        E 0 91 43 78
        E 480 81 43 00
        E 0 91 45 78
        E 120 81 45 00
        E 0 91 46 78
        E 240 81 46 00
        E 0 91 48 78
        E 120 81 48 00
        E 0 91 4a 78
        E 480 81 4a 00
        E 0 91 48 78
        E 120 81 48 00
        E 0 91 3c 78
        E 120 81 3c 00
        E 0 91 3f 78
        E 120 81 3f 00
        E 0 91 41 78
        E 120 81 41 00
        E 0 91 43 78
        E 120 81 43 00
        E 0 91 41 78
        E 120 81 41 00
        E 0 91 43 78
        E 120 81 43 00
        E 0 91 3c 78
        E 120 81 3c 00
        E 120 91 3c 78
        E 120 81 3c 00
        E 0 91 3f 78
        E 120 81 3f 00
        E 0 91 41 78
        E 120 81 41 00
        E 0 91 43 78
        E 240 81 43 00
        E 0 91 46 78
        E 120 81 46 00
        E 0 91 45 78
        E 120 81 45 00
        E 0 91 46 78
        E 120 81 46 00
        E 0 91 45 78
        E 240 81 45 00
        E 0 91 41 78
        E 120 81 41 00
        E 0 91 43 78
        E 1920 81 43 00
        E 0 91 39 78
        E 480 81 39 00
        E 0 91 3a 78
        E 120 81 3a 00
        E 0 91 3c 78
        E 360 81 3c 00
        E 0 91 3e 78
        E 480 81 3e 00
        E 0 91 3f 78
        E 120 81 3f 00
        E 0 91 41 78
        E 360 81 41 00
        E 0 91 43 78
        E 120 81 43 00
        E 0 91 43 78
        E 120 81 43 00
        E 0 91 43 78
        E 120 81 43 00
        E 120 91 43 78
        E 120 81 43 00
        E 0 91 45 78
        E 240 81 45 00
        E 0 91 46 78
        E 120 81 46 00
        E 0 91 4a 78
        E 480 81 4a 00
        E 0 91 48 78
        E 480 81 48 00
        E 0 91 46 78
        E 120 81 46 00
        E 0 91 46 78
        E 120 81 46 00
        E 0 91 46 78
        E 120 81 46 00
        E 0 91 46 78
        E 120 81 46 00
        E 240 91 46 78
        E 120 81 46 00
        E 0 91 46 78
        E 120 81 46 00
        E 0 91 46 78
        E 120 81 46 00
        E 0 91 46 78
        E 120 81 46 00
        E 120 91 46 78
        E 120 81 46 00
        E 120 91 45 78
        E 360 81 45 00
        E 0 91 43 78
        E 120 81 43 00
        E 0 91 43 78
        E 120 81 43 00
        E 0 91 43 78
        E 120 81 43 00
        E 0 91 43 78
        E 120 81 43 00
        E 240 91 43 78
        E 120 81 43 00
        E 0 91 43 78
        E 120 81 43 00
        E 0 91 43 78
        E 120 81 43 00
        E 0 91 43 78
        E 120 81 43 00
        E 120 91 43 78
        E 120 81 43 00
        E 120 91 45 78
        E 360 81 45 00
        E 0 91 46 78
        E 120 81 46 00
        E 0 91 46 78
        E 120 81 46 00
        E 0 91 46 78
        E 120 81 46 00
        E 0 91 46 78
        E 120 81 46 00
        E 240 91 46 78
        E 120 81 46 00
        E 0 91 46 78
        E 120 81 46 00
        E 0 91 46 78
        E 120 81 46 00
        E 0 91 46 78
        E 120 81 46 00
        E 120 91 46 78
        E 120 81 46 00
        E 120 91 45 78
        E 360 81 45 00
        E 0 91 43 78
        E 120 81 43 00
        E 0 91 43 78
        E 120 81 43 00
        E 0 91 43 78
        E 120 81 43 00
        E 0 91 43 78
        E 120 81 43 00
        E 240 91 43 78
        E 120 81 43 00
        E 0 91 45 78
        E 120 81 45 00
        E 0 91 46 78
        E 120 81 46 00
        E 0 91 48 78
        E 120 81 48 00
        E 0 91 4a 78
        E 120 81 4a 00
        E 0 91 48 78
        E 120 81 48 00
        E 120 91 45 78
        E 360 81 45 00
        E 0 91 4a 78
        E 120 81 4a 00
        E 0 91 4a 78
        E 120 81 4a 00
        E 0 91 4a 78
        E 120 81 4a 00
        E 0 91 4a 78
        E 120 81 4a 00
        E 240 91 4a 78
        E 120 81 4a 00
        E 0 91 4a 78
        E 120 81 4a 00
        E 0 91 4a 78
        E 120 81 4a 00
        E 0 91 4a 78
        E 120 81 4a 00
        E 120 91 4a 78
        E 120 81 4a 00
        E 120 91 48 78
        E 360 81 48 00
        E 0 91 46 78
        E 120 81 46 00
        E 0 91 46 78
        E 120 81 46 00
        E 0 91 46 78
        E 120 81 46 00
        E 0 91 46 78
        E 120 81 46 00
        E 240 91 46 78
        E 120 81 46 00
        E 0 91 46 78
        E 120 81 46 00
        E 0 91 46 78
        E 120 81 46 00
        E 0 91 46 78
        E 120 81 46 00
        E 120 91 46 78
        E 120 81 46 00
        E 120 91 48 78
        E 360 81 48 00
        E 0 91 4a 78
        E 120 81 4a 00
        E 0 91 4a 78
        E 120 81 4a 00
        E 0 91 4a 78
        E 120 81 4a 00
        E 0 91 4a 78
        E 120 81 4a 00
        E 240 91 4a 78
        E 120 81 4a 00
        E 0 91 4a 78
        E 120 81 4a 00
        E 0 91 4a 78
        E 120 81 4a 00
        E 0 91 4a 78
        E 120 81 4a 00
        E 120 91 4a 78
        E 120 81 4a 00
        E 120 91 4b 78
        E 360 81 4b 00
        E 0 91 4d 78
        E 120 81 4d 00
        E 0 91 4d 78
        E 120 81 4d 00
        E 0 91 4d 78
        E 120 81 4d 00
        E 0 91 4d 78
        E 120 81 4d 00
        E 240 91 4d 78
        E 120 81 4d 00
        E 0 91 4d 78
        E 120 81 4d 00
        E 0 91 4d 78
        E 120 81 4d 00
        E 0 91 4d 78
        E 120 81 4d 00
        E 360 91 3c 78
        E 120 81 3c 00
        E 0 91 3f 78
        E 120 81 3f 00
        E 0 91 41 78
        E 120 81 41 00
        E 0 91 43 78
        E 120 81 43 00
        E 0 91 41 78
        E 120 81 41 00
        E 0 91 43 78
        E 120 81 43 00
        E 0 91 3c 78
        E 240 81 3c 00
        E 0 91 3c 78
        E 120 81 3c 00
        E 0 91 3f 78
        E 120 81 3f 00
        E 0 91 41 78
        E 120 81 41 00
        E 0 91 43 78
        E 120 81 43 00
        E 0 91 41 78
        E 120 81 41 00
        E 0 91 43 78
        E 120 81 43 00
        E 0 91 46 78
        E 240 81 46 00
        E 0 91 46 78
        E 120 81 46 00
        E 0 91 45 78
        E 120 81 45 00
        E 0 91 46 78
        E 120 81 46 00
        E 0 91 43 78
        E 120 81 43 00
        E 0 91 41 78
        E 120 81 41 00
        E 0 91 43 78
        E 120 81 43 00
        E 0 91 3c 78
        E 240 81 3c 00
        E 0 91 3c 78
        E 120 81 3c 00
        E 0 91 3f 78
        E 120 81 3f 00
        E 0 91 41 78
        E 120 81 41 00
        E 120 91 43 78
        E 120 81 43 00
        E 120 91 45 78
        E 120 81 45 00
        E 120 91 46 78
        E 360 81 46 00
        E 0 b0 7b 00
        GUID {E92EAB84-1ECB-4D7A-BE8A-3EBC341EE418}
        IGNTEMPO 0 120 4 4
        SRCCOLOR 24
        VELLANE 133 99 0
        CFGEDITVIEW 0 0.005278 41 12 0 -1 0 0 0 0.5
        KEYSNAP 0
        TRACKSEL 0
        EVTFILTER 0 -1 -1 -1 -1 0 0 0 0 -1 -1 -1 -1 0 -1 0 -1 -1
        CFGEDIT 1 1 0 1 0 0 1 1 1 1 1 0.0625 86 117 1562 1023 0 0 0 0 0 0 0 0 0 0.5 0 0 1 64
      >
    >
  >
  <TRACK {02D986CB-0E03-4B39-8B64-D076FB7C94EE}
    NAME Bass
    PEAKCOL 16576
    BEAT -1
    AUTOMODE 0
    VOLPAN 1.80666240598934 0 -1 -1 1
    MUTESOLO 0 0 0
    IPHASE 0
    ISBUS 0 0
    BUSCOMP 0 0
    SHOWINMIX 1 0.6667 0.5 1 0.5 0 0 0
    FREEMODE 0
    SEL 0
    REC 0 0 0 0 0 0 0
    VU 2
    TRACKHEIGHT 0 0
    INQ 0 0 0 0.5 100 0 0 100
    NCHAN 2
    FX 1
    TRACKID {02D986CB-0E03-4B39-8B64-D076FB7C94EE}
    PERF 0
    MIDIOUT 128
    MAINSEND 1 0
    <FXCHAIN
      WNDRECT 24 52 1219 847
      SHOW 0
      LASTSEL 0
      DOCKED 0
      BYPASS 0 0 0
      <VST "VST3i: Helm (Matt Tytel)" helm64.vst3 0 "" 820595496{56535448656C6D68656C6D0000000000}
        KEvpMO5e7f4AAAAAAgAAAAEAAAAAAAAAAgAAAAAAAAB4EAAAAQAAAP//EAA=
        aBAAAAEAAABWc3RXAAAACAAAAAEAAAAAQ2NuSwAAEFBGQkNoAAAAAkhlbG0AAAgGAAAAAAAAAAAAAAAAAAAAAAAAAAAAAAAAAAAAAAAAAAAAAAAAAAAAAAAAAAAAAAAA
        AAAAAAAAAAAAAAAAAAAAAAAAAAAAAAAAAAAAAAAAAAAAAAAAAAAAAAAAAAAAAAAAAAAAAAAAAAAAAAAAAAAAAAAAAAAAAAAAAAAAAAAAAAAAAAAAAAAPuHsNCiAgImxp
        Y2Vuc2UiOiAiUGF0Y2ggKGMpIGJ5IC4gIFRoaXMgcGF0Y2ggaXMgbGljZW5zZWQgdW5kZXIgYSBDcmVhdGl2ZSBDb21tb25zIEF0dHJpYnV0aW9uIDQuMCBJbnRlcm5h
        dGlvbmFsIExpY2Vuc2UuICBZb3Ugc2hvdWxkIGhhdmUgcmVjZWl2ZWQgYSBjb3B5IG9mIHRoZSBsaWNlbnNlIGFsb25nIHdpdGggdGhpcyB3b3JrLiAgSWYgbm90LCBz
        ZWUgPGh0dHA6Ly9jcmVhdGl2ZWNvbW1vbnMub3JnL2xpY2Vuc2VzL2J5LzQuMC8+LiIsDQogICJzeW50aF92ZXJzaW9uIjogIjAuOC42IiwNCiAgInBhdGNoX25hbWUi
        OiAiIiwNCiAgImZvbGRlcl9uYW1lIjogIiIsDQogICJhdXRob3IiOiAiIiwNCiAgInNldHRpbmdzIjogew0KICAgICJhbXBfYXR0YWNrIjogMCwNCiAgICAiYW1wX2Rl
        Y2F5IjogMC41ODgyMzUzMTg2NjA3MzYwODM5OCwNCiAgICAiYW1wX3JlbGVhc2UiOiAwLjcwNTg4MjM3MDQ3MTk1NDM0NTcsDQogICAgImFtcF9zdXN0YWluIjogMC4z
        MzgyMzUyODg4NTg0MTM2OTYyOSwNCiAgICAiYXJwX2ZyZXF1ZW5jeSI6IDIsDQogICAgImFycF9nYXRlIjogMC41LA0KICAgICJhcnBfb2N0YXZlcyI6IDEsDQogICAg
        ImFycF9vbiI6IDAsDQogICAgImFycF9wYXR0ZXJuIjogMCwNCiAgICAiYXJwX3N5bmMiOiAxLA0KICAgICJhcnBfdGVtcG8iOiA5LA0KICAgICJiZWF0c19wZXJfbWlu
        dXRlIjogMTQ2LjAwMDMyMTIwMDcwMDAwMDE5LA0KICAgICJjcm9zc19tb2R1bGF0aW9uIjogMCwNCiAgICAiY3V0b2ZmIjogNzAuNDg3NTAzMDUxNzU3ODEyNSwNCiAg
        ICAiZGVsYXlfZHJ5X3dldCI6IDAuNSwNCiAgICAiZGVsYXlfZmVlZGJhY2siOiAwLjQwMDAwMDAwMDAwMDAwMDAyMjIsDQogICAgImRlbGF5X2ZyZXF1ZW5jeSI6IDIs
        DQogICAgImRlbGF5X29uIjogMCwNCiAgICAiZGVsYXlfc3luYyI6IDEsDQogICAgImRlbGF5X3RlbXBvIjogOSwNCiAgICAiZmlsX2F0dGFjayI6IDAsDQogICAgImZp
        bF9kZWNheSI6IDAuNDExNzY0NzExMTQxNTg2MzAzNzEsDQogICAgImZpbF9lbnZfZGVwdGgiOiAwLA0KICAgICJmaWxfcmVsZWFzZSI6IDEuNSwNCiAgICAiZmlsX3N1
        c3RhaW4iOiAwLjQwOTk5OTk5NjQyMzcyMTI1Nzk3LA0KICAgICJmaWx0ZXJfc2F0dXJhdGlvbiI6IDAsDQogICAgImZpbHRlcl90eXBlIjogNSwNCiAgICAiZm9ybWFu
        dF9vbiI6IDAsDQogICAgImZvcm1hbnRfeCI6IDAuNSwNCiAgICAiZm9ybWFudF95IjogMC41LA0KICAgICJrZXl0cmFjayI6IDAsDQogICAgImxlZ2F0byI6IDAsDQog
        ICAgIm1vZF9hdHRhY2siOiAwLA0KICAgICJtb2RfZGVjYXkiOiAxLjUsDQogICAgIm1vZF9yZWxlYXNlIjogMS41LA0KICAgICJtb2Rfc3VzdGFpbiI6IDAuNSwNCiAg
        ICAibW9ub19sZm9fMV9hbXBsaXR1ZGUiOiAxLA0KICAgICJtb25vX2xmb18xX2ZyZXF1ZW5jeSI6IDEsDQogICAgIm1vbm9fbGZvXzFfcmV0cmlnZ2VyIjogMCwNCiAg
        ICAibW9ub19sZm9fMV9zeW5jIjogMSwNCiAgICAibW9ub19sZm9fMV90ZW1wbyI6IDYsDQogICAgIm1vbm9fbGZvXzFfd2F2ZWZvcm0iOiAwLA0KICAgICJtb25vX2xm
        b18yX2FtcGxpdHVkZSI6IDEsDQogICAgIm1vbm9fbGZvXzJfZnJlcXVlbmN5IjogMSwNCiAgICAibW9ub19sZm9fMl9yZXRyaWdnZXIiOiAwLA0KICAgICJtb25vX2xm
        b18yX3N5bmMiOiAxLA0KICAgICJtb25vX2xmb18yX3RlbXBvIjogNywNCiAgICAibW9ub19sZm9fMl93YXZlZm9ybSI6IDAsDQogICAgIm5vaXNlX3ZvbHVtZSI6IDAs
        DQogICAgIm51bV9zdGVwcyI6IDgsDQogICAgIm9zY18xX3RyYW5zcG9zZSI6IDAsDQogICAgIm9zY18xX3R1bmUiOiAwLA0KICAgICJvc2NfMV91bmlzb25fZGV0dW5l
        IjogMTAsDQogICAgIm9zY18xX3VuaXNvbl92b2ljZXMiOiAxLA0KICAgICJvc2NfMV92b2x1bWUiOiAwLjQwMDAwMDAwMDAwMDAwMDAyMjIsDQogICAgIm9zY18xX3dh
        dmVmb3JtIjogOSwNCiAgICAib3NjXzJfdHJhbnNwb3NlIjogMCwNCiAgICAib3NjXzJfdHVuZSI6IDAsDQogICAgIm9zY18yX3VuaXNvbl9kZXR1bmUiOiAxMCwNCiAg
        ICAib3NjXzJfdW5pc29uX3ZvaWNlcyI6IDEsDQogICAgIm9zY18yX3ZvbHVtZSI6IDAuNDAwMDAwMDAwMDAwMDAwMDIyMiwNCiAgICAib3NjXzJfd2F2ZWZvcm0iOiAw
        LA0KICAgICJvc2NfZmVlZGJhY2tfYW1vdW50IjogMCwNCiAgICAib3NjX2ZlZWRiYWNrX3RyYW5zcG9zZSI6IDAsDQogICAgIm9zY19mZWVkYmFja190dW5lIjogMCwN
        CiAgICAicGl0Y2hfYmVuZF9yYW5nZSI6IDIsDQogICAgInBvbHlfbGZvX2FtcGxpdHVkZSI6IDEsDQogICAgInBvbHlfbGZvX2ZyZXF1ZW5jeSI6IDEsDQogICAgInBv
        bHlfbGZvX3N5bmMiOiAxLA0KICAgICJwb2x5X2xmb190ZW1wbyI6IDcsDQogICAgInBvbHlfbGZvX3dhdmVmb3JtIjogMCwNCiAgICAicG9seXBob255IjogNCwNCiAg
        ICAicG9ydGFtZW50byI6IC05LA0KICAgICJwb3J0YW1lbnRvX3R5cGUiOiAwLA0KICAgICJyZXNvbmFuY2UiOiAwLjgzMzMzMzMxMzQ2NTExODQwODIsDQogICAgInJl
        dmVyYl9kYW1waW5nIjogMC41LA0KICAgICJyZXZlcmJfZHJ5X3dldCI6IDAuNSwNCiAgICAicmV2ZXJiX2ZlZWRiYWNrIjogMC45MDAwMDAwMDAwMDAwMDAwMjIyLA0K
        ICAgICJyZXZlcmJfb24iOiAwLA0KICAgICJzdGVwX2ZyZXF1ZW5jeSI6IDIsDQogICAgInN0ZXBfc2VxXzAwIjogMCwNCiAgICAic3RlcF9zZXFfMDEiOiAwLA0KICAg
        ICJzdGVwX3NlcV8wMiI6IDAsDQogICAgInN0ZXBfc2VxXzAzIjogMCwNCiAgICAic3RlcF9zZXFfMDQiOiAwLA0KICAgICJzdGVwX3NlcV8wNSI6IDAsDQogICAgInN0
        ZXBfc2VxXzA2IjogMCwNCiAgICAic3RlcF9zZXFfMDciOiAwLA0KICAgICJzdGVwX3NlcV8wOCI6IDAsDQogICAgInN0ZXBfc2VxXzA5IjogMCwNCiAgICAic3RlcF9z
        ZXFfMTAiOiAwLA0KICAgICJzdGVwX3NlcV8xMSI6IDAsDQogICAgInN0ZXBfc2VxXzEyIjogMCwNCiAgICAic3RlcF9zZXFfMTMiOiAwLA0KICAgICJzdGVwX3NlcV8x
        NCI6IDAsDQogICAgInN0ZXBfc2VxXzE1IjogMCwNCiAgICAic3RlcF9zZXFfMTYiOiAwLA0KICAgICJzdGVwX3NlcV8xNyI6IDAsDQogICAgInN0ZXBfc2VxXzE4Ijog
        MCwNCiAgICAic3RlcF9zZXFfMTkiOiAwLA0KICAgICJzdGVwX3NlcV8yMCI6IDAsDQogICAgInN0ZXBfc2VxXzIxIjogMCwNCiAgICAic3RlcF9zZXFfMjIiOiAwLA0K
        ICAgICJzdGVwX3NlcV8yMyI6IDAsDQogICAgInN0ZXBfc2VxXzI0IjogMCwNCiAgICAic3RlcF9zZXFfMjUiOiAwLA0KICAgICJzdGVwX3NlcV8yNiI6IDAsDQogICAg
        InN0ZXBfc2VxXzI3IjogMCwNCiAgICAic3RlcF9zZXFfMjgiOiAwLA0KICAgICJzdGVwX3NlcV8yOSI6IDAsDQogICAgInN0ZXBfc2VxXzMwIjogMCwNCiAgICAic3Rl
        cF9zZXFfMzEiOiAwLA0KICAgICJzdGVwX3NlcXVlbmNlcl9yZXRyaWdnZXIiOiAwLA0KICAgICJzdGVwX3NlcXVlbmNlcl9zeW5jIjogMSwNCiAgICAic3RlcF9zZXF1
        ZW5jZXJfdGVtcG8iOiA3LA0KICAgICJzdGVwX3Ntb290aGluZyI6IDAsDQogICAgInN0dXR0ZXJfZnJlcXVlbmN5IjogMywNCiAgICAic3R1dHRlcl9vbiI6IDAsDQog
        ICAgInN0dXR0ZXJfcmVzYW1wbGVfZnJlcXVlbmN5IjogMSwNCiAgICAic3R1dHRlcl9yZXNhbXBsZV9zeW5jIjogMSwNCiAgICAic3R1dHRlcl9yZXNhbXBsZV90ZW1w
        byI6IDYsDQogICAgInN0dXR0ZXJfc29mdG5lc3MiOiAwLjIwMDAwMDAwMDAwMDAwMDAxMTEsDQogICAgInN0dXR0ZXJfc3luYyI6IDEsDQogICAgInN0dXR0ZXJfdGVt
        cG8iOiA4LA0KICAgICJzdWJfc2h1ZmZsZSI6IDAsDQogICAgInN1Yl92b2x1bWUiOiAwLA0KICAgICJzdWJfd2F2ZWZvcm0iOiAyLA0KICAgICJ1bmlzb25fMV9oYXJt
        b25pemUiOiAwLA0KICAgICJ1bmlzb25fMl9oYXJtb25pemUiOiAwLA0KICAgICJ2ZWxvY2l0eV90cmFjayI6IDAsDQogICAgInZvbHVtZSI6IDEsDQogICAgIm1vZHVs
        YXRpb25zIjogW10NCiAgfQ0KfQAAAAAAAAAAAEpVQ0VQcml2YXRlRGF0YQABAUJ5cGFzcwABAQMAHQAAAAAAAABKVUNFUHJpdmF0ZURhdGEAAAAAAAAAAA==
        AAAQAAAA
      >
      FLOATPOS 0 0 0 0
      FXID {B64FFFD6-DBC1-492D-9225-5FED38189DE5}
      WAK 0
    >
    <ITEM
      POSITION 0
      SNAPOFFS 0
      LENGTH 103.56141600000471
      LOOP 1
      ALLTAKES 0
      FADEIN 1 0 0 1 0 0
      FADEOUT 1 0 0 1 0 0
      MUTE 0
      SEL 0
      IGUID {D0679E08-A9B2-4A09-9BBA-E8053896D165}
      IID 7
      NAME "bass1 - stage_1.mid"
      VOLPAN 1 0 1 -1
      SOFFS 0 0
      PLAYRATE 1 1 0 -1 0 0.0025
      CHANMODE 0
      GUID {651C8116-70FC-4029-8268-2AE93EFEC603}
      <SOURCE MIDI
        HASDATA 1 480 QN
        POOLEDEVTS {3BA1EF61-DE77-43F4-9B15-DEEDDB74AC20}
        E 0 b2 5b 0f
        E 0 92 35 78
        E 120 82 35 00
        E 0 92 33 78
        E 120 82 33 00
        E 0 92 30 78
        E 120 82 30 00
        E 0 92 2e 78
        E 120 82 2e 00
        E 0 92 30 78
        E 120 82 30 00
        E 0 92 2e 78
        E 120 82 2e 00
        E 0 92 2c 78
        E 120 82 2c 00
        E 0 92 2b 78
        E 120 82 2b 00
        E 0 92 2c 78
        E 120 82 2c 00
        E 0 92 2b 78
        E 120 82 2b 00
        E 0 92 29 78
        E 120 82 29 00
        E 0 92 27 6e
        E 120 82 27 00
        E 0 92 29 78
        E 120 82 29 00
        E 0 92 22 78
        E 120 82 22 00
        E 0 92 24 78
        E 120 82 24 00
        E 0 92 27 6e
        E 120 82 27 00
        E 0 92 24 78
        E 120 82 24 00
        E 0 92 22 78
        E 120 82 22 00
        E 0 92 24 78
        E 120 82 24 00
        E 0 92 1d 78
        E 120 82 1d 00
        E 120 92 1d 78
        E 120 82 1d 00
        E 0 92 20 78
        E 120 82 20 00
        E 0 92 22 78
        E 120 82 22 00
        E 0 92 24 78
        E 120 82 24 00
        E 0 92 22 78
        E 120 82 22 00
        E 0 92 24 78
        E 120 82 24 00
        E 0 92 27 6e
        E 120 82 27 00
        E 120 92 27 6e
        E 120 82 27 00
        E 0 92 26 78
        E 120 82 26 00
        E 0 92 27 6e
        E 120 82 27 00
        E 0 92 24 78
        E 120 82 24 00
        E 0 92 22 78
        E 120 82 22 00
        E 0 92 24 78
        E 120 82 24 00
        E 0 92 1d 78
        E 120 82 1d 00
        E 120 92 1d 78
        E 120 82 1d 00
        E 0 92 20 78
        E 120 82 20 00
        E 0 92 22 78
        E 120 82 22 00
        E 0 92 24 78
        E 120 82 24 00
        E 120 92 27 6e
        E 120 82 27 00
        E 0 92 24 78
        E 120 82 24 00
        E 0 92 27 6e
        E 120 82 27 00
        E 0 92 26 78
        E 120 82 26 00
        E 120 92 22 78
        E 120 82 22 00
        E 0 92 24 78
        E 120 82 24 00
        E 0 92 22 78
        E 120 82 22 00
        E 0 92 24 78
        E 120 82 24 00
        E 0 92 1d 78
        E 120 82 1d 00
        E 120 92 1d 78
        E 120 82 1d 00
        E 0 92 20 78
        E 120 82 20 00
        E 0 92 22 78
        E 120 82 22 00
        E 0 92 24 78
        E 120 82 24 00
        E 0 92 22 78
        E 120 82 22 00
        E 0 92 24 78
        E 120 82 24 00
        E 0 92 27 6e
        E 120 82 27 00
        E 120 92 27 6e
        E 120 82 27 00
        E 0 92 26 78
        E 120 82 26 00
        E 0 92 27 6e
        E 120 82 27 00
        E 0 92 24 78
        E 120 82 24 00
        E 0 92 22 78
        E 120 82 22 00
        E 0 92 24 78
        E 120 82 24 00
        E 0 92 1d 78
        E 120 82 1d 00
        E 120 92 1d 78
        E 120 82 1d 00
        E 0 92 20 78
        E 120 82 20 00
        E 0 92 22 78
        E 120 82 22 00
        E 0 92 24 78
        E 120 82 24 00
        E 120 92 27 6e
        E 120 82 27 00
        E 0 92 24 78
        E 120 82 24 00
        E 0 92 27 6e
        E 120 82 27 00
        E 0 92 26 78
        E 120 82 26 00
        E 120 92 22 78
        E 120 82 22 00
        E 0 92 24 78
        E 120 82 24 00
        E 0 92 22 78
        E 120 82 22 00
        E 0 92 24 78
        E 120 82 24 00
        E 0 92 1d 78
        E 120 82 1d 00
        E 120 92 1d 78
        E 120 82 1d 00
        E 0 92 20 78
        E 120 82 20 00
        E 0 92 22 78
        E 120 82 22 00
        E 0 92 24 78
        E 120 82 24 00
        E 0 92 22 78
        E 120 82 22 00
        E 0 92 24 78
        E 120 82 24 00
        E 0 92 27 6e
        E 120 82 27 00
        E 120 92 27 6e
        E 120 82 27 00
        E 0 92 26 78
        E 120 82 26 00
        E 0 92 27 6e
        E 120 82 27 00
        E 0 92 24 78
        E 120 82 24 00
        E 0 92 22 78
        E 120 82 22 00
        E 0 92 24 78
        E 120 82 24 00
        E 0 92 1d 78
        E 120 82 1d 00
        E 120 92 1d 78
        E 120 82 1d 00
        E 0 92 20 78
        E 120 82 20 00
        E 0 92 22 78
        E 120 82 22 00
        E 0 92 24 78
        E 120 82 24 00
        E 120 92 27 6e
        E 120 82 27 00
        E 0 92 24 78
        E 120 82 24 00
        E 0 92 27 6e
        E 120 82 27 00
        E 0 92 26 78
        E 120 82 26 00
        E 120 92 22 78
        E 120 82 22 00
        E 0 92 24 78
        E 120 82 24 00
        E 0 92 22 78
        E 120 82 22 00
        E 0 92 24 78
        E 120 82 24 00
        E 0 92 1d 78
        E 120 82 1d 00
        E 120 92 1d 78
        E 120 82 1d 00
        E 0 92 20 78
        E 120 82 20 00
        E 0 92 22 78
        E 120 82 22 00
        E 0 92 24 78
        E 120 82 24 00
        E 0 92 22 78
        E 120 82 22 00
        E 0 92 24 78
        E 120 82 24 00
        E 0 92 27 6e
        E 120 82 27 00
        E 120 92 27 6e
        E 120 82 27 00
        E 0 92 26 78
        E 120 82 26 00
        E 0 92 27 6e
        E 120 82 27 00
        E 0 92 24 78
        E 120 82 24 00
        E 0 92 22 78
        E 120 82 22 00
        E 0 92 24 78
        E 120 82 24 00
        E 0 92 1d 78
        E 120 82 1d 00
        E 120 92 1d 78
        E 120 82 1d 00
        E 0 92 20 78
        E 120 82 20 00
        E 0 92 22 78
        E 120 82 22 00
        E 0 92 24 78
        E 120 82 24 00
        E 0 92 22 78
        E 120 82 22 00
        E 0 92 24 78
        E 120 82 24 00
        E 0 92 27 6e
        E 120 82 27 00
        E 120 92 27 6e
        E 120 82 27 00
        E 0 92 29 78
        E 120 82 29 00
        E 0 92 2b 78
        E 120 82 2b 00
        E 0 92 24 78
        E 120 82 24 00
        E 120 92 24 78
        E 120 82 24 00
        E 240 92 26 78
        E 120 82 26 00
        E 240 92 27 6e
        E 120 82 27 00
        E 120 92 24 78
        E 120 82 24 00
        E 0 92 29 78
        E 120 82 29 00
        E 120 92 2b 78
        E 120 82 2b 00
        E 0 92 2e 78
        E 120 82 2e 00
        E 0 92 30 78
        E 120 82 30 00
        E 0 92 26 78
        E 120 82 26 00
        E 120 92 26 78
        E 120 82 26 00
        E 240 92 27 6e
        E 120 82 27 00
        E 240 92 29 78
        E 120 82 29 00
        E 120 92 29 78
        E 120 82 29 00
        E 120 92 27 6e
        E 120 82 27 00
        E 0 92 29 78
        E 360 82 29 00
        E 0 92 24 78
        E 120 82 24 00
        E 120 92 24 78
        E 120 82 24 00
        E 240 92 26 78
        E 120 82 26 00
        E 240 92 27 6e
        E 120 82 27 00
        E 120 92 24 78
        E 120 82 24 00
        E 0 92 29 78
        E 120 82 29 00
        E 120 92 2b 78
        E 120 82 2b 00
        E 0 92 2e 78
        E 120 82 2e 00
        E 0 92 30 78
        E 120 82 30 00
        E 0 92 26 78
        E 120 82 26 00
        E 120 92 26 78
        E 120 82 26 00
        E 240 92 27 6e
        E 120 82 27 00
        E 240 92 29 78
        E 480 82 29 00
        E 0 92 2e 78
        E 480 82 2e 00
        E 0 92 37 78
        E 120 82 37 00
        E 0 92 35 78
        E 120 82 35 00
        E 0 92 3e 78
        E 120 82 3e 00
        E 0 92 3c 78
        E 120 82 3c 00
        E 0 92 3a 78
        E 120 82 3a 00
        E 0 92 39 78
        E 120 82 39 00
        E 0 92 37 78
        E 120 82 37 00
        E 0 92 35 78
        E 120 82 35 00
        E 0 92 37 78
        E 120 82 37 00
        E 0 92 35 78
        E 120 82 35 00
        E 0 92 32 78
        E 120 82 32 00
        E 0 92 30 78
        E 120 82 30 00
        E 0 92 32 78
        E 120 82 32 00
        E 0 92 30 78
        E 120 82 30 00
        E 0 92 2e 78
        E 120 82 2e 00
        E 0 92 2d 78
        E 120 82 2d 00
        E 0 92 24 78
        E 120 82 24 00
        E 120 92 24 78
        E 120 82 24 00
        E 120 92 24 78
        E 120 82 24 00
        E 0 92 26 78
        E 120 82 26 00
        E 120 92 27 6e
        E 120 82 27 00
        E 0 92 24 78
        E 120 82 24 00
        E 120 92 26 78
        E 120 82 26 00
        E 0 92 27 6e
        E 120 82 27 00
        E 120 92 1f 78
        E 120 82 1f 00
        E 0 92 22 78
        E 120 82 22 00
        E 0 92 23 78
        E 120 82 23 00
        E 0 92 24 78
        E 120 82 24 00
        E 0 92 24 78
        E 120 82 24 00
        E 0 92 24 78
        E 120 82 24 00
        E 120 92 24 78
        E 120 82 24 00
        E 0 92 26 78
        E 120 82 26 00
        E 240 92 27 6e
        E 120 82 27 00
        E 240 92 24 78
        E 120 82 24 00
        E 0 92 29 78
        E 120 82 29 00
        E 0 92 2b 78
        E 360 82 2b 00
        E 0 92 29 78
        E 120 82 29 00
        E 120 92 29 78
        E 120 82 29 00
        E 0 92 29 78
        E 120 82 29 00
        E 0 92 29 78
        E 120 82 29 00
        E 120 92 29 78
        E 120 82 29 00
        E 0 92 29 78
        E 120 82 29 00
        E 0 92 22 78
        E 120 82 22 00
        E 120 92 22 78
        E 120 82 22 00
        E 0 92 22 78
        E 120 82 22 00
        E 0 92 22 78
        E 120 82 22 00
        E 120 92 22 78
        E 120 82 22 00
        E 0 92 22 78
        E 120 82 22 00
        E 0 92 27 6e
        E 120 82 27 00
        E 120 92 27 6e
        E 120 82 27 00
        E 0 92 27 6e
        E 120 82 27 00
        E 0 92 27 6e
        E 120 82 27 00
        E 120 92 27 6e
        E 120 82 27 00
        E 0 92 27 6e
        E 120 82 27 00
        E 0 92 1f 78
        E 120 82 1f 00
        E 120 92 1f 78
        E 120 82 1f 00
        E 0 92 1f 78
        E 120 82 1f 00
        E 0 92 1d 78
        E 120 82 1d 00
        E 0 92 1f 78
        E 120 82 1f 00
        E 0 92 21 78
        E 120 82 21 00
        E 0 92 22 78
        E 120 82 22 00
        E 0 92 24 78
        E 120 82 24 00
        E 120 92 24 78
        E 120 82 24 00
        E 0 92 24 78
        E 120 82 24 00
        E 0 92 24 78
        E 120 82 24 00
        E 120 92 24 78
        E 120 82 24 00
        E 0 92 24 78
        E 120 82 24 00
        E 0 92 24 78
        E 120 82 24 00
        E 120 92 24 78
        E 120 82 24 00
        E 0 92 24 78
        E 120 82 24 00
        E 0 92 24 78
        E 120 82 24 00
        E 120 92 24 78
        E 120 82 24 00
        E 0 92 24 78
        E 120 82 24 00
        E 0 92 27 6e
        E 120 82 27 00
        E 120 92 27 6e
        E 120 82 27 00
        E 0 92 27 6e
        E 120 82 27 00
        E 0 92 27 6e
        E 120 82 27 00
        E 120 92 27 6e
        E 120 82 27 00
        E 0 92 27 6e
        E 120 82 27 00
        E 0 92 27 6e
        E 120 82 27 00
        E 120 92 27 6e
        E 120 82 27 00
        E 0 92 27 6e
        E 120 82 27 00
        E 0 92 27 6e
        E 120 82 27 00
        E 120 92 27 6e
        E 120 82 27 00
        E 0 92 27 6e
        E 120 82 27 00
        E 0 92 29 78
        E 120 82 29 00
        E 120 92 29 78
        E 120 82 29 00
        E 0 92 29 78
        E 120 82 29 00
        E 0 92 29 78
        E 120 82 29 00
        E 120 92 29 78
        E 120 82 29 00
        E 0 92 29 78
        E 120 82 29 00
        E 0 92 22 78
        E 120 82 22 00
        E 120 92 22 78
        E 120 82 22 00
        E 0 92 22 78
        E 120 82 22 00
        E 0 92 22 78
        E 120 82 22 00
        E 120 92 22 78
        E 120 82 22 00
        E 0 92 22 78
        E 120 82 22 00
        E 0 92 27 6e
        E 120 82 27 00
        E 0 92 27 6e
        E 120 82 27 00
        E 0 92 27 6e
        E 120 82 27 00
        E 120 92 27 6e
        E 120 82 27 00
        E 0 92 29 78
        E 120 82 29 00
        E 120 92 27 6e
        E 120 82 27 00
        E 0 92 2b 78
        E 120 82 2b 00
        E 360 92 29 78
        E 120 82 29 00
        E 360 92 2b 78
        E 120 82 2b 00
        E 0 92 2b 78
        E 120 82 2b 00
        E 0 92 2b 78
        E 120 82 2b 00
        E 0 92 2b 78
        E 120 82 2b 00
        E 240 92 2b 78
        E 120 82 2b 00
        E 0 92 2b 78
        E 120 82 2b 00
        E 0 92 2b 78
        E 120 82 2b 00
        E 0 92 2b 78
        E 120 82 2b 00
        E 120 92 2b 78
        E 120 82 2b 00
        E 120 92 29 78
        E 120 82 29 00
        E 240 92 27 6e
        E 120 82 27 00
        E 0 92 27 6e
        E 120 82 27 00
        E 0 92 27 6e
        E 120 82 27 00
        E 0 92 27 6e
        E 120 82 27 00
        E 240 92 27 6e
        E 120 82 27 00
        E 0 92 27 6e
        E 120 82 27 00
        E 0 92 27 6e
        E 120 82 27 00
        E 0 92 27 6e
        E 120 82 27 00
        E 120 92 27 6e
        E 120 82 27 00
        E 120 92 29 78
        E 120 82 29 00
        E 240 92 2b 78
        E 120 82 2b 00
        E 0 92 2b 78
        E 120 82 2b 00
        E 0 92 2b 78
        E 120 82 2b 00
        E 0 92 2b 78
        E 120 82 2b 00
        E 240 92 2b 78
        E 120 82 2b 00
        E 0 92 2b 78
        E 120 82 2b 00
        E 0 92 2b 78
        E 120 82 2b 00
        E 0 92 2b 78
        E 120 82 2b 00
        E 120 92 2b 78
        E 120 82 2b 00
        E 120 92 29 78
        E 120 82 29 00
        E 240 92 27 6e
        E 120 82 27 00
        E 0 92 27 6e
        E 120 82 27 00
        E 0 92 27 6e
        E 120 82 27 00
        E 0 92 27 6e
        E 120 82 27 00
        E 240 92 27 6e
        E 120 82 27 00
        E 0 92 29 78
        E 120 82 29 00
        E 0 92 2b 78
        E 120 82 2b 00
        E 0 92 2d 78
        E 120 82 2d 00
        E 0 92 2e 78
        E 120 82 2e 00
        E 0 92 2d 78
        E 120 82 2d 00
        E 120 92 29 78
        E 120 82 29 00
        E 240 92 2b 78
        E 120 82 2b 00
        E 0 92 2b 78
        E 120 82 2b 00
        E 0 92 2b 78
        E 120 82 2b 00
        E 0 92 2b 78
        E 120 82 2b 00
        E 240 92 2b 78
        E 120 82 2b 00
        E 0 92 2b 78
        E 120 82 2b 00
        E 0 92 2b 78
        E 120 82 2b 00
        E 0 92 2b 78
        E 120 82 2b 00
        E 120 92 2b 78
        E 120 82 2b 00
        E 120 92 29 78
        E 120 82 29 00
        E 0 92 2b 78
        E 120 82 2b 00
        E 0 92 2d 78
        E 120 82 2d 00
        E 0 92 27 6e
        E 120 82 27 00
        E 0 92 27 6e
        E 120 82 27 00
        E 0 92 27 6e
        E 120 82 27 00
        E 0 92 27 6e
        E 120 82 27 00
        E 240 92 27 6e
        E 120 82 27 00
        E 0 92 27 6e
        E 120 82 27 00
        E 0 92 27 6e
        E 120 82 27 00
        E 0 92 27 6e
        E 120 82 27 00
        E 120 92 27 6e
        E 120 82 27 00
        E 120 92 27 6e
        E 120 82 27 00
        E 0 92 27 6e
        E 120 82 27 00
        E 0 92 29 78
        E 120 82 29 00
        E 0 92 2b 78
        E 120 82 2b 00
        E 0 92 2b 78
        E 120 82 2b 00
        E 0 92 2b 78
        E 120 82 2b 00
        E 0 92 2b 78
        E 120 82 2b 00
        E 240 92 2b 78
        E 120 82 2b 00
        E 0 92 2b 78
        E 120 82 2b 00
        E 0 92 2b 78
        E 120 82 2b 00
        E 0 92 2b 78
        E 120 82 2b 00
        E 120 92 2b 78
        E 120 82 2b 00
        E 120 92 27 6e
        E 120 82 27 00
        E 0 92 29 78
        E 120 82 29 00
        E 0 92 2b 78
        E 120 82 2b 00
        E 0 92 29 78
        E 120 82 29 00
        E 0 92 29 78
        E 120 82 29 00
        E 0 92 29 78
        E 120 82 29 00
        E 0 92 29 78
        E 120 82 29 00
        E 240 92 29 78
        E 120 82 29 00
        E 0 92 29 78
        E 120 82 29 00
        E 0 92 29 78
        E 120 82 29 00
        E 0 92 29 78
        E 120 82 29 00
        E 3720 92 1f 78
        E 120 82 1f 00
        E 120 92 21 78
        E 120 82 21 00
        E 120 92 22 78
        E 120 82 22 00
        E 240 92 24 78
        E 120 82 24 00
        E 0 92 22 78
        E 120 82 22 00
        E 0 92 24 78
        E 120 82 24 00
        E 0 92 1d 78
        E 120 82 1d 00
        E 120 92 1d 78
        E 120 82 1d 00
        E 0 92 20 78
        E 120 82 20 00
        E 0 92 22 78
        E 120 82 22 00
        E 0 92 24 78
        E 120 82 24 00
        E 0 92 22 78
        E 120 82 22 00
        E 0 92 24 78
        E 120 82 24 00
        E 0 92 27 6e
        E 120 82 27 00
        E 120 92 27 6e
        E 120 82 27 00
        E 0 92 26 78
        E 120 82 26 00
        E 0 92 27 6e
        E 120 82 27 00
        E 0 92 24 78
        E 120 82 24 00
        E 0 92 22 78
        E 120 82 22 00
        E 0 92 24 78
        E 120 82 24 00
        E 0 92 1d 78
        E 120 82 1d 00
        E 120 92 1d 78
        E 120 82 1d 00
        E 0 92 20 78
        E 120 82 20 00
        E 0 92 22 78
        E 120 82 22 00
        E 0 92 24 78
        E 120 82 24 00
        E 120 92 27 6e
        E 120 82 27 00
        E 0 92 24 78
        E 120 82 24 00
        E 0 92 27 6e
        E 120 82 27 00
        E 0 92 26 78
        E 120 82 26 00
        E 120 92 22 78
        E 120 82 22 00
        E 0 92 24 78
        E 120 82 24 00
        E 0 92 22 78
        E 120 82 22 00
        E 0 92 24 78
        E 120 82 24 00
        E 0 92 1d 78
        E 120 82 1d 00
        E 120 92 1d 78
        E 120 82 1d 00
        E 0 92 20 78
        E 120 82 20 00
        E 0 92 22 78
        E 120 82 22 00
        E 0 92 24 78
        E 120 82 24 00
        E 0 92 22 78
        E 120 82 22 00
        E 0 92 24 78
        E 120 82 24 00
        E 0 92 27 6e
        E 120 82 27 00
        E 120 92 27 6e
        E 120 82 27 00
        E 0 92 26 78
        E 120 82 26 00
        E 0 92 27 6e
        E 120 82 27 00
        E 0 92 24 78
        E 120 82 24 00
        E 0 92 22 78
        E 120 82 22 00
        E 0 92 24 78
        E 120 82 24 00
        E 0 92 1d 78
        E 120 82 1d 00
        E 120 92 1d 78
        E 120 82 1d 00
        E 0 92 20 78
        E 120 82 20 00
        E 0 92 22 78
        E 120 82 22 00
        E 0 92 24 78
        E 120 82 24 00
        E 120 92 27 6e
        E 120 82 27 00
        E 0 92 24 78
        E 120 82 24 00
        E 0 92 27 6e
        E 120 82 27 00
        E 0 92 26 78
        E 120 82 26 00
        E 120 92 22 78
        E 120 82 22 00
        E 0 92 24 78
        E 120 82 24 00
        E 0 92 22 78
        E 120 82 22 00
        E 0 92 24 78
        E 120 82 24 00
        E 0 92 1d 78
        E 120 82 1d 00
        E 120 92 1d 78
        E 120 82 1d 00
        E 0 92 20 78
        E 120 82 20 00
        E 0 92 22 78
        E 120 82 22 00
        E 0 92 24 78
        E 120 82 24 00
        E 0 92 22 78
        E 120 82 22 00
        E 0 92 24 78
        E 120 82 24 00
        E 0 92 27 6e
        E 120 82 27 00
        E 120 92 27 6e
        E 120 82 27 00
        E 0 92 26 78
        E 120 82 26 00
        E 0 92 27 6e
        E 120 82 27 00
        E 0 92 24 78
        E 120 82 24 00
        E 0 92 22 78
        E 120 82 22 00
        E 0 92 24 78
        E 120 82 24 00
        E 0 92 1d 78
        E 120 82 1d 00
        E 120 92 1d 78
        E 120 82 1d 00
        E 0 92 20 78
        E 120 82 20 00
        E 0 92 22 78
        E 120 82 22 00
        E 0 92 24 78
        E 120 82 24 00
        E 120 92 27 6e
        E 120 82 27 00
        E 0 92 24 78
        E 120 82 24 00
        E 0 92 27 6e
        E 120 82 27 00
        E 0 92 26 78
        E 120 82 26 00
        E 120 92 22 78
        E 120 82 22 00
        E 0 92 24 78
        E 120 82 24 00
        E 0 92 22 78
        E 120 82 22 00
        E 0 92 24 78
        E 120 82 24 00
        E 0 92 1d 78
        E 120 82 1d 00
        E 120 92 1d 78
        E 120 82 1d 00
        E 0 92 20 78
        E 120 82 20 00
        E 0 92 22 78
        E 120 82 22 00
        E 0 92 24 78
        E 120 82 24 00
        E 0 92 22 78
        E 120 82 22 00
        E 0 92 24 78
        E 120 82 24 00
        E 0 92 27 6e
        E 120 82 27 00
        E 120 92 27 6e
        E 120 82 27 00
        E 0 92 26 78
        E 120 82 26 00
        E 0 92 27 6e
        E 120 82 27 00
        E 0 92 24 78
        E 120 82 24 00
        E 0 92 22 78
        E 120 82 22 00
        E 0 92 24 78
        E 120 82 24 00
        E 0 92 1d 78
        E 120 82 1d 00
        E 120 92 1d 78
        E 120 82 1d 00
        E 0 92 20 78
        E 120 82 20 00
        E 0 92 22 78
        E 120 82 22 00
        E 0 92 24 78
        E 120 82 24 00
        E 0 92 22 78
        E 120 82 22 00
        E 0 92 24 78
        E 120 82 24 00
        E 0 92 27 6e
        E 120 82 27 00
        E 120 92 27 6e
        E 120 82 27 00
        E 0 92 29 78
        E 120 82 29 00
        E 0 92 2b 78
        E 120 82 2b 00
        E 0 92 24 78
        E 120 82 24 00
        E 120 92 24 78
        E 120 82 24 00
        E 240 92 26 78
        E 120 82 26 00
        E 240 92 27 6e
        E 120 82 27 00
        E 120 92 24 78
        E 120 82 24 00
        E 0 92 29 78
        E 120 82 29 00
        E 120 92 2b 78
        E 120 82 2b 00
        E 0 92 2e 78
        E 120 82 2e 00
        E 0 92 30 78
        E 120 82 30 00
        E 0 92 26 78
        E 120 82 26 00
        E 120 92 26 78
        E 120 82 26 00
        E 240 92 27 6e
        E 120 82 27 00
        E 240 92 29 78
        E 120 82 29 00
        E 120 92 29 78
        E 120 82 29 00
        E 120 92 27 6e
        E 120 82 27 00
        E 0 92 29 78
        E 360 82 29 00
        E 0 92 24 78
        E 120 82 24 00
        E 120 92 24 78
        E 120 82 24 00
        E 240 92 26 78
        E 120 82 26 00
        E 240 92 27 6e
        E 120 82 27 00
        E 120 92 24 78
        E 120 82 24 00
        E 0 92 29 78
        E 120 82 29 00
        E 120 92 2b 78
        E 120 82 2b 00
        E 0 92 2e 78
        E 120 82 2e 00
        E 0 92 30 78
        E 120 82 30 00
        E 0 92 26 78
        E 120 82 26 00
        E 120 92 26 78
        E 120 82 26 00
        E 240 92 27 6e
        E 120 82 27 00
        E 240 92 29 78
        E 480 82 29 00
        E 0 92 2e 78
        E 480 82 2e 00
        E 0 92 37 78
        E 120 82 37 00
        E 0 92 35 78
        E 120 82 35 00
        E 0 92 3e 78
        E 120 82 3e 00
        E 0 92 3c 78
        E 120 82 3c 00
        E 0 92 3a 78
        E 120 82 3a 00
        E 0 92 39 78
        E 120 82 39 00
        E 0 92 37 78
        E 120 82 37 00
        E 0 92 35 78
        E 120 82 35 00
        E 0 92 37 78
        E 120 82 37 00
        E 0 92 35 78
        E 120 82 35 00
        E 0 92 32 78
        E 120 82 32 00
        E 0 92 30 78
        E 120 82 30 00
        E 0 92 32 78
        E 120 82 32 00
        E 0 92 30 78
        E 120 82 30 00
        E 0 92 2e 78
        E 120 82 2e 00
        E 0 92 2d 78
        E 120 82 2d 00
        E 0 92 24 78
        E 120 82 24 00
        E 120 92 24 78
        E 120 82 24 00
        E 120 92 24 78
        E 120 82 24 00
        E 0 92 26 78
        E 120 82 26 00
        E 120 92 27 6e
        E 120 82 27 00
        E 0 92 24 78
        E 120 82 24 00
        E 120 92 26 78
        E 120 82 26 00
        E 0 92 27 6e
        E 120 82 27 00
        E 120 92 1f 78
        E 120 82 1f 00
        E 0 92 22 78
        E 120 82 22 00
        E 0 92 23 78
        E 120 82 23 00
        E 0 92 24 78
        E 120 82 24 00
        E 0 92 24 78
        E 120 82 24 00
        E 0 92 24 78
        E 120 82 24 00
        E 120 92 24 78
        E 120 82 24 00
        E 0 92 26 78
        E 120 82 26 00
        E 240 92 27 6e
        E 120 82 27 00
        E 240 92 24 78
        E 120 82 24 00
        E 0 92 29 78
        E 120 82 29 00
        E 0 92 2b 78
        E 360 82 2b 00
        E 0 92 29 78
        E 120 82 29 00
        E 120 92 29 78
        E 120 82 29 00
        E 0 92 29 78
        E 120 82 29 00
        E 0 92 29 78
        E 120 82 29 00
        E 120 92 29 78
        E 120 82 29 00
        E 0 92 29 78
        E 120 82 29 00
        E 0 92 22 78
        E 120 82 22 00
        E 120 92 22 78
        E 120 82 22 00
        E 0 92 22 78
        E 120 82 22 00
        E 0 92 22 78
        E 120 82 22 00
        E 120 92 22 78
        E 120 82 22 00
        E 0 92 22 78
        E 120 82 22 00
        E 0 92 27 6e
        E 120 82 27 00
        E 120 92 27 6e
        E 120 82 27 00
        E 0 92 27 6e
        E 120 82 27 00
        E 0 92 27 6e
        E 120 82 27 00
        E 120 92 27 6e
        E 120 82 27 00
        E 0 92 27 6e
        E 120 82 27 00
        E 0 92 1f 78
        E 120 82 1f 00
        E 120 92 1f 78
        E 120 82 1f 00
        E 0 92 1f 78
        E 120 82 1f 00
        E 0 92 1d 78
        E 120 82 1d 00
        E 0 92 1f 78
        E 120 82 1f 00
        E 0 92 21 78
        E 120 82 21 00
        E 0 92 22 78
        E 120 82 22 00
        E 0 92 24 78
        E 120 82 24 00
        E 120 92 24 78
        E 120 82 24 00
        E 0 92 24 78
        E 120 82 24 00
        E 0 92 24 78
        E 120 82 24 00
        E 120 92 24 78
        E 120 82 24 00
        E 0 92 24 78
        E 120 82 24 00
        E 0 92 24 78
        E 120 82 24 00
        E 120 92 24 78
        E 120 82 24 00
        E 0 92 24 78
        E 120 82 24 00
        E 0 92 24 78
        E 120 82 24 00
        E 120 92 24 78
        E 120 82 24 00
        E 0 92 24 78
        E 120 82 24 00
        E 0 92 27 6e
        E 120 82 27 00
        E 120 92 27 6e
        E 120 82 27 00
        E 0 92 27 6e
        E 120 82 27 00
        E 0 92 27 6e
        E 120 82 27 00
        E 120 92 27 6e
        E 120 82 27 00
        E 0 92 27 6e
        E 120 82 27 00
        E 0 92 27 6e
        E 120 82 27 00
        E 120 92 27 6e
        E 120 82 27 00
        E 0 92 27 6e
        E 120 82 27 00
        E 0 92 27 6e
        E 120 82 27 00
        E 120 92 27 6e
        E 120 82 27 00
        E 0 92 27 6e
        E 120 82 27 00
        E 0 92 29 78
        E 120 82 29 00
        E 120 92 29 78
        E 120 82 29 00
        E 0 92 29 78
        E 120 82 29 00
        E 0 92 29 78
        E 120 82 29 00
        E 120 92 29 78
        E 120 82 29 00
        E 0 92 29 78
        E 120 82 29 00
        E 0 92 22 78
        E 120 82 22 00
        E 120 92 22 78
        E 120 82 22 00
        E 0 92 22 78
        E 120 82 22 00
        E 0 92 22 78
        E 120 82 22 00
        E 120 92 22 78
        E 120 82 22 00
        E 0 92 22 78
        E 120 82 22 00
        E 0 92 27 6e
        E 120 82 27 00
        E 0 92 27 6e
        E 120 82 27 00
        E 0 92 27 6e
        E 120 82 27 00
        E 120 92 27 6e
        E 120 82 27 00
        E 0 92 29 78
        E 120 82 29 00
        E 120 92 27 6e
        E 120 82 27 00
        E 0 92 2b 78
        E 120 82 2b 00
        E 360 92 29 78
        E 120 82 29 00
        E 360 92 2b 78
        E 120 82 2b 00
        E 0 92 2b 78
        E 120 82 2b 00
        E 0 92 2b 78
        E 120 82 2b 00
        E 0 92 2b 78
        E 120 82 2b 00
        E 240 92 2b 78
        E 120 82 2b 00
        E 0 92 2b 78
        E 120 82 2b 00
        E 0 92 2b 78
        E 120 82 2b 00
        E 0 92 2b 78
        E 120 82 2b 00
        E 120 92 2b 78
        E 120 82 2b 00
        E 120 92 29 78
        E 120 82 29 00
        E 240 92 27 6e
        E 120 82 27 00
        E 0 92 27 6e
        E 120 82 27 00
        E 0 92 27 6e
        E 120 82 27 00
        E 0 92 27 6e
        E 120 82 27 00
        E 240 92 27 6e
        E 120 82 27 00
        E 0 92 27 6e
        E 120 82 27 00
        E 0 92 27 6e
        E 120 82 27 00
        E 0 92 27 6e
        E 120 82 27 00
        E 120 92 27 6e
        E 120 82 27 00
        E 120 92 29 78
        E 120 82 29 00
        E 240 92 2b 78
        E 120 82 2b 00
        E 0 92 2b 78
        E 120 82 2b 00
        E 0 92 2b 78
        E 120 82 2b 00
        E 0 92 2b 78
        E 120 82 2b 00
        E 240 92 2b 78
        E 120 82 2b 00
        E 0 92 2b 78
        E 120 82 2b 00
        E 0 92 2b 78
        E 120 82 2b 00
        E 0 92 2b 78
        E 120 82 2b 00
        E 120 92 2b 78
        E 120 82 2b 00
        E 120 92 29 78
        E 120 82 29 00
        E 240 92 27 6e
        E 120 82 27 00
        E 0 92 27 6e
        E 120 82 27 00
        E 0 92 27 6e
        E 120 82 27 00
        E 0 92 27 6e
        E 120 82 27 00
        E 240 92 27 6e
        E 120 82 27 00
        E 0 92 29 78
        E 120 82 29 00
        E 0 92 2b 78
        E 120 82 2b 00
        E 0 92 2d 78
        E 120 82 2d 00
        E 0 92 2e 78
        E 120 82 2e 00
        E 0 92 2d 78
        E 120 82 2d 00
        E 120 92 29 78
        E 120 82 29 00
        E 240 92 2b 78
        E 120 82 2b 00
        E 0 92 2b 78
        E 120 82 2b 00
        E 0 92 2b 78
        E 120 82 2b 00
        E 0 92 2b 78
        E 120 82 2b 00
        E 240 92 2b 78
        E 120 82 2b 00
        E 0 92 2b 78
        E 120 82 2b 00
        E 0 92 2b 78
        E 120 82 2b 00
        E 0 92 2b 78
        E 120 82 2b 00
        E 120 92 2b 78
        E 120 82 2b 00
        E 120 92 29 78
        E 120 82 29 00
        E 0 92 2b 78
        E 120 82 2b 00
        E 0 92 2d 78
        E 120 82 2d 00
        E 0 92 27 6e
        E 120 82 27 00
        E 0 92 27 6e
        E 120 82 27 00
        E 0 92 27 6e
        E 120 82 27 00
        E 0 92 27 6e
        E 120 82 27 00
        E 240 92 27 6e
        E 120 82 27 00
        E 0 92 27 6e
        E 120 82 27 00
        E 0 92 27 6e
        E 120 82 27 00
        E 0 92 27 6e
        E 120 82 27 00
        E 120 92 27 6e
        E 120 82 27 00
        E 120 92 27 6e
        E 120 82 27 00
        E 0 92 27 6e
        E 120 82 27 00
        E 0 92 29 78
        E 120 82 29 00
        E 0 92 2b 78
        E 120 82 2b 00
        E 0 92 2b 78
        E 120 82 2b 00
        E 0 92 2b 78
        E 120 82 2b 00
        E 0 92 2b 78
        E 120 82 2b 00
        E 240 92 2b 78
        E 120 82 2b 00
        E 0 92 2b 78
        E 120 82 2b 00
        E 0 92 2b 78
        E 120 82 2b 00
        E 0 92 2b 78
        E 120 82 2b 00
        E 120 92 2b 78
        E 120 82 2b 00
        E 120 92 27 6e
        E 120 82 27 00
        E 0 92 29 78
        E 120 82 29 00
        E 0 92 2b 78
        E 120 82 2b 00
        E 0 92 29 78
        E 120 82 29 00
        E 0 92 29 78
        E 120 82 29 00
        E 0 92 29 78
        E 120 82 29 00
        E 0 92 29 78
        E 120 82 29 00
        E 240 92 29 78
        E 120 82 29 00
        E 0 92 29 78
        E 120 82 29 00
        E 0 92 29 78
        E 120 82 29 00
        E 0 92 29 78
        E 120 82 29 00
        E 3720 92 1f 78
        E 120 82 1f 00
        E 120 92 21 78
        E 120 82 21 00
        E 120 92 22 78
        E 120 82 22 00
        E 240 b0 7b 00
        GUID {27CEE891-D1D3-4DD2-825B-FD8222DBE6A0}
        IGNTEMPO 0 120 4 4
        SRCCOLOR 25
        VELLANE 133 99 0
        CFGEDITVIEW 43078.662755 0.029445 65 12 0 -1 0 0 0 0.5
        KEYSNAP 0
        TRACKSEL 0
        EVTFILTER 0 -1 -1 -1 -1 0 0 0 0 -1 -1 -1 -1 0 -1 0 -1 -1
        CFGEDIT 1 1 0 1 0 0 1 1 1 1 1 0.0625 574 0 2050 906 0 0 0 0 0 0 0 0 0 0.5 0 0 1 64
      >
    >
  >
  <TRACK {3923B13E-FB75-428F-B246-0B3C58BDA92D}
    NAME Drums
    PEAKCOL 16576
    BEAT -1
    AUTOMODE 0
    VOLPAN 0.55114398176853 0 -1 -1 1
    MUTESOLO 0 0 0
    IPHASE 0
    ISBUS 0 0
    BUSCOMP 0 0
    SHOWINMIX 1 0.6667 0.5 1 0.5 0 0 0
    FREEMODE 0
    SEL 0
    REC 0 0 0 0 0 0 0
    VU 2
    TRACKHEIGHT 0 0
    INQ 0 0 0 0.5 100 0 0 100
    NCHAN 2
    FX 1
    TRACKID {3923B13E-FB75-428F-B246-0B3C58BDA92D}
    PERF 0
    MIDIOUT -1
    MAINSEND 1 0
    <FXCHAIN
      WNDRECT 25 60 1075 635
      SHOW 0
      LASTSEL 0
      DOCKED 0
      BYPASS 0 0 0
      <VST "VSTi: sforzando (Plogue Art et Technologie, Inc)" "sforzando VST_x64.dll" 0 "" 1347176273
        UUdMUO5e7f4AAAAAAgAAAAEAAAAAAAAAAgAAAAAAAADVAQAAAQAAAAAAEAA=
        Q0VHUL4EAAB4nI2UTW+cMBCG75X6Hyzfs8a7hO5WS6NNtq04kFQiufRSzRqHWjH2BhuU5tdncPaDQyPgAvP68XjmhWF99VJr0snGKWtSymcRJVffPn9abxoFBXRysLZa
        LCjZN7Zshc+2KEQ8psgSvNaF9F6ZypHnFrTy/3CZEucbCTXKKV3MKanhpQjKRmsr8uuUXnKU82yb3bU+t6UMu6D1tgaPhxba+pRGQ0nLTuqUKoO521oaT4lWnXzfjKQT
        mGPZ30EDKpxcENnXNHNCH+Qb3CablCbIV9ruQN+3JlSJAjt1hIcTVQbRQI3pb76yB4d2sBy8Z1srQgGOFT9+O7YxoG3VSrLFuhy7VhXJrbGseLTNK5jSsnyT3c7c4ysl
        OzBPGWa+wG5P/uIx4i8Y07fXL+ytRheTmBJ/rm6/+9OAqeQB8Ri4sFAPHq3w+ObOdiSotT4Ih+ZCgzkoc2ywA92+u8/+i/ATEn2EzMeRxTgSjyOX40gyjnwZR5bjyGoc
        4dEEZoK/fILBfILDfILF/GOPf0ED9eGwQdWzVRwvl3zFkyhOeDxPBpPE+lE6Bj8fsuNHB8Lj6GbnKQ/x91PspJbCy/IeduHb6ROu2fHPhMEb8b9CUg==
        AAAQAAAA
      >
      FLOATPOS 0 0 0 0
      FXID {29DFB267-79F5-4D50-B1DE-84092D87AE0D}
      WAK 0
    >
    <ITEM
      POSITION 0
      SNAPOFFS 0
      LENGTH 103.56141600000471
      LOOP 1
      ALLTAKES 0
      FADEIN 1 0 0 1 0 0
      FADEOUT 1 0 0 1 0 0
      MUTE 0
      SEL 1
      IGUID {EA47E1C6-CA39-4DA9-9244-96DDE1C9AF01}
      IID 11
      NAME "drums - stage_1.mid"
      VOLPAN 1 0 1 -1
      SOFFS 0 0
      PLAYRATE 1 1 0 -1 0 0.0025
      CHANMODE 0
      GUID {10036082-0A4F-4210-B575-C4C3BEC01BA8}
      <SOURCE MIDI
        HASDATA 1 480 QN
        POOLEDEVTS {254377F8-8C56-44EC-8942-BBB6EF7B2A6A}
        <X 0 0
          /wNkcnVtcw==
        >
        E 0 c9 00 00
        e 0 b9 07 7f
        e 0 b9 0a 40
        e 0 b9 5b 3f
        e 0 99 2b 78
        e 120 89 2b 40
        e 0 99 2b 78
        e 120 89 2b 40
        e 0 99 2b 78
        e 120 89 2b 40
        e 0 99 2b 78
        e 120 89 2b 40
        e 0 99 2b 78
        e 120 89 2b 40
        e 0 99 2b 78
        e 120 89 2b 40
        e 0 99 2b 78
        e 120 89 2b 40
        e 0 99 2b 78
        e 120 89 2b 40
        e 0 99 2b 78
        e 120 89 2b 40
        e 0 99 2b 78
        e 120 89 2b 40
        e 0 99 2b 78
        e 120 89 2b 40
        e 0 99 2b 78
        e 120 89 2b 40
        e 0 99 27 78
        e 0 99 2b 78
        e 120 89 27 40
        e 0 89 2b 40
        e 0 99 27 78
        e 0 99 2b 78
        e 120 89 27 40
        e 0 89 2b 40
        e 0 99 2b 78
        e 120 89 2b 40
        e 0 99 27 78
        e 0 99 2b 78
        e 120 89 27 40
        e 0 89 2b 40
        e 0 99 24 78
        e 0 99 2b 78
        e 120 89 24 40
        e 0 89 2b 40
        e 0 99 24 78
        e 0 99 2b 78
        e 120 89 24 40
        e 0 89 2b 40
        e 0 99 24 78
        e 0 99 2b 78
        e 120 89 24 40
        e 0 89 2b 40
        e 0 99 24 78
        e 0 99 2b 78
        e 120 89 24 40
        e 0 89 2b 40
        e 0 99 27 78
        e 120 89 27 40
        e 0 99 2b 78
        e 120 89 2b 40
        e 0 99 24 78
        e 0 99 2b 78
        e 120 89 24 40
        e 0 89 2b 40
        e 0 99 24 78
        e 0 99 2b 78
        e 120 89 24 40
        e 0 89 2b 40
        e 0 99 2b 78
        e 120 89 2b 40
        e 0 99 24 78
        e 120 89 24 40
        e 0 99 2b 78
        e 120 89 2b 40
        e 0 99 24 78
        e 120 89 24 40
        e 0 99 27 78
        e 120 89 27 40
        e 0 99 2b 78
        e 120 89 2b 40
        e 0 99 24 78
        e 0 99 2b 78
        e 120 89 24 40
        e 0 89 2b 40
        e 0 99 24 78
        e 0 99 2b 78
        e 120 89 24 40
        e 0 89 2b 40
        e 0 99 24 78
        e 0 99 2b 78
        e 120 89 24 40
        e 0 89 2b 40
        e 0 99 24 78
        e 0 99 2b 78
        e 120 89 24 40
        e 0 89 2b 40
        e 0 99 24 78
        e 0 99 2b 78
        e 120 89 24 40
        e 0 89 2b 40
        e 0 99 24 78
        e 0 99 2b 78
        e 120 89 24 40
        e 0 89 2b 40
        e 0 99 27 78
        e 120 89 27 40
        e 0 99 2b 78
        e 120 89 2b 40
        e 0 99 24 78
        e 0 99 2b 78
        e 120 89 24 40
        e 0 89 2b 40
        e 0 99 24 78
        e 0 99 2b 78
        e 120 89 24 40
        e 0 89 2b 40
        e 0 99 2b 78
        e 120 89 2b 40
        e 0 99 24 78
        e 120 89 24 40
        e 0 99 2b 78
        e 120 89 2b 40
        e 0 99 24 78
        e 120 89 24 40
        e 0 99 27 78
        e 120 89 27 40
        e 0 99 27 78
        e 0 99 2b 78
        e 120 89 27 40
        e 0 89 2b 40
        e 0 99 2b 78
        e 120 89 2b 40
        e 0 99 27 78
        e 0 99 2b 78
        e 120 89 27 40
        e 0 89 2b 40
        e 0 99 24 78
        e 0 99 2b 78
        e 120 89 24 40
        e 0 89 2b 40
        e 0 99 24 78
        e 0 99 2b 78
        e 120 89 24 40
        e 0 89 2b 40
        e 0 99 24 78
        e 0 99 2b 78
        e 120 89 24 40
        e 0 89 2b 40
        e 0 99 24 78
        e 0 99 2b 78
        e 120 89 24 40
        e 0 89 2b 40
        e 0 99 27 78
        e 120 89 27 40
        e 0 99 2b 78
        e 120 89 2b 40
        e 0 99 24 78
        e 0 99 2b 78
        e 120 89 24 40
        e 0 89 2b 40
        e 0 99 24 78
        e 0 99 2b 78
        e 120 89 24 40
        e 0 89 2b 40
        e 0 99 2b 78
        e 120 89 2b 40
        e 0 99 24 78
        e 120 89 24 40
        e 0 99 2b 78
        e 120 89 2b 40
        e 0 99 24 78
        e 120 89 24 40
        e 0 99 27 78
        e 120 89 27 40
        e 0 99 2b 78
        e 120 89 2b 40
        e 0 99 24 78
        e 0 99 2b 78
        e 120 89 24 40
        e 0 89 2b 40
        e 0 99 24 78
        e 0 99 2b 78
        e 120 89 24 40
        e 0 89 2b 40
        e 0 99 24 78
        e 0 99 2b 78
        e 120 89 24 40
        e 0 89 2b 40
        e 0 99 24 78
        e 0 99 2b 78
        e 120 89 24 40
        e 0 89 2b 40
        e 0 99 24 78
        e 0 99 2b 78
        e 120 89 24 40
        e 0 89 2b 40
        e 0 99 24 78
        e 0 99 2b 78
        e 120 89 24 40
        e 0 89 2b 40
        e 0 99 27 78
        e 120 89 27 40
        e 0 99 2b 78
        e 120 89 2b 40
        e 0 99 24 78
        e 0 99 2b 78
        e 120 89 24 40
        e 0 89 2b 40
        e 0 99 24 78
        e 0 99 2b 78
        e 120 89 24 40
        e 0 89 2b 40
        e 0 99 2b 78
        e 120 89 2b 40
        e 0 99 24 78
        e 120 89 24 40
        e 0 99 2b 78
        e 120 89 2b 40
        e 0 99 24 78
        e 120 89 24 40
        e 0 99 27 78
        e 120 89 27 40
        e 0 99 27 78
        e 0 99 2b 78
        e 120 89 27 40
        e 0 89 2b 40
        e 0 99 2b 78
        e 120 89 2b 40
        e 0 99 27 78
        e 0 99 2b 78
        e 120 89 27 40
        e 0 89 2b 40
        e 0 99 24 78
        e 0 99 2b 78
        e 120 89 24 40
        e 0 89 2b 40
        e 0 99 24 78
        e 0 99 2b 78
        e 120 89 24 40
        e 0 89 2b 40
        e 0 99 24 78
        e 0 99 2b 78
        e 120 89 24 40
        e 0 89 2b 40
        e 0 99 24 78
        e 0 99 2b 78
        e 120 89 24 40
        e 0 89 2b 40
        e 0 99 27 78
        e 120 89 27 40
        e 0 99 2b 78
        e 120 89 2b 40
        e 0 99 24 78
        e 0 99 2b 78
        e 120 89 24 40
        e 0 89 2b 40
        e 0 99 24 78
        e 0 99 2b 78
        e 120 89 24 40
        e 0 89 2b 40
        e 0 99 2b 78
        e 120 89 2b 40
        e 0 99 24 78
        e 120 89 24 40
        e 0 99 2b 78
        e 120 89 2b 40
        e 0 99 24 78
        e 120 89 24 40
        e 0 99 27 78
        e 120 89 27 40
        e 0 99 2b 78
        e 120 89 2b 40
        e 0 99 24 78
        e 0 99 2b 78
        e 120 89 24 40
        e 0 89 2b 40
        e 0 99 24 78
        e 0 99 2b 78
        e 120 89 24 40
        e 0 89 2b 40
        e 0 99 24 78
        e 0 99 2b 78
        e 120 89 24 40
        e 0 89 2b 40
        e 0 99 24 78
        e 0 99 2b 78
        e 120 89 24 40
        e 0 89 2b 40
        e 0 99 24 78
        e 0 99 2b 78
        e 120 89 24 40
        e 0 89 2b 40
        e 0 99 24 78
        e 0 99 2b 78
        e 120 89 24 40
        e 0 89 2b 40
        e 0 99 27 78
        e 120 89 27 40
        e 0 99 2b 78
        e 120 89 2b 40
        e 0 99 24 78
        e 0 99 2b 78
        e 120 89 24 40
        e 0 89 2b 40
        e 0 99 24 78
        e 0 99 2b 78
        e 120 89 24 40
        e 0 89 2b 40
        e 0 99 2b 78
        e 120 89 2b 40
        e 0 99 24 78
        e 120 89 24 40
        e 0 99 2b 78
        e 120 89 2b 40
        e 0 99 24 78
        e 120 89 24 40
        e 0 99 27 78
        e 120 89 27 40
        e 0 99 27 78
        e 0 99 2b 78
        e 120 89 27 40
        e 0 89 2b 40
        e 0 99 2b 78
        e 120 89 2b 40
        e 0 99 27 78
        e 0 99 2b 78
        e 120 89 27 40
        e 0 89 2b 40
        e 0 99 24 78
        e 0 99 2b 78
        e 120 89 24 40
        e 0 89 2b 40
        e 0 99 24 78
        e 0 99 2b 78
        e 120 89 24 40
        e 0 89 2b 40
        e 0 99 24 78
        e 0 99 2b 78
        e 120 89 24 40
        e 0 89 2b 40
        e 0 99 24 78
        e 0 99 2b 78
        e 120 89 24 40
        e 0 89 2b 40
        e 0 99 27 78
        e 120 89 27 40
        e 0 99 2b 78
        e 120 89 2b 40
        e 0 99 24 78
        e 0 99 2b 78
        e 120 89 24 40
        e 0 89 2b 40
        e 0 99 24 78
        e 0 99 2b 78
        e 120 89 24 40
        e 0 89 2b 40
        e 0 99 2b 78
        e 120 89 2b 40
        e 0 99 24 78
        e 120 89 24 40
        e 0 99 2b 78
        e 120 89 2b 40
        e 0 99 24 78
        e 120 89 24 40
        e 0 99 27 78
        e 120 89 27 40
        e 0 99 2b 78
        e 120 89 2b 40
        e 0 99 24 78
        e 0 99 2b 78
        e 120 89 24 40
        e 0 89 2b 40
        e 0 99 24 78
        e 0 99 2b 78
        e 120 89 24 40
        e 0 89 2b 40
        e 0 99 24 78
        e 0 99 2b 78
        e 120 89 24 40
        e 0 89 2b 40
        e 0 99 24 78
        e 0 99 2b 78
        e 120 89 24 40
        e 0 89 2b 40
        e 0 99 24 78
        e 0 99 2b 78
        e 120 89 24 40
        e 0 89 2b 40
        e 0 99 24 78
        e 0 99 2b 78
        e 120 89 24 40
        e 0 89 2b 40
        e 0 99 27 78
        e 120 89 27 40
        e 0 99 2b 78
        e 120 89 2b 40
        e 0 99 24 78
        e 0 99 2b 78
        e 120 89 24 40
        e 0 89 2b 40
        e 0 99 24 78
        e 0 99 2b 78
        e 120 89 24 40
        e 0 89 2b 40
        e 0 99 27 78
        e 120 89 27 40
        e 0 99 27 78
        e 120 89 27 40
        e 0 99 2b 78
        e 120 89 2b 40
        e 0 99 27 78
        e 120 89 27 40
        e 0 99 27 78
        e 120 89 27 40
        e 0 99 2b 78
        e 120 89 2b 40
        e 0 99 27 78
        e 120 89 27 40
        e 0 99 27 78
        e 120 89 27 40
        e 0 99 27 78
        e 0 99 2b 78
        e 120 89 27 40
        e 0 89 2b 40
        e 0 99 2b 78
        e 120 89 2b 40
        e 0 99 27 78
        e 0 99 2b 78
        e 120 89 27 40
        e 0 89 2b 40
        e 0 99 2b 78
        e 120 89 2b 40
        e 0 99 2b 78
        e 120 89 2b 40
        e 0 99 27 78
        e 120 89 27 40
        e 0 99 2b 78
        e 120 89 2b 40
        e 0 99 24 78
        e 0 99 2b 78
        e 120 89 24 40
        e 0 89 2b 40
        e 0 99 27 78
        e 0 99 2b 78
        e 120 89 27 40
        e 0 89 2b 40
        e 120 99 27 78
        e 0 99 2b 78
        e 120 89 27 40
        e 0 89 2b 40
        e 120 99 2b 78
        e 120 89 2b 40
        e 0 99 24 78
        e 0 99 2b 78
        e 120 89 24 40
        e 0 89 2b 40
        e 0 99 24 78
        e 0 99 2b 78
        e 120 89 24 40
        e 0 89 2b 40
        e 0 99 24 78
        e 0 99 2b 78
        e 120 89 24 40
        e 0 89 2b 40
        e 0 99 27 78
        e 0 99 2b 78
        e 120 89 27 40
        e 0 89 2b 40
        e 0 99 2b 78
        e 120 89 2b 40
        e 0 99 27 78
        e 0 99 2b 78
        e 120 89 27 40
        e 0 89 2b 40
        e 0 99 2b 78
        e 120 89 2b 40
        e 0 99 2b 78
        e 120 89 2b 40
        e 0 99 27 78
        e 0 99 2b 78
        e 120 89 27 40
        e 0 89 2b 40
        e 0 99 2b 78
        e 120 89 2b 40
        e 0 99 24 78
        e 0 99 2b 78
        e 120 89 24 40
        e 0 89 2b 40
        e 0 99 27 78
        e 0 99 2b 78
        e 120 89 27 40
        e 0 89 2b 40
        e 120 99 27 78
        e 0 99 2b 78
        e 120 89 27 40
        e 0 89 2b 40
        e 120 99 27 78
        e 0 99 2b 78
        e 120 89 27 40
        e 0 89 2b 40
        e 0 99 27 78
        e 0 99 2b 78
        e 120 89 27 40
        e 0 89 2b 40
        e 0 99 2b 78
        e 120 89 2b 40
        e 0 99 24 78
        e 0 99 2b 78
        e 120 89 24 40
        e 0 89 2b 40
        e 0 99 27 78
        e 0 99 2b 78
        e 120 89 27 40
        e 0 89 2b 40
        e 0 99 2b 78
        e 120 89 2b 40
        e 0 99 27 78
        e 0 99 2b 78
        e 120 89 27 40
        e 0 89 2b 40
        e 0 99 2b 78
        e 120 89 2b 40
        e 0 99 2b 78
        e 120 89 2b 40
        e 0 99 27 78
        e 0 99 2b 78
        e 120 89 27 40
        e 0 89 2b 40
        e 0 99 2b 78
        e 120 89 2b 40
        e 0 99 24 78
        e 0 99 2b 78
        e 120 89 24 40
        e 0 89 2b 40
        e 0 99 27 78
        e 0 99 2b 78
        e 120 89 27 40
        e 0 89 2b 40
        e 120 99 27 78
        e 0 99 2b 78
        e 120 89 27 40
        e 0 89 2b 40
        e 120 99 2b 78
        e 120 89 2b 40
        e 0 99 24 78
        e 0 99 2b 78
        e 120 89 24 40
        e 0 89 2b 40
        e 0 99 24 78
        e 0 99 2b 78
        e 120 89 24 40
        e 0 89 2b 40
        e 0 99 24 78
        e 0 99 2b 78
        e 120 89 24 40
        e 0 89 2b 40
        e 0 99 27 78
        e 0 99 2b 78
        e 120 89 27 40
        e 0 89 2b 40
        e 0 99 2b 78
        e 120 89 2b 40
        e 0 99 27 78
        e 0 99 2b 78
        e 120 89 27 40
        e 0 89 2b 40
        e 0 99 2b 78
        e 120 89 2b 40
        e 0 99 2b 78
        e 120 89 2b 40
        e 0 99 27 78
        e 0 99 2b 78
        e 120 89 27 40
        e 0 89 2b 40
        e 0 99 2b 78
        e 120 89 2b 40
        e 0 99 24 78
        e 0 99 2b 78
        e 120 89 24 40
        e 0 89 2b 40
        e 0 99 27 78
        e 0 99 2b 78
        e 120 89 27 40
        e 0 89 2b 40
        e 120 99 27 78
        e 0 99 2b 78
        e 120 89 27 40
        e 0 89 2b 40
        e 120 99 27 78
        e 0 99 2b 78
        e 120 89 27 40
        e 0 89 2b 40
        e 0 99 27 78
        e 0 99 2b 78
        e 120 89 27 40
        e 0 89 2b 40
        e 0 99 2b 78
        e 120 89 2b 40
        e 0 99 27 78
        e 0 99 2b 78
        e 120 89 27 40
        e 0 89 2b 40
        e 0 99 24 78
        e 0 99 2b 78
        e 120 89 24 40
        e 0 89 2b 40
        e 0 99 2b 78
        e 120 89 2b 40
        e 0 99 2b 78
        e 120 89 2b 40
        e 0 99 2b 78
        e 120 89 2b 40
        e 0 99 24 78
        e 120 89 24 40
        e 0 99 2b 78
        e 120 89 2b 40
        e 0 99 2b 78
        e 120 89 2b 40
        e 0 99 2b 78
        e 120 89 2b 40
        e 0 99 24 78
        e 0 99 2b 78
        e 120 89 24 40
        e 0 89 2b 40
        e 0 99 2b 78
        e 120 89 2b 40
        e 0 99 2b 78
        e 120 89 2b 40
        e 0 99 2b 78
        e 120 89 2b 40
        e 0 99 27 78
        e 0 99 2b 78
        e 120 89 27 40
        e 0 89 2b 40
        e 0 99 2b 78
        e 120 89 2b 40
        e 0 99 27 78
        e 0 99 2b 78
        e 120 89 27 40
        e 0 89 2b 40
        e 0 99 27 78
        e 0 99 2b 78
        e 120 89 27 40
        e 0 89 2b 40
        e 0 99 24 78
        e 0 99 2b 78
        e 120 89 24 40
        e 0 89 2b 40
        e 0 99 24 78
        e 0 99 2b 78
        e 120 89 24 40
        e 0 89 2b 40
        e 0 99 24 78
        e 0 99 2b 78
        e 120 89 24 40
        e 0 89 2b 40
        e 0 99 24 78
        e 0 99 2b 78
        e 120 89 24 40
        e 0 89 2b 40
        e 0 99 27 78
        e 120 89 27 40
        e 0 99 2b 78
        e 120 89 2b 40
        e 0 99 24 78
        e 0 99 2b 78
        e 120 89 24 40
        e 0 89 2b 40
        e 0 99 24 78
        e 0 99 2b 78
        e 120 89 24 40
        e 0 89 2b 40
        e 0 99 2b 78
        e 120 89 2b 40
        e 0 99 24 78
        e 120 89 24 40
        e 0 99 2b 78
        e 120 89 2b 40
        e 0 99 24 78
        e 120 89 24 40
        e 0 99 27 78
        e 120 89 27 40
        e 0 99 2b 78
        e 120 89 2b 40
        e 0 99 24 78
        e 0 99 2b 78
        e 120 89 24 40
        e 0 89 2b 40
        e 0 99 24 78
        e 0 99 2b 78
        e 120 89 24 40
        e 0 89 2b 40
        e 0 99 24 78
        e 0 99 2b 78
        e 120 89 24 40
        e 0 89 2b 40
        e 0 99 24 78
        e 0 99 2b 78
        e 120 89 24 40
        e 0 89 2b 40
        e 0 99 24 78
        e 0 99 2b 78
        e 120 89 24 40
        e 0 89 2b 40
        e 0 99 24 78
        e 0 99 2b 78
        e 120 89 24 40
        e 0 89 2b 40
        e 0 99 27 78
        e 120 89 27 40
        e 0 99 2b 78
        e 120 89 2b 40
        e 0 99 24 78
        e 0 99 2b 78
        e 120 89 24 40
        e 0 89 2b 40
        e 0 99 24 78
        e 0 99 2b 78
        e 120 89 24 40
        e 0 89 2b 40
        e 0 99 2b 78
        e 120 89 2b 40
        e 0 99 24 78
        e 120 89 24 40
        e 0 99 2b 78
        e 120 89 2b 40
        e 0 99 24 78
        e 120 89 24 40
        e 0 99 27 78
        e 120 89 27 40
        e 0 99 2b 78
        e 120 89 2b 40
        e 0 99 27 78
        e 0 99 2b 78
        e 120 89 27 40
        e 0 89 2b 40
        e 0 99 27 78
        e 0 99 2b 78
        e 120 89 27 40
        e 0 89 2b 40
        e 0 99 24 78
        e 0 99 2b 78
        e 120 89 24 40
        e 0 89 2b 40
        e 0 99 24 78
        e 0 99 2b 78
        e 120 89 24 40
        e 0 89 2b 40
        e 0 99 24 78
        e 0 99 2b 78
        e 120 89 24 40
        e 0 89 2b 40
        e 0 99 24 78
        e 0 99 2b 78
        e 120 89 24 40
        e 0 89 2b 40
        e 0 99 27 78
        e 120 89 27 40
        e 0 99 2b 78
        e 120 89 2b 40
        e 0 99 24 78
        e 0 99 2b 78
        e 120 89 24 40
        e 0 89 2b 40
        e 0 99 24 78
        e 0 99 2b 78
        e 120 89 24 40
        e 0 89 2b 40
        e 0 99 2b 78
        e 120 89 2b 40
        e 0 99 24 78
        e 120 89 24 40
        e 0 99 2b 78
        e 120 89 2b 40
        e 0 99 24 78
        e 120 89 24 40
        e 0 99 27 78
        e 120 89 27 40
        e 0 99 2b 78
        e 120 89 2b 40
        e 0 99 24 78
        e 0 99 2b 78
        e 120 89 24 40
        e 0 89 2b 40
        e 0 99 24 78
        e 0 99 2b 78
        e 120 89 24 40
        e 0 89 2b 40
        e 0 99 24 78
        e 0 99 2b 78
        e 120 89 24 40
        e 0 89 2b 40
        e 0 99 24 78
        e 0 99 2b 78
        e 120 89 24 40
        e 0 89 2b 40
        e 0 99 24 78
        e 0 99 2b 78
        e 120 89 24 40
        e 0 89 2b 40
        e 0 99 24 78
        e 0 99 2b 78
        e 120 89 24 40
        e 0 89 2b 40
        e 0 99 27 78
        e 120 89 27 40
        e 0 99 2b 78
        e 120 89 2b 40
        e 0 99 24 78
        e 0 99 2b 78
        e 120 89 24 40
        e 0 89 2b 40
        e 0 99 24 78
        e 0 99 2b 78
        e 120 89 24 40
        e 0 89 2b 40
        e 0 99 2b 78
        e 120 89 2b 40
        e 0 99 24 78
        e 120 89 24 40
        e 0 99 2b 78
        e 120 89 2b 40
        e 0 99 24 78
        e 120 89 24 40
        e 0 99 24 78
        e 120 89 24 40
        e 0 99 27 78
        e 0 99 2b 78
        e 120 89 27 40
        e 0 89 2b 40
        e 0 99 27 78
        e 0 99 2b 78
        e 120 89 27 40
        e 0 89 2b 40
        e 0 99 27 78
        e 0 99 2b 78
        e 120 89 27 40
        e 0 89 2b 40
        e 0 99 24 78
        e 0 99 2b 78
        e 120 89 24 40
        e 0 89 2b 40
        e 0 99 24 78
        e 0 99 2b 78
        e 120 89 24 40
        e 0 89 2b 40
        e 0 99 24 78
        e 0 99 2b 78
        e 120 89 24 40
        e 0 89 2b 40
        e 0 99 24 78
        e 0 99 2b 78
        e 120 89 24 40
        e 0 89 2b 40
        e 0 99 27 78
        e 120 89 27 40
        e 0 99 2b 78
        e 120 89 2b 40
        e 0 99 24 78
        e 0 99 2b 78
        e 120 89 24 40
        e 0 89 2b 40
        e 0 99 24 78
        e 0 99 2b 78
        e 120 89 24 40
        e 0 89 2b 40
        e 0 99 2b 78
        e 120 89 2b 40
        e 0 99 24 78
        e 120 89 24 40
        e 0 99 2b 78
        e 120 89 2b 40
        e 0 99 24 78
        e 120 89 24 40
        e 0 99 27 78
        e 120 89 27 40
        e 0 99 2b 78
        e 120 89 2b 40
        e 0 99 24 78
        e 0 99 2b 78
        e 120 89 24 40
        e 0 89 2b 40
        e 0 99 24 78
        e 0 99 2b 78
        e 120 89 24 40
        e 0 89 2b 40
        e 0 99 24 78
        e 0 99 2b 78
        e 120 89 24 40
        e 0 89 2b 40
        e 0 99 24 78
        e 0 99 2b 78
        e 120 89 24 40
        e 0 89 2b 40
        e 0 99 24 78
        e 0 99 2b 78
        e 120 89 24 40
        e 0 89 2b 40
        e 0 99 24 78
        e 0 99 2b 78
        e 120 89 24 40
        e 0 89 2b 40
        e 0 99 27 78
        e 120 89 27 40
        e 0 99 2b 78
        e 120 89 2b 40
        e 0 99 24 78
        e 0 99 2b 78
        e 120 89 24 40
        e 0 89 2b 40
        e 0 99 24 78
        e 0 99 2b 78
        e 120 89 24 40
        e 0 89 2b 40
        e 0 99 2b 78
        e 120 89 2b 40
        e 0 99 24 78
        e 120 89 24 40
        e 0 99 2b 78
        e 120 89 2b 40
        e 0 99 24 78
        e 120 89 24 40
        e 0 99 27 78
        e 120 89 27 40
        e 0 99 2b 78
        e 120 89 2b 40
        e 0 99 24 78
        e 0 99 2b 78
        e 120 89 24 40
        e 0 89 2b 40
        e 0 99 24 78
        e 0 99 2b 78
        e 120 89 24 40
        e 0 89 2b 40
        e 0 99 24 78
        e 0 99 2b 78
        e 120 89 24 40
        e 0 89 2b 40
        e 0 99 24 78
        e 0 99 2b 78
        e 120 89 24 40
        e 0 89 2b 40
        e 0 99 24 78
        e 0 99 2b 78
        e 120 89 24 40
        e 0 89 2b 40
        e 0 99 24 78
        e 0 99 2b 78
        e 120 89 24 40
        e 0 89 2b 40
        e 0 99 27 78
        e 120 89 27 40
        e 0 99 2b 78
        e 120 89 2b 40
        e 0 99 24 78
        e 0 99 2b 78
        e 120 89 24 40
        e 0 89 2b 40
        e 0 99 24 78
        e 0 99 2b 78
        e 120 89 24 40
        e 0 89 2b 40
        e 0 99 2b 78
        e 120 89 2b 40
        e 0 99 24 78
        e 120 89 24 40
        e 0 99 2b 78
        e 120 89 2b 40
        e 0 99 24 78
        e 120 89 24 40
        e 0 99 27 78
        e 120 89 27 40
        e 0 99 2b 78
        e 120 89 2b 40
        e 0 99 24 78
        e 0 99 2b 78
        e 120 89 24 40
        e 0 89 2b 40
        e 0 99 24 78
        e 0 99 2b 78
        e 120 89 24 40
        e 0 89 2b 40
        e 0 99 27 78
        e 0 99 2b 78
        e 120 89 27 40
        e 0 89 2b 40
        e 0 99 27 78
        e 0 99 2b 78
        e 120 89 27 40
        e 0 89 2b 40
        e 0 99 27 78
        e 0 99 2b 78
        e 120 89 27 40
        e 0 89 2b 40
        e 0 99 2b 78
        e 120 89 2b 40
        e 0 99 27 78
        e 0 99 2b 78
        e 120 89 27 40
        e 0 89 2b 40
        e 0 99 27 78
        e 0 99 2b 78
        e 120 89 27 40
        e 0 89 2b 40
        e 120 99 27 78
        e 0 99 2b 78
        e 120 89 27 40
        e 0 89 2b 40
        e 0 99 27 78
        e 120 89 27 40
        e 0 99 2b 78
        e 120 89 2b 40
        e 120 99 2b 78
        e 120 89 2b 40
        e 0 99 27 78
        e 120 89 27 40
        e 0 99 2b 78
        e 120 89 2b 40
        e 120 99 2b 78
        e 120 89 2b 40
        e 0 99 24 78
        e 0 99 2b 78
        e 120 89 24 40
        e 0 89 2b 40
        e 0 99 24 78
        e 0 99 2b 78
        e 120 89 24 40
        e 0 89 2b 40
        e 0 99 24 78
        e 0 99 2b 78
        e 120 89 24 40
        e 0 89 2b 40
        e 0 99 24 78
        e 0 99 2b 78
        e 120 89 24 40
        e 0 89 2b 40
        e 0 99 27 78
        e 120 89 27 40
        e 0 99 2b 78
        e 120 89 2b 40
        e 0 99 24 78
        e 0 99 2b 78
        e 120 89 24 40
        e 0 89 2b 40
        e 0 99 24 78
        e 0 99 2b 78
        e 120 89 24 40
        e 0 89 2b 40
        e 0 99 24 78
        e 0 99 2b 78
        e 120 89 24 40
        e 0 89 2b 40
        e 0 99 24 78
        e 120 89 24 40
        e 0 99 2b 78
        e 120 89 2b 40
        e 0 99 24 78
        e 120 89 24 40
        e 0 99 27 78
        e 120 89 27 40
        e 0 99 2b 78
        e 120 89 2b 40
        e 120 99 24 78
        e 0 99 2b 78
        e 120 89 24 40
        e 0 89 2b 40
        e 0 99 24 78
        e 0 99 2b 78
        e 120 89 24 40
        e 0 89 2b 40
        e 0 99 24 78
        e 0 99 2b 78
        e 120 89 24 40
        e 0 89 2b 40
        e 0 99 24 78
        e 0 99 2b 78
        e 120 89 24 40
        e 0 89 2b 40
        e 0 99 24 78
        e 0 99 2b 78
        e 120 89 24 40
        e 0 89 2b 40
        e 0 99 27 78
        e 120 89 27 40
        e 0 99 2b 78
        e 120 89 2b 40
        e 0 99 24 78
        e 0 99 2b 78
        e 120 89 24 40
        e 0 89 2b 40
        e 0 99 24 78
        e 0 99 2b 78
        e 120 89 24 40
        e 0 89 2b 40
        e 0 99 24 78
        e 0 99 2b 78
        e 120 89 24 40
        e 0 89 2b 40
        e 0 99 24 78
        e 120 89 24 40
        e 0 99 2b 78
        e 120 89 2b 40
        e 0 99 24 78
        e 120 89 24 40
        e 0 99 27 78
        e 120 89 27 40
        e 0 99 2b 78
        e 120 89 2b 40
        e 120 99 24 78
        e 0 99 2b 78
        e 120 89 24 40
        e 0 89 2b 40
        e 0 99 24 78
        e 0 99 2b 78
        e 120 89 24 40
        e 0 89 2b 40
        e 0 99 24 78
        e 0 99 2b 78
        e 120 89 24 40
        e 0 89 2b 40
        e 0 99 24 78
        e 0 99 2b 78
        e 120 89 24 40
        e 0 89 2b 40
        e 0 99 24 78
        e 0 99 2b 78
        e 120 89 24 40
        e 0 89 2b 40
        e 0 99 27 78
        e 120 89 27 40
        e 0 99 2b 78
        e 120 89 2b 40
        e 0 99 24 78
        e 0 99 2b 78
        e 120 89 24 40
        e 0 89 2b 40
        e 0 99 24 78
        e 0 99 2b 78
        e 120 89 24 40
        e 0 89 2b 40
        e 0 99 24 78
        e 0 99 2b 78
        e 120 89 24 40
        e 0 89 2b 40
        e 0 99 24 78
        e 120 89 24 40
        e 0 99 2b 78
        e 120 89 2b 40
        e 0 99 24 78
        e 120 89 24 40
        e 0 99 27 78
        e 120 89 27 40
        e 0 99 2b 78
        e 120 89 2b 40
        e 120 99 24 78
        e 0 99 2b 78
        e 120 89 24 40
        e 0 89 2b 40
        e 0 99 24 78
        e 0 99 2b 78
        e 120 89 24 40
        e 0 89 2b 40
        e 0 99 24 78
        e 0 99 2b 78
        e 120 89 24 40
        e 0 89 2b 40
        e 0 99 24 78
        e 0 99 2b 78
        e 120 89 24 40
        e 0 89 2b 40
        e 0 99 24 78
        e 0 99 2b 78
        e 120 89 24 40
        e 0 89 2b 40
        e 0 99 27 78
        e 120 89 27 40
        e 0 99 2b 78
        e 120 89 2b 40
        e 0 99 27 78
        e 0 99 2b 78
        e 120 89 27 40
        e 0 89 2b 40
        e 0 99 27 78
        e 0 99 2b 78
        e 120 89 27 40
        e 0 89 2b 40
        e 0 99 27 78
        e 0 99 2b 78
        e 120 89 27 40
        e 0 89 2b 40
        e 0 99 27 78
        e 120 89 27 40
        e 0 99 27 78
        e 0 99 2b 78
        e 120 89 27 40
        e 0 89 2b 40
        e 0 99 27 78
        e 120 89 27 40
        e 120 99 27 78
        e 0 99 2b 78
        e 120 89 27 40
        e 0 89 2b 40
        e 0 99 2b 78
        e 120 89 2b 40
        e 0 99 24 78
        e 0 99 2b 78
        e 120 89 24 40
        e 0 89 2b 40
        e 0 99 24 78
        e 0 99 2b 78
        e 120 89 24 40
        e 0 89 2b 40
        e 0 99 24 78
        e 0 99 2b 78
        e 120 89 24 40
        e 0 89 2b 40
        e 0 99 24 78
        e 0 99 2b 78
        e 120 89 24 40
        e 0 89 2b 40
        e 0 99 24 78
        e 0 99 2b 78
        e 120 89 24 40
        e 0 89 2b 40
        e 0 99 27 78
        e 120 89 27 40
        e 0 99 2b 78
        e 120 89 2b 40
        e 0 99 24 78
        e 0 99 2b 78
        e 120 89 24 40
        e 0 89 2b 40
        e 0 99 24 78
        e 0 99 2b 78
        e 120 89 24 40
        e 0 89 2b 40
        e 0 99 24 78
        e 0 99 2b 78
        e 120 89 24 40
        e 0 89 2b 40
        e 0 99 24 78
        e 120 89 24 40
        e 0 99 2b 78
        e 120 89 2b 40
        e 0 99 24 78
        e 120 89 24 40
        e 0 99 27 78
        e 120 89 27 40
        e 0 99 2b 78
        e 120 89 2b 40
        e 120 99 24 78
        e 0 99 2b 78
        e 120 89 24 40
        e 0 89 2b 40
        e 0 99 24 78
        e 0 99 2b 78
        e 120 89 24 40
        e 0 89 2b 40
        e 0 99 24 78
        e 0 99 2b 78
        e 120 89 24 40
        e 0 89 2b 40
        e 0 99 24 78
        e 0 99 2b 78
        e 120 89 24 40
        e 0 89 2b 40
        e 0 99 24 78
        e 0 99 2b 78
        e 120 89 24 40
        e 0 89 2b 40
        e 0 99 27 78
        e 120 89 27 40
        e 0 99 2b 78
        e 120 89 2b 40
        e 0 99 24 78
        e 0 99 2b 78
        e 120 89 24 40
        e 0 89 2b 40
        e 0 99 24 78
        e 0 99 2b 78
        e 120 89 24 40
        e 0 89 2b 40
        e 0 99 24 78
        e 0 99 2b 78
        e 120 89 24 40
        e 0 89 2b 40
        e 0 99 24 78
        e 120 89 24 40
        e 0 99 2b 78
        e 120 89 2b 40
        e 0 99 24 78
        e 120 89 24 40
        e 0 99 27 78
        e 120 89 27 40
        e 0 99 2b 78
        e 120 89 2b 40
        e 120 99 24 78
        e 0 99 2b 78
        e 120 89 24 40
        e 0 89 2b 40
        e 0 99 24 78
        e 0 99 2b 78
        e 120 89 24 40
        e 0 89 2b 40
        e 0 99 24 78
        e 0 99 2b 78
        e 120 89 24 40
        e 0 89 2b 40
        e 0 99 24 78
        e 0 99 2b 78
        e 120 89 24 40
        e 0 89 2b 40
        e 0 99 24 78
        e 0 99 2b 78
        e 120 89 24 40
        e 0 89 2b 40
        e 0 99 27 78
        e 120 89 27 40
        e 0 99 2b 78
        e 120 89 2b 40
        e 0 99 24 78
        e 0 99 2b 78
        e 120 89 24 40
        e 0 89 2b 40
        e 0 99 24 78
        e 0 99 2b 78
        e 120 89 24 40
        e 0 89 2b 40
        e 0 99 24 78
        e 0 99 2b 78
        e 120 89 24 40
        e 0 89 2b 40
        e 0 99 24 78
        e 120 89 24 40
        e 0 99 2b 78
        e 120 89 2b 40
        e 0 99 24 78
        e 120 89 24 40
        e 0 99 27 78
        e 120 89 27 40
        e 0 99 2b 78
        e 120 89 2b 40
        e 120 99 24 78
        e 0 99 2b 78
        e 120 89 24 40
        e 0 89 2b 40
        e 0 99 27 78
        e 0 99 2b 78
        e 120 89 27 40
        e 0 89 2b 40
        e 0 99 27 78
        e 0 99 2b 78
        e 120 89 27 40
        e 0 89 2b 40
        e 0 99 27 78
        e 0 99 2b 78
        e 120 89 27 40
        e 0 89 2b 40
        e 0 99 27 78
        e 0 99 2b 78
        e 120 89 27 40
        e 0 89 2b 40
        e 120 99 2b 78
        e 120 89 2b 40
        e 0 99 27 78
        e 0 99 2b 78
        e 120 89 27 40
        e 0 89 2b 40
        e 0 99 27 78
        e 0 99 2b 78
        e 120 89 27 40
        e 0 89 2b 40
        e 0 99 27 78
        e 0 99 2b 78
        e 120 89 27 40
        e 0 89 2b 40
        e 0 99 27 78
        e 0 99 2b 78
        e 120 89 27 40
        e 0 89 2b 40
        e 720 99 24 78
        e 0 99 2b 78
        e 120 89 24 40
        e 0 89 2b 40
        e 360 99 24 78
        e 0 99 2b 78
        e 120 89 24 40
        e 0 89 2b 40
        e 360 99 24 78
        e 0 99 2b 78
        e 120 89 24 40
        e 0 89 2b 40
        e 360 99 24 78
        e 0 99 2b 78
        e 120 89 24 40
        e 0 89 2b 40
        e 360 99 24 78
        e 0 99 2b 78
        e 120 89 24 40
        e 0 89 2b 40
        e 360 99 24 78
        e 0 99 2b 78
        e 120 89 24 40
        e 0 89 2b 40
        e 360 99 24 78
        e 0 99 2b 78
        e 120 89 24 40
        e 0 89 2b 40
        e 0 99 27 78
        e 0 99 2b 78
        e 120 89 27 40
        e 0 89 2b 40
        e 0 99 2b 78
        e 120 89 2b 40
        e 0 99 27 78
        e 0 99 2b 78
        e 120 89 27 40
        e 0 89 2b 40
        e 0 99 2b 78
        e 120 89 2b 40
        e 0 99 27 78
        e 0 99 2b 78
        e 120 89 27 40
        e 0 89 2b 40
        e 0 99 2b 78
        e 120 89 2b 40
        e 0 99 24 78
        e 0 99 2b 78
        e 120 89 24 40
        e 0 89 2b 40
        e 0 99 24 78
        e 0 99 2b 78
        e 120 89 24 40
        e 0 89 2b 40
        e 0 99 24 78
        e 0 99 2b 78
        e 120 89 24 40
        e 0 89 2b 40
        e 0 99 24 78
        e 0 99 2b 78
        e 120 89 24 40
        e 0 89 2b 40
        e 0 99 24 78
        e 0 99 2b 78
        e 120 89 24 40
        e 0 89 2b 40
        e 0 99 27 78
        e 120 89 27 40
        e 0 99 2b 78
        e 120 89 2b 40
        e 0 99 24 78
        e 0 99 2b 78
        e 120 89 24 40
        e 0 89 2b 40
        e 0 99 24 78
        e 0 99 2b 78
        e 120 89 24 40
        e 0 89 2b 40
        e 0 99 2b 78
        e 120 89 2b 40
        e 0 99 24 78
        e 120 89 24 40
        e 0 99 2b 78
        e 120 89 2b 40
        e 0 99 24 78
        e 120 89 24 40
        e 0 99 27 78
        e 120 89 27 40
        e 0 99 2b 78
        e 120 89 2b 40
        e 0 99 24 78
        e 0 99 2b 78
        e 120 89 24 40
        e 0 89 2b 40
        e 0 99 24 78
        e 0 99 2b 78
        e 120 89 24 40
        e 0 89 2b 40
        e 0 99 24 78
        e 0 99 2b 78
        e 120 89 24 40
        e 0 89 2b 40
        e 0 99 24 78
        e 0 99 2b 78
        e 120 89 24 40
        e 0 89 2b 40
        e 0 99 24 78
        e 0 99 2b 78
        e 120 89 24 40
        e 0 89 2b 40
        e 0 99 24 78
        e 0 99 2b 78
        e 120 89 24 40
        e 0 89 2b 40
        e 0 99 27 78
        e 120 89 27 40
        e 0 99 2b 78
        e 120 89 2b 40
        e 0 99 24 78
        e 0 99 2b 78
        e 120 89 24 40
        e 0 89 2b 40
        e 0 99 24 78
        e 0 99 2b 78
        e 120 89 24 40
        e 0 89 2b 40
        e 0 99 2b 78
        e 120 89 2b 40
        e 0 99 24 78
        e 120 89 24 40
        e 0 99 2b 78
        e 120 89 2b 40
        e 0 99 24 78
        e 120 89 24 40
        e 0 99 27 78
        e 120 89 27 40
        e 0 99 27 78
        e 0 99 2b 78
        e 120 89 27 40
        e 0 89 2b 40
        e 0 99 2b 78
        e 120 89 2b 40
        e 0 99 27 78
        e 0 99 2b 78
        e 120 89 27 40
        e 0 89 2b 40
        e 0 99 24 78
        e 0 99 2b 78
        e 120 89 24 40
        e 0 89 2b 40
        e 0 99 24 78
        e 0 99 2b 78
        e 120 89 24 40
        e 0 89 2b 40
        e 0 99 24 78
        e 0 99 2b 78
        e 120 89 24 40
        e 0 89 2b 40
        e 0 99 24 78
        e 0 99 2b 78
        e 120 89 24 40
        e 0 89 2b 40
        e 0 99 27 78
        e 120 89 27 40
        e 0 99 2b 78
        e 120 89 2b 40
        e 0 99 24 78
        e 0 99 2b 78
        e 120 89 24 40
        e 0 89 2b 40
        e 0 99 24 78
        e 0 99 2b 78
        e 120 89 24 40
        e 0 89 2b 40
        e 0 99 2b 78
        e 120 89 2b 40
        e 0 99 24 78
        e 120 89 24 40
        e 0 99 2b 78
        e 120 89 2b 40
        e 0 99 24 78
        e 120 89 24 40
        e 0 99 27 78
        e 120 89 27 40
        e 0 99 2b 78
        e 120 89 2b 40
        e 0 99 24 78
        e 0 99 2b 78
        e 120 89 24 40
        e 0 89 2b 40
        e 0 99 24 78
        e 0 99 2b 78
        e 120 89 24 40
        e 0 89 2b 40
        e 0 99 24 78
        e 0 99 2b 78
        e 120 89 24 40
        e 0 89 2b 40
        e 0 99 24 78
        e 0 99 2b 78
        e 120 89 24 40
        e 0 89 2b 40
        e 0 99 24 78
        e 0 99 2b 78
        e 120 89 24 40
        e 0 89 2b 40
        e 0 99 24 78
        e 0 99 2b 78
        e 120 89 24 40
        e 0 89 2b 40
        e 0 99 27 78
        e 120 89 27 40
        e 0 99 2b 78
        e 120 89 2b 40
        e 0 99 24 78
        e 0 99 2b 78
        e 120 89 24 40
        e 0 89 2b 40
        e 0 99 24 78
        e 0 99 2b 78
        e 120 89 24 40
        e 0 89 2b 40
        e 0 99 2b 78
        e 120 89 2b 40
        e 0 99 24 78
        e 120 89 24 40
        e 0 99 2b 78
        e 120 89 2b 40
        e 0 99 24 78
        e 120 89 24 40
        e 0 99 27 78
        e 120 89 27 40
        e 0 99 27 78
        e 0 99 2b 78
        e 120 89 27 40
        e 0 89 2b 40
        e 0 99 2b 78
        e 120 89 2b 40
        e 0 99 27 78
        e 0 99 2b 78
        e 120 89 27 40
        e 0 89 2b 40
        e 0 99 24 78
        e 0 99 2b 78
        e 120 89 24 40
        e 0 89 2b 40
        e 0 99 24 78
        e 0 99 2b 78
        e 120 89 24 40
        e 0 89 2b 40
        e 0 99 24 78
        e 0 99 2b 78
        e 120 89 24 40
        e 0 89 2b 40
        e 0 99 24 78
        e 0 99 2b 78
        e 120 89 24 40
        e 0 89 2b 40
        e 0 99 27 78
        e 120 89 27 40
        e 0 99 2b 78
        e 120 89 2b 40
        e 0 99 24 78
        e 0 99 2b 78
        e 120 89 24 40
        e 0 89 2b 40
        e 0 99 24 78
        e 0 99 2b 78
        e 120 89 24 40
        e 0 89 2b 40
        e 0 99 2b 78
        e 120 89 2b 40
        e 0 99 24 78
        e 120 89 24 40
        e 0 99 2b 78
        e 120 89 2b 40
        e 0 99 24 78
        e 120 89 24 40
        e 0 99 27 78
        e 120 89 27 40
        e 0 99 2b 78
        e 120 89 2b 40
        e 0 99 24 78
        e 0 99 2b 78
        e 120 89 24 40
        e 0 89 2b 40
        e 0 99 24 78
        e 0 99 2b 78
        e 120 89 24 40
        e 0 89 2b 40
        e 0 99 24 78
        e 0 99 2b 78
        e 120 89 24 40
        e 0 89 2b 40
        e 0 99 24 78
        e 0 99 2b 78
        e 120 89 24 40
        e 0 89 2b 40
        e 0 99 24 78
        e 0 99 2b 78
        e 120 89 24 40
        e 0 89 2b 40
        e 0 99 24 78
        e 0 99 2b 78
        e 120 89 24 40
        e 0 89 2b 40
        e 0 99 27 78
        e 120 89 27 40
        e 0 99 2b 78
        e 120 89 2b 40
        e 0 99 24 78
        e 0 99 2b 78
        e 120 89 24 40
        e 0 89 2b 40
        e 0 99 24 78
        e 0 99 2b 78
        e 120 89 24 40
        e 0 89 2b 40
        e 0 99 2b 78
        e 120 89 2b 40
        e 0 99 24 78
        e 120 89 24 40
        e 0 99 2b 78
        e 120 89 2b 40
        e 0 99 24 78
        e 120 89 24 40
        e 0 99 27 78
        e 120 89 27 40
        e 0 99 27 78
        e 0 99 2b 78
        e 120 89 27 40
        e 0 89 2b 40
        e 0 99 2b 78
        e 120 89 2b 40
        e 0 99 27 78
        e 0 99 2b 78
        e 120 89 27 40
        e 0 89 2b 40
        e 0 99 24 78
        e 0 99 2b 78
        e 120 89 24 40
        e 0 89 2b 40
        e 0 99 24 78
        e 0 99 2b 78
        e 120 89 24 40
        e 0 89 2b 40
        e 0 99 24 78
        e 0 99 2b 78
        e 120 89 24 40
        e 0 89 2b 40
        e 0 99 24 78
        e 0 99 2b 78
        e 120 89 24 40
        e 0 89 2b 40
        e 0 99 27 78
        e 120 89 27 40
        e 0 99 2b 78
        e 120 89 2b 40
        e 0 99 24 78
        e 0 99 2b 78
        e 120 89 24 40
        e 0 89 2b 40
        e 0 99 24 78
        e 0 99 2b 78
        e 120 89 24 40
        e 0 89 2b 40
        e 0 99 2b 78
        e 120 89 2b 40
        e 0 99 24 78
        e 120 89 24 40
        e 0 99 2b 78
        e 120 89 2b 40
        e 0 99 24 78
        e 120 89 24 40
        e 0 99 27 78
        e 120 89 27 40
        e 0 99 2b 78
        e 120 89 2b 40
        e 0 99 24 78
        e 0 99 2b 78
        e 120 89 24 40
        e 0 89 2b 40
        e 0 99 24 78
        e 0 99 2b 78
        e 120 89 24 40
        e 0 89 2b 40
        e 0 99 24 78
        e 0 99 2b 78
        e 120 89 24 40
        e 0 89 2b 40
        e 0 99 24 78
        e 0 99 2b 78
        e 120 89 24 40
        e 0 89 2b 40
        e 0 99 24 78
        e 0 99 2b 78
        e 120 89 24 40
        e 0 89 2b 40
        e 0 99 24 78
        e 0 99 2b 78
        e 120 89 24 40
        e 0 89 2b 40
        e 0 99 27 78
        e 120 89 27 40
        e 0 99 2b 78
        e 120 89 2b 40
        e 0 99 24 78
        e 0 99 2b 78
        e 120 89 24 40
        e 0 89 2b 40
        e 0 99 24 78
        e 0 99 2b 78
        e 120 89 24 40
        e 0 89 2b 40
        e 0 99 27 78
        e 120 89 27 40
        e 0 99 27 78
        e 120 89 27 40
        e 0 99 2b 78
        e 120 89 2b 40
        e 0 99 27 78
        e 120 89 27 40
        e 0 99 27 78
        e 120 89 27 40
        e 0 99 2b 78
        e 120 89 2b 40
        e 0 99 27 78
        e 120 89 27 40
        e 0 99 27 78
        e 120 89 27 40
        e 0 99 27 78
        e 0 99 2b 78
        e 120 89 27 40
        e 0 89 2b 40
        e 0 99 2b 78
        e 120 89 2b 40
        e 0 99 27 78
        e 0 99 2b 78
        e 120 89 27 40
        e 0 89 2b 40
        e 0 99 2b 78
        e 120 89 2b 40
        e 0 99 2b 78
        e 120 89 2b 40
        e 0 99 27 78
        e 120 89 27 40
        e 0 99 2b 78
        e 120 89 2b 40
        e 0 99 24 78
        e 0 99 2b 78
        e 120 89 24 40
        e 0 89 2b 40
        e 0 99 27 78
        e 0 99 2b 78
        e 120 89 27 40
        e 0 89 2b 40
        e 120 99 27 78
        e 0 99 2b 78
        e 120 89 27 40
        e 0 89 2b 40
        e 120 99 2b 78
        e 120 89 2b 40
        e 0 99 24 78
        e 0 99 2b 78
        e 120 89 24 40
        e 0 89 2b 40
        e 0 99 24 78
        e 0 99 2b 78
        e 120 89 24 40
        e 0 89 2b 40
        e 0 99 24 78
        e 0 99 2b 78
        e 120 89 24 40
        e 0 89 2b 40
        e 0 99 27 78
        e 0 99 2b 78
        e 120 89 27 40
        e 0 89 2b 40
        e 0 99 2b 78
        e 120 89 2b 40
        e 0 99 27 78
        e 0 99 2b 78
        e 120 89 27 40
        e 0 89 2b 40
        e 0 99 2b 78
        e 120 89 2b 40
        e 0 99 2b 78
        e 120 89 2b 40
        e 0 99 27 78
        e 0 99 2b 78
        e 120 89 27 40
        e 0 89 2b 40
        e 0 99 2b 78
        e 120 89 2b 40
        e 0 99 24 78
        e 0 99 2b 78
        e 120 89 24 40
        e 0 89 2b 40
        e 0 99 27 78
        e 0 99 2b 78
        e 120 89 27 40
        e 0 89 2b 40
        e 120 99 27 78
        e 0 99 2b 78
        e 120 89 27 40
        e 0 89 2b 40
        e 120 99 27 78
        e 0 99 2b 78
        e 120 89 27 40
        e 0 89 2b 40
        e 0 99 27 78
        e 0 99 2b 78
        e 120 89 27 40
        e 0 89 2b 40
        e 0 99 2b 78
        e 120 89 2b 40
        e 0 99 24 78
        e 0 99 2b 78
        e 120 89 24 40
        e 0 89 2b 40
        e 0 99 27 78
        e 0 99 2b 78
        e 120 89 27 40
        e 0 89 2b 40
        e 0 99 2b 78
        e 120 89 2b 40
        e 0 99 27 78
        e 0 99 2b 78
        e 120 89 27 40
        e 0 89 2b 40
        e 0 99 2b 78
        e 120 89 2b 40
        e 0 99 2b 78
        e 120 89 2b 40
        e 0 99 27 78
        e 0 99 2b 78
        e 120 89 27 40
        e 0 89 2b 40
        e 0 99 2b 78
        e 120 89 2b 40
        e 0 99 24 78
        e 0 99 2b 78
        e 120 89 24 40
        e 0 89 2b 40
        e 0 99 27 78
        e 0 99 2b 78
        e 120 89 27 40
        e 0 89 2b 40
        e 120 99 27 78
        e 0 99 2b 78
        e 120 89 27 40
        e 0 89 2b 40
        e 120 99 2b 78
        e 120 89 2b 40
        e 0 99 24 78
        e 0 99 2b 78
        e 120 89 24 40
        e 0 89 2b 40
        e 0 99 24 78
        e 0 99 2b 78
        e 120 89 24 40
        e 0 89 2b 40
        e 0 99 24 78
        e 0 99 2b 78
        e 120 89 24 40
        e 0 89 2b 40
        e 0 99 27 78
        e 0 99 2b 78
        e 120 89 27 40
        e 0 89 2b 40
        e 0 99 2b 78
        e 120 89 2b 40
        e 0 99 27 78
        e 0 99 2b 78
        e 120 89 27 40
        e 0 89 2b 40
        e 0 99 2b 78
        e 120 89 2b 40
        e 0 99 2b 78
        e 120 89 2b 40
        e 0 99 27 78
        e 0 99 2b 78
        e 120 89 27 40
        e 0 89 2b 40
        e 0 99 2b 78
        e 120 89 2b 40
        e 0 99 24 78
        e 0 99 2b 78
        e 120 89 24 40
        e 0 89 2b 40
        e 0 99 27 78
        e 0 99 2b 78
        e 120 89 27 40
        e 0 89 2b 40
        e 120 99 27 78
        e 0 99 2b 78
        e 120 89 27 40
        e 0 89 2b 40
        e 120 99 27 78
        e 0 99 2b 78
        e 120 89 27 40
        e 0 89 2b 40
        e 0 99 27 78
        e 0 99 2b 78
        e 120 89 27 40
        e 0 89 2b 40
        e 0 99 2b 78
        e 120 89 2b 40
        e 0 99 27 78
        e 0 99 2b 78
        e 120 89 27 40
        e 0 89 2b 40
        e 0 99 24 78
        e 0 99 2b 78
        e 120 89 24 40
        e 0 89 2b 40
        e 0 99 2b 78
        e 120 89 2b 40
        e 0 99 2b 78
        e 120 89 2b 40
        e 0 99 2b 78
        e 120 89 2b 40
        e 0 99 24 78
        e 120 89 24 40
        e 0 99 2b 78
        e 120 89 2b 40
        e 0 99 2b 78
        e 120 89 2b 40
        e 0 99 2b 78
        e 120 89 2b 40
        e 0 99 24 78
        e 0 99 2b 78
        e 120 89 24 40
        e 0 89 2b 40
        e 0 99 2b 78
        e 120 89 2b 40
        e 0 99 2b 78
        e 120 89 2b 40
        e 0 99 2b 78
        e 120 89 2b 40
        e 0 99 27 78
        e 0 99 2b 78
        e 120 89 27 40
        e 0 89 2b 40
        e 0 99 2b 78
        e 120 89 2b 40
        e 0 99 27 78
        e 0 99 2b 78
        e 120 89 27 40
        e 0 89 2b 40
        e 0 99 27 78
        e 0 99 2b 78
        e 120 89 27 40
        e 0 89 2b 40
        e 0 99 24 78
        e 0 99 2b 78
        e 120 89 24 40
        e 0 89 2b 40
        e 0 99 24 78
        e 0 99 2b 78
        e 120 89 24 40
        e 0 89 2b 40
        e 0 99 24 78
        e 0 99 2b 78
        e 120 89 24 40
        e 0 89 2b 40
        e 0 99 24 78
        e 0 99 2b 78
        e 120 89 24 40
        e 0 89 2b 40
        e 0 99 27 78
        e 120 89 27 40
        e 0 99 2b 78
        e 120 89 2b 40
        e 0 99 24 78
        e 0 99 2b 78
        e 120 89 24 40
        e 0 89 2b 40
        e 0 99 24 78
        e 0 99 2b 78
        e 120 89 24 40
        e 0 89 2b 40
        e 0 99 2b 78
        e 120 89 2b 40
        e 0 99 24 78
        e 120 89 24 40
        e 0 99 2b 78
        e 120 89 2b 40
        e 0 99 24 78
        e 120 89 24 40
        e 0 99 27 78
        e 120 89 27 40
        e 0 99 2b 78
        e 120 89 2b 40
        e 0 99 24 78
        e 0 99 2b 78
        e 120 89 24 40
        e 0 89 2b 40
        e 0 99 24 78
        e 0 99 2b 78
        e 120 89 24 40
        e 0 89 2b 40
        e 0 99 24 78
        e 0 99 2b 78
        e 120 89 24 40
        e 0 89 2b 40
        e 0 99 24 78
        e 0 99 2b 78
        e 120 89 24 40
        e 0 89 2b 40
        e 0 99 24 78
        e 0 99 2b 78
        e 120 89 24 40
        e 0 89 2b 40
        e 0 99 24 78
        e 0 99 2b 78
        e 120 89 24 40
        e 0 89 2b 40
        e 0 99 27 78
        e 120 89 27 40
        e 0 99 2b 78
        e 120 89 2b 40
        e 0 99 24 78
        e 0 99 2b 78
        e 120 89 24 40
        e 0 89 2b 40
        e 0 99 24 78
        e 0 99 2b 78
        e 120 89 24 40
        e 0 89 2b 40
        e 0 99 2b 78
        e 120 89 2b 40
        e 0 99 24 78
        e 120 89 24 40
        e 0 99 2b 78
        e 120 89 2b 40
        e 0 99 24 78
        e 120 89 24 40
        e 0 99 27 78
        e 120 89 27 40
        e 0 99 2b 78
        e 120 89 2b 40
        e 0 99 27 78
        e 0 99 2b 78
        e 120 89 27 40
        e 0 89 2b 40
        e 0 99 27 78
        e 0 99 2b 78
        e 120 89 27 40
        e 0 89 2b 40
        e 0 99 24 78
        e 0 99 2b 78
        e 120 89 24 40
        e 0 89 2b 40
        e 0 99 24 78
        e 0 99 2b 78
        e 120 89 24 40
        e 0 89 2b 40
        e 0 99 24 78
        e 0 99 2b 78
        e 120 89 24 40
        e 0 89 2b 40
        e 0 99 24 78
        e 0 99 2b 78
        e 120 89 24 40
        e 0 89 2b 40
        e 0 99 27 78
        e 120 89 27 40
        e 0 99 2b 78
        e 120 89 2b 40
        e 0 99 24 78
        e 0 99 2b 78
        e 120 89 24 40
        e 0 89 2b 40
        e 0 99 24 78
        e 0 99 2b 78
        e 120 89 24 40
        e 0 89 2b 40
        e 0 99 2b 78
        e 120 89 2b 40
        e 0 99 24 78
        e 120 89 24 40
        e 0 99 2b 78
        e 120 89 2b 40
        e 0 99 24 78
        e 120 89 24 40
        e 0 99 27 78
        e 120 89 27 40
        e 0 99 2b 78
        e 120 89 2b 40
        e 0 99 24 78
        e 0 99 2b 78
        e 120 89 24 40
        e 0 89 2b 40
        e 0 99 24 78
        e 0 99 2b 78
        e 120 89 24 40
        e 0 89 2b 40
        e 0 99 24 78
        e 0 99 2b 78
        e 120 89 24 40
        e 0 89 2b 40
        e 0 99 24 78
        e 0 99 2b 78
        e 120 89 24 40
        e 0 89 2b 40
        e 0 99 24 78
        e 0 99 2b 78
        e 120 89 24 40
        e 0 89 2b 40
        e 0 99 24 78
        e 0 99 2b 78
        e 120 89 24 40
        e 0 89 2b 40
        e 0 99 27 78
        e 120 89 27 40
        e 0 99 2b 78
        e 120 89 2b 40
        e 0 99 24 78
        e 0 99 2b 78
        e 120 89 24 40
        e 0 89 2b 40
        e 0 99 24 78
        e 0 99 2b 78
        e 120 89 24 40
        e 0 89 2b 40
        e 0 99 2b 78
        e 120 89 2b 40
        e 0 99 24 78
        e 120 89 24 40
        e 0 99 2b 78
        e 120 89 2b 40
        e 0 99 24 78
        e 120 89 24 40
        e 0 99 24 78
        e 120 89 24 40
        e 0 99 27 78
        e 0 99 2b 78
        e 120 89 27 40
        e 0 89 2b 40
        e 0 99 27 78
        e 0 99 2b 78
        e 120 89 27 40
        e 0 89 2b 40
        e 0 99 27 78
        e 0 99 2b 78
        e 120 89 27 40
        e 0 89 2b 40
        e 0 99 24 78
        e 0 99 2b 78
        e 120 89 24 40
        e 0 89 2b 40
        e 0 99 24 78
        e 0 99 2b 78
        e 120 89 24 40
        e 0 89 2b 40
        e 0 99 24 78
        e 0 99 2b 78
        e 120 89 24 40
        e 0 89 2b 40
        e 0 99 24 78
        e 0 99 2b 78
        e 120 89 24 40
        e 0 89 2b 40
        e 0 99 27 78
        e 120 89 27 40
        e 0 99 2b 78
        e 120 89 2b 40
        e 0 99 24 78
        e 0 99 2b 78
        e 120 89 24 40
        e 0 89 2b 40
        e 0 99 24 78
        e 0 99 2b 78
        e 120 89 24 40
        e 0 89 2b 40
        e 0 99 2b 78
        e 120 89 2b 40
        e 0 99 24 78
        e 120 89 24 40
        e 0 99 2b 78
        e 120 89 2b 40
        e 0 99 24 78
        e 120 89 24 40
        e 0 99 27 78
        e 120 89 27 40
        e 0 99 2b 78
        e 120 89 2b 40
        e 0 99 24 78
        e 0 99 2b 78
        e 120 89 24 40
        e 0 89 2b 40
        e 0 99 24 78
        e 0 99 2b 78
        e 120 89 24 40
        e 0 89 2b 40
        e 0 99 24 78
        e 0 99 2b 78
        e 120 89 24 40
        e 0 89 2b 40
        e 0 99 24 78
        e 0 99 2b 78
        e 120 89 24 40
        e 0 89 2b 40
        e 0 99 24 78
        e 0 99 2b 78
        e 120 89 24 40
        e 0 89 2b 40
        e 0 99 24 78
        e 0 99 2b 78
        e 120 89 24 40
        e 0 89 2b 40
        e 0 99 27 78
        e 120 89 27 40
        e 0 99 2b 78
        e 120 89 2b 40
        e 0 99 24 78
        e 0 99 2b 78
        e 120 89 24 40
        e 0 89 2b 40
        e 0 99 24 78
        e 0 99 2b 78
        e 120 89 24 40
        e 0 89 2b 40
        e 0 99 2b 78
        e 120 89 2b 40
        e 0 99 24 78
        e 120 89 24 40
        e 0 99 2b 78
        e 120 89 2b 40
        e 0 99 24 78
        e 120 89 24 40
        e 0 99 27 78
        e 120 89 27 40
        e 0 99 2b 78
        e 120 89 2b 40
        e 0 99 24 78
        e 0 99 2b 78
        e 120 89 24 40
        e 0 89 2b 40
        e 0 99 24 78
        e 0 99 2b 78
        e 120 89 24 40
        e 0 89 2b 40
        e 0 99 24 78
        e 0 99 2b 78
        e 120 89 24 40
        e 0 89 2b 40
        e 0 99 24 78
        e 0 99 2b 78
        e 120 89 24 40
        e 0 89 2b 40
        e 0 99 24 78
        e 0 99 2b 78
        e 120 89 24 40
        e 0 89 2b 40
        e 0 99 24 78
        e 0 99 2b 78
        e 120 89 24 40
        e 0 89 2b 40
        e 0 99 27 78
        e 120 89 27 40
        e 0 99 2b 78
        e 120 89 2b 40
        e 0 99 24 78
        e 0 99 2b 78
        e 120 89 24 40
        e 0 89 2b 40
        e 0 99 24 78
        e 0 99 2b 78
        e 120 89 24 40
        e 0 89 2b 40
        e 0 99 2b 78
        e 120 89 2b 40
        e 0 99 24 78
        e 120 89 24 40
        e 0 99 2b 78
        e 120 89 2b 40
        e 0 99 24 78
        e 120 89 24 40
        e 0 99 27 78
        e 120 89 27 40
        e 0 99 2b 78
        e 120 89 2b 40
        e 0 99 24 78
        e 0 99 2b 78
        e 120 89 24 40
        e 0 89 2b 40
        e 0 99 24 78
        e 0 99 2b 78
        e 120 89 24 40
        e 0 89 2b 40
        e 0 99 27 78
        e 0 99 2b 78
        e 120 89 27 40
        e 0 89 2b 40
        e 0 99 27 78
        e 0 99 2b 78
        e 120 89 27 40
        e 0 89 2b 40
        e 0 99 27 78
        e 0 99 2b 78
        e 120 89 27 40
        e 0 89 2b 40
        e 0 99 2b 78
        e 120 89 2b 40
        e 0 99 27 78
        e 0 99 2b 78
        e 120 89 27 40
        e 0 89 2b 40
        e 0 99 27 78
        e 0 99 2b 78
        e 120 89 27 40
        e 0 89 2b 40
        e 120 99 27 78
        e 0 99 2b 78
        e 120 89 27 40
        e 0 89 2b 40
        e 0 99 27 78
        e 120 89 27 40
        e 0 99 2b 78
        e 120 89 2b 40
        e 120 99 2b 78
        e 120 89 2b 40
        e 0 99 27 78
        e 120 89 27 40
        e 0 99 2b 78
        e 120 89 2b 40
        e 120 99 2b 78
        e 120 89 2b 40
        e 0 99 24 78
        e 0 99 2b 78
        e 120 89 24 40
        e 0 89 2b 40
        e 0 99 24 78
        e 0 99 2b 78
        e 120 89 24 40
        e 0 89 2b 40
        e 0 99 24 78
        e 0 99 2b 78
        e 120 89 24 40
        e 0 89 2b 40
        e 0 99 24 78
        e 0 99 2b 78
        e 120 89 24 40
        e 0 89 2b 40
        e 0 99 27 78
        e 120 89 27 40
        e 0 99 2b 78
        e 120 89 2b 40
        e 0 99 24 78
        e 0 99 2b 78
        e 120 89 24 40
        e 0 89 2b 40
        e 0 99 24 78
        e 0 99 2b 78
        e 120 89 24 40
        e 0 89 2b 40
        e 0 99 24 78
        e 0 99 2b 78
        e 120 89 24 40
        e 0 89 2b 40
        e 0 99 24 78
        e 120 89 24 40
        e 0 99 2b 78
        e 120 89 2b 40
        e 0 99 24 78
        e 120 89 24 40
        e 0 99 27 78
        e 120 89 27 40
        e 0 99 2b 78
        e 120 89 2b 40
        e 120 99 24 78
        e 0 99 2b 78
        e 120 89 24 40
        e 0 89 2b 40
        e 0 99 24 78
        e 0 99 2b 78
        e 120 89 24 40
        e 0 89 2b 40
        e 0 99 24 78
        e 0 99 2b 78
        e 120 89 24 40
        e 0 89 2b 40
        e 0 99 24 78
        e 0 99 2b 78
        e 120 89 24 40
        e 0 89 2b 40
        e 0 99 24 78
        e 0 99 2b 78
        e 120 89 24 40
        e 0 89 2b 40
        e 0 99 27 78
        e 120 89 27 40
        e 0 99 2b 78
        e 120 89 2b 40
        e 0 99 24 78
        e 0 99 2b 78
        e 120 89 24 40
        e 0 89 2b 40
        e 0 99 24 78
        e 0 99 2b 78
        e 120 89 24 40
        e 0 89 2b 40
        e 0 99 24 78
        e 0 99 2b 78
        e 120 89 24 40
        e 0 89 2b 40
        e 0 99 24 78
        e 120 89 24 40
        e 0 99 2b 78
        e 120 89 2b 40
        e 0 99 24 78
        e 120 89 24 40
        e 0 99 27 78
        e 120 89 27 40
        e 0 99 2b 78
        e 120 89 2b 40
        e 120 99 24 78
        e 0 99 2b 78
        e 120 89 24 40
        e 0 89 2b 40
        e 0 99 24 78
        e 0 99 2b 78
        e 120 89 24 40
        e 0 89 2b 40
        e 0 99 24 78
        e 0 99 2b 78
        e 120 89 24 40
        e 0 89 2b 40
        e 0 99 24 78
        e 0 99 2b 78
        e 120 89 24 40
        e 0 89 2b 40
        e 0 99 24 78
        e 0 99 2b 78
        e 120 89 24 40
        e 0 89 2b 40
        e 0 99 27 78
        e 120 89 27 40
        e 0 99 2b 78
        e 120 89 2b 40
        e 0 99 24 78
        e 0 99 2b 78
        e 120 89 24 40
        e 0 89 2b 40
        e 0 99 24 78
        e 0 99 2b 78
        e 120 89 24 40
        e 0 89 2b 40
        e 0 99 24 78
        e 0 99 2b 78
        e 120 89 24 40
        e 0 89 2b 40
        e 0 99 24 78
        e 120 89 24 40
        e 0 99 2b 78
        e 120 89 2b 40
        e 0 99 24 78
        e 120 89 24 40
        e 0 99 27 78
        e 120 89 27 40
        e 0 99 2b 78
        e 120 89 2b 40
        e 120 99 24 78
        e 0 99 2b 78
        e 120 89 24 40
        e 0 89 2b 40
        e 0 99 24 78
        e 0 99 2b 78
        e 120 89 24 40
        e 0 89 2b 40
        e 0 99 24 78
        e 0 99 2b 78
        e 120 89 24 40
        e 0 89 2b 40
        e 0 99 24 78
        e 0 99 2b 78
        e 120 89 24 40
        e 0 89 2b 40
        e 0 99 24 78
        e 0 99 2b 78
        e 120 89 24 40
        e 0 89 2b 40
        e 0 99 27 78
        e 120 89 27 40
        e 0 99 2b 78
        e 120 89 2b 40
        e 0 99 27 78
        e 0 99 2b 78
        e 120 89 27 40
        e 0 89 2b 40
        e 0 99 27 78
        e 0 99 2b 78
        e 120 89 27 40
        e 0 89 2b 40
        e 0 99 27 78
        e 0 99 2b 78
        e 120 89 27 40
        e 0 89 2b 40
        e 0 99 27 78
        e 120 89 27 40
        e 0 99 27 78
        e 0 99 2b 78
        e 120 89 27 40
        e 0 89 2b 40
        e 0 99 27 78
        e 120 89 27 40
        e 120 99 27 78
        e 0 99 2b 78
        e 120 89 27 40
        e 0 89 2b 40
        e 0 99 2b 78
        e 120 89 2b 40
        e 0 99 24 78
        e 0 99 2b 78
        e 120 89 24 40
        e 0 89 2b 40
        e 0 99 24 78
        e 0 99 2b 78
        e 120 89 24 40
        e 0 89 2b 40
        e 0 99 24 78
        e 0 99 2b 78
        e 120 89 24 40
        e 0 89 2b 40
        e 0 99 24 78
        e 0 99 2b 78
        e 120 89 24 40
        e 0 89 2b 40
        e 0 99 24 78
        e 0 99 2b 78
        e 120 89 24 40
        e 0 89 2b 40
        e 0 99 27 78
        e 120 89 27 40
        e 0 99 2b 78
        e 120 89 2b 40
        e 0 99 24 78
        e 0 99 2b 78
        e 120 89 24 40
        e 0 89 2b 40
        e 0 99 24 78
        e 0 99 2b 78
        e 120 89 24 40
        e 0 89 2b 40
        e 0 99 24 78
        e 0 99 2b 78
        e 120 89 24 40
        e 0 89 2b 40
        e 0 99 24 78
        e 120 89 24 40
        e 0 99 2b 78
        e 120 89 2b 40
        e 0 99 24 78
        e 120 89 24 40
        e 0 99 27 78
        e 120 89 27 40
        e 0 99 2b 78
        e 120 89 2b 40
        e 120 99 24 78
        e 0 99 2b 78
        e 120 89 24 40
        e 0 89 2b 40
        e 0 99 24 78
        e 0 99 2b 78
        e 120 89 24 40
        e 0 89 2b 40
        e 0 99 24 78
        e 0 99 2b 78
        e 120 89 24 40
        e 0 89 2b 40
        e 0 99 24 78
        e 0 99 2b 78
        e 120 89 24 40
        e 0 89 2b 40
        e 0 99 24 78
        e 0 99 2b 78
        e 120 89 24 40
        e 0 89 2b 40
        e 0 99 27 78
        e 120 89 27 40
        e 0 99 2b 78
        e 120 89 2b 40
        e 0 99 24 78
        e 0 99 2b 78
        e 120 89 24 40
        e 0 89 2b 40
        e 0 99 24 78
        e 0 99 2b 78
        e 120 89 24 40
        e 0 89 2b 40
        e 0 99 24 78
        e 0 99 2b 78
        e 120 89 24 40
        e 0 89 2b 40
        e 0 99 24 78
        e 120 89 24 40
        e 0 99 2b 78
        e 120 89 2b 40
        e 0 99 24 78
        e 120 89 24 40
        e 0 99 27 78
        e 120 89 27 40
        e 0 99 2b 78
        e 120 89 2b 40
        e 120 99 24 78
        e 0 99 2b 78
        e 120 89 24 40
        e 0 89 2b 40
        e 0 99 24 78
        e 0 99 2b 78
        e 120 89 24 40
        e 0 89 2b 40
        e 0 99 24 78
        e 0 99 2b 78
        e 120 89 24 40
        e 0 89 2b 40
        e 0 99 24 78
        e 0 99 2b 78
        e 120 89 24 40
        e 0 89 2b 40
        e 0 99 24 78
        e 0 99 2b 78
        e 120 89 24 40
        e 0 89 2b 40
        e 0 99 27 78
        e 120 89 27 40
        e 0 99 2b 78
        e 120 89 2b 40
        e 0 99 24 78
        e 0 99 2b 78
        e 120 89 24 40
        e 0 89 2b 40
        e 0 99 24 78
        e 0 99 2b 78
        e 120 89 24 40
        e 0 89 2b 40
        e 0 99 24 78
        e 0 99 2b 78
        e 120 89 24 40
        e 0 89 2b 40
        e 0 99 24 78
        e 120 89 24 40
        e 0 99 2b 78
        e 120 89 2b 40
        e 0 99 24 78
        e 120 89 24 40
        e 0 99 27 78
        e 120 89 27 40
        e 0 99 2b 78
        e 120 89 2b 40
        e 120 99 24 78
        e 0 99 2b 78
        e 120 89 24 40
        e 0 89 2b 40
        e 0 99 27 78
        e 0 99 2b 78
        e 120 89 27 40
        e 0 89 2b 40
        e 0 99 27 78
        e 0 99 2b 78
        e 120 89 27 40
        e 0 89 2b 40
        e 0 99 27 78
        e 0 99 2b 78
        e 120 89 27 40
        e 0 89 2b 40
        e 0 99 27 78
        e 0 99 2b 78
        e 120 89 27 40
        e 0 89 2b 40
        e 120 99 2b 78
        e 120 89 2b 40
        e 0 99 27 78
        e 0 99 2b 78
        e 120 89 27 40
        e 0 89 2b 40
        e 0 99 27 78
        e 0 99 2b 78
        e 120 89 27 40
        e 0 89 2b 40
        e 0 99 27 78
        e 0 99 2b 78
        e 120 89 27 40
        e 0 89 2b 40
        e 0 99 27 78
        e 0 99 2b 78
        e 120 89 27 40
        e 0 89 2b 40
        e 720 99 24 78
        e 0 99 2b 78
        e 120 89 24 40
        e 0 89 2b 40
        e 360 99 24 78
        e 0 99 2b 78
        e 120 89 24 40
        e 0 89 2b 40
        e 360 99 24 78
        e 0 99 2b 78
        e 120 89 24 40
        e 0 89 2b 40
        e 360 99 24 78
        e 0 99 2b 78
        e 120 89 24 40
        e 0 89 2b 40
        e 360 99 24 78
        e 0 99 2b 78
        e 120 89 24 40
        e 0 89 2b 40
        e 360 99 24 78
        e 0 99 2b 78
        e 120 89 24 40
        e 0 89 2b 40
        e 360 99 24 78
        e 0 99 2b 78
        e 120 89 24 40
        e 0 89 2b 40
        e 0 99 27 78
        e 0 99 2b 78
        e 120 89 27 40
        e 0 89 2b 40
        e 0 99 2b 78
        e 120 89 2b 40
        e 0 99 27 78
        e 0 99 2b 78
        e 120 89 27 40
        e 0 89 2b 40
        e 0 99 2b 78
        e 120 89 2b 40
        e 0 99 27 78
        e 0 99 2b 78
        e 120 89 27 40
        e 0 89 2b 40
        e 0 99 2b 78
        e 120 89 2b 40
        e 0 99 24 78
        e 0 99 2b 78
        e 120 89 24 00
        e 0 89 2b 00
        E 0 b0 7b 00
        GUID {C4B7E26C-B2CA-4D8F-8AF2-BCDCE87B36B4}
        IGNTEMPO 0 120 4 4
        SRCCOLOR 29
        VELLANE 167 99 0
        CFGEDITVIEW 10383.986172 0.098861 78 12 0 -1 0 0 0 0.5
        KEYSNAP 0
        TRACKSEL 0
        EVTFILTER 0 -1 -1 -1 -1 0 0 0 0 -1 -1 -1 -1 0 -1 0 -1 -1
        CFGEDIT 1 1 0 1 0 0 1 1 1 1 1 0.0625 86 117 1562 1023 0 0 0 0 0 0 0 0 0 0.5 0 0 1 64
      >
    >
  >
>
